ISO-10303-21;
HEADER;
/* Generated by software containing ST-Developer
 * from STEP Tools, Inc. (www.steptools.com) 
 */
/* OPTION: using custom renumber hook */

FILE_DESCRIPTION(
/* description */ ('STEP AP242 Edition 2',
'CAx-IF Rec.Pracs.---Representation and Presentation of Product Manufa
cturing Information (PMI)---4.0---2014-10-13',
'CAx-IF Rec.Pracs.---3D Tessellated Geometry---0.4---2014-09-14','2;1',
'CAx-IF Rec.Pracs.---User Defined Attributes---1.5---2016-08-15'),
/* implementation_level */ '2;1');

FILE_NAME(
/* name */ 'pcb_cover_mounts',
/* time_stamp */ '2026-05-20T15:41:35Z',
/* author */ (''),
/* organization */ (''),
/* preprocessor_version */ 'ST-DEVELOPER v20',
/* originating_system */ 'ONSHAPE BY PTC INC, 1.215',
/* authorisation */ '  ');

FILE_SCHEMA (('AP242_MANAGED_MODEL_BASED_3D_ENGINEERING_MIM_LF { 1 0 10303 442 3 1 4 }'));
ENDSEC;

DATA;
#10=SHAPE_REPRESENTATION_RELATIONSHIP('','',#749,#11);
#11=ADVANCED_BREP_SHAPE_REPRESENTATION('',(#747),#1251);
#12=CYLINDRICAL_SURFACE('',#774,0.00235);
#13=CYLINDRICAL_SURFACE('',#778,0.00235);
#14=CYLINDRICAL_SURFACE('',#782,0.00235);
#15=CYLINDRICAL_SURFACE('',#796,0.001);
#16=CYLINDRICAL_SURFACE('',#799,0.001);
#17=CYLINDRICAL_SURFACE('',#801,0.001);
#18=CYLINDRICAL_SURFACE('',#803,0.001);
#19=CYLINDRICAL_SURFACE('',#805,0.001);
#20=CYLINDRICAL_SURFACE('',#807,0.001);
#21=CYLINDRICAL_SURFACE('',#809,0.001);
#22=CYLINDRICAL_SURFACE('',#811,0.001);
#23=CYLINDRICAL_SURFACE('',#812,0.001);
#24=CYLINDRICAL_SURFACE('',#813,0.001);
#25=CYLINDRICAL_SURFACE('',#814,0.001);
#26=CYLINDRICAL_SURFACE('',#815,0.0017);
#27=CYLINDRICAL_SURFACE('',#818,0.0017);
#28=CYLINDRICAL_SURFACE('',#821,0.0017);
#29=CIRCLE('',#757,0.00235);
#30=CIRCLE('',#759,0.00235);
#31=CIRCLE('',#773,0.00235);
#32=CIRCLE('',#775,0.00235);
#33=CIRCLE('',#777,0.0017);
#34=CIRCLE('',#779,0.00235);
#35=CIRCLE('',#781,0.0017);
#36=CIRCLE('',#783,0.00235);
#37=CIRCLE('',#785,0.0017);
#38=CIRCLE('',#791,0.001);
#39=CIRCLE('',#792,0.001);
#40=CIRCLE('',#794,0.001);
#41=CIRCLE('',#795,0.001);
#42=CIRCLE('',#816,0.0017);
#43=CIRCLE('',#819,0.0017);
#44=CIRCLE('',#822,0.0017);
#45=ELLIPSE('',#752,0.00108239284160892,0.001);
#46=ELLIPSE('',#753,0.00108239284160892,0.001);
#47=ELLIPSE('',#762,0.00133876832610532,0.001);
#48=ELLIPSE('',#763,0.00133876832610532,0.001);
#49=ELLIPSE('',#767,0.00111097309398446,0.001);
#50=ELLIPSE('',#768,0.00111097309398446,0.001);
#51=ELLIPSE('',#797,0.00141421356237309,0.001);
#52=ELLIPSE('',#798,0.00261311690579923,0.001);
#53=ELLIPSE('',#800,0.0014142135623731,0.001);
#54=ELLIPSE('',#802,0.00179995437291681,0.001);
#55=ELLIPSE('',#804,0.00261311690579923,0.001);
#56=ELLIPSE('',#806,0.00141421356237309,0.001);
#57=ELLIPSE('',#808,0.00179995437291681,0.001);
#58=ELLIPSE('',#810,0.00141421356237309,0.001);
#59=ORIENTED_EDGE('',*,*,#255,.F.);
#60=ORIENTED_EDGE('',*,*,#256,.T.);
#61=ORIENTED_EDGE('',*,*,#257,.T.);
#62=ORIENTED_EDGE('',*,*,#258,.T.);
#63=ORIENTED_EDGE('',*,*,#259,.F.);
#64=ORIENTED_EDGE('',*,*,#260,.F.);
#65=ORIENTED_EDGE('',*,*,#261,.T.);
#66=ORIENTED_EDGE('',*,*,#262,.F.);
#67=ORIENTED_EDGE('',*,*,#263,.F.);
#68=ORIENTED_EDGE('',*,*,#264,.T.);
#69=ORIENTED_EDGE('',*,*,#265,.T.);
#70=ORIENTED_EDGE('',*,*,#266,.F.);
#71=ORIENTED_EDGE('',*,*,#267,.T.);
#72=ORIENTED_EDGE('',*,*,#268,.T.);
#73=ORIENTED_EDGE('',*,*,#269,.T.);
#74=ORIENTED_EDGE('',*,*,#270,.T.);
#75=ORIENTED_EDGE('',*,*,#271,.T.);
#76=ORIENTED_EDGE('',*,*,#272,.T.);
#77=ORIENTED_EDGE('',*,*,#273,.T.);
#78=ORIENTED_EDGE('',*,*,#274,.T.);
#79=ORIENTED_EDGE('',*,*,#267,.F.);
#80=ORIENTED_EDGE('',*,*,#275,.F.);
#81=ORIENTED_EDGE('',*,*,#276,.T.);
#82=ORIENTED_EDGE('',*,*,#277,.T.);
#83=ORIENTED_EDGE('',*,*,#278,.F.);
#84=ORIENTED_EDGE('',*,*,#279,.F.);
#85=ORIENTED_EDGE('',*,*,#273,.F.);
#86=ORIENTED_EDGE('',*,*,#280,.T.);
#87=ORIENTED_EDGE('',*,*,#255,.T.);
#88=ORIENTED_EDGE('',*,*,#281,.T.);
#89=ORIENTED_EDGE('',*,*,#282,.F.);
#90=ORIENTED_EDGE('',*,*,#283,.T.);
#91=ORIENTED_EDGE('',*,*,#284,.T.);
#92=ORIENTED_EDGE('',*,*,#285,.F.);
#93=ORIENTED_EDGE('',*,*,#286,.F.);
#94=ORIENTED_EDGE('',*,*,#287,.T.);
#95=ORIENTED_EDGE('',*,*,#277,.F.);
#96=ORIENTED_EDGE('',*,*,#288,.F.);
#97=ORIENTED_EDGE('',*,*,#289,.F.);
#98=ORIENTED_EDGE('',*,*,#290,.T.);
#99=ORIENTED_EDGE('',*,*,#283,.F.);
#100=ORIENTED_EDGE('',*,*,#291,.F.);
#101=ORIENTED_EDGE('',*,*,#292,.T.);
#102=ORIENTED_EDGE('',*,*,#278,.T.);
#103=ORIENTED_EDGE('',*,*,#287,.F.);
#104=ORIENTED_EDGE('',*,*,#293,.F.);
#105=ORIENTED_EDGE('',*,*,#284,.F.);
#106=ORIENTED_EDGE('',*,*,#290,.F.);
#107=ORIENTED_EDGE('',*,*,#294,.T.);
#108=ORIENTED_EDGE('',*,*,#295,.T.);
#109=ORIENTED_EDGE('',*,*,#296,.F.);
#110=ORIENTED_EDGE('',*,*,#297,.T.);
#111=ORIENTED_EDGE('',*,*,#298,.T.);
#112=ORIENTED_EDGE('',*,*,#299,.T.);
#113=ORIENTED_EDGE('',*,*,#300,.T.);
#114=ORIENTED_EDGE('',*,*,#301,.T.);
#115=ORIENTED_EDGE('',*,*,#262,.T.);
#116=ORIENTED_EDGE('',*,*,#302,.T.);
#117=ORIENTED_EDGE('',*,*,#298,.F.);
#118=ORIENTED_EDGE('',*,*,#303,.T.);
#119=ORIENTED_EDGE('',*,*,#304,.T.);
#120=ORIENTED_EDGE('',*,*,#305,.T.);
#121=ORIENTED_EDGE('',*,*,#264,.F.);
#122=ORIENTED_EDGE('',*,*,#306,.T.);
#123=ORIENTED_EDGE('',*,*,#286,.T.);
#124=ORIENTED_EDGE('',*,*,#276,.F.);
#125=ORIENTED_EDGE('',*,*,#307,.F.);
#126=ORIENTED_EDGE('',*,*,#308,.T.);
#127=ORIENTED_EDGE('',*,*,#304,.F.);
#128=ORIENTED_EDGE('',*,*,#309,.F.);
#129=ORIENTED_EDGE('',*,*,#310,.T.);
#130=ORIENTED_EDGE('',*,*,#311,.T.);
#131=ORIENTED_EDGE('',*,*,#312,.F.);
#132=ORIENTED_EDGE('',*,*,#293,.T.);
#133=ORIENTED_EDGE('',*,*,#259,.T.);
#134=ORIENTED_EDGE('',*,*,#313,.T.);
#135=ORIENTED_EDGE('',*,*,#269,.F.);
#136=ORIENTED_EDGE('',*,*,#314,.F.);
#137=ORIENTED_EDGE('',*,*,#291,.T.);
#138=ORIENTED_EDGE('',*,*,#285,.T.);
#139=ORIENTED_EDGE('',*,*,#301,.F.);
#140=ORIENTED_EDGE('',*,*,#315,.F.);
#141=ORIENTED_EDGE('',*,*,#296,.T.);
#142=ORIENTED_EDGE('',*,*,#316,.T.);
#143=ORIENTED_EDGE('',*,*,#310,.F.);
#144=ORIENTED_EDGE('',*,*,#317,.T.);
#145=ORIENTED_EDGE('',*,*,#279,.T.);
#146=ORIENTED_EDGE('',*,*,#292,.F.);
#147=ORIENTED_EDGE('',*,*,#314,.T.);
#148=ORIENTED_EDGE('',*,*,#297,.F.);
#149=ORIENTED_EDGE('',*,*,#317,.F.);
#150=ORIENTED_EDGE('',*,*,#309,.T.);
#151=ORIENTED_EDGE('',*,*,#306,.F.);
#152=ORIENTED_EDGE('',*,*,#263,.T.);
#153=ORIENTED_EDGE('',*,*,#303,.F.);
#154=ORIENTED_EDGE('',*,*,#281,.F.);
#155=ORIENTED_EDGE('',*,*,#268,.F.);
#156=ORIENTED_EDGE('',*,*,#274,.F.);
#157=ORIENTED_EDGE('',*,*,#318,.F.);
#158=ORIENTED_EDGE('',*,*,#319,.F.);
#159=ORIENTED_EDGE('',*,*,#318,.T.);
#160=ORIENTED_EDGE('',*,*,#320,.F.);
#161=ORIENTED_EDGE('',*,*,#319,.T.);
#162=ORIENTED_EDGE('',*,*,#321,.F.);
#163=ORIENTED_EDGE('',*,*,#282,.T.);
#164=ORIENTED_EDGE('',*,*,#322,.F.);
#165=ORIENTED_EDGE('',*,*,#321,.T.);
#166=ORIENTED_EDGE('',*,*,#323,.F.);
#167=ORIENTED_EDGE('',*,*,#288,.T.);
#168=ORIENTED_EDGE('',*,*,#324,.F.);
#169=ORIENTED_EDGE('',*,*,#323,.T.);
#170=ORIENTED_EDGE('',*,*,#312,.T.);
#171=ORIENTED_EDGE('',*,*,#325,.T.);
#172=ORIENTED_EDGE('',*,*,#294,.F.);
#173=ORIENTED_EDGE('',*,*,#289,.T.);
#174=ORIENTED_EDGE('',*,*,#300,.F.);
#175=ORIENTED_EDGE('',*,*,#326,.T.);
#176=ORIENTED_EDGE('',*,*,#260,.T.);
#177=ORIENTED_EDGE('',*,*,#315,.T.);
#178=ORIENTED_EDGE('',*,*,#266,.T.);
#179=ORIENTED_EDGE('',*,*,#327,.T.);
#180=ORIENTED_EDGE('',*,*,#307,.T.);
#181=ORIENTED_EDGE('',*,*,#275,.T.);
#182=ORIENTED_EDGE('',*,*,#328,.F.);
#183=ORIENTED_EDGE('',*,*,#329,.T.);
#184=ORIENTED_EDGE('',*,*,#330,.T.);
#185=ORIENTED_EDGE('',*,*,#331,.T.);
#186=ORIENTED_EDGE('',*,*,#332,.T.);
#187=ORIENTED_EDGE('',*,*,#333,.T.);
#188=ORIENTED_EDGE('',*,*,#334,.T.);
#189=ORIENTED_EDGE('',*,*,#328,.T.);
#190=ORIENTED_EDGE('',*,*,#335,.T.);
#191=ORIENTED_EDGE('',*,*,#336,.T.);
#192=ORIENTED_EDGE('',*,*,#330,.F.);
#193=ORIENTED_EDGE('',*,*,#337,.T.);
#194=ORIENTED_EDGE('',*,*,#338,.T.);
#195=ORIENTED_EDGE('',*,*,#339,.T.);
#196=ORIENTED_EDGE('',*,*,#340,.T.);
#197=ORIENTED_EDGE('',*,*,#341,.T.);
#198=ORIENTED_EDGE('',*,*,#336,.F.);
#199=ORIENTED_EDGE('',*,*,#342,.F.);
#200=ORIENTED_EDGE('',*,*,#270,.F.);
#201=ORIENTED_EDGE('',*,*,#343,.F.);
#202=ORIENTED_EDGE('',*,*,#331,.F.);
#203=ORIENTED_EDGE('',*,*,#341,.F.);
#204=ORIENTED_EDGE('',*,*,#344,.F.);
#205=ORIENTED_EDGE('',*,*,#271,.F.);
#206=ORIENTED_EDGE('',*,*,#342,.T.);
#207=ORIENTED_EDGE('',*,*,#335,.F.);
#208=ORIENTED_EDGE('',*,*,#343,.T.);
#209=ORIENTED_EDGE('',*,*,#313,.F.);
#210=ORIENTED_EDGE('',*,*,#345,.F.);
#211=ORIENTED_EDGE('',*,*,#332,.F.);
#212=ORIENTED_EDGE('',*,*,#344,.T.);
#213=ORIENTED_EDGE('',*,*,#340,.F.);
#214=ORIENTED_EDGE('',*,*,#346,.F.);
#215=ORIENTED_EDGE('',*,*,#272,.F.);
#216=ORIENTED_EDGE('',*,*,#345,.T.);
#217=ORIENTED_EDGE('',*,*,#258,.F.);
#218=ORIENTED_EDGE('',*,*,#347,.F.);
#219=ORIENTED_EDGE('',*,*,#333,.F.);
#220=ORIENTED_EDGE('',*,*,#346,.T.);
#221=ORIENTED_EDGE('',*,*,#339,.F.);
#222=ORIENTED_EDGE('',*,*,#348,.F.);
#223=ORIENTED_EDGE('',*,*,#280,.F.);
#224=ORIENTED_EDGE('',*,*,#347,.T.);
#225=ORIENTED_EDGE('',*,*,#257,.F.);
#226=ORIENTED_EDGE('',*,*,#349,.F.);
#227=ORIENTED_EDGE('',*,*,#337,.F.);
#228=ORIENTED_EDGE('',*,*,#329,.F.);
#229=ORIENTED_EDGE('',*,*,#334,.F.);
#230=ORIENTED_EDGE('',*,*,#348,.T.);
#231=ORIENTED_EDGE('',*,*,#338,.F.);
#232=ORIENTED_EDGE('',*,*,#349,.T.);
#233=ORIENTED_EDGE('',*,*,#256,.F.);
#234=ORIENTED_EDGE('',*,*,#265,.F.);
#235=ORIENTED_EDGE('',*,*,#305,.F.);
#236=ORIENTED_EDGE('',*,*,#308,.F.);
#237=ORIENTED_EDGE('',*,*,#327,.F.);
#238=ORIENTED_EDGE('',*,*,#311,.F.);
#239=ORIENTED_EDGE('',*,*,#316,.F.);
#240=ORIENTED_EDGE('',*,*,#295,.F.);
#241=ORIENTED_EDGE('',*,*,#325,.F.);
#242=ORIENTED_EDGE('',*,*,#299,.F.);
#243=ORIENTED_EDGE('',*,*,#302,.F.);
#244=ORIENTED_EDGE('',*,*,#261,.F.);
#245=ORIENTED_EDGE('',*,*,#326,.F.);
#246=ORIENTED_EDGE('',*,*,#324,.T.);
#247=ORIENTED_EDGE('',*,*,#350,.F.);
#248=ORIENTED_EDGE('',*,*,#350,.T.);
#249=ORIENTED_EDGE('',*,*,#322,.T.);
#250=ORIENTED_EDGE('',*,*,#351,.F.);
#251=ORIENTED_EDGE('',*,*,#351,.T.);
#252=ORIENTED_EDGE('',*,*,#320,.T.);
#253=ORIENTED_EDGE('',*,*,#352,.F.);
#254=ORIENTED_EDGE('',*,*,#352,.T.);
#255=EDGE_CURVE('',#353,#354,#421,.T.);
#256=EDGE_CURVE('',#353,#355,#422,.T.);
#257=EDGE_CURVE('',#355,#356,#423,.F.);
#258=EDGE_CURVE('',#356,#357,#424,.F.);
#259=EDGE_CURVE('',#358,#357,#425,.T.);
#260=EDGE_CURVE('',#359,#358,#426,.T.);
#261=EDGE_CURVE('',#359,#360,#45,.T.);
#262=EDGE_CURVE('',#361,#360,#427,.T.);
#263=EDGE_CURVE('',#362,#361,#428,.T.);
#264=EDGE_CURVE('',#362,#363,#429,.T.);
#265=EDGE_CURVE('',#363,#364,#46,.T.);
#266=EDGE_CURVE('',#365,#364,#430,.T.);
#267=EDGE_CURVE('',#365,#366,#431,.T.);
#268=EDGE_CURVE('',#366,#354,#432,.T.);
#269=EDGE_CURVE('',#367,#368,#433,.T.);
#270=EDGE_CURVE('',#368,#369,#434,.F.);
#271=EDGE_CURVE('',#369,#370,#435,.F.);
#272=EDGE_CURVE('',#370,#371,#436,.T.);
#273=EDGE_CURVE('',#371,#372,#437,.T.);
#274=EDGE_CURVE('',#372,#366,#438,.T.);
#275=EDGE_CURVE('',#373,#365,#439,.T.);
#276=EDGE_CURVE('',#373,#374,#440,.T.);
#277=EDGE_CURVE('',#374,#375,#441,.T.);
#278=EDGE_CURVE('',#376,#375,#442,.T.);
#279=EDGE_CURVE('',#367,#376,#443,.T.);
#280=EDGE_CURVE('',#371,#353,#444,.F.);
#281=EDGE_CURVE('',#354,#372,#445,.T.);
#282=EDGE_CURVE('',#377,#377,#29,.T.);
#283=EDGE_CURVE('',#378,#379,#446,.T.);
#284=EDGE_CURVE('',#379,#380,#447,.T.);
#285=EDGE_CURVE('',#378,#380,#448,.T.);
#286=EDGE_CURVE('',#381,#374,#449,.T.);
#287=EDGE_CURVE('',#381,#375,#450,.T.);
#288=EDGE_CURVE('',#382,#382,#30,.T.);
#289=EDGE_CURVE('',#383,#384,#451,.T.);
#290=EDGE_CURVE('',#383,#379,#452,.T.);
#291=EDGE_CURVE('',#385,#378,#453,.T.);
#292=EDGE_CURVE('',#385,#376,#454,.T.);
#293=EDGE_CURVE('',#384,#381,#455,.T.);
#294=EDGE_CURVE('',#383,#386,#456,.T.);
#295=EDGE_CURVE('',#386,#387,#47,.F.);
#296=EDGE_CURVE('',#388,#387,#457,.T.);
#297=EDGE_CURVE('',#388,#389,#458,.T.);
#298=EDGE_CURVE('',#389,#390,#459,.T.);
#299=EDGE_CURVE('',#390,#391,#48,.F.);
#300=EDGE_CURVE('',#391,#392,#460,.T.);
#301=EDGE_CURVE('',#392,#380,#461,.T.);
#302=EDGE_CURVE('',#360,#390,#462,.F.);
#303=EDGE_CURVE('',#389,#361,#463,.T.);
#304=EDGE_CURVE('',#393,#394,#464,.T.);
#305=EDGE_CURVE('',#394,#363,#465,.F.);
#306=EDGE_CURVE('',#362,#393,#466,.T.);
#307=EDGE_CURVE('',#395,#373,#467,.T.);
#308=EDGE_CURVE('',#395,#394,#49,.T.);
#309=EDGE_CURVE('',#396,#393,#468,.T.);
#310=EDGE_CURVE('',#396,#397,#469,.T.);
#311=EDGE_CURVE('',#397,#398,#50,.T.);
#312=EDGE_CURVE('',#384,#398,#470,.T.);
#313=EDGE_CURVE('',#357,#368,#471,.T.);
#314=EDGE_CURVE('',#385,#367,#472,.T.);
#315=EDGE_CURVE('',#358,#392,#473,.T.);
#316=EDGE_CURVE('',#387,#397,#474,.F.);
#317=EDGE_CURVE('',#396,#388,#475,.T.);
#318=EDGE_CURVE('',#399,#399,#31,.T.);
#319=EDGE_CURVE('',#400,#400,#32,.T.);
#320=EDGE_CURVE('',#401,#401,#33,.T.);
#321=EDGE_CURVE('',#402,#402,#34,.T.);
#322=EDGE_CURVE('',#403,#403,#35,.T.);
#323=EDGE_CURVE('',#404,#404,#36,.T.);
#324=EDGE_CURVE('',#405,#405,#37,.T.);
#325=EDGE_CURVE('',#398,#386,#476,.T.);
#326=EDGE_CURVE('',#391,#359,#477,.T.);
#327=EDGE_CURVE('',#364,#395,#478,.T.);
#328=EDGE_CURVE('',#406,#407,#479,.T.);
#329=EDGE_CURVE('',#406,#408,#480,.T.);
#330=EDGE_CURVE('',#408,#409,#481,.T.);
#331=EDGE_CURVE('',#409,#407,#482,.T.);
#332=EDGE_CURVE('',#410,#411,#483,.F.);
#333=EDGE_CURVE('',#411,#412,#484,.T.);
#334=EDGE_CURVE('',#412,#406,#38,.F.);
#335=EDGE_CURVE('',#407,#413,#39,.F.);
#336=EDGE_CURVE('',#413,#410,#485,.T.);
#337=EDGE_CURVE('',#408,#414,#40,.T.);
#338=EDGE_CURVE('',#414,#415,#486,.F.);
#339=EDGE_CURVE('',#415,#416,#487,.T.);
#340=EDGE_CURVE('',#416,#417,#488,.F.);
#341=EDGE_CURVE('',#417,#409,#41,.T.);
#342=EDGE_CURVE('',#369,#413,#51,.T.);
#343=EDGE_CURVE('',#410,#368,#52,.T.);
#344=EDGE_CURVE('',#370,#417,#53,.T.);
#345=EDGE_CURVE('',#411,#357,#54,.T.);
#346=EDGE_CURVE('',#371,#416,#55,.F.);
#347=EDGE_CURVE('',#412,#356,#56,.F.);
#348=EDGE_CURVE('',#353,#415,#57,.F.);
#349=EDGE_CURVE('',#414,#355,#58,.F.);
#350=EDGE_CURVE('',#418,#418,#42,.T.);
#351=EDGE_CURVE('',#419,#419,#43,.T.);
#352=EDGE_CURVE('',#420,#420,#44,.T.);
#353=VERTEX_POINT('',#1043);
#354=VERTEX_POINT('',#1044);
#355=VERTEX_POINT('',#1046);
#356=VERTEX_POINT('',#1048);
#357=VERTEX_POINT('',#1050);
#358=VERTEX_POINT('',#1052);
#359=VERTEX_POINT('',#1054);
#360=VERTEX_POINT('',#1056);
#361=VERTEX_POINT('',#1058);
#362=VERTEX_POINT('',#1060);
#363=VERTEX_POINT('',#1062);
#364=VERTEX_POINT('',#1064);
#365=VERTEX_POINT('',#1066);
#366=VERTEX_POINT('',#1068);
#367=VERTEX_POINT('',#1072);
#368=VERTEX_POINT('',#1073);
#369=VERTEX_POINT('',#1075);
#370=VERTEX_POINT('',#1077);
#371=VERTEX_POINT('',#1079);
#372=VERTEX_POINT('',#1081);
#373=VERTEX_POINT('',#1084);
#374=VERTEX_POINT('',#1086);
#375=VERTEX_POINT('',#1088);
#376=VERTEX_POINT('',#1090);
#377=VERTEX_POINT('',#1097);
#378=VERTEX_POINT('',#1099);
#379=VERTEX_POINT('',#1100);
#380=VERTEX_POINT('',#1102);
#381=VERTEX_POINT('',#1106);
#382=VERTEX_POINT('',#1109);
#383=VERTEX_POINT('',#1112);
#384=VERTEX_POINT('',#1113);
#385=VERTEX_POINT('',#1116);
#386=VERTEX_POINT('',#1121);
#387=VERTEX_POINT('',#1123);
#388=VERTEX_POINT('',#1125);
#389=VERTEX_POINT('',#1127);
#390=VERTEX_POINT('',#1129);
#391=VERTEX_POINT('',#1131);
#392=VERTEX_POINT('',#1133);
#393=VERTEX_POINT('',#1140);
#394=VERTEX_POINT('',#1141);
#395=VERTEX_POINT('',#1146);
#396=VERTEX_POINT('',#1149);
#397=VERTEX_POINT('',#1151);
#398=VERTEX_POINT('',#1153);
#399=VERTEX_POINT('',#1165);
#400=VERTEX_POINT('',#1168);
#401=VERTEX_POINT('',#1171);
#402=VERTEX_POINT('',#1174);
#403=VERTEX_POINT('',#1177);
#404=VERTEX_POINT('',#1180);
#405=VERTEX_POINT('',#1183);
#406=VERTEX_POINT('',#1192);
#407=VERTEX_POINT('',#1193);
#408=VERTEX_POINT('',#1195);
#409=VERTEX_POINT('',#1197);
#410=VERTEX_POINT('',#1201);
#411=VERTEX_POINT('',#1202);
#412=VERTEX_POINT('',#1204);
#413=VERTEX_POINT('',#1207);
#414=VERTEX_POINT('',#1211);
#415=VERTEX_POINT('',#1213);
#416=VERTEX_POINT('',#1215);
#417=VERTEX_POINT('',#1217);
#418=VERTEX_POINT('',#1240);
#419=VERTEX_POINT('',#1244);
#420=VERTEX_POINT('',#1248);
#421=LINE('',#1042,#489);
#422=LINE('',#1045,#490);
#423=LINE('',#1047,#491);
#424=LINE('',#1049,#492);
#425=LINE('',#1051,#493);
#426=LINE('',#1053,#494);
#427=LINE('',#1057,#495);
#428=LINE('',#1059,#496);
#429=LINE('',#1061,#497);
#430=LINE('',#1065,#498);
#431=LINE('',#1067,#499);
#432=LINE('',#1069,#500);
#433=LINE('',#1071,#501);
#434=LINE('',#1074,#502);
#435=LINE('',#1076,#503);
#436=LINE('',#1078,#504);
#437=LINE('',#1080,#505);
#438=LINE('',#1082,#506);
#439=LINE('',#1083,#507);
#440=LINE('',#1085,#508);
#441=LINE('',#1087,#509);
#442=LINE('',#1089,#510);
#443=LINE('',#1091,#511);
#444=LINE('',#1093,#512);
#445=LINE('',#1094,#513);
#446=LINE('',#1098,#514);
#447=LINE('',#1101,#515);
#448=LINE('',#1103,#516);
#449=LINE('',#1105,#517);
#450=LINE('',#1107,#518);
#451=LINE('',#1111,#519);
#452=LINE('',#1114,#520);
#453=LINE('',#1115,#521);
#454=LINE('',#1117,#522);
#455=LINE('',#1118,#523);
#456=LINE('',#1120,#524);
#457=LINE('',#1124,#525);
#458=LINE('',#1126,#526);
#459=LINE('',#1128,#527);
#460=LINE('',#1132,#528);
#461=LINE('',#1134,#529);
#462=LINE('',#1136,#530);
#463=LINE('',#1137,#531);
#464=LINE('',#1139,#532);
#465=LINE('',#1142,#533);
#466=LINE('',#1143,#534);
#467=LINE('',#1145,#535);
#468=LINE('',#1148,#536);
#469=LINE('',#1150,#537);
#470=LINE('',#1154,#538);
#471=LINE('',#1156,#539);
#472=LINE('',#1157,#540);
#473=LINE('',#1158,#541);
#474=LINE('',#1160,#542);
#475=LINE('',#1161,#543);
#476=LINE('',#1185,#544);
#477=LINE('',#1187,#545);
#478=LINE('',#1189,#546);
#479=LINE('',#1191,#547);
#480=LINE('',#1194,#548);
#481=LINE('',#1196,#549);
#482=LINE('',#1198,#550);
#483=LINE('',#1200,#551);
#484=LINE('',#1203,#552);
#485=LINE('',#1208,#553);
#486=LINE('',#1212,#554);
#487=LINE('',#1214,#555);
#488=LINE('',#1216,#556);
#489=VECTOR('',#828,1.);
#490=VECTOR('',#829,1.);
#491=VECTOR('',#830,1.);
#492=VECTOR('',#831,1.);
#493=VECTOR('',#832,1.);
#494=VECTOR('',#833,1.);
#495=VECTOR('',#836,1.);
#496=VECTOR('',#837,1.);
#497=VECTOR('',#838,1.);
#498=VECTOR('',#841,1.);
#499=VECTOR('',#842,1.);
#500=VECTOR('',#843,1.);
#501=VECTOR('',#846,1.);
#502=VECTOR('',#847,1.);
#503=VECTOR('',#848,1.);
#504=VECTOR('',#849,1.);
#505=VECTOR('',#850,1.);
#506=VECTOR('',#851,1.);
#507=VECTOR('',#852,1.);
#508=VECTOR('',#853,1.);
#509=VECTOR('',#854,1.);
#510=VECTOR('',#855,1.);
#511=VECTOR('',#856,1.);
#512=VECTOR('',#859,1.);
#513=VECTOR('',#860,1.);
#514=VECTOR('',#865,1.);
#515=VECTOR('',#866,1.);
#516=VECTOR('',#867,1.);
#517=VECTOR('',#870,1.);
#518=VECTOR('',#871,1.);
#519=VECTOR('',#876,1.);
#520=VECTOR('',#877,1.);
#521=VECTOR('',#878,1.);
#522=VECTOR('',#879,1.);
#523=VECTOR('',#880,1.);
#524=VECTOR('',#883,1.);
#525=VECTOR('',#886,1.);
#526=VECTOR('',#887,1.);
#527=VECTOR('',#888,1.);
#528=VECTOR('',#891,1.);
#529=VECTOR('',#892,1.);
#530=VECTOR('',#895,1.);
#531=VECTOR('',#896,1.);
#532=VECTOR('',#899,1.);
#533=VECTOR('',#900,1.);
#534=VECTOR('',#901,1.);
#535=VECTOR('',#904,1.);
#536=VECTOR('',#907,1.);
#537=VECTOR('',#908,1.);
#538=VECTOR('',#911,1.);
#539=VECTOR('',#914,1.);
#540=VECTOR('',#915,1.);
#541=VECTOR('',#916,1.);
#542=VECTOR('',#919,1.);
#543=VECTOR('',#920,1.);
#544=VECTOR('',#953,1.);
#545=VECTOR('',#956,1.);
#546=VECTOR('',#959,1.);
#547=VECTOR('',#962,1.);
#548=VECTOR('',#963,1.);
#549=VECTOR('',#964,1.);
#550=VECTOR('',#965,1.);
#551=VECTOR('',#968,1.);
#552=VECTOR('',#969,1.);
#553=VECTOR('',#974,1.);
#554=VECTOR('',#979,1.);
#555=VECTOR('',#980,1.);
#556=VECTOR('',#981,1.);
#557=EDGE_LOOP('',(#59,#60,#61,#62,#63,#64,#65,#66,#67,#68,#69,#70,#71,
#72));
#558=EDGE_LOOP('',(#73,#74,#75,#76,#77,#78,#79,#80,#81,#82,#83,#84));
#559=EDGE_LOOP('',(#85,#86,#87,#88));
#560=EDGE_LOOP('',(#89));
#561=EDGE_LOOP('',(#90,#91,#92));
#562=EDGE_LOOP('',(#93,#94,#95));
#563=EDGE_LOOP('',(#96));
#564=EDGE_LOOP('',(#97,#98,#99,#100,#101,#102,#103,#104));
#565=EDGE_LOOP('',(#105,#106,#107,#108,#109,#110,#111,#112,#113,#114));
#566=EDGE_LOOP('',(#115,#116,#117,#118));
#567=EDGE_LOOP('',(#119,#120,#121,#122));
#568=EDGE_LOOP('',(#123,#124,#125,#126,#127,#128,#129,#130,#131,#132));
#569=EDGE_LOOP('',(#133,#134,#135,#136,#137,#138,#139,#140));
#570=EDGE_LOOP('',(#141,#142,#143,#144));
#571=EDGE_LOOP('',(#145,#146,#147));
#572=EDGE_LOOP('',(#148,#149,#150,#151,#152,#153));
#573=EDGE_LOOP('',(#154,#155,#156));
#574=EDGE_LOOP('',(#157));
#575=EDGE_LOOP('',(#158));
#576=EDGE_LOOP('',(#159));
#577=EDGE_LOOP('',(#160));
#578=EDGE_LOOP('',(#161));
#579=EDGE_LOOP('',(#162));
#580=EDGE_LOOP('',(#163));
#581=EDGE_LOOP('',(#164));
#582=EDGE_LOOP('',(#165));
#583=EDGE_LOOP('',(#166));
#584=EDGE_LOOP('',(#167));
#585=EDGE_LOOP('',(#168));
#586=EDGE_LOOP('',(#169));
#587=EDGE_LOOP('',(#170,#171,#172,#173));
#588=EDGE_LOOP('',(#174,#175,#176,#177));
#589=EDGE_LOOP('',(#178,#179,#180,#181));
#590=EDGE_LOOP('',(#182,#183,#184,#185));
#591=EDGE_LOOP('',(#186,#187,#188,#189,#190,#191));
#592=EDGE_LOOP('',(#192,#193,#194,#195,#196,#197));
#593=EDGE_LOOP('',(#198,#199,#200,#201));
#594=EDGE_LOOP('',(#202,#203,#204,#205,#206,#207));
#595=EDGE_LOOP('',(#208,#209,#210,#211));
#596=EDGE_LOOP('',(#212,#213,#214,#215));
#597=EDGE_LOOP('',(#216,#217,#218,#219));
#598=EDGE_LOOP('',(#220,#221,#222,#223));
#599=EDGE_LOOP('',(#224,#225,#226,#227,#228,#229));
#600=EDGE_LOOP('',(#230,#231,#232,#233));
#601=EDGE_LOOP('',(#234,#235,#236,#237));
#602=EDGE_LOOP('',(#238,#239,#240,#241));
#603=EDGE_LOOP('',(#242,#243,#244,#245));
#604=EDGE_LOOP('',(#246));
#605=EDGE_LOOP('',(#247));
#606=EDGE_LOOP('',(#248));
#607=EDGE_LOOP('',(#249));
#608=EDGE_LOOP('',(#250));
#609=EDGE_LOOP('',(#251));
#610=EDGE_LOOP('',(#252));
#611=EDGE_LOOP('',(#253));
#612=EDGE_LOOP('',(#254));
#613=FACE_BOUND('',#557,.T.);
#614=FACE_BOUND('',#558,.T.);
#615=FACE_BOUND('',#559,.T.);
#616=FACE_BOUND('',#560,.T.);
#617=FACE_BOUND('',#561,.T.);
#618=FACE_BOUND('',#562,.T.);
#619=FACE_BOUND('',#563,.T.);
#620=FACE_BOUND('',#564,.T.);
#621=FACE_BOUND('',#565,.T.);
#622=FACE_BOUND('',#566,.T.);
#623=FACE_BOUND('',#567,.T.);
#624=FACE_BOUND('',#568,.T.);
#625=FACE_BOUND('',#569,.T.);
#626=FACE_BOUND('',#570,.T.);
#627=FACE_BOUND('',#571,.T.);
#628=FACE_BOUND('',#572,.T.);
#629=FACE_BOUND('',#573,.T.);
#630=FACE_BOUND('',#574,.T.);
#631=FACE_BOUND('',#575,.T.);
#632=FACE_BOUND('',#576,.T.);
#633=FACE_BOUND('',#577,.T.);
#634=FACE_BOUND('',#578,.T.);
#635=FACE_BOUND('',#579,.T.);
#636=FACE_BOUND('',#580,.T.);
#637=FACE_BOUND('',#581,.T.);
#638=FACE_BOUND('',#582,.T.);
#639=FACE_BOUND('',#583,.T.);
#640=FACE_BOUND('',#584,.T.);
#641=FACE_BOUND('',#585,.T.);
#642=FACE_BOUND('',#586,.T.);
#643=FACE_BOUND('',#587,.T.);
#644=FACE_BOUND('',#588,.T.);
#645=FACE_BOUND('',#589,.T.);
#646=FACE_BOUND('',#590,.T.);
#647=FACE_BOUND('',#591,.T.);
#648=FACE_BOUND('',#592,.T.);
#649=FACE_BOUND('',#593,.T.);
#650=FACE_BOUND('',#594,.T.);
#651=FACE_BOUND('',#595,.T.);
#652=FACE_BOUND('',#596,.T.);
#653=FACE_BOUND('',#597,.T.);
#654=FACE_BOUND('',#598,.T.);
#655=FACE_BOUND('',#599,.T.);
#656=FACE_BOUND('',#600,.T.);
#657=FACE_BOUND('',#601,.T.);
#658=FACE_BOUND('',#602,.T.);
#659=FACE_BOUND('',#603,.T.);
#660=FACE_BOUND('',#604,.T.);
#661=FACE_BOUND('',#605,.T.);
#662=FACE_BOUND('',#606,.T.);
#663=FACE_BOUND('',#607,.T.);
#664=FACE_BOUND('',#608,.T.);
#665=FACE_BOUND('',#609,.T.);
#666=FACE_BOUND('',#610,.T.);
#667=FACE_BOUND('',#611,.T.);
#668=FACE_BOUND('',#612,.T.);
#669=PLANE('',#751);
#670=PLANE('',#754);
#671=PLANE('',#755);
#672=PLANE('',#756);
#673=PLANE('',#758);
#674=PLANE('',#760);
#675=PLANE('',#761);
#676=PLANE('',#764);
#677=PLANE('',#765);
#678=PLANE('',#766);
#679=PLANE('',#769);
#680=PLANE('',#770);
#681=PLANE('',#771);
#682=PLANE('',#772);
#683=PLANE('',#776);
#684=PLANE('',#780);
#685=PLANE('',#784);
#686=PLANE('',#786);
#687=PLANE('',#787);
#688=PLANE('',#788);
#689=PLANE('',#789);
#690=PLANE('',#790);
#691=PLANE('',#793);
#692=PLANE('',#817);
#693=PLANE('',#820);
#694=PLANE('',#823);
#695=ADVANCED_FACE('',(#613),#669,.F.);
#696=ADVANCED_FACE('',(#614),#670,.F.);
#697=ADVANCED_FACE('',(#615),#671,.F.);
#698=ADVANCED_FACE('',(#616,#617),#672,.T.);
#699=ADVANCED_FACE('',(#618,#619),#673,.T.);
#700=ADVANCED_FACE('',(#620),#674,.T.);
#701=ADVANCED_FACE('',(#621),#675,.T.);
#702=ADVANCED_FACE('',(#622),#676,.T.);
#703=ADVANCED_FACE('',(#623),#677,.T.);
#704=ADVANCED_FACE('',(#624),#678,.F.);
#705=ADVANCED_FACE('',(#625),#679,.F.);
#706=ADVANCED_FACE('',(#626),#680,.T.);
#707=ADVANCED_FACE('',(#627,#628),#681,.F.);
#708=ADVANCED_FACE('',(#629,#630),#682,.T.);
#709=ADVANCED_FACE('',(#631,#632),#12,.F.);
#710=ADVANCED_FACE('',(#633,#634),#683,.T.);
#711=ADVANCED_FACE('',(#635,#636),#13,.F.);
#712=ADVANCED_FACE('',(#637,#638),#684,.T.);
#713=ADVANCED_FACE('',(#639,#640),#14,.F.);
#714=ADVANCED_FACE('',(#641,#642),#685,.T.);
#715=ADVANCED_FACE('',(#643),#686,.T.);
#716=ADVANCED_FACE('',(#644),#687,.T.);
#717=ADVANCED_FACE('',(#645),#688,.T.);
#718=ADVANCED_FACE('',(#646),#689,.T.);
#719=ADVANCED_FACE('',(#647),#690,.T.);
#720=ADVANCED_FACE('',(#648),#691,.F.);
#721=ADVANCED_FACE('',(#649),#15,.T.);
#722=ADVANCED_FACE('',(#650),#16,.T.);
#723=ADVANCED_FACE('',(#651),#17,.T.);
#724=ADVANCED_FACE('',(#652),#18,.T.);
#725=ADVANCED_FACE('',(#653),#19,.T.);
#726=ADVANCED_FACE('',(#654),#20,.T.);
#727=ADVANCED_FACE('',(#655),#21,.T.);
#728=ADVANCED_FACE('',(#656),#22,.T.);
#729=ADVANCED_FACE('',(#657),#23,.T.);
#730=ADVANCED_FACE('',(#658),#24,.T.);
#731=ADVANCED_FACE('',(#659),#25,.T.);
#732=ADVANCED_FACE('',(#660,#661),#26,.F.);
#733=ADVANCED_FACE('',(#662),#692,.T.);
#734=ADVANCED_FACE('',(#663,#664),#27,.F.);
#735=ADVANCED_FACE('',(#665),#693,.T.);
#736=ADVANCED_FACE('',(#666,#667),#28,.F.);
#737=ADVANCED_FACE('',(#668),#694,.T.);
#738=CLOSED_SHELL('',(#695,#696,#697,#698,#699,#700,#701,#702,#703,#704,
#705,#706,#707,#708,#709,#710,#711,#712,#713,#714,#715,#716,#717,#718,#719,
#720,#721,#722,#723,#724,#725,#726,#727,#728,#729,#730,#731,#732,#733,#734,
#735,#736,#737));
#739=STYLED_ITEM('',(#740),#747);
#740=PRESENTATION_STYLE_ASSIGNMENT((#741));
#741=SURFACE_STYLE_USAGE(.BOTH.,#742);
#742=SURFACE_SIDE_STYLE('',(#743));
#743=SURFACE_STYLE_FILL_AREA(#744);
#744=FILL_AREA_STYLE('',(#745));
#745=FILL_AREA_STYLE_COLOUR('',#746);
#746=COLOUR_RGB('',0.972549019607843,0.529411764705882,0.00392156862745098);
#747=MANIFOLD_SOLID_BREP('Part 1',#738);
#748=SHAPE_DEFINITION_REPRESENTATION(#1256,#749);
#749=SHAPE_REPRESENTATION('Part 1',(#750),#1251);
#750=AXIS2_PLACEMENT_3D('',#1040,#824,#825);
#751=AXIS2_PLACEMENT_3D('',#1041,#826,#827);
#752=AXIS2_PLACEMENT_3D('',#1055,#834,#835);
#753=AXIS2_PLACEMENT_3D('',#1063,#839,#840);
#754=AXIS2_PLACEMENT_3D('',#1070,#844,#845);
#755=AXIS2_PLACEMENT_3D('',#1092,#857,#858);
#756=AXIS2_PLACEMENT_3D('',#1095,#861,#862);
#757=AXIS2_PLACEMENT_3D('',#1096,#863,#864);
#758=AXIS2_PLACEMENT_3D('',#1104,#868,#869);
#759=AXIS2_PLACEMENT_3D('',#1108,#872,#873);
#760=AXIS2_PLACEMENT_3D('',#1110,#874,#875);
#761=AXIS2_PLACEMENT_3D('',#1119,#881,#882);
#762=AXIS2_PLACEMENT_3D('',#1122,#884,#885);
#763=AXIS2_PLACEMENT_3D('',#1130,#889,#890);
#764=AXIS2_PLACEMENT_3D('',#1135,#893,#894);
#765=AXIS2_PLACEMENT_3D('',#1138,#897,#898);
#766=AXIS2_PLACEMENT_3D('',#1144,#902,#903);
#767=AXIS2_PLACEMENT_3D('',#1147,#905,#906);
#768=AXIS2_PLACEMENT_3D('',#1152,#909,#910);
#769=AXIS2_PLACEMENT_3D('',#1155,#912,#913);
#770=AXIS2_PLACEMENT_3D('',#1159,#917,#918);
#771=AXIS2_PLACEMENT_3D('',#1162,#921,#922);
#772=AXIS2_PLACEMENT_3D('',#1163,#923,#924);
#773=AXIS2_PLACEMENT_3D('',#1164,#925,#926);
#774=AXIS2_PLACEMENT_3D('',#1166,#927,#928);
#775=AXIS2_PLACEMENT_3D('',#1167,#929,#930);
#776=AXIS2_PLACEMENT_3D('',#1169,#931,#932);
#777=AXIS2_PLACEMENT_3D('',#1170,#933,#934);
#778=AXIS2_PLACEMENT_3D('',#1172,#935,#936);
#779=AXIS2_PLACEMENT_3D('',#1173,#937,#938);
#780=AXIS2_PLACEMENT_3D('',#1175,#939,#940);
#781=AXIS2_PLACEMENT_3D('',#1176,#941,#942);
#782=AXIS2_PLACEMENT_3D('',#1178,#943,#944);
#783=AXIS2_PLACEMENT_3D('',#1179,#945,#946);
#784=AXIS2_PLACEMENT_3D('',#1181,#947,#948);
#785=AXIS2_PLACEMENT_3D('',#1182,#949,#950);
#786=AXIS2_PLACEMENT_3D('',#1184,#951,#952);
#787=AXIS2_PLACEMENT_3D('',#1186,#954,#955);
#788=AXIS2_PLACEMENT_3D('',#1188,#957,#958);
#789=AXIS2_PLACEMENT_3D('',#1190,#960,#961);
#790=AXIS2_PLACEMENT_3D('',#1199,#966,#967);
#791=AXIS2_PLACEMENT_3D('',#1205,#970,#971);
#792=AXIS2_PLACEMENT_3D('',#1206,#972,#973);
#793=AXIS2_PLACEMENT_3D('',#1209,#975,#976);
#794=AXIS2_PLACEMENT_3D('',#1210,#977,#978);
#795=AXIS2_PLACEMENT_3D('',#1218,#982,#983);
#796=AXIS2_PLACEMENT_3D('',#1219,#984,#985);
#797=AXIS2_PLACEMENT_3D('',#1220,#986,#987);
#798=AXIS2_PLACEMENT_3D('',#1221,#988,#989);
#799=AXIS2_PLACEMENT_3D('',#1222,#990,#991);
#800=AXIS2_PLACEMENT_3D('',#1223,#992,#993);
#801=AXIS2_PLACEMENT_3D('',#1224,#994,#995);
#802=AXIS2_PLACEMENT_3D('',#1225,#996,#997);
#803=AXIS2_PLACEMENT_3D('',#1226,#998,#999);
#804=AXIS2_PLACEMENT_3D('',#1227,#1000,#1001);
#805=AXIS2_PLACEMENT_3D('',#1228,#1002,#1003);
#806=AXIS2_PLACEMENT_3D('',#1229,#1004,#1005);
#807=AXIS2_PLACEMENT_3D('',#1230,#1006,#1007);
#808=AXIS2_PLACEMENT_3D('',#1231,#1008,#1009);
#809=AXIS2_PLACEMENT_3D('',#1232,#1010,#1011);
#810=AXIS2_PLACEMENT_3D('',#1233,#1012,#1013);
#811=AXIS2_PLACEMENT_3D('',#1234,#1014,#1015);
#812=AXIS2_PLACEMENT_3D('',#1235,#1016,#1017);
#813=AXIS2_PLACEMENT_3D('',#1236,#1018,#1019);
#814=AXIS2_PLACEMENT_3D('',#1237,#1020,#1021);
#815=AXIS2_PLACEMENT_3D('',#1238,#1022,#1023);
#816=AXIS2_PLACEMENT_3D('',#1239,#1024,#1025);
#817=AXIS2_PLACEMENT_3D('',#1241,#1026,#1027);
#818=AXIS2_PLACEMENT_3D('',#1242,#1028,#1029);
#819=AXIS2_PLACEMENT_3D('',#1243,#1030,#1031);
#820=AXIS2_PLACEMENT_3D('',#1245,#1032,#1033);
#821=AXIS2_PLACEMENT_3D('',#1246,#1034,#1035);
#822=AXIS2_PLACEMENT_3D('',#1247,#1036,#1037);
#823=AXIS2_PLACEMENT_3D('',#1249,#1038,#1039);
#824=DIRECTION('',(0.,0.,1.));
#825=DIRECTION('',(1.,0.,0.));
#826=DIRECTION('',(0.382684753897049,-0.923878985113719,0.));
#827=DIRECTION('',(0.923878985113719,0.382684753897049,0.));
#828=DIRECTION('',(0.,0.,1.));
#829=DIRECTION('',(-0.923878985113719,-0.382684753897049,0.));
#830=DIRECTION('',(-2.89120579329468E-16,-1.19758149638668E-16,1.));
#831=DIRECTION('',(-0.923878985113719,-0.382684753897049,0.));
#832=DIRECTION('',(0.,0.,1.));
#833=DIRECTION('',(0.923878985113719,0.382684753897049,0.));
#834=DIRECTION('',(0.382684753897049,-0.923878985113719,0.));
#835=DIRECTION('',(-0.923878985113719,-0.382684753897049,0.));
#836=DIRECTION('',(0.,0.,1.));
#837=DIRECTION('',(0.923878985113719,0.382684753897049,0.));
#838=DIRECTION('',(0.,0.,1.));
#839=DIRECTION('',(0.382684753897049,-0.923878985113719,0.));
#840=DIRECTION('',(-0.923878985113719,-0.382684753897049,0.));
#841=DIRECTION('',(0.923878985113718,0.38268475389705,0.));
#842=DIRECTION('',(0.,0.,1.));
#843=DIRECTION('',(0.923878985113719,0.382684753897049,0.));
#844=DIRECTION('',(0.707104758269508,0.7071088040978,0.));
#845=DIRECTION('',(-0.7071088040978,0.707104758269508,0.));
#846=DIRECTION('',(0.,0.,1.));
#847=DIRECTION('',(0.7071088040978,-0.707104758269508,0.));
#848=DIRECTION('',(2.89120579329468E-16,-2.89118925083032E-16,-1.));
#849=DIRECTION('',(0.7071088040978,-0.707104758269508,0.));
#850=DIRECTION('',(0.,0.,1.));
#851=DIRECTION('',(-0.7071088040978,0.707104758269508,0.));
#852=DIRECTION('',(0.7071088040978,-0.707104758269508,0.));
#853=DIRECTION('',(0.,0.,1.));
#854=DIRECTION('',(-0.7071088040978,0.707104758269508,0.));
#855=DIRECTION('',(0.,0.,1.));
#856=DIRECTION('',(-0.7071088040978,0.707104758269508,0.));
#857=DIRECTION('',(-1.,0.,0.));
#858=DIRECTION('',(0.,0.,1.));
#859=DIRECTION('',(0.,-1.,0.));
#860=DIRECTION('',(0.,-1.,0.));
#861=DIRECTION('',(0.,0.,1.));
#862=DIRECTION('',(1.,0.,0.));
#863=DIRECTION('',(0.,0.,1.));
#864=DIRECTION('',(1.,0.,0.));
#865=DIRECTION('',(-0.993262727816778,-0.115884224681244,0.));
#866=DIRECTION('',(0.746955227801922,-0.664874339751038,0.));
#867=DIRECTION('',(0.,-1.,0.));
#868=DIRECTION('',(0.,0.,1.));
#869=DIRECTION('',(1.,0.,0.));
#870=DIRECTION('',(-0.328415052713848,-0.944533510867116,0.));
#871=DIRECTION('',(-0.993262727816778,-0.115884224681244,0.));
#872=DIRECTION('',(0.,0.,1.));
#873=DIRECTION('',(1.,0.,0.));
#874=DIRECTION('',(-0.115884224681244,0.993262727816778,0.));
#875=DIRECTION('',(-0.993262727816778,-0.115884224681244,0.));
#876=DIRECTION('',(-0.993262727816778,-0.115884224681244,0.));
#877=DIRECTION('',(0.,0.,1.));
#878=DIRECTION('',(0.,0.,1.));
#879=DIRECTION('',(-0.993262727816778,-0.115884224681244,0.));
#880=DIRECTION('',(0.,0.,1.));
#881=DIRECTION('',(-0.664874339751038,-0.746955227801922,0.));
#882=DIRECTION('',(0.746955227801922,-0.664874339751038,0.));
#883=DIRECTION('',(0.746955227801922,-0.664874339751038,0.));
#884=DIRECTION('',(-0.664874339751038,-0.746955227801922,0.));
#885=DIRECTION('',(0.746955227801922,-0.664874339751038,0.));
#886=DIRECTION('',(0.,0.,1.));
#887=DIRECTION('',(0.746955227801922,-0.664874339751038,0.));
#888=DIRECTION('',(0.,0.,1.));
#889=DIRECTION('',(-0.664874339751038,-0.746955227801922,0.));
#890=DIRECTION('',(0.746955227801922,-0.664874339751038,0.));
#891=DIRECTION('',(0.746955227801923,-0.664874339751038,0.));
#892=DIRECTION('',(0.,0.,1.));
#893=DIRECTION('',(-1.,-1.2064653769716E-16,0.));
#894=DIRECTION('',(1.2064653769716E-16,-1.,0.));
#895=DIRECTION('',(1.2064653769716E-16,-1.,0.));
#896=DIRECTION('',(1.2064653769716E-16,-1.,0.));
#897=DIRECTION('',(0.707104758269508,0.7071088040978,0.));
#898=DIRECTION('',(-0.7071088040978,0.707104758269508,0.));
#899=DIRECTION('',(0.,0.,1.));
#900=DIRECTION('',(-0.7071088040978,0.707104758269508,0.));
#901=DIRECTION('',(-0.7071088040978,0.707104758269508,0.));
#902=DIRECTION('',(-0.944533510867116,0.328415052713848,0.));
#903=DIRECTION('',(-0.328415052713848,-0.944533510867116,0.));
#904=DIRECTION('',(-0.328415052713849,-0.944533510867116,0.));
#905=DIRECTION('',(-0.944533510867116,0.328415052713848,0.));
#906=DIRECTION('',(0.328415052713848,0.944533510867116,0.));
#907=DIRECTION('',(-0.328415052713848,-0.944533510867116,0.));
#908=DIRECTION('',(0.,0.,1.));
#909=DIRECTION('',(-0.944533510867116,0.328415052713848,0.));
#910=DIRECTION('',(0.328415052713848,0.944533510867116,0.));
#911=DIRECTION('',(-0.328415052713847,-0.944533510867117,0.));
#912=DIRECTION('',(-1.,0.,0.));
#913=DIRECTION('',(0.,0.,1.));
#914=DIRECTION('',(0.,-1.,0.));
#915=DIRECTION('',(0.,-1.,0.));
#916=DIRECTION('',(0.,1.,0.));
#917=DIRECTION('',(0.115884224681244,-0.993262727816778,0.));
#918=DIRECTION('',(0.993262727816778,0.115884224681244,0.));
#919=DIRECTION('',(0.993262727816778,0.115884224681244,0.));
#920=DIRECTION('',(0.993262727816778,0.115884224681244,0.));
#921=DIRECTION('',(0.,0.,1.));
#922=DIRECTION('',(1.,0.,0.));
#923=DIRECTION('',(0.,0.,1.));
#924=DIRECTION('',(1.,0.,0.));
#925=DIRECTION('',(0.,0.,1.));
#926=DIRECTION('',(1.,0.,0.));
#927=DIRECTION('',(0.,0.,1.));
#928=DIRECTION('',(1.,0.,0.));
#929=DIRECTION('',(0.,0.,1.));
#930=DIRECTION('',(1.,0.,0.));
#931=DIRECTION('',(0.,0.,1.));
#932=DIRECTION('',(1.,0.,0.));
#933=DIRECTION('',(0.,0.,1.));
#934=DIRECTION('',(1.,0.,0.));
#935=DIRECTION('',(0.,0.,1.));
#936=DIRECTION('',(1.,0.,0.));
#937=DIRECTION('',(0.,0.,1.));
#938=DIRECTION('',(1.,0.,0.));
#939=DIRECTION('',(0.,0.,1.));
#940=DIRECTION('',(1.,0.,0.));
#941=DIRECTION('',(0.,0.,1.));
#942=DIRECTION('',(1.,0.,0.));
#943=DIRECTION('',(0.,0.,1.));
#944=DIRECTION('',(1.,0.,0.));
#945=DIRECTION('',(0.,0.,1.));
#946=DIRECTION('',(1.,0.,0.));
#947=DIRECTION('',(0.,0.,1.));
#948=DIRECTION('',(1.,0.,0.));
#949=DIRECTION('',(0.,0.,1.));
#950=DIRECTION('',(1.,0.,0.));
#951=DIRECTION('',(0.,0.,1.));
#952=DIRECTION('',(1.,0.,0.));
#953=DIRECTION('',(0.993262727816778,0.115884224681244,0.));
#954=DIRECTION('',(0.,0.,1.));
#955=DIRECTION('',(1.,0.,0.));
#956=DIRECTION('',(1.2064653769716E-16,-1.,0.));
#957=DIRECTION('',(0.,0.,1.));
#958=DIRECTION('',(1.,0.,0.));
#959=DIRECTION('',(-0.7071088040978,0.707104758269508,0.));
#960=DIRECTION('',(1.,0.,2.89120579329468E-16));
#961=DIRECTION('',(2.89120579329468E-16,0.,-1.));
#962=DIRECTION('',(0.,-1.,0.));
#963=DIRECTION('',(-2.89120579329468E-16,-1.19758149638668E-16,1.));
#964=DIRECTION('',(0.,-1.,0.));
#965=DIRECTION('',(2.89120579329468E-16,-2.89118925083031E-16,-1.));
#966=DIRECTION('',(0.,0.,1.));
#967=DIRECTION('',(1.,0.,0.));
#968=DIRECTION('',(0.,-1.,0.));
#969=DIRECTION('',(-0.923878985113719,-0.382684753897049,0.));
#970=DIRECTION('',(0.,0.,1.));
#971=DIRECTION('',(1.,0.,0.));
#972=DIRECTION('',(0.,0.,1.));
#973=DIRECTION('',(1.,0.,0.));
#974=DIRECTION('',(0.7071088040978,-0.707104758269508,0.));
#975=DIRECTION('',(0.,0.,1.));
#976=DIRECTION('',(1.,0.,0.));
#977=DIRECTION('',(0.,0.,1.));
#978=DIRECTION('',(1.,0.,0.));
#979=DIRECTION('',(-0.923878985113719,-0.382684753897049,0.));
#980=DIRECTION('',(0.,-1.,0.));
#981=DIRECTION('',(0.7071088040978,-0.707104758269508,0.));
#982=DIRECTION('',(0.,0.,1.));
#983=DIRECTION('',(1.,0.,0.));
#984=DIRECTION('',(-0.7071088040978,0.707104758269508,0.));
#985=DIRECTION('',(-0.707104758269508,-0.7071088040978,0.));
#986=DIRECTION('',(-0.500001430414264,0.499998569581644,0.707106781186547));
#987=DIRECTION('',(-0.500001430414264,0.499998569581644,-0.707106781186548));
#988=DIRECTION('',(0.923878985113718,0.38268475389705,0.));
#989=DIRECTION('',(-0.38268475389705,0.923878985113718,0.));
#990=DIRECTION('',(-2.89120579329468E-16,2.89118925083031E-16,1.));
#991=DIRECTION('',(1.,0.,2.89120579329468E-16));
#992=DIRECTION('',(0.500001430414264,-0.499998569581644,0.707106781186548));
#993=DIRECTION('',(0.500001430414264,-0.499998569581644,-0.707106781186547));
#994=DIRECTION('',(0.,1.,0.));
#995=DIRECTION('',(0.,0.,1.));
#996=DIRECTION('',(-0.831470009650694,0.555569638345613,0.));
#997=DIRECTION('',(0.555569638345613,0.831470009650694,0.));
#998=DIRECTION('',(0.7071088040978,-0.707104758269508,0.));
#999=DIRECTION('',(0.707104758269508,0.7071088040978,0.));
#1000=DIRECTION('',(-0.923878985113718,-0.38268475389705,0.));
#1001=DIRECTION('',(0.38268475389705,-0.923878985113718,0.));
#1002=DIRECTION('',(0.923878985113719,0.382684753897049,0.));
#1003=DIRECTION('',(-0.382684753897049,0.923878985113719,0.));
#1004=DIRECTION('',(0.653281095369656,0.270598984537308,-0.707106781186547));
#1005=DIRECTION('',(-0.653281095369656,-0.270598984537308,-0.707106781186548));
#1006=DIRECTION('',(0.,-1.,0.));
#1007=DIRECTION('',(0.,0.,-1.));
#1008=DIRECTION('',(0.831470009650694,-0.555569638345613,0.));
#1009=DIRECTION('',(-0.555569638345613,-0.831470009650694,0.));
#1010=DIRECTION('',(2.89120579329468E-16,1.19758149638668E-16,-1.));
#1011=DIRECTION('',(-1.,0.,-2.89120579329468E-16));
#1012=DIRECTION('',(-0.653281095369656,-0.270598984537308,-0.707106781186548));
#1013=DIRECTION('',(-0.653281095369656,-0.270598984537308,0.707106781186547));
#1014=DIRECTION('',(-0.923878985113719,-0.382684753897049,0.));
#1015=DIRECTION('',(0.382684753897049,-0.923878985113719,0.));
#1016=DIRECTION('',(-0.7071088040978,0.707104758269508,0.));
#1017=DIRECTION('',(-0.707104758269508,-0.7071088040978,0.));
#1018=DIRECTION('',(0.993262727816778,0.115884224681244,0.));
#1019=DIRECTION('',(-0.115884224681244,0.993262727816778,0.));
#1020=DIRECTION('',(1.2064653769716E-16,-1.,0.));
#1021=DIRECTION('',(1.,1.2064653769716E-16,0.));
#1022=DIRECTION('',(0.,0.,1.));
#1023=DIRECTION('',(1.,0.,0.));
#1024=DIRECTION('',(0.,0.,1.));
#1025=DIRECTION('',(1.,0.,0.));
#1026=DIRECTION('',(0.,0.,1.));
#1027=DIRECTION('',(1.,0.,0.));
#1028=DIRECTION('',(0.,0.,1.));
#1029=DIRECTION('',(1.,0.,0.));
#1030=DIRECTION('',(0.,0.,1.));
#1031=DIRECTION('',(1.,0.,0.));
#1032=DIRECTION('',(0.,0.,1.));
#1033=DIRECTION('',(1.,0.,0.));
#1034=DIRECTION('',(0.,0.,1.));
#1035=DIRECTION('',(1.,0.,0.));
#1036=DIRECTION('',(0.,0.,1.));
#1037=DIRECTION('',(1.,0.,0.));
#1038=DIRECTION('',(0.,0.,1.));
#1039=DIRECTION('',(1.,0.,0.));
#1040=CARTESIAN_POINT('',(0.,0.,0.));
#1041=CARTESIAN_POINT('',(-0.00707108804097798,0.0170710475826951,-0.075));
#1042=CARTESIAN_POINT('',(0.,0.02,-0.063));
#1043=CARTESIAN_POINT('',(0.,0.02,-0.053));
#1044=CARTESIAN_POINT('',(0.,0.02,0.));
#1045=CARTESIAN_POINT('',(-0.00707108804097798,0.0170710475826951,-0.053));
#1046=CARTESIAN_POINT('',(-0.00738268475389706,0.0169419794760276,-0.053));
#1047=CARTESIAN_POINT('',(-0.00738268475389705,0.0169419794760276,-0.06));
#1048=CARTESIAN_POINT('',(-0.00738268475389705,0.0169419794760276,-0.061));
#1049=CARTESIAN_POINT('',(1.47367112509967E-18,0.02,-0.061));
#1050=CARTESIAN_POINT('',(0.,0.02,-0.061));
#1051=CARTESIAN_POINT('',(0.,0.02,-0.063));
#1052=CARTESIAN_POINT('',(0.,0.02,-0.063));
#1053=CARTESIAN_POINT('',(-0.0025,0.0189644619044724,-0.063));
#1054=CARTESIAN_POINT('',(-0.004,0.0183431390471559,-0.063));
#1055=CARTESIAN_POINT('',(-0.004,0.0183431390471559,-0.064));
#1056=CARTESIAN_POINT('',(-0.005,0.0179289238089448,-0.064));
#1057=CARTESIAN_POINT('',(-0.005,0.0179289238089448,-0.075));
#1058=CARTESIAN_POINT('',(-0.005,0.0179289238089448,-0.075));
#1059=CARTESIAN_POINT('',(-0.00707108804097798,0.0170710475826951,-0.075));
#1060=CARTESIAN_POINT('',(-0.00914217608195596,0.0162131713564454,-0.075));
#1061=CARTESIAN_POINT('',(-0.00914217608195596,0.0162131713564454,-0.075));
#1062=CARTESIAN_POINT('',(-0.00914217608195596,0.0162131713564454,-0.064));
#1063=CARTESIAN_POINT('',(-0.010142176081956,0.0157989561182344,-0.064));
#1064=CARTESIAN_POINT('',(-0.010142176081956,0.0157989561182344,-0.063));
#1065=CARTESIAN_POINT('',(-0.011642176081956,0.0151776332609178,-0.063));
#1066=CARTESIAN_POINT('',(-0.014142176081956,0.0141420951653902,-0.063));
#1067=CARTESIAN_POINT('',(-0.014142176081956,0.0141420951653902,-0.063));
#1068=CARTESIAN_POINT('',(-0.014142176081956,0.0141420951653902,0.));
#1069=CARTESIAN_POINT('',(-0.00707108804097798,0.0170710475826951,0.));
#1070=CARTESIAN_POINT('',(-0.007071088040978,0.00707104758269508,-0.075));
#1071=CARTESIAN_POINT('',(0.,0.,-0.075));
#1072=CARTESIAN_POINT('',(0.,0.,-0.075));
#1073=CARTESIAN_POINT('',(0.,0.,-0.061));
#1074=CARTESIAN_POINT('',(-0.006,0.00599996567010677,-0.061));
#1075=CARTESIAN_POINT('',(-0.00770710475826951,0.00770706066092226,-0.061));
#1076=CARTESIAN_POINT('',(-0.00770710475826951,0.00770706066092227,-0.054));
#1077=CARTESIAN_POINT('',(-0.00770710475826951,0.00770706066092227,-0.053));
#1078=CARTESIAN_POINT('',(-0.007071088040978,0.00707104758269508,-0.053));
#1079=CARTESIAN_POINT('',(0.,0.,-0.053));
#1080=CARTESIAN_POINT('',(0.,0.,-0.075));
#1081=CARTESIAN_POINT('',(0.,0.,0.));
#1082=CARTESIAN_POINT('',(-0.007071088040978,0.00707104758269508,0.));
#1083=CARTESIAN_POINT('',(-0.0568384663365873,0.0568381411268405,-0.063));
#1084=CARTESIAN_POINT('',(-0.0995347565912186,0.0995341870882908,-0.063));
#1085=CARTESIAN_POINT('',(-0.0995347565912186,0.0995341870882908,-0.063));
#1086=CARTESIAN_POINT('',(-0.0995347565912186,0.0995341870882908,0.));
#1087=CARTESIAN_POINT('',(-0.007071088040978,0.00707104758269508,0.));
#1088=CARTESIAN_POINT('',(-0.113676932673175,0.113676282253681,0.));
#1089=CARTESIAN_POINT('',(-0.113676932673175,0.113676282253681,-0.075));
#1090=CARTESIAN_POINT('',(-0.113676932673175,0.113676282253681,-0.075));
#1091=CARTESIAN_POINT('',(-0.007071088040978,0.00707104758269508,-0.075));
#1092=CARTESIAN_POINT('',(0.,0.116939,-0.075));
#1093=CARTESIAN_POINT('',(0.,0.116939,-0.053));
#1094=CARTESIAN_POINT('',(0.,0.116939,0.));
#1095=CARTESIAN_POINT('',(-0.0568384663365873,0.0634695,0.));
#1096=CARTESIAN_POINT('',(-0.00727312991916364,0.118767978664395,0.));
#1097=CARTESIAN_POINT('',(-0.00492312991916364,0.118767978664395,0.));
#1098=CARTESIAN_POINT('',(-0.00993262727816779,0.125780157753187,0.));
#1099=CARTESIAN_POINT('',(-1.04083408558608E-17,0.126939,0.));
#1100=CARTESIAN_POINT('',(-0.0198652545563355,0.124621315506375,0.));
#1101=CARTESIAN_POINT('',(-0.00993262727816779,0.115780157753188,0.));
#1102=CARTESIAN_POINT('',(0.,0.106939,0.));
#1103=CARTESIAN_POINT('',(0.,0.116939,0.));
#1104=CARTESIAN_POINT('',(-0.0568384663365873,0.0634695,0.));
#1105=CARTESIAN_POINT('',(-0.0966732173540288,0.107764076917798,0.));
#1106=CARTESIAN_POINT('',(-0.093811678116839,0.115993966747306,0.));
#1107=CARTESIAN_POINT('',(-0.00993262727816779,0.125780157753187,0.));
#1108=CARTESIAN_POINT('',(-0.100451351397497,0.109077737128654,0.));
#1109=CARTESIAN_POINT('',(-0.0981013513974972,0.109077737128654,0.));
#1110=CARTESIAN_POINT('',(-0.00993262727816779,0.125780157753187,-0.075));
#1111=CARTESIAN_POINT('',(-0.0568384663365873,0.12030764112684,-0.063));
#1112=CARTESIAN_POINT('',(-0.0198652545563351,0.124621315506375,-0.063));
#1113=CARTESIAN_POINT('',(-0.093811678116839,0.115993966747306,-0.063));
#1114=CARTESIAN_POINT('',(-0.0198652545563355,0.124621315506375,-0.063));
#1115=CARTESIAN_POINT('',(-1.04083408558608E-17,0.126939,-0.075));
#1116=CARTESIAN_POINT('',(-1.04083408558608E-17,0.126939,-0.075));
#1117=CARTESIAN_POINT('',(-0.00993262727816779,0.125780157753187,-0.075));
#1118=CARTESIAN_POINT('',(-0.093811678116839,0.115993966747306,-0.063));
#1119=CARTESIAN_POINT('',(-0.00993262727816779,0.115780157753188,-0.075));
#1120=CARTESIAN_POINT('',(-0.0173652545563356,0.122396033739128,-0.063));
#1121=CARTESIAN_POINT('',(-0.0158652545563355,0.12106086467878,-0.063));
#1122=CARTESIAN_POINT('',(-0.0158652545563356,0.12106086467878,-0.064));
#1123=CARTESIAN_POINT('',(-0.0148652545563356,0.120170751971881,-0.064));
#1124=CARTESIAN_POINT('',(-0.0148652545563356,0.120170751971881,-0.075));
#1125=CARTESIAN_POINT('',(-0.0148652545563356,0.120170751971881,-0.075));
#1126=CARTESIAN_POINT('',(-0.00993262727816779,0.115780157753188,-0.075));
#1127=CARTESIAN_POINT('',(-0.005,0.111389563534494,-0.075));
#1128=CARTESIAN_POINT('',(-0.005,0.111389563534494,-0.075));
#1129=CARTESIAN_POINT('',(-0.005,0.111389563534494,-0.064));
#1130=CARTESIAN_POINT('',(-0.004,0.110499450827595,-0.064));
#1131=CARTESIAN_POINT('',(-0.004,0.110499450827595,-0.063));
#1132=CARTESIAN_POINT('',(-0.0025,0.109164281767247,-0.063));
#1133=CARTESIAN_POINT('',(0.,0.106939,-0.063));
#1134=CARTESIAN_POINT('',(0.,0.106939,-0.063));
#1135=CARTESIAN_POINT('',(-0.005,0.0646592436717196,-0.075));
#1136=CARTESIAN_POINT('',(-0.005,0.0646592436717196,-0.064));
#1137=CARTESIAN_POINT('',(-0.005,0.0646592436717196,-0.075));
#1138=CARTESIAN_POINT('',(-0.0534263156185259,0.0604970575147182,-0.075));
#1139=CARTESIAN_POINT('',(-0.0977104551550957,0.104780943672991,-0.075));
#1140=CARTESIAN_POINT('',(-0.0977104551550957,0.104780943672991,-0.075));
#1141=CARTESIAN_POINT('',(-0.0977104551550957,0.104780943672991,-0.064));
#1142=CARTESIAN_POINT('',(-0.0534263156185259,0.0604970575147182,-0.064));
#1143=CARTESIAN_POINT('',(-0.0534263156185259,0.0604970575147182,-0.075));
#1144=CARTESIAN_POINT('',(-0.0966732173540288,0.107764076917798,-0.075));
#1145=CARTESIAN_POINT('',(-0.0986226058731572,0.102157565380641,-0.063));
#1146=CARTESIAN_POINT('',(-0.0980753154423203,0.103731592356051,-0.063));
#1147=CARTESIAN_POINT('',(-0.0980753154423203,0.103731592356051,-0.064));
#1148=CARTESIAN_POINT('',(-0.0966732173540288,0.107764076917798,-0.075));
#1149=CARTESIAN_POINT('',(-0.0956359795529619,0.110747210162606,-0.075));
#1150=CARTESIAN_POINT('',(-0.0956359795529619,0.110747210162606,-0.075));
#1151=CARTESIAN_POINT('',(-0.0956359795529619,0.110747210162606,-0.064));
#1152=CARTESIAN_POINT('',(-0.0952711192657373,0.111796561479546,-0.064));
#1153=CARTESIAN_POINT('',(-0.0952711192657373,0.111796561479546,-0.063));
#1154=CARTESIAN_POINT('',(-0.0947238288349005,0.113370588454956,-0.063));
#1155=CARTESIAN_POINT('',(0.,0.116939,-0.075));
#1156=CARTESIAN_POINT('',(0.,0.,-0.061));
#1157=CARTESIAN_POINT('',(0.,0.116939,-0.075));
#1158=CARTESIAN_POINT('',(0.,0.0634695,-0.063));
#1159=CARTESIAN_POINT('',(-0.0552506170546487,0.115458981067243,-0.075));
#1160=CARTESIAN_POINT('',(-0.0552506170546487,0.115458981067243,-0.064));
#1161=CARTESIAN_POINT('',(-0.0552506170546487,0.115458981067243,-0.075));
#1162=CARTESIAN_POINT('',(-0.0568384663365873,0.0634695,-0.075));
#1163=CARTESIAN_POINT('',(-0.0568384663365873,0.0634695,0.));
#1164=CARTESIAN_POINT('',(-0.00554034902538979,0.0133755316422402,0.));
#1165=CARTESIAN_POINT('',(-0.00319034902538979,0.0133755316422402,0.));
#1166=CARTESIAN_POINT('',(-0.00554034902538979,0.0133755316422402,-0.004));
#1167=CARTESIAN_POINT('',(-0.00554034902538979,0.0133755316422402,-0.004));
#1168=CARTESIAN_POINT('',(-0.00319034902538979,0.0133755316422402,-0.004));
#1169=CARTESIAN_POINT('',(-0.0568384663365873,0.0634695,-0.004));
#1170=CARTESIAN_POINT('',(-0.00554034902538979,0.0133755316422402,-0.004));
#1171=CARTESIAN_POINT('',(-0.00384034902538979,0.0133755316422402,-0.004));
#1172=CARTESIAN_POINT('',(-0.00727312991916364,0.118767978664395,-0.004));
#1173=CARTESIAN_POINT('',(-0.00727312991916364,0.118767978664395,-0.004));
#1174=CARTESIAN_POINT('',(-0.00492312991916364,0.118767978664395,-0.004));
#1175=CARTESIAN_POINT('',(-0.0568384663365873,0.0634695,-0.004));
#1176=CARTESIAN_POINT('',(-0.00727312991916364,0.118767978664395,-0.004));
#1177=CARTESIAN_POINT('',(-0.00557312991916364,0.118767978664395,-0.004));
#1178=CARTESIAN_POINT('',(-0.100451351397497,0.109077737128654,-0.004));
#1179=CARTESIAN_POINT('',(-0.100451351397497,0.109077737128654,-0.004));
#1180=CARTESIAN_POINT('',(-0.0981013513974972,0.109077737128654,-0.004));
#1181=CARTESIAN_POINT('',(-0.0568384663365873,0.0634695,-0.004));
#1182=CARTESIAN_POINT('',(-0.100451351397497,0.109077737128654,-0.004));
#1183=CARTESIAN_POINT('',(-0.0987513513974972,0.109077737128654,-0.004));
#1184=CARTESIAN_POINT('',(-0.0568384663365873,0.0634695,-0.063));
#1185=CARTESIAN_POINT('',(-0.0629171973418279,0.115571302092023,-0.063));
#1186=CARTESIAN_POINT('',(-0.0568384663365873,0.0634695,-0.063));
#1187=CARTESIAN_POINT('',(-0.004,0.0634695,-0.063));
#1188=CARTESIAN_POINT('',(-0.0568384663365873,0.0634695,-0.063));
#1189=CARTESIAN_POINT('',(-0.0573257267400347,0.0629822368086037,-0.063));
#1190=CARTESIAN_POINT('',(-0.006,0.025,-0.057));
#1191=CARTESIAN_POINT('',(-0.006,0.025,-0.06));
#1192=CARTESIAN_POINT('',(-0.006,0.0160181004909138,-0.06));
#1193=CARTESIAN_POINT('',(-0.006,0.00841416946502006,-0.06));
#1194=CARTESIAN_POINT('',(-0.006,0.0160181004909138,-0.054));
#1195=CARTESIAN_POINT('',(-0.006,0.0160181004909138,-0.054));
#1196=CARTESIAN_POINT('',(-0.006,0.025,-0.054));
#1197=CARTESIAN_POINT('',(-0.006,0.00841416946502006,-0.054));
#1198=CARTESIAN_POINT('',(-0.006,0.00841416946502006,-0.06));
#1199=CARTESIAN_POINT('',(-0.003,0.025,-0.06));
#1200=CARTESIAN_POINT('',(-0.001,0.02,-0.06));
#1201=CARTESIAN_POINT('',(-0.001,0.0024142037949133,-0.06));
#1202=CARTESIAN_POINT('',(-0.001,0.0185033919201801,-0.06));
#1203=CARTESIAN_POINT('',(-0.00561731524610296,0.0165908295856201,-0.06));
#1204=CARTESIAN_POINT('',(-0.00607612101488628,0.0164007852448109,-0.06));
#1205=CARTESIAN_POINT('',(-0.007,0.0160181004909138,-0.06));
#1206=CARTESIAN_POINT('',(-0.007,0.00841416946502006,-0.06));
#1207=CARTESIAN_POINT('',(-0.0062928911959022,0.00770706470675056,-0.06));
#1208=CARTESIAN_POINT('',(0.00070710475826951,0.000707108804097802,-0.06));
#1209=CARTESIAN_POINT('',(-0.003,0.025,-0.054));
#1210=CARTESIAN_POINT('',(-0.007,0.0160181004909138,-0.054));
#1211=CARTESIAN_POINT('',(-0.00607612101488629,0.0164007852448109,-0.054));
#1212=CARTESIAN_POINT('',(-0.000410200373262722,0.0187476959130658,-0.054));
#1213=CARTESIAN_POINT('',(-0.001,0.0185033919201801,-0.054));
#1214=CARTESIAN_POINT('',(-0.001,0.025,-0.054));
#1215=CARTESIAN_POINT('',(-0.001,0.0024142037949133,-0.054));
#1216=CARTESIAN_POINT('',(-0.0132929038240237,0.0147070372832577,-0.054));
#1217=CARTESIAN_POINT('',(-0.00629289119590221,0.00770706470675056,-0.054));
#1218=CARTESIAN_POINT('',(-0.007,0.00841416946502006,-0.054));
#1219=CARTESIAN_POINT('',(-0.0132929038240237,0.0147070372832577,-0.061));
#1220=CARTESIAN_POINT('',(-0.007,0.00841416946502006,-0.061));
#1221=CARTESIAN_POINT('',(-0.001,0.00241420379491329,-0.061));
#1222=CARTESIAN_POINT('',(-0.007,0.00841416946502006,-0.057));
#1223=CARTESIAN_POINT('',(-0.007,0.00841416946502007,-0.053));
#1224=CARTESIAN_POINT('',(-0.001,0.116939,-0.061));
#1225=CARTESIAN_POINT('',(-0.001,0.0185033919201801,-0.061));
#1226=CARTESIAN_POINT('',(-0.00636398328270849,0.00777815638679288,-0.053));
#1227=CARTESIAN_POINT('',(-0.001,0.0024142037949133,-0.053));
#1228=CARTESIAN_POINT('',(-0.00041020037326272,0.0187476959130658,-0.061));
#1229=CARTESIAN_POINT('',(-0.007,0.0160181004909138,-0.061));
#1230=CARTESIAN_POINT('',(-0.001,0.025,-0.053));
#1231=CARTESIAN_POINT('',(-0.001,0.0185033919201801,-0.053));
#1232=CARTESIAN_POINT('',(-0.007,0.0160181004909138,-0.057));
#1233=CARTESIAN_POINT('',(-0.007,0.0160181004909138,-0.053));
#1234=CARTESIAN_POINT('',(-0.00668840328708093,0.0161471685975814,-0.053));
#1235=CARTESIAN_POINT('',(-0.0573257267400347,0.0629822368086037,-0.064));
#1236=CARTESIAN_POINT('',(-0.0629171973418279,0.115571302092023,-0.064));
#1237=CARTESIAN_POINT('',(-0.004,0.0634695,-0.064));
#1238=CARTESIAN_POINT('',(-0.100451351397497,0.109077737128654,-0.015));
#1239=CARTESIAN_POINT('',(-0.100451351397497,0.109077737128654,-0.015));
#1240=CARTESIAN_POINT('',(-0.0987513513974972,0.109077737128654,-0.015));
#1241=CARTESIAN_POINT('',(-0.0568384663365873,0.0634695,-0.015));
#1242=CARTESIAN_POINT('',(-0.00727312991916364,0.118767978664395,-0.015));
#1243=CARTESIAN_POINT('',(-0.00727312991916364,0.118767978664395,-0.015));
#1244=CARTESIAN_POINT('',(-0.00557312991916364,0.118767978664395,-0.015));
#1245=CARTESIAN_POINT('',(-0.0568384663365873,0.0634695,-0.015));
#1246=CARTESIAN_POINT('',(-0.00554034902538979,0.0133755316422402,-0.015));
#1247=CARTESIAN_POINT('',(-0.00554034902538979,0.0133755316422402,-0.015));
#1248=CARTESIAN_POINT('',(-0.00384034902538979,0.0133755316422402,-0.015));
#1249=CARTESIAN_POINT('',(-0.0568384663365873,0.0634695,-0.015));
#1250=MECHANICAL_DESIGN_GEOMETRIC_PRESENTATION_REPRESENTATION('',(#739),
#1251);
#1251=(
GEOMETRIC_REPRESENTATION_CONTEXT(3)
GLOBAL_UNCERTAINTY_ASSIGNED_CONTEXT((#1252))
GLOBAL_UNIT_ASSIGNED_CONTEXT((#1255,#1254,#1253))
REPRESENTATION_CONTEXT('Part 1','TOP_LEVEL_ASSEMBLY_PART')
);
#1252=UNCERTAINTY_MEASURE_WITH_UNIT(LENGTH_MEASURE(1.E-8),#1255,
'DISTANCE_ACCURACY_VALUE','Maximum Tolerance applied to model');
#1253=(
NAMED_UNIT(*)
SI_UNIT($,.STERADIAN.)
SOLID_ANGLE_UNIT()
);
#1254=(
NAMED_UNIT(*)
PLANE_ANGLE_UNIT()
SI_UNIT($,.RADIAN.)
);
#1255=(
LENGTH_UNIT()
NAMED_UNIT(*)
SI_UNIT($,.METRE.)
);
#1256=PRODUCT_DEFINITION_SHAPE('','',#1257);
#1257=PRODUCT_DEFINITION('','',#1259,#1258);
#1258=PRODUCT_DEFINITION_CONTEXT('',#1265,'design');
#1259=PRODUCT_DEFINITION_FORMATION_WITH_SPECIFIED_SOURCE('','',#1261,
 .NOT_KNOWN.);
#1260=PRODUCT_RELATED_PRODUCT_CATEGORY('','',(#1261));
#1261=PRODUCT('Part 1','Part 1','Part 1',(#1263));
#1262=PRODUCT_CATEGORY('','');
#1263=PRODUCT_CONTEXT('',#1265,'mechanical');
#1264=APPLICATION_PROTOCOL_DEFINITION('international standard',
'ap242_managed_model_based_3d_engineering',2020,#1265);
#1265=APPLICATION_CONTEXT('managed model based 3d engineering');
ENDSEC;
END-ISO-10303-21;
