ISO-10303-21;
HEADER;
/* Generated by software containing ST-Developer
 * from STEP Tools, Inc. (www.steptools.com) 
 */
/* OPTION: using custom renumber hook */

FILE_DESCRIPTION(
/* description */ ('STEP AP242 Edition 2',
'CAx-IF Rec.Pracs.---Representation and Presentation of Product Manufa
cturing Information (PMI)---4.0---2014-10-13',
'CAx-IF Rec.Pracs.---3D Tessellated Geometry---0.4---2014-09-14','2;1',
'CAx-IF Rec.Pracs.---User Defined Attributes---1.5---2016-08-15'),
/* implementation_level */ '2;1');

FILE_NAME(
/* name */ 'speaker_cover_mounts',
/* time_stamp */ '2026-05-20T15:38:40Z',
/* author */ (''),
/* organization */ (''),
/* preprocessor_version */ 'ST-DEVELOPER v20',
/* originating_system */ 'ONSHAPE BY PTC INC, 1.215',
/* authorisation */ '  ');

FILE_SCHEMA (('AP242_MANAGED_MODEL_BASED_3D_ENGINEERING_MIM_LF { 1 0 10303 442 3 1 4 }'));
ENDSEC;

DATA;
#10=SHAPE_REPRESENTATION_RELATIONSHIP('','',#749,#11);
#11=ADVANCED_BREP_SHAPE_REPRESENTATION('',(#747),#1251);
#12=CYLINDRICAL_SURFACE('',#777,0.00235);
#13=CYLINDRICAL_SURFACE('',#781,0.00235);
#14=CYLINDRICAL_SURFACE('',#785,0.00235);
#15=CYLINDRICAL_SURFACE('',#796,0.001);
#16=CYLINDRICAL_SURFACE('',#799,0.001);
#17=CYLINDRICAL_SURFACE('',#801,0.001);
#18=CYLINDRICAL_SURFACE('',#803,0.001);
#19=CYLINDRICAL_SURFACE('',#805,0.001);
#20=CYLINDRICAL_SURFACE('',#807,0.001);
#21=CYLINDRICAL_SURFACE('',#809,0.001);
#22=CYLINDRICAL_SURFACE('',#811,0.001);
#23=CYLINDRICAL_SURFACE('',#812,0.001);
#24=CYLINDRICAL_SURFACE('',#813,0.001);
#25=CYLINDRICAL_SURFACE('',#814,0.001);
#26=CYLINDRICAL_SURFACE('',#815,0.0017);
#27=CYLINDRICAL_SURFACE('',#818,0.0017);
#28=CYLINDRICAL_SURFACE('',#821,0.0017);
#29=ELLIPSE('',#760,0.00108392704152917,0.001);
#30=ELLIPSE('',#761,0.00108392704152917,0.001);
#31=ELLIPSE('',#764,0.0013352605109451,0.001);
#32=ELLIPSE('',#765,0.0013352605109451,0.001);
#33=ELLIPSE('',#768,0.00111073299685689,0.001);
#34=ELLIPSE('',#769,0.00111073299685689,0.001);
#35=ELLIPSE('',#797,0.00141421356237309,0.001);
#36=ELLIPSE('',#798,0.00141421356237309,0.001);
#37=ELLIPSE('',#800,0.00180455238886113,0.001);
#38=ELLIPSE('',#802,0.00180455238886113,0.001);
#39=ELLIPSE('',#804,0.00259183791584957,0.001);
#40=ELLIPSE('',#806,0.00259183791584957,0.001);
#41=ELLIPSE('',#808,0.00141421356237309,0.001);
#42=ELLIPSE('',#810,0.00141421356237309,0.001);
#43=CIRCLE('',#753,0.00235);
#44=CIRCLE('',#755,0.00235);
#45=CIRCLE('',#757,0.00235);
#46=CIRCLE('',#778,0.00235);
#47=CIRCLE('',#780,0.0017);
#48=CIRCLE('',#782,0.00235);
#49=CIRCLE('',#784,0.0017);
#50=CIRCLE('',#786,0.00235);
#51=CIRCLE('',#788,0.0017);
#52=CIRCLE('',#790,0.001);
#53=CIRCLE('',#791,0.001);
#54=CIRCLE('',#793,0.001);
#55=CIRCLE('',#794,0.001);
#56=CIRCLE('',#816,0.0017);
#57=CIRCLE('',#819,0.0017);
#58=CIRCLE('',#822,0.0017);
#59=ORIENTED_EDGE('',*,*,#255,.T.);
#60=ORIENTED_EDGE('',*,*,#256,.T.);
#61=ORIENTED_EDGE('',*,*,#257,.F.);
#62=ORIENTED_EDGE('',*,*,#258,.T.);
#63=ORIENTED_EDGE('',*,*,#259,.T.);
#64=ORIENTED_EDGE('',*,*,#260,.T.);
#65=ORIENTED_EDGE('',*,*,#261,.F.);
#66=ORIENTED_EDGE('',*,*,#262,.F.);
#67=ORIENTED_EDGE('',*,*,#263,.T.);
#68=ORIENTED_EDGE('',*,*,#264,.F.);
#69=ORIENTED_EDGE('',*,*,#265,.T.);
#70=ORIENTED_EDGE('',*,*,#266,.T.);
#71=ORIENTED_EDGE('',*,*,#267,.T.);
#72=ORIENTED_EDGE('',*,*,#268,.T.);
#73=ORIENTED_EDGE('',*,*,#269,.F.);
#74=ORIENTED_EDGE('',*,*,#270,.T.);
#75=ORIENTED_EDGE('',*,*,#260,.F.);
#76=ORIENTED_EDGE('',*,*,#271,.F.);
#77=ORIENTED_EDGE('',*,*,#272,.F.);
#78=ORIENTED_EDGE('',*,*,#273,.T.);
#79=ORIENTED_EDGE('',*,*,#274,.T.);
#80=ORIENTED_EDGE('',*,*,#275,.T.);
#81=ORIENTED_EDGE('',*,*,#255,.F.);
#82=ORIENTED_EDGE('',*,*,#276,.T.);
#83=ORIENTED_EDGE('',*,*,#277,.T.);
#84=ORIENTED_EDGE('',*,*,#268,.F.);
#85=ORIENTED_EDGE('',*,*,#278,.F.);
#86=ORIENTED_EDGE('',*,*,#279,.T.);
#87=ORIENTED_EDGE('',*,*,#280,.T.);
#88=ORIENTED_EDGE('',*,*,#265,.F.);
#89=ORIENTED_EDGE('',*,*,#281,.F.);
#90=ORIENTED_EDGE('',*,*,#282,.T.);
#91=ORIENTED_EDGE('',*,*,#257,.T.);
#92=ORIENTED_EDGE('',*,*,#283,.T.);
#93=ORIENTED_EDGE('',*,*,#284,.T.);
#94=ORIENTED_EDGE('',*,*,#285,.T.);
#95=ORIENTED_EDGE('',*,*,#286,.T.);
#96=ORIENTED_EDGE('',*,*,#263,.F.);
#97=ORIENTED_EDGE('',*,*,#280,.F.);
#98=ORIENTED_EDGE('',*,*,#287,.T.);
#99=ORIENTED_EDGE('',*,*,#288,.T.);
#100=ORIENTED_EDGE('',*,*,#289,.F.);
#101=ORIENTED_EDGE('',*,*,#290,.T.);
#102=ORIENTED_EDGE('',*,*,#291,.T.);
#103=ORIENTED_EDGE('',*,*,#292,.T.);
#104=ORIENTED_EDGE('',*,*,#293,.T.);
#105=ORIENTED_EDGE('',*,*,#294,.T.);
#106=ORIENTED_EDGE('',*,*,#295,.T.);
#107=ORIENTED_EDGE('',*,*,#291,.F.);
#108=ORIENTED_EDGE('',*,*,#296,.T.);
#109=ORIENTED_EDGE('',*,*,#271,.T.);
#110=ORIENTED_EDGE('',*,*,#259,.F.);
#111=ORIENTED_EDGE('',*,*,#297,.F.);
#112=ORIENTED_EDGE('',*,*,#298,.T.);
#113=ORIENTED_EDGE('',*,*,#294,.F.);
#114=ORIENTED_EDGE('',*,*,#299,.F.);
#115=ORIENTED_EDGE('',*,*,#300,.T.);
#116=ORIENTED_EDGE('',*,*,#301,.T.);
#117=ORIENTED_EDGE('',*,*,#302,.F.);
#118=ORIENTED_EDGE('',*,*,#303,.T.);
#119=ORIENTED_EDGE('',*,*,#304,.T.);
#120=ORIENTED_EDGE('',*,*,#305,.T.);
#121=ORIENTED_EDGE('',*,*,#300,.F.);
#122=ORIENTED_EDGE('',*,*,#306,.F.);
#123=ORIENTED_EDGE('',*,*,#267,.F.);
#124=ORIENTED_EDGE('',*,*,#307,.F.);
#125=ORIENTED_EDGE('',*,*,#308,.T.);
#126=ORIENTED_EDGE('',*,*,#309,.T.);
#127=ORIENTED_EDGE('',*,*,#304,.F.);
#128=ORIENTED_EDGE('',*,*,#310,.T.);
#129=ORIENTED_EDGE('',*,*,#311,.T.);
#130=ORIENTED_EDGE('',*,*,#312,.T.);
#131=ORIENTED_EDGE('',*,*,#313,.T.);
#132=ORIENTED_EDGE('',*,*,#278,.T.);
#133=ORIENTED_EDGE('',*,*,#314,.T.);
#134=ORIENTED_EDGE('',*,*,#307,.T.);
#135=ORIENTED_EDGE('',*,*,#269,.T.);
#136=ORIENTED_EDGE('',*,*,#277,.F.);
#137=ORIENTED_EDGE('',*,*,#315,.F.);
#138=ORIENTED_EDGE('',*,*,#261,.T.);
#139=ORIENTED_EDGE('',*,*,#272,.T.);
#140=ORIENTED_EDGE('',*,*,#303,.F.);
#141=ORIENTED_EDGE('',*,*,#286,.F.);
#142=ORIENTED_EDGE('',*,*,#316,.T.);
#143=ORIENTED_EDGE('',*,*,#281,.T.);
#144=ORIENTED_EDGE('',*,*,#264,.T.);
#145=ORIENTED_EDGE('',*,*,#289,.T.);
#146=ORIENTED_EDGE('',*,*,#317,.T.);
#147=ORIENTED_EDGE('',*,*,#311,.F.);
#148=ORIENTED_EDGE('',*,*,#318,.F.);
#149=ORIENTED_EDGE('',*,*,#315,.T.);
#150=ORIENTED_EDGE('',*,*,#276,.F.);
#151=ORIENTED_EDGE('',*,*,#262,.T.);
#152=ORIENTED_EDGE('',*,*,#290,.F.);
#153=ORIENTED_EDGE('',*,*,#318,.T.);
#154=ORIENTED_EDGE('',*,*,#310,.F.);
#155=ORIENTED_EDGE('',*,*,#306,.T.);
#156=ORIENTED_EDGE('',*,*,#299,.T.);
#157=ORIENTED_EDGE('',*,*,#296,.F.);
#158=ORIENTED_EDGE('',*,*,#313,.F.);
#159=ORIENTED_EDGE('',*,*,#319,.T.);
#160=ORIENTED_EDGE('',*,*,#287,.F.);
#161=ORIENTED_EDGE('',*,*,#279,.F.);
#162=ORIENTED_EDGE('',*,*,#293,.F.);
#163=ORIENTED_EDGE('',*,*,#320,.T.);
#164=ORIENTED_EDGE('',*,*,#297,.T.);
#165=ORIENTED_EDGE('',*,*,#258,.F.);
#166=ORIENTED_EDGE('',*,*,#302,.T.);
#167=ORIENTED_EDGE('',*,*,#321,.T.);
#168=ORIENTED_EDGE('',*,*,#308,.F.);
#169=ORIENTED_EDGE('',*,*,#314,.F.);
#170=ORIENTED_EDGE('',*,*,#322,.T.);
#171=ORIENTED_EDGE('',*,*,#273,.F.);
#172=ORIENTED_EDGE('',*,*,#322,.F.);
#173=ORIENTED_EDGE('',*,*,#323,.F.);
#174=ORIENTED_EDGE('',*,*,#324,.T.);
#175=ORIENTED_EDGE('',*,*,#270,.F.);
#176=ORIENTED_EDGE('',*,*,#324,.F.);
#177=ORIENTED_EDGE('',*,*,#325,.F.);
#178=ORIENTED_EDGE('',*,*,#326,.T.);
#179=ORIENTED_EDGE('',*,*,#266,.F.);
#180=ORIENTED_EDGE('',*,*,#326,.F.);
#181=ORIENTED_EDGE('',*,*,#327,.F.);
#182=ORIENTED_EDGE('',*,*,#328,.T.);
#183=ORIENTED_EDGE('',*,*,#329,.T.);
#184=ORIENTED_EDGE('',*,*,#330,.T.);
#185=ORIENTED_EDGE('',*,*,#331,.F.);
#186=ORIENTED_EDGE('',*,*,#332,.T.);
#187=ORIENTED_EDGE('',*,*,#333,.T.);
#188=ORIENTED_EDGE('',*,*,#334,.T.);
#189=ORIENTED_EDGE('',*,*,#335,.T.);
#190=ORIENTED_EDGE('',*,*,#336,.T.);
#191=ORIENTED_EDGE('',*,*,#337,.T.);
#192=ORIENTED_EDGE('',*,*,#338,.T.);
#193=ORIENTED_EDGE('',*,*,#339,.T.);
#194=ORIENTED_EDGE('',*,*,#331,.T.);
#195=ORIENTED_EDGE('',*,*,#340,.T.);
#196=ORIENTED_EDGE('',*,*,#339,.F.);
#197=ORIENTED_EDGE('',*,*,#341,.T.);
#198=ORIENTED_EDGE('',*,*,#342,.F.);
#199=ORIENTED_EDGE('',*,*,#284,.F.);
#200=ORIENTED_EDGE('',*,*,#343,.F.);
#201=ORIENTED_EDGE('',*,*,#332,.F.);
#202=ORIENTED_EDGE('',*,*,#341,.F.);
#203=ORIENTED_EDGE('',*,*,#338,.F.);
#204=ORIENTED_EDGE('',*,*,#343,.T.);
#205=ORIENTED_EDGE('',*,*,#283,.F.);
#206=ORIENTED_EDGE('',*,*,#344,.F.);
#207=ORIENTED_EDGE('',*,*,#333,.F.);
#208=ORIENTED_EDGE('',*,*,#342,.T.);
#209=ORIENTED_EDGE('',*,*,#337,.F.);
#210=ORIENTED_EDGE('',*,*,#345,.F.);
#211=ORIENTED_EDGE('',*,*,#285,.F.);
#212=ORIENTED_EDGE('',*,*,#344,.T.);
#213=ORIENTED_EDGE('',*,*,#256,.F.);
#214=ORIENTED_EDGE('',*,*,#346,.F.);
#215=ORIENTED_EDGE('',*,*,#328,.F.);
#216=ORIENTED_EDGE('',*,*,#345,.T.);
#217=ORIENTED_EDGE('',*,*,#336,.F.);
#218=ORIENTED_EDGE('',*,*,#347,.F.);
#219=ORIENTED_EDGE('',*,*,#316,.F.);
#220=ORIENTED_EDGE('',*,*,#346,.T.);
#221=ORIENTED_EDGE('',*,*,#275,.F.);
#222=ORIENTED_EDGE('',*,*,#348,.F.);
#223=ORIENTED_EDGE('',*,*,#329,.F.);
#224=ORIENTED_EDGE('',*,*,#335,.F.);
#225=ORIENTED_EDGE('',*,*,#349,.F.);
#226=ORIENTED_EDGE('',*,*,#282,.F.);
#227=ORIENTED_EDGE('',*,*,#347,.T.);
#228=ORIENTED_EDGE('',*,*,#348,.T.);
#229=ORIENTED_EDGE('',*,*,#274,.F.);
#230=ORIENTED_EDGE('',*,*,#349,.T.);
#231=ORIENTED_EDGE('',*,*,#334,.F.);
#232=ORIENTED_EDGE('',*,*,#340,.F.);
#233=ORIENTED_EDGE('',*,*,#330,.F.);
#234=ORIENTED_EDGE('',*,*,#309,.F.);
#235=ORIENTED_EDGE('',*,*,#321,.F.);
#236=ORIENTED_EDGE('',*,*,#301,.F.);
#237=ORIENTED_EDGE('',*,*,#305,.F.);
#238=ORIENTED_EDGE('',*,*,#288,.F.);
#239=ORIENTED_EDGE('',*,*,#319,.F.);
#240=ORIENTED_EDGE('',*,*,#312,.F.);
#241=ORIENTED_EDGE('',*,*,#317,.F.);
#242=ORIENTED_EDGE('',*,*,#292,.F.);
#243=ORIENTED_EDGE('',*,*,#295,.F.);
#244=ORIENTED_EDGE('',*,*,#298,.F.);
#245=ORIENTED_EDGE('',*,*,#320,.F.);
#246=ORIENTED_EDGE('',*,*,#327,.T.);
#247=ORIENTED_EDGE('',*,*,#350,.F.);
#248=ORIENTED_EDGE('',*,*,#350,.T.);
#249=ORIENTED_EDGE('',*,*,#325,.T.);
#250=ORIENTED_EDGE('',*,*,#351,.F.);
#251=ORIENTED_EDGE('',*,*,#351,.T.);
#252=ORIENTED_EDGE('',*,*,#323,.T.);
#253=ORIENTED_EDGE('',*,*,#352,.F.);
#254=ORIENTED_EDGE('',*,*,#352,.T.);
#255=EDGE_CURVE('',#353,#354,#421,.T.);
#256=EDGE_CURVE('',#354,#355,#422,.F.);
#257=EDGE_CURVE('',#356,#355,#423,.T.);
#258=EDGE_CURVE('',#356,#357,#424,.T.);
#259=EDGE_CURVE('',#357,#358,#425,.T.);
#260=EDGE_CURVE('',#358,#359,#426,.T.);
#261=EDGE_CURVE('',#360,#359,#427,.T.);
#262=EDGE_CURVE('',#353,#360,#428,.T.);
#263=EDGE_CURVE('',#361,#362,#429,.T.);
#264=EDGE_CURVE('',#363,#362,#430,.T.);
#265=EDGE_CURVE('',#363,#361,#431,.T.);
#266=EDGE_CURVE('',#364,#364,#43,.T.);
#267=EDGE_CURVE('',#365,#366,#432,.T.);
#268=EDGE_CURVE('',#366,#367,#433,.T.);
#269=EDGE_CURVE('',#365,#367,#434,.T.);
#270=EDGE_CURVE('',#368,#368,#44,.T.);
#271=EDGE_CURVE('',#369,#358,#435,.T.);
#272=EDGE_CURVE('',#359,#369,#436,.T.);
#273=EDGE_CURVE('',#370,#370,#45,.T.);
#274=EDGE_CURVE('',#371,#372,#437,.F.);
#275=EDGE_CURVE('',#372,#354,#438,.F.);
#276=EDGE_CURVE('',#353,#373,#439,.T.);
#277=EDGE_CURVE('',#373,#367,#440,.T.);
#278=EDGE_CURVE('',#374,#366,#441,.T.);
#279=EDGE_CURVE('',#374,#375,#442,.T.);
#280=EDGE_CURVE('',#375,#361,#443,.T.);
#281=EDGE_CURVE('',#376,#363,#444,.T.);
#282=EDGE_CURVE('',#376,#371,#445,.F.);
#283=EDGE_CURVE('',#355,#377,#446,.F.);
#284=EDGE_CURVE('',#377,#378,#447,.F.);
#285=EDGE_CURVE('',#378,#379,#448,.F.);
#286=EDGE_CURVE('',#379,#362,#449,.T.);
#287=EDGE_CURVE('',#375,#380,#450,.T.);
#288=EDGE_CURVE('',#380,#381,#29,.F.);
#289=EDGE_CURVE('',#382,#381,#451,.T.);
#290=EDGE_CURVE('',#382,#383,#452,.T.);
#291=EDGE_CURVE('',#383,#384,#453,.T.);
#292=EDGE_CURVE('',#384,#385,#30,.F.);
#293=EDGE_CURVE('',#385,#356,#454,.T.);
#294=EDGE_CURVE('',#386,#387,#455,.T.);
#295=EDGE_CURVE('',#387,#384,#456,.F.);
#296=EDGE_CURVE('',#383,#386,#457,.T.);
#297=EDGE_CURVE('',#388,#357,#458,.T.);
#298=EDGE_CURVE('',#388,#387,#31,.T.);
#299=EDGE_CURVE('',#389,#386,#459,.T.);
#300=EDGE_CURVE('',#389,#390,#460,.T.);
#301=EDGE_CURVE('',#390,#391,#32,.T.);
#302=EDGE_CURVE('',#392,#391,#461,.T.);
#303=EDGE_CURVE('',#392,#369,#462,.T.);
#304=EDGE_CURVE('',#393,#394,#463,.T.);
#305=EDGE_CURVE('',#394,#390,#464,.T.);
#306=EDGE_CURVE('',#393,#389,#465,.T.);
#307=EDGE_CURVE('',#395,#365,#466,.T.);
#308=EDGE_CURVE('',#395,#396,#467,.T.);
#309=EDGE_CURVE('',#396,#394,#33,.F.);
#310=EDGE_CURVE('',#393,#397,#468,.T.);
#311=EDGE_CURVE('',#397,#398,#469,.T.);
#312=EDGE_CURVE('',#398,#399,#34,.F.);
#313=EDGE_CURVE('',#399,#374,#470,.T.);
#314=EDGE_CURVE('',#392,#395,#471,.T.);
#315=EDGE_CURVE('',#360,#373,#472,.T.);
#316=EDGE_CURVE('',#379,#376,#473,.T.);
#317=EDGE_CURVE('',#381,#398,#474,.T.);
#318=EDGE_CURVE('',#382,#397,#475,.T.);
#319=EDGE_CURVE('',#399,#380,#476,.F.);
#320=EDGE_CURVE('',#385,#388,#477,.T.);
#321=EDGE_CURVE('',#391,#396,#478,.F.);
#322=EDGE_CURVE('',#400,#400,#46,.T.);
#323=EDGE_CURVE('',#401,#401,#47,.T.);
#324=EDGE_CURVE('',#402,#402,#48,.T.);
#325=EDGE_CURVE('',#403,#403,#49,.T.);
#326=EDGE_CURVE('',#404,#404,#50,.T.);
#327=EDGE_CURVE('',#405,#405,#51,.T.);
#328=EDGE_CURVE('',#406,#407,#479,.T.);
#329=EDGE_CURVE('',#407,#408,#480,.T.);
#330=EDGE_CURVE('',#408,#409,#52,.T.);
#331=EDGE_CURVE('',#410,#409,#481,.T.);
#332=EDGE_CURVE('',#410,#411,#53,.T.);
#333=EDGE_CURVE('',#411,#406,#482,.T.);
#334=EDGE_CURVE('',#412,#413,#54,.T.);
#335=EDGE_CURVE('',#413,#414,#483,.T.);
#336=EDGE_CURVE('',#414,#415,#484,.F.);
#337=EDGE_CURVE('',#415,#416,#485,.T.);
#338=EDGE_CURVE('',#416,#417,#55,.T.);
#339=EDGE_CURVE('',#417,#412,#486,.T.);
#340=EDGE_CURVE('',#409,#412,#487,.T.);
#341=EDGE_CURVE('',#417,#410,#488,.T.);
#342=EDGE_CURVE('',#378,#416,#35,.T.);
#343=EDGE_CURVE('',#411,#377,#36,.F.);
#344=EDGE_CURVE('',#406,#355,#37,.T.);
#345=EDGE_CURVE('',#379,#415,#38,.T.);
#346=EDGE_CURVE('',#407,#354,#39,.T.);
#347=EDGE_CURVE('',#376,#414,#40,.T.);
#348=EDGE_CURVE('',#408,#372,#41,.F.);
#349=EDGE_CURVE('',#371,#413,#42,.T.);
#350=EDGE_CURVE('',#418,#418,#56,.T.);
#351=EDGE_CURVE('',#419,#419,#57,.T.);
#352=EDGE_CURVE('',#420,#420,#58,.T.);
#353=VERTEX_POINT('',#1043);
#354=VERTEX_POINT('',#1044);
#355=VERTEX_POINT('',#1046);
#356=VERTEX_POINT('',#1048);
#357=VERTEX_POINT('',#1050);
#358=VERTEX_POINT('',#1052);
#359=VERTEX_POINT('',#1054);
#360=VERTEX_POINT('',#1056);
#361=VERTEX_POINT('',#1060);
#362=VERTEX_POINT('',#1061);
#363=VERTEX_POINT('',#1063);
#364=VERTEX_POINT('',#1066);
#365=VERTEX_POINT('',#1069);
#366=VERTEX_POINT('',#1070);
#367=VERTEX_POINT('',#1072);
#368=VERTEX_POINT('',#1075);
#369=VERTEX_POINT('',#1078);
#370=VERTEX_POINT('',#1081);
#371=VERTEX_POINT('',#1084);
#372=VERTEX_POINT('',#1085);
#373=VERTEX_POINT('',#1088);
#374=VERTEX_POINT('',#1091);
#375=VERTEX_POINT('',#1093);
#376=VERTEX_POINT('',#1096);
#377=VERTEX_POINT('',#1100);
#378=VERTEX_POINT('',#1102);
#379=VERTEX_POINT('',#1104);
#380=VERTEX_POINT('',#1107);
#381=VERTEX_POINT('',#1109);
#382=VERTEX_POINT('',#1111);
#383=VERTEX_POINT('',#1113);
#384=VERTEX_POINT('',#1115);
#385=VERTEX_POINT('',#1117);
#386=VERTEX_POINT('',#1121);
#387=VERTEX_POINT('',#1122);
#388=VERTEX_POINT('',#1127);
#389=VERTEX_POINT('',#1130);
#390=VERTEX_POINT('',#1132);
#391=VERTEX_POINT('',#1134);
#392=VERTEX_POINT('',#1136);
#393=VERTEX_POINT('',#1140);
#394=VERTEX_POINT('',#1141);
#395=VERTEX_POINT('',#1146);
#396=VERTEX_POINT('',#1148);
#397=VERTEX_POINT('',#1151);
#398=VERTEX_POINT('',#1153);
#399=VERTEX_POINT('',#1155);
#400=VERTEX_POINT('',#1174);
#401=VERTEX_POINT('',#1177);
#402=VERTEX_POINT('',#1180);
#403=VERTEX_POINT('',#1183);
#404=VERTEX_POINT('',#1186);
#405=VERTEX_POINT('',#1189);
#406=VERTEX_POINT('',#1192);
#407=VERTEX_POINT('',#1193);
#408=VERTEX_POINT('',#1195);
#409=VERTEX_POINT('',#1197);
#410=VERTEX_POINT('',#1199);
#411=VERTEX_POINT('',#1201);
#412=VERTEX_POINT('',#1205);
#413=VERTEX_POINT('',#1206);
#414=VERTEX_POINT('',#1208);
#415=VERTEX_POINT('',#1210);
#416=VERTEX_POINT('',#1212);
#417=VERTEX_POINT('',#1214);
#418=VERTEX_POINT('',#1240);
#419=VERTEX_POINT('',#1244);
#420=VERTEX_POINT('',#1248);
#421=LINE('',#1042,#489);
#422=LINE('',#1045,#490);
#423=LINE('',#1047,#491);
#424=LINE('',#1049,#492);
#425=LINE('',#1051,#493);
#426=LINE('',#1053,#494);
#427=LINE('',#1055,#495);
#428=LINE('',#1057,#496);
#429=LINE('',#1059,#497);
#430=LINE('',#1062,#498);
#431=LINE('',#1064,#499);
#432=LINE('',#1068,#500);
#433=LINE('',#1071,#501);
#434=LINE('',#1073,#502);
#435=LINE('',#1077,#503);
#436=LINE('',#1079,#504);
#437=LINE('',#1083,#505);
#438=LINE('',#1086,#506);
#439=LINE('',#1087,#507);
#440=LINE('',#1089,#508);
#441=LINE('',#1090,#509);
#442=LINE('',#1092,#510);
#443=LINE('',#1094,#511);
#444=LINE('',#1095,#512);
#445=LINE('',#1097,#513);
#446=LINE('',#1099,#514);
#447=LINE('',#1101,#515);
#448=LINE('',#1103,#516);
#449=LINE('',#1105,#517);
#450=LINE('',#1106,#518);
#451=LINE('',#1110,#519);
#452=LINE('',#1112,#520);
#453=LINE('',#1114,#521);
#454=LINE('',#1118,#522);
#455=LINE('',#1120,#523);
#456=LINE('',#1123,#524);
#457=LINE('',#1124,#525);
#458=LINE('',#1126,#526);
#459=LINE('',#1129,#527);
#460=LINE('',#1131,#528);
#461=LINE('',#1135,#529);
#462=LINE('',#1137,#530);
#463=LINE('',#1139,#531);
#464=LINE('',#1142,#532);
#465=LINE('',#1143,#533);
#466=LINE('',#1145,#534);
#467=LINE('',#1147,#535);
#468=LINE('',#1150,#536);
#469=LINE('',#1152,#537);
#470=LINE('',#1156,#538);
#471=LINE('',#1158,#539);
#472=LINE('',#1159,#540);
#473=LINE('',#1161,#541);
#474=LINE('',#1163,#542);
#475=LINE('',#1164,#543);
#476=LINE('',#1167,#544);
#477=LINE('',#1169,#545);
#478=LINE('',#1171,#546);
#479=LINE('',#1191,#547);
#480=LINE('',#1194,#548);
#481=LINE('',#1198,#549);
#482=LINE('',#1202,#550);
#483=LINE('',#1207,#551);
#484=LINE('',#1209,#552);
#485=LINE('',#1211,#553);
#486=LINE('',#1215,#554);
#487=LINE('',#1217,#555);
#488=LINE('',#1218,#556);
#489=VECTOR('',#828,1.);
#490=VECTOR('',#829,1.);
#491=VECTOR('',#830,1.);
#492=VECTOR('',#831,1.);
#493=VECTOR('',#832,1.);
#494=VECTOR('',#833,1.);
#495=VECTOR('',#834,1.);
#496=VECTOR('',#835,1.);
#497=VECTOR('',#838,1.);
#498=VECTOR('',#839,1.);
#499=VECTOR('',#840,1.);
#500=VECTOR('',#845,1.);
#501=VECTOR('',#846,1.);
#502=VECTOR('',#847,1.);
#503=VECTOR('',#852,1.);
#504=VECTOR('',#853,1.);
#505=VECTOR('',#858,1.);
#506=VECTOR('',#859,1.);
#507=VECTOR('',#860,1.);
#508=VECTOR('',#861,1.);
#509=VECTOR('',#862,1.);
#510=VECTOR('',#863,1.);
#511=VECTOR('',#864,1.);
#512=VECTOR('',#865,1.);
#513=VECTOR('',#866,1.);
#514=VECTOR('',#869,1.);
#515=VECTOR('',#870,1.);
#516=VECTOR('',#871,1.);
#517=VECTOR('',#872,1.);
#518=VECTOR('',#873,1.);
#519=VECTOR('',#876,1.);
#520=VECTOR('',#877,1.);
#521=VECTOR('',#878,1.);
#522=VECTOR('',#881,1.);
#523=VECTOR('',#884,1.);
#524=VECTOR('',#885,1.);
#525=VECTOR('',#886,1.);
#526=VECTOR('',#889,1.);
#527=VECTOR('',#892,1.);
#528=VECTOR('',#893,1.);
#529=VECTOR('',#896,1.);
#530=VECTOR('',#897,1.);
#531=VECTOR('',#900,1.);
#532=VECTOR('',#901,1.);
#533=VECTOR('',#902,1.);
#534=VECTOR('',#905,1.);
#535=VECTOR('',#906,1.);
#536=VECTOR('',#909,1.);
#537=VECTOR('',#910,1.);
#538=VECTOR('',#913,1.);
#539=VECTOR('',#916,1.);
#540=VECTOR('',#917,1.);
#541=VECTOR('',#920,1.);
#542=VECTOR('',#923,1.);
#543=VECTOR('',#924,1.);
#544=VECTOR('',#929,1.);
#545=VECTOR('',#932,1.);
#546=VECTOR('',#935,1.);
#547=VECTOR('',#962,1.);
#548=VECTOR('',#963,1.);
#549=VECTOR('',#966,1.);
#550=VECTOR('',#969,1.);
#551=VECTOR('',#974,1.);
#552=VECTOR('',#975,1.);
#553=VECTOR('',#976,1.);
#554=VECTOR('',#979,1.);
#555=VECTOR('',#982,1.);
#556=VECTOR('',#983,1.);
#557=EDGE_LOOP('',(#59,#60,#61,#62,#63,#64,#65,#66));
#558=EDGE_LOOP('',(#67,#68,#69));
#559=EDGE_LOOP('',(#70));
#560=EDGE_LOOP('',(#71,#72,#73));
#561=EDGE_LOOP('',(#74));
#562=EDGE_LOOP('',(#75,#76,#77));
#563=EDGE_LOOP('',(#78));
#564=EDGE_LOOP('',(#79,#80,#81,#82,#83,#84,#85,#86,#87,#88,#89,#90));
#565=EDGE_LOOP('',(#91,#92,#93,#94,#95,#96,#97,#98,#99,#100,#101,#102,#103,
#104));
#566=EDGE_LOOP('',(#105,#106,#107,#108));
#567=EDGE_LOOP('',(#109,#110,#111,#112,#113,#114,#115,#116,#117,#118));
#568=EDGE_LOOP('',(#119,#120,#121,#122));
#569=EDGE_LOOP('',(#123,#124,#125,#126,#127,#128,#129,#130,#131,#132));
#570=EDGE_LOOP('',(#133,#134,#135,#136,#137,#138,#139,#140));
#571=EDGE_LOOP('',(#141,#142,#143,#144));
#572=EDGE_LOOP('',(#145,#146,#147,#148));
#573=EDGE_LOOP('',(#149,#150,#151));
#574=EDGE_LOOP('',(#152,#153,#154,#155,#156,#157));
#575=EDGE_LOOP('',(#158,#159,#160,#161));
#576=EDGE_LOOP('',(#162,#163,#164,#165));
#577=EDGE_LOOP('',(#166,#167,#168,#169));
#578=EDGE_LOOP('',(#170));
#579=EDGE_LOOP('',(#171));
#580=EDGE_LOOP('',(#172));
#581=EDGE_LOOP('',(#173));
#582=EDGE_LOOP('',(#174));
#583=EDGE_LOOP('',(#175));
#584=EDGE_LOOP('',(#176));
#585=EDGE_LOOP('',(#177));
#586=EDGE_LOOP('',(#178));
#587=EDGE_LOOP('',(#179));
#588=EDGE_LOOP('',(#180));
#589=EDGE_LOOP('',(#181));
#590=EDGE_LOOP('',(#182,#183,#184,#185,#186,#187));
#591=EDGE_LOOP('',(#188,#189,#190,#191,#192,#193));
#592=EDGE_LOOP('',(#194,#195,#196,#197));
#593=EDGE_LOOP('',(#198,#199,#200,#201,#202,#203));
#594=EDGE_LOOP('',(#204,#205,#206,#207));
#595=EDGE_LOOP('',(#208,#209,#210,#211));
#596=EDGE_LOOP('',(#212,#213,#214,#215));
#597=EDGE_LOOP('',(#216,#217,#218,#219));
#598=EDGE_LOOP('',(#220,#221,#222,#223));
#599=EDGE_LOOP('',(#224,#225,#226,#227));
#600=EDGE_LOOP('',(#228,#229,#230,#231,#232,#233));
#601=EDGE_LOOP('',(#234,#235,#236,#237));
#602=EDGE_LOOP('',(#238,#239,#240,#241));
#603=EDGE_LOOP('',(#242,#243,#244,#245));
#604=EDGE_LOOP('',(#246));
#605=EDGE_LOOP('',(#247));
#606=EDGE_LOOP('',(#248));
#607=EDGE_LOOP('',(#249));
#608=EDGE_LOOP('',(#250));
#609=EDGE_LOOP('',(#251));
#610=EDGE_LOOP('',(#252));
#611=EDGE_LOOP('',(#253));
#612=EDGE_LOOP('',(#254));
#613=FACE_BOUND('',#557,.T.);
#614=FACE_BOUND('',#558,.T.);
#615=FACE_BOUND('',#559,.T.);
#616=FACE_BOUND('',#560,.T.);
#617=FACE_BOUND('',#561,.T.);
#618=FACE_BOUND('',#562,.T.);
#619=FACE_BOUND('',#563,.T.);
#620=FACE_BOUND('',#564,.T.);
#621=FACE_BOUND('',#565,.T.);
#622=FACE_BOUND('',#566,.T.);
#623=FACE_BOUND('',#567,.T.);
#624=FACE_BOUND('',#568,.T.);
#625=FACE_BOUND('',#569,.T.);
#626=FACE_BOUND('',#570,.T.);
#627=FACE_BOUND('',#571,.T.);
#628=FACE_BOUND('',#572,.T.);
#629=FACE_BOUND('',#573,.T.);
#630=FACE_BOUND('',#574,.T.);
#631=FACE_BOUND('',#575,.T.);
#632=FACE_BOUND('',#576,.T.);
#633=FACE_BOUND('',#577,.T.);
#634=FACE_BOUND('',#578,.T.);
#635=FACE_BOUND('',#579,.T.);
#636=FACE_BOUND('',#580,.T.);
#637=FACE_BOUND('',#581,.T.);
#638=FACE_BOUND('',#582,.T.);
#639=FACE_BOUND('',#583,.T.);
#640=FACE_BOUND('',#584,.T.);
#641=FACE_BOUND('',#585,.T.);
#642=FACE_BOUND('',#586,.T.);
#643=FACE_BOUND('',#587,.T.);
#644=FACE_BOUND('',#588,.T.);
#645=FACE_BOUND('',#589,.T.);
#646=FACE_BOUND('',#590,.T.);
#647=FACE_BOUND('',#591,.T.);
#648=FACE_BOUND('',#592,.T.);
#649=FACE_BOUND('',#593,.T.);
#650=FACE_BOUND('',#594,.T.);
#651=FACE_BOUND('',#595,.T.);
#652=FACE_BOUND('',#596,.T.);
#653=FACE_BOUND('',#597,.T.);
#654=FACE_BOUND('',#598,.T.);
#655=FACE_BOUND('',#599,.T.);
#656=FACE_BOUND('',#600,.T.);
#657=FACE_BOUND('',#601,.T.);
#658=FACE_BOUND('',#602,.T.);
#659=FACE_BOUND('',#603,.T.);
#660=FACE_BOUND('',#604,.T.);
#661=FACE_BOUND('',#605,.T.);
#662=FACE_BOUND('',#606,.T.);
#663=FACE_BOUND('',#607,.T.);
#664=FACE_BOUND('',#608,.T.);
#665=FACE_BOUND('',#609,.T.);
#666=FACE_BOUND('',#610,.T.);
#667=FACE_BOUND('',#611,.T.);
#668=FACE_BOUND('',#612,.T.);
#669=PLANE('',#751);
#670=PLANE('',#752);
#671=PLANE('',#754);
#672=PLANE('',#756);
#673=PLANE('',#758);
#674=PLANE('',#759);
#675=PLANE('',#762);
#676=PLANE('',#763);
#677=PLANE('',#766);
#678=PLANE('',#767);
#679=PLANE('',#770);
#680=PLANE('',#771);
#681=PLANE('',#772);
#682=PLANE('',#773);
#683=PLANE('',#774);
#684=PLANE('',#775);
#685=PLANE('',#776);
#686=PLANE('',#779);
#687=PLANE('',#783);
#688=PLANE('',#787);
#689=PLANE('',#789);
#690=PLANE('',#792);
#691=PLANE('',#795);
#692=PLANE('',#817);
#693=PLANE('',#820);
#694=PLANE('',#823);
#695=ADVANCED_FACE('',(#613),#669,.F.);
#696=ADVANCED_FACE('',(#614,#615),#670,.T.);
#697=ADVANCED_FACE('',(#616,#617),#671,.T.);
#698=ADVANCED_FACE('',(#618,#619),#672,.T.);
#699=ADVANCED_FACE('',(#620),#673,.T.);
#700=ADVANCED_FACE('',(#621),#674,.T.);
#701=ADVANCED_FACE('',(#622),#675,.T.);
#702=ADVANCED_FACE('',(#623),#676,.F.);
#703=ADVANCED_FACE('',(#624),#677,.F.);
#704=ADVANCED_FACE('',(#625),#678,.T.);
#705=ADVANCED_FACE('',(#626),#679,.F.);
#706=ADVANCED_FACE('',(#627),#680,.F.);
#707=ADVANCED_FACE('',(#628),#681,.F.);
#708=ADVANCED_FACE('',(#629,#630),#682,.F.);
#709=ADVANCED_FACE('',(#631),#683,.T.);
#710=ADVANCED_FACE('',(#632),#684,.T.);
#711=ADVANCED_FACE('',(#633),#685,.T.);
#712=ADVANCED_FACE('',(#634,#635),#12,.F.);
#713=ADVANCED_FACE('',(#636,#637),#686,.T.);
#714=ADVANCED_FACE('',(#638,#639),#13,.F.);
#715=ADVANCED_FACE('',(#640,#641),#687,.T.);
#716=ADVANCED_FACE('',(#642,#643),#14,.F.);
#717=ADVANCED_FACE('',(#644,#645),#688,.T.);
#718=ADVANCED_FACE('',(#646),#689,.F.);
#719=ADVANCED_FACE('',(#647),#690,.F.);
#720=ADVANCED_FACE('',(#648),#691,.F.);
#721=ADVANCED_FACE('',(#649),#15,.T.);
#722=ADVANCED_FACE('',(#650),#16,.T.);
#723=ADVANCED_FACE('',(#651),#17,.T.);
#724=ADVANCED_FACE('',(#652),#18,.T.);
#725=ADVANCED_FACE('',(#653),#19,.T.);
#726=ADVANCED_FACE('',(#654),#20,.T.);
#727=ADVANCED_FACE('',(#655),#21,.T.);
#728=ADVANCED_FACE('',(#656),#22,.T.);
#729=ADVANCED_FACE('',(#657),#23,.T.);
#730=ADVANCED_FACE('',(#658),#24,.T.);
#731=ADVANCED_FACE('',(#659),#25,.T.);
#732=ADVANCED_FACE('',(#660,#661),#26,.F.);
#733=ADVANCED_FACE('',(#662),#692,.T.);
#734=ADVANCED_FACE('',(#663,#664),#27,.F.);
#735=ADVANCED_FACE('',(#665),#693,.T.);
#736=ADVANCED_FACE('',(#666,#667),#28,.F.);
#737=ADVANCED_FACE('',(#668),#694,.T.);
#738=CLOSED_SHELL('',(#695,#696,#697,#698,#699,#700,#701,#702,#703,#704,
#705,#706,#707,#708,#709,#710,#711,#712,#713,#714,#715,#716,#717,#718,#719,
#720,#721,#722,#723,#724,#725,#726,#727,#728,#729,#730,#731,#732,#733,#734,
#735,#736,#737));
#739=STYLED_ITEM('',(#740),#747);
#740=PRESENTATION_STYLE_ASSIGNMENT((#741));
#741=SURFACE_STYLE_USAGE(.BOTH.,#742);
#742=SURFACE_SIDE_STYLE('',(#743));
#743=SURFACE_STYLE_FILL_AREA(#744);
#744=FILL_AREA_STYLE('',(#745));
#745=FILL_AREA_STYLE_COLOUR('',#746);
#746=COLOUR_RGB('',0.972549019607843,0.529411764705882,0.00392156862745098);
#747=MANIFOLD_SOLID_BREP('Part 1',#738);
#748=SHAPE_DEFINITION_REPRESENTATION(#1256,#749);
#749=SHAPE_REPRESENTATION('Part 1',(#750),#1251);
#750=AXIS2_PLACEMENT_3D('',#1040,#824,#825);
#751=AXIS2_PLACEMENT_3D('',#1041,#826,#827);
#752=AXIS2_PLACEMENT_3D('',#1058,#836,#837);
#753=AXIS2_PLACEMENT_3D('',#1065,#841,#842);
#754=AXIS2_PLACEMENT_3D('',#1067,#843,#844);
#755=AXIS2_PLACEMENT_3D('',#1074,#848,#849);
#756=AXIS2_PLACEMENT_3D('',#1076,#850,#851);
#757=AXIS2_PLACEMENT_3D('',#1080,#854,#855);
#758=AXIS2_PLACEMENT_3D('',#1082,#856,#857);
#759=AXIS2_PLACEMENT_3D('',#1098,#867,#868);
#760=AXIS2_PLACEMENT_3D('',#1108,#874,#875);
#761=AXIS2_PLACEMENT_3D('',#1116,#879,#880);
#762=AXIS2_PLACEMENT_3D('',#1119,#882,#883);
#763=AXIS2_PLACEMENT_3D('',#1125,#887,#888);
#764=AXIS2_PLACEMENT_3D('',#1128,#890,#891);
#765=AXIS2_PLACEMENT_3D('',#1133,#894,#895);
#766=AXIS2_PLACEMENT_3D('',#1138,#898,#899);
#767=AXIS2_PLACEMENT_3D('',#1144,#903,#904);
#768=AXIS2_PLACEMENT_3D('',#1149,#907,#908);
#769=AXIS2_PLACEMENT_3D('',#1154,#911,#912);
#770=AXIS2_PLACEMENT_3D('',#1157,#914,#915);
#771=AXIS2_PLACEMENT_3D('',#1160,#918,#919);
#772=AXIS2_PLACEMENT_3D('',#1162,#921,#922);
#773=AXIS2_PLACEMENT_3D('',#1165,#925,#926);
#774=AXIS2_PLACEMENT_3D('',#1166,#927,#928);
#775=AXIS2_PLACEMENT_3D('',#1168,#930,#931);
#776=AXIS2_PLACEMENT_3D('',#1170,#933,#934);
#777=AXIS2_PLACEMENT_3D('',#1172,#936,#937);
#778=AXIS2_PLACEMENT_3D('',#1173,#938,#939);
#779=AXIS2_PLACEMENT_3D('',#1175,#940,#941);
#780=AXIS2_PLACEMENT_3D('',#1176,#942,#943);
#781=AXIS2_PLACEMENT_3D('',#1178,#944,#945);
#782=AXIS2_PLACEMENT_3D('',#1179,#946,#947);
#783=AXIS2_PLACEMENT_3D('',#1181,#948,#949);
#784=AXIS2_PLACEMENT_3D('',#1182,#950,#951);
#785=AXIS2_PLACEMENT_3D('',#1184,#952,#953);
#786=AXIS2_PLACEMENT_3D('',#1185,#954,#955);
#787=AXIS2_PLACEMENT_3D('',#1187,#956,#957);
#788=AXIS2_PLACEMENT_3D('',#1188,#958,#959);
#789=AXIS2_PLACEMENT_3D('',#1190,#960,#961);
#790=AXIS2_PLACEMENT_3D('',#1196,#964,#965);
#791=AXIS2_PLACEMENT_3D('',#1200,#967,#968);
#792=AXIS2_PLACEMENT_3D('',#1203,#970,#971);
#793=AXIS2_PLACEMENT_3D('',#1204,#972,#973);
#794=AXIS2_PLACEMENT_3D('',#1213,#977,#978);
#795=AXIS2_PLACEMENT_3D('',#1216,#980,#981);
#796=AXIS2_PLACEMENT_3D('',#1219,#984,#985);
#797=AXIS2_PLACEMENT_3D('',#1220,#986,#987);
#798=AXIS2_PLACEMENT_3D('',#1221,#988,#989);
#799=AXIS2_PLACEMENT_3D('',#1222,#990,#991);
#800=AXIS2_PLACEMENT_3D('',#1223,#992,#993);
#801=AXIS2_PLACEMENT_3D('',#1224,#994,#995);
#802=AXIS2_PLACEMENT_3D('',#1225,#996,#997);
#803=AXIS2_PLACEMENT_3D('',#1226,#998,#999);
#804=AXIS2_PLACEMENT_3D('',#1227,#1000,#1001);
#805=AXIS2_PLACEMENT_3D('',#1228,#1002,#1003);
#806=AXIS2_PLACEMENT_3D('',#1229,#1004,#1005);
#807=AXIS2_PLACEMENT_3D('',#1230,#1006,#1007);
#808=AXIS2_PLACEMENT_3D('',#1231,#1008,#1009);
#809=AXIS2_PLACEMENT_3D('',#1232,#1010,#1011);
#810=AXIS2_PLACEMENT_3D('',#1233,#1012,#1013);
#811=AXIS2_PLACEMENT_3D('',#1234,#1014,#1015);
#812=AXIS2_PLACEMENT_3D('',#1235,#1016,#1017);
#813=AXIS2_PLACEMENT_3D('',#1236,#1018,#1019);
#814=AXIS2_PLACEMENT_3D('',#1237,#1020,#1021);
#815=AXIS2_PLACEMENT_3D('',#1238,#1022,#1023);
#816=AXIS2_PLACEMENT_3D('',#1239,#1024,#1025);
#817=AXIS2_PLACEMENT_3D('',#1241,#1026,#1027);
#818=AXIS2_PLACEMENT_3D('',#1242,#1028,#1029);
#819=AXIS2_PLACEMENT_3D('',#1243,#1030,#1031);
#820=AXIS2_PLACEMENT_3D('',#1245,#1032,#1033);
#821=AXIS2_PLACEMENT_3D('',#1246,#1034,#1035);
#822=AXIS2_PLACEMENT_3D('',#1247,#1036,#1037);
#823=AXIS2_PLACEMENT_3D('',#1249,#1038,#1039);
#824=DIRECTION('',(0.,0.,1.));
#825=DIRECTION('',(1.,0.,0.));
#826=DIRECTION('',(-1.,-1.22464679914735E-16,0.));
#827=DIRECTION('',(1.22464679914735E-16,-1.,0.));
#828=DIRECTION('',(0.,0.,1.));
#829=DIRECTION('',(-1.22464679914735E-16,1.,0.));
#830=DIRECTION('',(0.,0.,1.));
#831=DIRECTION('',(5.63575849672004E-16,-1.,0.));
#832=DIRECTION('',(0.,0.,1.));
#833=DIRECTION('',(1.22464679914735E-16,-1.,0.));
#834=DIRECTION('',(0.,0.,1.));
#835=DIRECTION('',(1.22464679914735E-16,-1.,0.));
#836=DIRECTION('',(0.,0.,1.));
#837=DIRECTION('',(1.,0.,0.));
#838=DIRECTION('',(0.922571318627892,-0.385826595824073,0.));
#839=DIRECTION('',(1.22464679914735E-16,-1.,0.));
#840=DIRECTION('',(-0.711905102542251,-0.702275675909615,0.));
#841=DIRECTION('',(0.,0.,-1.));
#842=DIRECTION('',(1.,0.,0.));
#843=DIRECTION('',(0.,0.,1.));
#844=DIRECTION('',(1.,0.,0.));
#845=DIRECTION('',(-0.322401776676033,0.946602923297904,0.));
#846=DIRECTION('',(-0.711905102542251,-0.702275675909615,0.));
#847=DIRECTION('',(-0.992560193755892,0.121754925039057,0.));
#848=DIRECTION('',(0.,0.,-1.));
#849=DIRECTION('',(1.,0.,0.));
#850=DIRECTION('',(0.,0.,1.));
#851=DIRECTION('',(1.,0.,0.));
#852=DIRECTION('',(0.748917527181416,0.662663215729131,0.));
#853=DIRECTION('',(-0.992560193755892,0.121754925039057,0.));
#854=DIRECTION('',(0.,0.,-1.));
#855=DIRECTION('',(1.,0.,0.));
#856=DIRECTION('',(-0.702275675909615,0.711905102542251,0.));
#857=DIRECTION('',(-0.711905102542251,-0.702275675909615,0.));
#858=DIRECTION('',(0.,0.,1.));
#859=DIRECTION('',(-0.711905102542251,-0.702275675909615,0.));
#860=DIRECTION('',(-0.711905102542251,-0.702275675909615,0.));
#861=DIRECTION('',(0.,0.,1.));
#862=DIRECTION('',(0.,0.,1.));
#863=DIRECTION('',(0.711905102542251,0.702275675909615,0.));
#864=DIRECTION('',(0.,0.,1.));
#865=DIRECTION('',(0.,0.,1.));
#866=DIRECTION('',(0.711905102542251,0.702275675909615,0.));
#867=DIRECTION('',(-0.385826595824073,-0.922571318627892,0.));
#868=DIRECTION('',(0.922571318627892,-0.385826595824073,0.));
#869=DIRECTION('',(0.922571318627892,-0.385826595824073,0.));
#870=DIRECTION('',(0.,0.,-1.));
#871=DIRECTION('',(-0.922571318627892,0.385826595824073,0.));
#872=DIRECTION('',(0.,0.,1.));
#873=DIRECTION('',(0.922571318627892,-0.385826595824073,0.));
#874=DIRECTION('',(-0.385826595824073,-0.922571318627892,0.));
#875=DIRECTION('',(0.922571318627892,-0.385826595824073,0.));
#876=DIRECTION('',(0.,0.,1.));
#877=DIRECTION('',(0.922571318627892,-0.385826595824073,0.));
#878=DIRECTION('',(0.,0.,1.));
#879=DIRECTION('',(-0.385826595824073,-0.922571318627892,0.));
#880=DIRECTION('',(0.922571318627892,-0.385826595824073,0.));
#881=DIRECTION('',(0.922571318627892,-0.385826595824073,0.));
#882=DIRECTION('',(-1.,-5.56868665960189E-17,0.));
#883=DIRECTION('',(5.56868665960189E-17,-1.,0.));
#884=DIRECTION('',(0.,0.,1.));
#885=DIRECTION('',(5.56868665960189E-17,-1.,0.));
#886=DIRECTION('',(5.56868665960189E-17,-1.,0.));
#887=DIRECTION('',(0.662663215729131,-0.748917527181416,0.));
#888=DIRECTION('',(0.748917527181416,0.662663215729131,0.));
#889=DIRECTION('',(0.748917527181417,0.662663215729131,0.));
#890=DIRECTION('',(0.662663215729131,-0.748917527181416,0.));
#891=DIRECTION('',(-0.748917527181416,-0.662663215729131,0.));
#892=DIRECTION('',(0.748917527181416,0.662663215729131,0.));
#893=DIRECTION('',(0.,0.,1.));
#894=DIRECTION('',(0.662663215729131,-0.748917527181416,0.));
#895=DIRECTION('',(-0.748917527181416,-0.662663215729131,0.));
#896=DIRECTION('',(0.748917527181416,0.662663215729131,0.));
#897=DIRECTION('',(0.,0.,1.));
#898=DIRECTION('',(-0.121754925039057,-0.992560193755892,0.));
#899=DIRECTION('',(0.992560193755892,-0.121754925039057,0.));
#900=DIRECTION('',(0.,0.,1.));
#901=DIRECTION('',(0.992560193755892,-0.121754925039057,0.));
#902=DIRECTION('',(0.992560193755892,-0.121754925039057,0.));
#903=DIRECTION('',(0.946602923297904,0.322401776676033,0.));
#904=DIRECTION('',(-0.322401776676033,0.946602923297904,0.));
#905=DIRECTION('',(0.,0.,1.));
#906=DIRECTION('',(-0.322401776676034,0.946602923297904,0.));
#907=DIRECTION('',(0.946602923297904,0.322401776676033,0.));
#908=DIRECTION('',(-0.322401776676033,0.946602923297904,0.));
#909=DIRECTION('',(-0.322401776676033,0.946602923297904,0.));
#910=DIRECTION('',(0.,0.,1.));
#911=DIRECTION('',(0.946602923297904,0.322401776676033,0.));
#912=DIRECTION('',(-0.322401776676033,0.946602923297904,0.));
#913=DIRECTION('',(-0.322401776676035,0.946602923297903,0.));
#914=DIRECTION('',(0.121754925039057,0.992560193755892,0.));
#915=DIRECTION('',(-0.992560193755892,0.121754925039057,0.));
#916=DIRECTION('',(-0.992560193755892,0.121754925039057,0.));
#917=DIRECTION('',(-0.992560193755892,0.121754925039057,0.));
#918=DIRECTION('',(-1.,-1.22464679914735E-16,0.));
#919=DIRECTION('',(1.22464679914735E-16,-1.,0.));
#920=DIRECTION('',(-1.22464679914735E-16,1.,0.));
#921=DIRECTION('',(-0.702275675909615,0.711905102542251,0.));
#922=DIRECTION('',(-0.711905102542251,-0.702275675909615,0.));
#923=DIRECTION('',(-0.711905102542251,-0.702275675909615,0.));
#924=DIRECTION('',(-0.711905102542251,-0.702275675909615,0.));
#925=DIRECTION('',(0.,0.,1.));
#926=DIRECTION('',(1.,0.,0.));
#927=DIRECTION('',(0.,0.,1.));
#928=DIRECTION('',(1.,0.,0.));
#929=DIRECTION('',(-0.711905102542251,-0.702275675909615,0.));
#930=DIRECTION('',(0.,0.,1.));
#931=DIRECTION('',(1.,0.,0.));
#932=DIRECTION('',(5.56868665960189E-17,-1.,0.));
#933=DIRECTION('',(0.,0.,1.));
#934=DIRECTION('',(1.,0.,0.));
#935=DIRECTION('',(0.992560193755892,-0.121754925039057,0.));
#936=DIRECTION('',(0.,0.,1.));
#937=DIRECTION('',(1.,0.,0.));
#938=DIRECTION('',(0.,0.,-1.));
#939=DIRECTION('',(1.,0.,0.));
#940=DIRECTION('',(0.,0.,1.));
#941=DIRECTION('',(1.,0.,0.));
#942=DIRECTION('',(0.,0.,1.));
#943=DIRECTION('',(1.,0.,0.));
#944=DIRECTION('',(0.,0.,1.));
#945=DIRECTION('',(1.,0.,0.));
#946=DIRECTION('',(0.,0.,-1.));
#947=DIRECTION('',(1.,0.,0.));
#948=DIRECTION('',(0.,0.,1.));
#949=DIRECTION('',(1.,0.,0.));
#950=DIRECTION('',(0.,0.,1.));
#951=DIRECTION('',(1.,0.,0.));
#952=DIRECTION('',(0.,0.,1.));
#953=DIRECTION('',(1.,0.,0.));
#954=DIRECTION('',(0.,0.,-1.));
#955=DIRECTION('',(1.,0.,0.));
#956=DIRECTION('',(0.,0.,1.));
#957=DIRECTION('',(1.,0.,0.));
#958=DIRECTION('',(0.,0.,1.));
#959=DIRECTION('',(1.,0.,0.));
#960=DIRECTION('',(0.,0.,-1.));
#961=DIRECTION('',(-1.,0.,0.));
#962=DIRECTION('',(-1.22464679914735E-16,1.,0.));
#963=DIRECTION('',(-0.711905102542251,-0.702275675909615,0.));
#964=DIRECTION('',(0.,0.,-1.));
#965=DIRECTION('',(-1.,0.,0.));
#966=DIRECTION('',(0.,1.,0.));
#967=DIRECTION('',(0.,0.,-1.));
#968=DIRECTION('',(-1.,0.,0.));
#969=DIRECTION('',(0.922571318627892,-0.385826595824073,0.));
#970=DIRECTION('',(0.,0.,1.));
#971=DIRECTION('',(1.,0.,0.));
#972=DIRECTION('',(0.,0.,1.));
#973=DIRECTION('',(1.,0.,0.));
#974=DIRECTION('',(0.711905102542251,0.702275675909615,0.));
#975=DIRECTION('',(-1.22464679914735E-16,1.,0.));
#976=DIRECTION('',(-0.922571318627892,0.385826595824073,0.));
#977=DIRECTION('',(0.,0.,1.));
#978=DIRECTION('',(1.,0.,0.));
#979=DIRECTION('',(0.,1.,0.));
#980=DIRECTION('',(-1.,0.,0.));
#981=DIRECTION('',(0.,0.,1.));
#982=DIRECTION('',(0.,0.,1.));
#983=DIRECTION('',(0.,0.,-1.));
#984=DIRECTION('',(0.,0.,1.));
#985=DIRECTION('',(1.,0.,0.));
#986=DIRECTION('',(0.652356435529997,-0.272820602269324,0.707106781186548));
#987=DIRECTION('',(0.652356435529997,-0.272820602269324,-0.707106781186548));
#988=DIRECTION('',(-0.652356435529997,0.272820602269324,0.707106781186548));
#989=DIRECTION('',(-0.652356435529997,0.272820602269324,-0.707106781186548));
#990=DIRECTION('',(-0.922571318627892,0.385826595824073,0.));
#991=DIRECTION('',(-0.385826595824073,-0.922571318627892,0.));
#992=DIRECTION('',(0.832414138462362,0.55415404184032,0.));
#993=DIRECTION('',(-0.55415404184032,0.832414138462362,0.));
#994=DIRECTION('',(0.922571318627892,-0.385826595824073,0.));
#995=DIRECTION('',(0.385826595824073,0.922571318627892,0.));
#996=DIRECTION('',(0.832414138462362,0.55415404184032,0.));
#997=DIRECTION('',(-0.55415404184032,0.832414138462362,0.));
#998=DIRECTION('',(-1.22464679914735E-16,1.,0.));
#999=DIRECTION('',(-1.,-1.22464679914735E-16,0.));
#1000=DIRECTION('',(-0.922571318627892,0.385826595824073,0.));
#1001=DIRECTION('',(0.385826595824072,0.922571318627892,0.));
#1002=DIRECTION('',(-1.22464679914735E-16,1.,0.));
#1003=DIRECTION('',(-1.,-1.22464679914735E-16,0.));
#1004=DIRECTION('',(-0.922571318627892,0.385826595824073,0.));
#1005=DIRECTION('',(0.385826595824072,0.922571318627892,0.));
#1006=DIRECTION('',(0.711905102542251,0.702275675909615,0.));
#1007=DIRECTION('',(-0.702275675909615,0.711905102542251,0.));
#1008=DIRECTION('',(0.50339292556893,0.496583892698055,-0.707106781186548));
#1009=DIRECTION('',(-0.50339292556893,-0.496583892698055,-0.707106781186548));
#1010=DIRECTION('',(-0.711905102542251,-0.702275675909615,0.));
#1011=DIRECTION('',(0.702275675909615,-0.711905102542251,0.));
#1012=DIRECTION('',(-0.50339292556893,-0.496583892698055,-0.707106781186548));
#1013=DIRECTION('',(0.50339292556893,0.496583892698055,-0.707106781186548));
#1014=DIRECTION('',(0.,0.,-1.));
#1015=DIRECTION('',(-1.,0.,0.));
#1016=DIRECTION('',(-0.992560193755892,0.121754925039057,0.));
#1017=DIRECTION('',(-0.121754925039057,-0.992560193755892,0.));
#1018=DIRECTION('',(0.711905102542251,0.702275675909615,0.));
#1019=DIRECTION('',(-0.702275675909615,0.711905102542251,0.));
#1020=DIRECTION('',(5.56868665960189E-17,-1.,0.));
#1021=DIRECTION('',(1.,5.56868665960189E-17,0.));
#1022=DIRECTION('',(0.,0.,1.));
#1023=DIRECTION('',(1.,0.,0.));
#1024=DIRECTION('',(0.,0.,1.));
#1025=DIRECTION('',(1.,0.,0.));
#1026=DIRECTION('',(0.,0.,1.));
#1027=DIRECTION('',(1.,0.,0.));
#1028=DIRECTION('',(0.,0.,1.));
#1029=DIRECTION('',(1.,0.,0.));
#1030=DIRECTION('',(0.,0.,1.));
#1031=DIRECTION('',(1.,0.,0.));
#1032=DIRECTION('',(0.,0.,1.));
#1033=DIRECTION('',(1.,0.,0.));
#1034=DIRECTION('',(0.,0.,1.));
#1035=DIRECTION('',(1.,0.,0.));
#1036=DIRECTION('',(0.,0.,1.));
#1037=DIRECTION('',(1.,0.,0.));
#1038=DIRECTION('',(0.,0.,1.));
#1039=DIRECTION('',(1.,0.,0.));
#1040=CARTESIAN_POINT('',(0.,0.,0.));
#1041=CARTESIAN_POINT('',(4.60970711408038E-17,-0.01,-0.075));
#1042=CARTESIAN_POINT('',(4.48724243416564E-17,0.,-0.075));
#1043=CARTESIAN_POINT('',(4.48724243416564E-17,0.,-0.075));
#1044=CARTESIAN_POINT('',(4.48724243416564E-17,0.,-0.061));
#1045=CARTESIAN_POINT('',(4.60970711408038E-17,-0.01,-0.061));
#1046=CARTESIAN_POINT('',(9.97465998686664E-18,-0.02,-0.061));
#1047=CARTESIAN_POINT('',(9.97465998686664E-18,-0.02,-0.062));
#1048=CARTESIAN_POINT('',(9.97465998686664E-18,-0.02,-0.062));
#1049=CARTESIAN_POINT('',(3.44730203841838E-17,-0.0634695,-0.062));
#1050=CARTESIAN_POINT('',(5.79686747470583E-17,-0.106939,-0.062));
#1051=CARTESIAN_POINT('',(5.8971380781501E-17,-0.106939,-0.062));
#1052=CARTESIAN_POINT('',(5.8971380781501E-17,-0.106939,0.));
#1053=CARTESIAN_POINT('',(4.60970711408038E-17,-0.01,0.));
#1054=CARTESIAN_POINT('',(1.56125112837912E-17,-0.126939,0.));
#1055=CARTESIAN_POINT('',(1.56125112837912E-17,-0.126939,-0.075));
#1056=CARTESIAN_POINT('',(1.56125112837912E-17,-0.126939,-0.075));
#1057=CARTESIAN_POINT('',(4.60970711408038E-17,-0.01,-0.075));
#1058=CARTESIAN_POINT('',(-0.057224,-0.0634695,0.));
#1059=CARTESIAN_POINT('',(-0.00711905102542255,-0.0170227567590962,0.));
#1060=CARTESIAN_POINT('',(-0.014238102050845,-0.0140455135181923,0.));
#1061=CARTESIAN_POINT('',(9.97465998686664E-18,-0.02,0.));
#1062=CARTESIAN_POINT('',(4.60970711408038E-17,-0.01,0.));
#1063=CARTESIAN_POINT('',(4.48724243416564E-17,0.,0.));
#1064=CARTESIAN_POINT('',(-0.00711905102542252,-0.00702275675909613,0.));
#1065=CARTESIAN_POINT('',(-0.00557574464212624,-0.0133324714845846,0.));
#1066=CARTESIAN_POINT('',(-0.00322574464212624,-0.0133324714845846,0.));
#1067=CARTESIAN_POINT('',(-0.057224,-0.0634695,0.));
#1068=CARTESIAN_POINT('',(-0.0974033470370185,-0.107094736977552,0.));
#1069=CARTESIAN_POINT('',(-0.0945967961248821,-0.115335042987039,0.));
#1070=CARTESIAN_POINT('',(-0.100209897949155,-0.0988544309680651,0.));
#1071=CARTESIAN_POINT('',(-0.00711905102542252,-0.00702275675909613,0.));
#1072=CARTESIAN_POINT('',(-0.114448,-0.112899944486257,0.));
#1073=CARTESIAN_POINT('',(-0.00992560193755891,-0.125721450749609,0.));
#1074=CARTESIAN_POINT('',(-0.10118975873021,-0.108384344084256,0.));
#1075=CARTESIAN_POINT('',(-0.0988397587302102,-0.108384344084256,0.));
#1076=CARTESIAN_POINT('',(-0.057224,-0.0634695,0.));
#1077=CARTESIAN_POINT('',(-0.0099256019375589,-0.115721450749609,0.));
#1078=CARTESIAN_POINT('',(-0.0198512038751179,-0.124503901499219,0.));
#1079=CARTESIAN_POINT('',(-0.00992560193755891,-0.125721450749609,0.));
#1080=CARTESIAN_POINT('',(-0.00727494907464239,-0.118717120858335,0.));
#1081=CARTESIAN_POINT('',(-0.00492494907464239,-0.118717120858335,0.));
#1082=CARTESIAN_POINT('',(-0.00711905102542252,-0.00702275675909613,-0.075));
#1083=CARTESIAN_POINT('',(-0.00770227567590962,-0.00759809255057357,-0.06));
#1084=CARTESIAN_POINT('',(-0.00770227567590962,-0.00759809255057357,-0.053));
#1085=CARTESIAN_POINT('',(-0.00770227567590962,-0.00759809255057357,-0.061));
#1086=CARTESIAN_POINT('',(-1.44612831467446E-17,1.27182074745478E-17,-0.061));
#1087=CARTESIAN_POINT('',(-0.00711905102542252,-0.00702275675909613,-0.075));
#1088=CARTESIAN_POINT('',(-0.114448,-0.112899944486257,-0.075));
#1089=CARTESIAN_POINT('',(-0.114448,-0.112899944486257,-0.075));
#1090=CARTESIAN_POINT('',(-0.100209897949155,-0.0988544309680651,-0.062));
#1091=CARTESIAN_POINT('',(-0.100209897949155,-0.0988544309680651,-0.062));
#1092=CARTESIAN_POINT('',(-0.057224,-0.0564499722431287,-0.062));
#1093=CARTESIAN_POINT('',(-0.014238102050845,-0.0140455135181923,-0.062));
#1094=CARTESIAN_POINT('',(-0.014238102050845,-0.0140455135181923,-0.062));
#1095=CARTESIAN_POINT('',(4.48724243416564E-17,0.,-0.075));
#1096=CARTESIAN_POINT('',(4.48724243416564E-17,0.,-0.053));
#1097=CARTESIAN_POINT('',(-0.006,-0.00591884232942072,-0.053));
#1098=CARTESIAN_POINT('',(-0.00711905102542255,-0.0170227567590962,-0.075));
#1099=CARTESIAN_POINT('',(-0.006,-0.0174907527166709,-0.061));
#1100=CARTESIAN_POINT('',(-0.00738582659582408,-0.0169111891132147,-0.061));
#1101=CARTESIAN_POINT('',(-0.00738582659582408,-0.0169111891132147,-0.054));
#1102=CARTESIAN_POINT('',(-0.00738582659582408,-0.0169111891132147,-0.053));
#1103=CARTESIAN_POINT('',(9.66391380266488E-19,-0.02,-0.053));
#1104=CARTESIAN_POINT('',(9.97465998686664E-18,-0.02,-0.053));
#1105=CARTESIAN_POINT('',(9.97465998686664E-18,-0.02,-0.062));
#1106=CARTESIAN_POINT('',(-0.0117381020508451,-0.0150910332195795,-0.062));
#1107=CARTESIAN_POINT('',(-0.0102381020508451,-0.0157183450404117,-0.062));
#1108=CARTESIAN_POINT('',(-0.0102381020508451,-0.0157183450404117,-0.063));
#1109=CARTESIAN_POINT('',(-0.0092381020508451,-0.0161365529209666,-0.063));
#1110=CARTESIAN_POINT('',(-0.0092381020508451,-0.0161365529209666,-0.075));
#1111=CARTESIAN_POINT('',(-0.0092381020508451,-0.0161365529209666,-0.075));
#1112=CARTESIAN_POINT('',(-0.00711905102542255,-0.0170227567590962,-0.075));
#1113=CARTESIAN_POINT('',(-0.005,-0.0179089605972257,-0.075));
#1114=CARTESIAN_POINT('',(-0.005,-0.0179089605972257,-0.075));
#1115=CARTESIAN_POINT('',(-0.005,-0.0179089605972257,-0.063));
#1116=CARTESIAN_POINT('',(-0.004,-0.0183271684777805,-0.063));
#1117=CARTESIAN_POINT('',(-0.004,-0.0183271684777805,-0.062));
#1118=CARTESIAN_POINT('',(-0.0025,-0.0189544802986128,-0.062));
#1119=CARTESIAN_POINT('',(-0.005,-0.0646360503586604,-0.075));
#1120=CARTESIAN_POINT('',(-0.005,-0.111363140120095,-0.075));
#1121=CARTESIAN_POINT('',(-0.005,-0.111363140120095,-0.075));
#1122=CARTESIAN_POINT('',(-0.005,-0.111363140120095,-0.063));
#1123=CARTESIAN_POINT('',(-0.005,-0.0646360503586604,-0.063));
#1124=CARTESIAN_POINT('',(-0.005,-0.0646360503586604,-0.075));
#1125=CARTESIAN_POINT('',(-0.0099256019375589,-0.115721450749609,-0.075));
#1126=CARTESIAN_POINT('',(-0.0025,-0.109151070060047,-0.062));
#1127=CARTESIAN_POINT('',(-0.004,-0.110478312096076,-0.062));
#1128=CARTESIAN_POINT('',(-0.004,-0.110478312096076,-0.063));
#1129=CARTESIAN_POINT('',(-0.0099256019375589,-0.115721450749609,-0.075));
#1130=CARTESIAN_POINT('',(-0.0148512038751178,-0.120079761379124,-0.075));
#1131=CARTESIAN_POINT('',(-0.0148512038751178,-0.120079761379124,-0.075));
#1132=CARTESIAN_POINT('',(-0.0148512038751178,-0.120079761379124,-0.063));
#1133=CARTESIAN_POINT('',(-0.0158512038751178,-0.120964589403143,-0.063));
#1134=CARTESIAN_POINT('',(-0.0158512038751178,-0.120964589403143,-0.062));
#1135=CARTESIAN_POINT('',(-0.0173512038751178,-0.122291831439171,-0.062));
#1136=CARTESIAN_POINT('',(-0.0198512038751179,-0.124503901499219,-0.062));
#1137=CARTESIAN_POINT('',(-0.0198512038751179,-0.124503901499219,-0.062));
#1138=CARTESIAN_POINT('',(-0.0556192557289984,-0.115078844428511,-0.075));
#1139=CARTESIAN_POINT('',(-0.0963873075828789,-0.110077927477898,-0.075));
#1140=CARTESIAN_POINT('',(-0.0963873075828789,-0.110077927477898,-0.075));
#1141=CARTESIAN_POINT('',(-0.0963873075828789,-0.110077927477898,-0.063));
#1142=CARTESIAN_POINT('',(-0.0148512038751178,-0.120079761379124,-0.063));
#1143=CARTESIAN_POINT('',(-0.0556192557289984,-0.115078844428511,-0.075));
#1144=CARTESIAN_POINT('',(-0.0974033470370185,-0.107094736977552,-0.075));
#1145=CARTESIAN_POINT('',(-0.0945967961248821,-0.115335042987039,-0.062));
#1146=CARTESIAN_POINT('',(-0.0945967961248822,-0.115335042987039,-0.062));
#1147=CARTESIAN_POINT('',(-0.0954920518538805,-0.112706485232468,-0.062));
#1148=CARTESIAN_POINT('',(-0.0960292052912795,-0.111129350579726,-0.062));
#1149=CARTESIAN_POINT('',(-0.0960292052912796,-0.111129350579726,-0.063));
#1150=CARTESIAN_POINT('',(-0.0974033470370185,-0.107094736977552,-0.075));
#1151=CARTESIAN_POINT('',(-0.0984193864911582,-0.104111546477206,-0.075));
#1152=CARTESIAN_POINT('',(-0.0984193864911582,-0.104111546477206,-0.075));
#1153=CARTESIAN_POINT('',(-0.0984193864911582,-0.104111546477206,-0.063));
#1154=CARTESIAN_POINT('',(-0.0987774887827575,-0.103060123375378,-0.063));
#1155=CARTESIAN_POINT('',(-0.0987774887827575,-0.103060123375378,-0.062));
#1156=CARTESIAN_POINT('',(-0.0993146422201565,-0.101482988722636,-0.062));
#1157=CARTESIAN_POINT('',(-0.00992560193755891,-0.125721450749609,-0.075));
#1158=CARTESIAN_POINT('',(-0.057224,-0.119919472243129,-0.062));
#1159=CARTESIAN_POINT('',(-0.00992560193755891,-0.125721450749609,-0.075));
#1160=CARTESIAN_POINT('',(4.60970711408038E-17,-0.01,-0.075));
#1161=CARTESIAN_POINT('',(4.60970711408038E-17,-0.01,-0.053));
#1162=CARTESIAN_POINT('',(-0.0538287442710016,-0.0601240496990863,-0.075));
#1163=CARTESIAN_POINT('',(-0.0984193864911582,-0.104111546477206,-0.063));
#1164=CARTESIAN_POINT('',(-0.0538287442710016,-0.0601240496990863,-0.075));
#1165=CARTESIAN_POINT('',(-0.057224,-0.0634695,-0.075));
#1166=CARTESIAN_POINT('',(-0.057224,-0.0634695,-0.062));
#1167=CARTESIAN_POINT('',(-0.00994037772675469,-0.0154246478184243,-0.062));
#1168=CARTESIAN_POINT('',(-0.057224,-0.0634695,-0.062));
#1169=CARTESIAN_POINT('',(-0.004,-0.0634695,-0.062));
#1170=CARTESIAN_POINT('',(-0.057224,-0.0634695,-0.062));
#1171=CARTESIAN_POINT('',(-0.096509062507918,-0.111070487671654,-0.062));
#1172=CARTESIAN_POINT('',(-0.00727494907464239,-0.118717120858335,-0.004));
#1173=CARTESIAN_POINT('',(-0.00727494907464239,-0.118717120858335,-0.004));
#1174=CARTESIAN_POINT('',(-0.00492494907464239,-0.118717120858335,-0.004));
#1175=CARTESIAN_POINT('',(-0.057224,-0.0634695,-0.004));
#1176=CARTESIAN_POINT('',(-0.00727494907464239,-0.118717120858335,-0.004));
#1177=CARTESIAN_POINT('',(-0.00557494907464239,-0.118717120858335,-0.004));
#1178=CARTESIAN_POINT('',(-0.10118975873021,-0.108384344084256,-0.004));
#1179=CARTESIAN_POINT('',(-0.10118975873021,-0.108384344084256,-0.004));
#1180=CARTESIAN_POINT('',(-0.0988397587302102,-0.108384344084256,-0.004));
#1181=CARTESIAN_POINT('',(-0.057224,-0.0634695,-0.004));
#1182=CARTESIAN_POINT('',(-0.10118975873021,-0.108384344084256,-0.004));
#1183=CARTESIAN_POINT('',(-0.0994897587302102,-0.108384344084256,-0.004));
#1184=CARTESIAN_POINT('',(-0.00557574464212624,-0.0133324714845846,-0.004));
#1185=CARTESIAN_POINT('',(-0.00557574464212624,-0.0133324714845846,-0.004));
#1186=CARTESIAN_POINT('',(-0.00322574464212624,-0.0133324714845846,-0.004));
#1187=CARTESIAN_POINT('',(-0.057224,-0.0634695,-0.004));
#1188=CARTESIAN_POINT('',(-0.00557574464212624,-0.0133324714845846,-0.004));
#1189=CARTESIAN_POINT('',(-0.00387574464212624,-0.0133324714845846,-0.004));
#1190=CARTESIAN_POINT('',(-0.003,-0.025,-0.06));
#1191=CARTESIAN_POINT('',(-0.000999999999999952,-0.025,-0.06));
#1192=CARTESIAN_POINT('',(-0.000999999999999953,-0.018497865077916,-0.06));
#1193=CARTESIAN_POINT('',(-0.000999999999999955,-0.00239115532369504,-0.06));
#1194=CARTESIAN_POINT('',(-0.00529772432409039,-0.00663074743196297,-0.06));
#1195=CARTESIAN_POINT('',(-0.00628809489745775,-0.00760772197720621,-0.06));
#1196=CARTESIAN_POINT('',(-0.007,-0.00830999765311583,-0.06));
#1197=CARTESIAN_POINT('',(-0.006,-0.00830999765311583,-0.06));
#1198=CARTESIAN_POINT('',(-0.006,-0.025,-0.06));
#1199=CARTESIAN_POINT('',(-0.006,-0.0159886177945868,-0.06));
#1200=CARTESIAN_POINT('',(-0.007,-0.0159886177945868,-0.06));
#1201=CARTESIAN_POINT('',(-0.00607742868137211,-0.0163744443904109,-0.06));
#1202=CARTESIAN_POINT('',(0.000385826595824075,-0.0190774286813721,-0.06));
#1203=CARTESIAN_POINT('',(-0.003,-0.025,-0.054));
#1204=CARTESIAN_POINT('',(-0.007,-0.00830999765311583,-0.054));
#1205=CARTESIAN_POINT('',(-0.006,-0.00830999765311583,-0.054));
#1206=CARTESIAN_POINT('',(-0.00628809489745775,-0.00760772197720621,-0.054));
#1207=CARTESIAN_POINT('',(0.000702275675909601,-0.000711905102542239,-0.054));
#1208=CARTESIAN_POINT('',(-0.000999999999999955,-0.00239115532369504,-0.054));
#1209=CARTESIAN_POINT('',(-0.000999999999999952,-0.025,-0.054));
#1210=CARTESIAN_POINT('',(-0.000999999999999953,-0.018497865077916,-0.054));
#1211=CARTESIAN_POINT('',(-0.00561417340417593,-0.016568181398043,-0.054));
#1212=CARTESIAN_POINT('',(-0.00607742868137211,-0.0163744443904109,-0.054));
#1213=CARTESIAN_POINT('',(-0.007,-0.0159886177945868,-0.054));
#1214=CARTESIAN_POINT('',(-0.006,-0.0159886177945868,-0.054));
#1215=CARTESIAN_POINT('',(-0.006,-0.025,-0.054));
#1216=CARTESIAN_POINT('',(-0.006,-0.025,-0.057));
#1217=CARTESIAN_POINT('',(-0.006,-0.00830999765311583,-0.054));
#1218=CARTESIAN_POINT('',(-0.006,-0.0159886177945868,-0.06));
#1219=CARTESIAN_POINT('',(-0.007,-0.0159886177945868,-0.057));
#1220=CARTESIAN_POINT('',(-0.007,-0.0159886177945868,-0.053));
#1221=CARTESIAN_POINT('',(-0.007,-0.0159886177945868,-0.061));
#1222=CARTESIAN_POINT('',(-0.000387824161684721,-0.0187538818377847,-0.061));
#1223=CARTESIAN_POINT('',(-0.000999999999999953,-0.018497865077916,-0.061));
#1224=CARTESIAN_POINT('',(-0.000387824161684721,-0.0187538818377847,-0.053));
#1225=CARTESIAN_POINT('',(-0.000999999999999953,-0.018497865077916,-0.053));
#1226=CARTESIAN_POINT('',(-0.000999999999999952,-0.025,-0.061));
#1227=CARTESIAN_POINT('',(-0.000999999999999956,-0.00239115532369504,-0.061));
#1228=CARTESIAN_POINT('',(-0.000999999999999954,-0.01,-0.053));
#1229=CARTESIAN_POINT('',(-0.000999999999999956,-0.00239115532369504,-0.053));
#1230=CARTESIAN_POINT('',(-0.0133169918759516,-0.014541544138114,-0.061));
#1231=CARTESIAN_POINT('',(-0.007,-0.00830999765311583,-0.061));
#1232=CARTESIAN_POINT('',(-0.0133169918759516,-0.014541544138114,-0.053));
#1233=CARTESIAN_POINT('',(-0.007,-0.00830999765311583,-0.053));
#1234=CARTESIAN_POINT('',(-0.007,-0.00830999765311583,-0.057));
#1235=CARTESIAN_POINT('',(-0.0557410106540374,-0.116071404622267,-0.063));
#1236=CARTESIAN_POINT('',(-0.0545310199469112,-0.059412144596544,-0.063));
#1237=CARTESIAN_POINT('',(-0.004,-0.0634695,-0.063));
#1238=CARTESIAN_POINT('',(-0.00557574464212624,-0.0133324714845846,-0.015));
#1239=CARTESIAN_POINT('',(-0.00557574464212624,-0.0133324714845846,-0.015));
#1240=CARTESIAN_POINT('',(-0.00387574464212624,-0.0133324714845846,-0.015));
#1241=CARTESIAN_POINT('',(-0.057224,-0.0634695,-0.015));
#1242=CARTESIAN_POINT('',(-0.10118975873021,-0.108384344084256,-0.015));
#1243=CARTESIAN_POINT('',(-0.10118975873021,-0.108384344084256,-0.015));
#1244=CARTESIAN_POINT('',(-0.0994897587302102,-0.108384344084256,-0.015));
#1245=CARTESIAN_POINT('',(-0.057224,-0.0634695,-0.015));
#1246=CARTESIAN_POINT('',(-0.00727494907464239,-0.118717120858335,-0.015));
#1247=CARTESIAN_POINT('',(-0.00727494907464239,-0.118717120858335,-0.015));
#1248=CARTESIAN_POINT('',(-0.00557494907464239,-0.118717120858335,-0.015));
#1249=CARTESIAN_POINT('',(-0.057224,-0.0634695,-0.015));
#1250=MECHANICAL_DESIGN_GEOMETRIC_PRESENTATION_REPRESENTATION('',(#739),
#1251);
#1251=(
GEOMETRIC_REPRESENTATION_CONTEXT(3)
GLOBAL_UNCERTAINTY_ASSIGNED_CONTEXT((#1252))
GLOBAL_UNIT_ASSIGNED_CONTEXT((#1255,#1254,#1253))
REPRESENTATION_CONTEXT('Part 1','TOP_LEVEL_ASSEMBLY_PART')
);
#1252=UNCERTAINTY_MEASURE_WITH_UNIT(LENGTH_MEASURE(1.E-8),#1255,
'DISTANCE_ACCURACY_VALUE','Maximum Tolerance applied to model');
#1253=(
NAMED_UNIT(*)
SI_UNIT($,.STERADIAN.)
SOLID_ANGLE_UNIT()
);
#1254=(
NAMED_UNIT(*)
PLANE_ANGLE_UNIT()
SI_UNIT($,.RADIAN.)
);
#1255=(
LENGTH_UNIT()
NAMED_UNIT(*)
SI_UNIT($,.METRE.)
);
#1256=PRODUCT_DEFINITION_SHAPE('','',#1257);
#1257=PRODUCT_DEFINITION('','',#1259,#1258);
#1258=PRODUCT_DEFINITION_CONTEXT('',#1265,'design');
#1259=PRODUCT_DEFINITION_FORMATION_WITH_SPECIFIED_SOURCE('','',#1261,
 .NOT_KNOWN.);
#1260=PRODUCT_RELATED_PRODUCT_CATEGORY('','',(#1261));
#1261=PRODUCT('Part 1','Part 1','Part 1',(#1263));
#1262=PRODUCT_CATEGORY('','');
#1263=PRODUCT_CONTEXT('',#1265,'mechanical');
#1264=APPLICATION_PROTOCOL_DEFINITION('international standard',
'ap242_managed_model_based_3d_engineering',2020,#1265);
#1265=APPLICATION_CONTEXT('managed model based 3d engineering');
ENDSEC;
END-ISO-10303-21;
