M48
; DRILL file KiCad 10.0.0 date 2026-04-30T21:07:43
; FORMAT={-:-/ absolute / metric / decimal}
; #@! TF.CreationDate,2026-04-30T21:07:43+01:00
; #@! TF.GenerationSoftware,Kicad,Pcbnew,10.0.0
; #@! TF.FileFunction,Plated,1,2,PTH
FMAT,2
METRIC
; #@! TA.AperFunction,Plated,PTH,ViaDrill
T1C0.300
; #@! TA.AperFunction,Plated,PTH,ComponentDrill
T2C0.800
; #@! TA.AperFunction,Plated,PTH,ComponentDrill
T3C1.000
; #@! TA.AperFunction,Plated,PTH,ComponentDrill
T4C1.100
; #@! TA.AperFunction,Plated,PTH,ComponentDrill
T5C1.500
%
G90
G05
T1
X138.684Y-110.236
X138.684Y-114.3
X139.7Y-117.856
X141.224Y-119.38
T2
X91.948Y-51.602
X91.948Y-54.102
X107.914Y-69.342
X110.414Y-69.342
X110.998Y-80.518
X110.998Y-83.018
X119.634Y-80.518
X119.634Y-83.018
X127.294Y-107.442
X128.27Y-80.478
X128.27Y-82.978
X129.794Y-107.442
X132.874Y-73.672
X132.884Y-68.172
X136.184Y-107.442
X138.684Y-107.442
X140.494Y-73.672
X140.504Y-68.172
X143.597Y-108.143
X144.78Y-114.3
X146.097Y-108.143
X152.4Y-114.3
T3
X98.832Y-51.054
X98.832Y-53.594
X98.832Y-56.134
X98.832Y-58.674
X100.809Y-69.407
X100.809Y-71.947
X100.809Y-74.487
X100.809Y-77.027
X100.809Y-79.567
X100.809Y-82.107
X138.43Y-81.778
X138.43Y-97.028
X140.97Y-81.778
X140.97Y-97.028
X141.144Y-52.122
X141.144Y-54.622
X141.144Y-57.122
X143.51Y-81.778
X143.51Y-97.028
X146.05Y-81.778
X146.05Y-97.028
X148.59Y-81.778
X148.59Y-97.028
X151.13Y-81.778
X151.13Y-97.028
X151.17Y-104.22
X153.67Y-81.778
X153.67Y-97.028
X153.67Y-109.22
X155.644Y-52.122
X155.644Y-57.122
X156.17Y-104.22
T4
X119.634Y-89.916
X122.174Y-89.916
X124.714Y-89.916
T5
X109.474Y-93.502
X114.3Y-97.79
X145.034Y-126.492
X152.654Y-126.492
T5
X147.994Y-49.022G85X149.294Y-49.022
G05
X147.994Y-60.222G85X149.294Y-60.222
G05
M30
