%TF.GenerationSoftware,KiCad,Pcbnew,10.0.0*%
%TF.CreationDate,2026-04-30T21:07:06+01:00*%
%TF.ProjectId,banjobox,62616e6a-6f62-46f7-982e-6b696361645f,rev?*%
%TF.SameCoordinates,Original*%
%TF.FileFunction,Copper,L2,Bot*%
%TF.FilePolarity,Positive*%
%FSLAX46Y46*%
G04 Gerber Fmt 4.6, Leading zero omitted, Abs format (unit mm)*
G04 Created by KiCad (PCBNEW 10.0.0) date 2026-04-30 21:07:06*
%MOMM*%
%LPD*%
G01*
G04 APERTURE LIST*
G04 Aperture macros list*
%AMRoundRect*
0 Rectangle with rounded corners*
0 $1 Rounding radius*
0 $2 $3 $4 $5 $6 $7 $8 $9 X,Y pos of 4 corners*
0 Add a 4 corners polygon primitive as box body*
4,1,4,$2,$3,$4,$5,$6,$7,$8,$9,$2,$3,0*
0 Add four circle primitives for the rounded corners*
1,1,$1+$1,$2,$3*
1,1,$1+$1,$4,$5*
1,1,$1+$1,$6,$7*
1,1,$1+$1,$8,$9*
0 Add four rect primitives between the rounded corners*
20,1,$1+$1,$2,$3,$4,$5,0*
20,1,$1+$1,$4,$5,$6,$7,0*
20,1,$1+$1,$6,$7,$8,$9,0*
20,1,$1+$1,$8,$9,$2,$3,0*%
G04 Aperture macros list end*
%TA.AperFunction,ComponentPad*%
%ADD10RoundRect,0.250000X0.550000X-0.550000X0.550000X0.550000X-0.550000X0.550000X-0.550000X-0.550000X0*%
%TD*%
%TA.AperFunction,ComponentPad*%
%ADD11C,1.600000*%
%TD*%
%TA.AperFunction,ComponentPad*%
%ADD12R,2.000000X2.000000*%
%TD*%
%TA.AperFunction,ComponentPad*%
%ADD13C,2.000000*%
%TD*%
%TA.AperFunction,ComponentPad*%
%ADD14R,3.200000X2.000000*%
%TD*%
%TA.AperFunction,ComponentPad*%
%ADD15R,1.700000X1.700000*%
%TD*%
%TA.AperFunction,ComponentPad*%
%ADD16C,1.700000*%
%TD*%
%TA.AperFunction,ComponentPad*%
%ADD17RoundRect,0.170000X0.680000X-0.680000X0.680000X0.680000X-0.680000X0.680000X-0.680000X-0.680000X0*%
%TD*%
%TA.AperFunction,ComponentPad*%
%ADD18C,3.000000*%
%TD*%
%TA.AperFunction,ComponentPad*%
%ADD19RoundRect,0.250000X-0.550000X-0.550000X0.550000X-0.550000X0.550000X0.550000X-0.550000X0.550000X0*%
%TD*%
%TA.AperFunction,ComponentPad*%
%ADD20R,1.560000X1.560000*%
%TD*%
%TA.AperFunction,ComponentPad*%
%ADD21C,1.560000*%
%TD*%
%TA.AperFunction,ComponentPad*%
%ADD22R,1.700000X3.500000*%
%TD*%
%TA.AperFunction,ComponentPad*%
%ADD23O,1.700000X3.600000*%
%TD*%
%TA.AperFunction,ComponentPad*%
%ADD24O,1.700000X3.700000*%
%TD*%
%TA.AperFunction,ComponentPad*%
%ADD25R,1.905000X2.000000*%
%TD*%
%TA.AperFunction,ComponentPad*%
%ADD26O,1.905000X2.000000*%
%TD*%
%TA.AperFunction,ViaPad*%
%ADD27C,0.600000*%
%TD*%
%TA.AperFunction,Conductor*%
%ADD28C,0.200000*%
%TD*%
G04 APERTURE END LIST*
D10*
%TO.P,C5,1*%
%TO.N,VCC*%
X128270000Y-82978000D03*
D11*
%TO.P,C5,2*%
%TO.N,-BATT*%
X128270000Y-80478000D03*
%TD*%
D10*
%TO.P,C4,1*%
%TO.N,VCC*%
X119634000Y-83018000D03*
D11*
%TO.P,C4,2*%
%TO.N,-BATT*%
X119634000Y-80518000D03*
%TD*%
D12*
%TO.P,SW1,A,A_A*%
%TO.N,EC11A*%
X141144000Y-52122000D03*
D13*
%TO.P,SW1,B,B_B*%
%TO.N,EC11B*%
X141144000Y-57122000D03*
%TO.P,SW1,C,C_C*%
%TO.N,-BATT*%
X141144000Y-54622000D03*
D14*
%TO.P,SW1,MP*%
%TO.N,N/C*%
X148644000Y-49022000D03*
X148644000Y-60222000D03*
D13*
%TO.P,SW1,S1,S1_S1*%
%TO.N,EC11SW1*%
X155644000Y-57122000D03*
%TO.P,SW1,S2,S2_S2*%
%TO.N,-BATT*%
X155644000Y-52122000D03*
%TD*%
D15*
%TO.P,U1,1,VDD_1*%
%TO.N,VCC*%
X100809000Y-69407000D03*
D16*
%TO.P,U1,2,VSS_2*%
%TO.N,-BATT*%
X100809000Y-71947000D03*
%TO.P,U1,3,SCL_3*%
%TO.N,SCL*%
X100809000Y-74487000D03*
%TO.P,U1,4,SDA_4*%
%TO.N,SDA*%
X100809000Y-77027000D03*
%TO.P,U1,5,ADDR_5*%
%TO.N,-BATT*%
X100809000Y-79567000D03*
%TO.P,U1,6,ALERT_6*%
%TO.N,unconnected-(U1-ALERT-Pad6)*%
X100809000Y-82107000D03*
%TD*%
D11*
%TO.P,R2,1*%
%TO.N,SCL*%
X140494000Y-73672000D03*
%TO.P,R2,2*%
%TO.N,VCC*%
X132874000Y-73672000D03*
%TD*%
D17*
%TO.P,U2,1,GND_1*%
%TO.N,-BATT*%
X98832000Y-58674000D03*
D16*
%TO.P,U2,2,VCC_2*%
%TO.N,VCC*%
X98832000Y-56134000D03*
%TO.P,U2,3,SCL_3*%
%TO.N,SCL*%
X98832000Y-53594000D03*
%TO.P,U2,4,SDA_4*%
%TO.N,SDA*%
X98832000Y-51054000D03*
%TD*%
D11*
%TO.P,R1,1*%
%TO.N,VCC*%
X132884000Y-68172000D03*
%TO.P,R1,2*%
%TO.N,SDA*%
X140504000Y-68172000D03*
%TD*%
D18*
%TO.P,TP4,1,1_1*%
%TO.N,Net-(U5-OUT-)*%
X152654000Y-126492000D03*
%TD*%
D11*
%TO.P,R3,1*%
%TO.N,PWM*%
X144780000Y-114300000D03*
%TO.P,R3,2*%
%TO.N,-BATT*%
X152400000Y-114300000D03*
%TD*%
D18*
%TO.P,TP1,1,1_1*%
%TO.N,+BATT*%
X109474000Y-93502000D03*
%TD*%
D11*
%TO.P,C2,1*%
%TO.N,-BATT*%
X91948000Y-51602000D03*
%TO.P,C2,2*%
%TO.N,VCC*%
X91948000Y-54102000D03*
%TD*%
%TO.P,C6,1*%
%TO.N,PWM*%
X143597000Y-108143000D03*
%TO.P,C6,2*%
%TO.N,Net-(C6-Pad2)*%
X146097000Y-108143000D03*
%TD*%
D18*
%TO.P,TP3,1,1_1*%
%TO.N,Net-(U5-OUT+)*%
X145034000Y-126492000D03*
%TD*%
%TO.P,TP2,1,1_1*%
%TO.N,-BATT*%
X114300000Y-97790000D03*
%TD*%
D10*
%TO.P,C3,1*%
%TO.N,+BATT*%
X110998000Y-83018000D03*
D11*
%TO.P,C3,2*%
%TO.N,-BATT*%
X110998000Y-80518000D03*
%TD*%
D19*
%TO.P,C8,1*%
%TO.N,VCC*%
X127294000Y-107442000D03*
D11*
%TO.P,C8,2*%
%TO.N,-BATT*%
X129794000Y-107442000D03*
%TD*%
D20*
%TO.P,RV1,1,1_1*%
%TO.N,Net-(C6-Pad2)*%
X151170000Y-104220000D03*
D21*
%TO.P,RV1,2,2_2*%
%TO.N,Net-(U5-IN+)*%
X153670000Y-109220000D03*
%TO.P,RV1,3,3_3*%
%TO.N,-BATT*%
X156170000Y-104220000D03*
%TD*%
D22*
%TO.P,U4,1,PA02_A0_D0_1*%
%TO.N,EC11A*%
X153670000Y-80778000D03*
D23*
%TO.P,U4,2,PA4_A1_D1_2*%
%TO.N,EC11B*%
X151130000Y-80778000D03*
%TO.P,U4,3,PA10_A2_D2_3*%
%TO.N,EC11SW1*%
X148590000Y-80778000D03*
%TO.P,U4,4,PA11_A3_D3_4*%
%TO.N,unconnected-(U4-PA11_A3_D3-Pad4)*%
X146050000Y-80778000D03*
%TO.P,U4,5,PA8_A4_D4_SDA_5*%
%TO.N,SDA*%
X143510000Y-80778000D03*
%TO.P,U4,6,PA9_A5_D5_SCL_6*%
%TO.N,SCL*%
X140970000Y-80778000D03*
%TO.P,U4,7,PB08_A6_D6_TX_7*%
%TO.N,unconnected-(U4-PB08_A6_D6_TX-Pad7)*%
X138430000Y-80778000D03*
%TO.P,U4,8,PB09_A7_D7_RX_8*%
%TO.N,unconnected-(U4-PB09_A7_D7_RX-Pad8)*%
X138430000Y-98028000D03*
%TO.P,U4,9,PA7_A8_D8_SCK_9*%
%TO.N,unconnected-(U4-PA7_A8_D8_SCK-Pad9)*%
X140970000Y-98028000D03*
%TO.P,U4,10,PA5_A9_D9_MISO_10*%
%TO.N,PWM*%
X143510000Y-98028000D03*
D24*
%TO.P,U4,11,PA6_A10_D10_MOSI_11*%
%TO.N,unconnected-(U4-PA6_A10_D10_MOSI-Pad11)*%
X146050000Y-98028000D03*
%TO.P,U4,12,3V3_12*%
%TO.N,VCC*%
X148590000Y-98028000D03*
%TO.P,U4,13,GND_13*%
%TO.N,-BATT*%
X151130000Y-98028000D03*
%TO.P,U4,14,5V_14*%
%TO.N,unconnected-(U4-5V-Pad14)*%
X153670000Y-98028000D03*
%TD*%
D19*
%TO.P,C7,1*%
%TO.N,VCC*%
X136184000Y-107442000D03*
D11*
%TO.P,C7,2*%
%TO.N,-BATT*%
X138684000Y-107442000D03*
%TD*%
D25*
%TO.P,U3,1,GND_1*%
%TO.N,-BATT*%
X124714000Y-89916000D03*
D26*
%TO.P,U3,2,VO_2*%
%TO.N,VCC*%
X122174000Y-89916000D03*
%TO.P,U3,3,VI_3*%
%TO.N,+BATT*%
X119634000Y-89916000D03*
%TD*%
D11*
%TO.P,C1,1*%
%TO.N,-BATT*%
X110414000Y-69342000D03*
%TO.P,C1,2*%
%TO.N,VCC*%
X107914000Y-69342000D03*
%TD*%
D27*
%TO.N,-BATT*%
X138684000Y-114300000D03*
X141224000Y-119380000D03*
X139700000Y-117856000D03*
X138684000Y-110236000D03*
%TD*%
%TO.N,SCL*%
D28*
X101959000Y-73337000D02*
X100809000Y-74487000D01*
X101959000Y-56721000D02*
X101959000Y-73337000D01*
X98832000Y-53594000D02*
X101959000Y-56721000D01*
%TO.N,SDA*%
X103124000Y-55346000D02*
X103124000Y-74712000D01*
X98832000Y-51054000D02*
X103124000Y-55346000D01*
X103124000Y-74712000D02*
X100809000Y-77027000D01*
%TD*%
%TA.AperFunction,Conductor*%
%TO.N,-BATT*%
G36*
X158500042Y-45712765D02*
G01*
X158522774Y-45714254D01*
X158754114Y-45729417D01*
X158770172Y-45731532D01*
X159015888Y-45780408D01*
X159031554Y-45784606D01*
X159182736Y-45835925D01*
X159268788Y-45865136D01*
X159283765Y-45871339D01*
X159501336Y-45978633D01*
X159508460Y-45982146D01*
X159522508Y-45990256D01*
X159730815Y-46129443D01*
X159743679Y-46139314D01*
X159932033Y-46304497D01*
X159943502Y-46315966D01*
X160108685Y-46504320D01*
X160118559Y-46517188D01*
X160257743Y-46725492D01*
X160265853Y-46739539D01*
X160376657Y-46964227D01*
X160382864Y-46979213D01*
X160463393Y-47216445D01*
X160467591Y-47232111D01*
X160516465Y-47477813D01*
X160518583Y-47493895D01*
X160535235Y-47747955D01*
X160535500Y-47756065D01*
X160535500Y-132583933D01*
X160535235Y-132592043D01*
X160518583Y-132846104D01*
X160516465Y-132862186D01*
X160467591Y-133107888D01*
X160463393Y-133123554D01*
X160382864Y-133360786D01*
X160376657Y-133375772D01*
X160265853Y-133600460D01*
X160257743Y-133614507D01*
X160118559Y-133822811D01*
X160108685Y-133835679D01*
X159943502Y-134024033D01*
X159932033Y-134035502D01*
X159743679Y-134200685D01*
X159730811Y-134210559D01*
X159522507Y-134349743D01*
X159508460Y-134357853D01*
X159283772Y-134468657D01*
X159268786Y-134474864D01*
X159031554Y-134555393D01*
X159015888Y-134559591D01*
X158770186Y-134608465D01*
X158754104Y-134610583D01*
X158500043Y-134627235D01*
X158491933Y-134627500D01*
X145799481Y-134627500D01*
X145792528Y-134627305D01*
X145574599Y-134615066D01*
X145560781Y-134613509D01*
X145349036Y-134577532D01*
X145335479Y-134574438D01*
X145129084Y-134514976D01*
X145115960Y-134510383D01*
X144917529Y-134428191D01*
X144905000Y-134422158D01*
X144717010Y-134318259D01*
X144705245Y-134310866D01*
X144530063Y-134186568D01*
X144519206Y-134177909D01*
X144356448Y-134032458D01*
X144351394Y-134027680D01*
X144305375Y-133981661D01*
X144298259Y-133975474D01*
X140781557Y-130519089D01*
X140695707Y-130434711D01*
X155121500Y-130434711D01*
X155121500Y-130677288D01*
X155153161Y-130917785D01*
X155215947Y-131152104D01*
X155308773Y-131376205D01*
X155308776Y-131376212D01*
X155430064Y-131586289D01*
X155430066Y-131586292D01*
X155430067Y-131586293D01*
X155577733Y-131778736D01*
X155577739Y-131778743D01*
X155749256Y-131950260D01*
X155749262Y-131950265D01*
X155941711Y-132097936D01*
X156151788Y-132219224D01*
X156375900Y-132312054D01*
X156610211Y-132374838D01*
X156790586Y-132398584D01*
X156850711Y-132406500D01*
X156850712Y-132406500D01*
X157093289Y-132406500D01*
X157141388Y-132400167D01*
X157333789Y-132374838D01*
X157568100Y-132312054D01*
X157792212Y-132219224D01*
X158002289Y-132097936D01*
X158194738Y-131950265D01*
X158366265Y-131778738D01*
X158513936Y-131586289D01*
X158635224Y-131376212D01*
X158728054Y-131152100D01*
X158790838Y-130917789D01*
X158822500Y-130677288D01*
X158822500Y-130434712D01*
X158790838Y-130194211D01*
X158728054Y-129959900D01*
X158635224Y-129735788D01*
X158513936Y-129525711D01*
X158366265Y-129333262D01*
X158366260Y-129333256D01*
X158194743Y-129161739D01*
X158194736Y-129161733D01*
X158002293Y-129014067D01*
X158002292Y-129014066D01*
X158002289Y-129014064D01*
X157792212Y-128892776D01*
X157792205Y-128892773D01*
X157568104Y-128799947D01*
X157333785Y-128737161D01*
X157093289Y-128705500D01*
X157093288Y-128705500D01*
X156850712Y-128705500D01*
X156850711Y-128705500D01*
X156610214Y-128737161D01*
X156375895Y-128799947D01*
X156151794Y-128892773D01*
X156151785Y-128892777D01*
X155941706Y-129014067D01*
X155749263Y-129161733D01*
X155749256Y-129161739D01*
X155577739Y-129333256D01*
X155577733Y-129333263D01*
X155430067Y-129525706D01*
X155308777Y-129735785D01*
X155308773Y-129735794D01*
X155215947Y-129959895D01*
X155153161Y-130194214D01*
X155121500Y-130434711D01*
X140695707Y-130434711D01*
X136636634Y-126445257D01*
X136550776Y-126360872D01*
X143033500Y-126360872D01*
X143033500Y-126623127D01*
X143060123Y-126825339D01*
X143067730Y-126883116D01*
X143135602Y-127136418D01*
X143135605Y-127136428D01*
X143235953Y-127378690D01*
X143235958Y-127378700D01*
X143367075Y-127605803D01*
X143526718Y-127813851D01*
X143526726Y-127813860D01*
X143712140Y-127999274D01*
X143712148Y-127999281D01*
X143920196Y-128158924D01*
X144147299Y-128290041D01*
X144147309Y-128290046D01*
X144389571Y-128390394D01*
X144389581Y-128390398D01*
X144642884Y-128458270D01*
X144902880Y-128492500D01*
X144902887Y-128492500D01*
X145165113Y-128492500D01*
X145165120Y-128492500D01*
X145425116Y-128458270D01*
X145678419Y-128390398D01*
X145920697Y-128290043D01*
X146147803Y-128158924D01*
X146355851Y-127999282D01*
X146355855Y-127999277D01*
X146355860Y-127999274D01*
X146541274Y-127813860D01*
X146541277Y-127813855D01*
X146541282Y-127813851D01*
X146700924Y-127605803D01*
X146832043Y-127378697D01*
X146932398Y-127136419D01*
X147000270Y-126883116D01*
X147034500Y-126623120D01*
X147034500Y-126360880D01*
X147034499Y-126360872D01*
X150653500Y-126360872D01*
X150653500Y-126623127D01*
X150680123Y-126825339D01*
X150687730Y-126883116D01*
X150755602Y-127136418D01*
X150755605Y-127136428D01*
X150855953Y-127378690D01*
X150855958Y-127378700D01*
X150987075Y-127605803D01*
X151146718Y-127813851D01*
X151146726Y-127813860D01*
X151332140Y-127999274D01*
X151332148Y-127999281D01*
X151540196Y-128158924D01*
X151767299Y-128290041D01*
X151767309Y-128290046D01*
X152009571Y-128390394D01*
X152009581Y-128390398D01*
X152262884Y-128458270D01*
X152522880Y-128492500D01*
X152522887Y-128492500D01*
X152785113Y-128492500D01*
X152785120Y-128492500D01*
X153045116Y-128458270D01*
X153298419Y-128390398D01*
X153540697Y-128290043D01*
X153767803Y-128158924D01*
X153975851Y-127999282D01*
X153975855Y-127999277D01*
X153975860Y-127999274D01*
X154161274Y-127813860D01*
X154161277Y-127813855D01*
X154161282Y-127813851D01*
X154320924Y-127605803D01*
X154452043Y-127378697D01*
X154552398Y-127136419D01*
X154620270Y-126883116D01*
X154654500Y-126623120D01*
X154654500Y-126360880D01*
X154620270Y-126100884D01*
X154552398Y-125847581D01*
X154552394Y-125847571D01*
X154452046Y-125605309D01*
X154452041Y-125605299D01*
X154320924Y-125378196D01*
X154161281Y-125170148D01*
X154161274Y-125170140D01*
X153975860Y-124984726D01*
X153975851Y-124984718D01*
X153767803Y-124825075D01*
X153540700Y-124693958D01*
X153540690Y-124693953D01*
X153298428Y-124593605D01*
X153298421Y-124593603D01*
X153298419Y-124593602D01*
X153045116Y-124525730D01*
X152987339Y-124518123D01*
X152785127Y-124491500D01*
X152785120Y-124491500D01*
X152522880Y-124491500D01*
X152522872Y-124491500D01*
X152291772Y-124521926D01*
X152262884Y-124525730D01*
X152009581Y-124593602D01*
X152009571Y-124593605D01*
X151767309Y-124693953D01*
X151767299Y-124693958D01*
X151540196Y-124825075D01*
X151332148Y-124984718D01*
X151146718Y-125170148D01*
X150987075Y-125378196D01*
X150855958Y-125605299D01*
X150855953Y-125605309D01*
X150755605Y-125847571D01*
X150755602Y-125847581D01*
X150687730Y-126100885D01*
X150653500Y-126360872D01*
X147034499Y-126360872D01*
X147000270Y-126100884D01*
X146932398Y-125847581D01*
X146932394Y-125847571D01*
X146832046Y-125605309D01*
X146832041Y-125605299D01*
X146700924Y-125378196D01*
X146541281Y-125170148D01*
X146541274Y-125170140D01*
X146355860Y-124984726D01*
X146355851Y-124984718D01*
X146147803Y-124825075D01*
X145920700Y-124693958D01*
X145920690Y-124693953D01*
X145678428Y-124593605D01*
X145678421Y-124593603D01*
X145678419Y-124593602D01*
X145425116Y-124525730D01*
X145367339Y-124518123D01*
X145165127Y-124491500D01*
X145165120Y-124491500D01*
X144902880Y-124491500D01*
X144902872Y-124491500D01*
X144671772Y-124521926D01*
X144642884Y-124525730D01*
X144389581Y-124593602D01*
X144389571Y-124593605D01*
X144147309Y-124693953D01*
X144147299Y-124693958D01*
X143920196Y-124825075D01*
X143712148Y-124984718D01*
X143526718Y-125170148D01*
X143367075Y-125378196D01*
X143235958Y-125605299D01*
X143235953Y-125605309D01*
X143135605Y-125847571D01*
X143135602Y-125847581D01*
X143067730Y-126100885D01*
X143033500Y-126360872D01*
X136550776Y-126360872D01*
X125141434Y-115147217D01*
X124175294Y-114197648D01*
X143479500Y-114197648D01*
X143479500Y-114402351D01*
X143511522Y-114604534D01*
X143574781Y-114799223D01*
X143638691Y-114924653D01*
X143667585Y-114981359D01*
X143667715Y-114981613D01*
X143788028Y-115147213D01*
X143932786Y-115291971D01*
X144053226Y-115379474D01*
X144098390Y-115412287D01*
X144214607Y-115471503D01*
X144280776Y-115505218D01*
X144280778Y-115505218D01*
X144280781Y-115505220D01*
X144385137Y-115539127D01*
X144475465Y-115568477D01*
X144576557Y-115584488D01*
X144677648Y-115600500D01*
X144677649Y-115600500D01*
X144882351Y-115600500D01*
X144882352Y-115600500D01*
X145084534Y-115568477D01*
X145279219Y-115505220D01*
X145461610Y-115412287D01*
X145554590Y-115344732D01*
X145627213Y-115291971D01*
X145627215Y-115291968D01*
X145627219Y-115291966D01*
X145771966Y-115147219D01*
X145771968Y-115147215D01*
X145771971Y-115147213D01*
X145824732Y-115074590D01*
X145892287Y-114981610D01*
X145985220Y-114799219D01*
X146048477Y-114604534D01*
X146080500Y-114402352D01*
X146080500Y-114197682D01*
X151100000Y-114197682D01*
X151100000Y-114402317D01*
X151132009Y-114604417D01*
X151195244Y-114799031D01*
X151288141Y-114981350D01*
X151288147Y-114981359D01*
X151320523Y-115025921D01*
X151320524Y-115025922D01*
X152000000Y-114346446D01*
X152000000Y-114352661D01*
X152027259Y-114454394D01*
X152079920Y-114545606D01*
X152154394Y-114620080D01*
X152245606Y-114672741D01*
X152347339Y-114700000D01*
X152353553Y-114700000D01*
X151674076Y-115379474D01*
X151718650Y-115411859D01*
X151900968Y-115504755D01*
X152095582Y-115567990D01*
X152297683Y-115600000D01*
X152502317Y-115600000D01*
X152704417Y-115567990D01*
X152899031Y-115504755D01*
X153081349Y-115411859D01*
X153125921Y-115379474D01*
X152446447Y-114700000D01*
X152452661Y-114700000D01*
X152554394Y-114672741D01*
X152645606Y-114620080D01*
X152720080Y-114545606D01*
X152772741Y-114454394D01*
X152800000Y-114352661D01*
X152800000Y-114346447D01*
X153479474Y-115025921D01*
X153511859Y-114981349D01*
X153604755Y-114799031D01*
X153667990Y-114604417D01*
X153700000Y-114402317D01*
X153700000Y-114197682D01*
X153667990Y-113995582D01*
X153604755Y-113800968D01*
X153511859Y-113618650D01*
X153479474Y-113574077D01*
X153479474Y-113574076D01*
X152800000Y-114253551D01*
X152800000Y-114247339D01*
X152772741Y-114145606D01*
X152720080Y-114054394D01*
X152645606Y-113979920D01*
X152554394Y-113927259D01*
X152452661Y-113900000D01*
X152446446Y-113900000D01*
X153125922Y-113220524D01*
X153125921Y-113220523D01*
X153081359Y-113188147D01*
X153081350Y-113188141D01*
X152899031Y-113095244D01*
X152704417Y-113032009D01*
X152502317Y-113000000D01*
X152297683Y-113000000D01*
X152095582Y-113032009D01*
X151900968Y-113095244D01*
X151718644Y-113188143D01*
X151674077Y-113220523D01*
X151674077Y-113220524D01*
X152353554Y-113900000D01*
X152347339Y-113900000D01*
X152245606Y-113927259D01*
X152154394Y-113979920D01*
X152079920Y-114054394D01*
X152027259Y-114145606D01*
X152000000Y-114247339D01*
X152000000Y-114253553D01*
X151320524Y-113574077D01*
X151320523Y-113574077D01*
X151288143Y-113618644D01*
X151195244Y-113800968D01*
X151132009Y-113995582D01*
X151100000Y-114197682D01*
X146080500Y-114197682D01*
X146080500Y-114197648D01*
X146072257Y-114145606D01*
X146048477Y-113995465D01*
X146017458Y-113900000D01*
X145985220Y-113800781D01*
X145985218Y-113800778D01*
X145985218Y-113800776D01*
X145892419Y-113618650D01*
X145892287Y-113618390D01*
X145860092Y-113574077D01*
X145771971Y-113452786D01*
X145627213Y-113308028D01*
X145461613Y-113187715D01*
X145461612Y-113187714D01*
X145461610Y-113187713D01*
X145404653Y-113158691D01*
X145279223Y-113094781D01*
X145084534Y-113031522D01*
X144909995Y-113003878D01*
X144882352Y-112999500D01*
X144677648Y-112999500D01*
X144653329Y-113003351D01*
X144475465Y-113031522D01*
X144280776Y-113094781D01*
X144098386Y-113187715D01*
X143932786Y-113308028D01*
X143788028Y-113452786D01*
X143667715Y-113618386D01*
X143574781Y-113800776D01*
X143511522Y-113995465D01*
X143479500Y-114197648D01*
X124175294Y-114197648D01*
X116691267Y-106841983D01*
X125993500Y-106841983D01*
X125993500Y-108042001D01*
X125993501Y-108042018D01*
X126004000Y-108144796D01*
X126004001Y-108144799D01*
X126059185Y-108311331D01*
X126059186Y-108311334D01*
X126151288Y-108460656D01*
X126275344Y-108584712D01*
X126424666Y-108676814D01*
X126591203Y-108731999D01*
X126693991Y-108742500D01*
X127894008Y-108742499D01*
X127996797Y-108731999D01*
X128163334Y-108676814D01*
X128312656Y-108584712D01*
X128436712Y-108460656D01*
X128528814Y-108311334D01*
X128552102Y-108241054D01*
X128556110Y-108233050D01*
X128574060Y-108213772D01*
X128589055Y-108192116D01*
X128597495Y-108188606D01*
X128603725Y-108181917D01*
X128629249Y-108175404D01*
X128653571Y-108165292D01*
X128669834Y-108165048D01*
X128671425Y-108164643D01*
X128672540Y-108165008D01*
X128676719Y-108164946D01*
X128714525Y-108167921D01*
X129394000Y-107488446D01*
X129394000Y-107494661D01*
X129421259Y-107596394D01*
X129473920Y-107687606D01*
X129548394Y-107762080D01*
X129639606Y-107814741D01*
X129741339Y-107842000D01*
X129747553Y-107842000D01*
X129068076Y-108521474D01*
X129112650Y-108553859D01*
X129294968Y-108646755D01*
X129489582Y-108709990D01*
X129691683Y-108742000D01*
X129896317Y-108742000D01*
X130098417Y-108709990D01*
X130293031Y-108646755D01*
X130475349Y-108553859D01*
X130519921Y-108521474D01*
X129840447Y-107842000D01*
X129846661Y-107842000D01*
X129948394Y-107814741D01*
X130039606Y-107762080D01*
X130114080Y-107687606D01*
X130166741Y-107596394D01*
X130194000Y-107494661D01*
X130194000Y-107488447D01*
X130873474Y-108167921D01*
X130905859Y-108123349D01*
X130998755Y-107941031D01*
X131061990Y-107746417D01*
X131094000Y-107544317D01*
X131094000Y-107339682D01*
X131061990Y-107137582D01*
X130998754Y-106942965D01*
X130974381Y-106895130D01*
X130974380Y-106895129D01*
X130947301Y-106841983D01*
X134883500Y-106841983D01*
X134883500Y-108042001D01*
X134883501Y-108042018D01*
X134894000Y-108144796D01*
X134894001Y-108144799D01*
X134949185Y-108311331D01*
X134949186Y-108311334D01*
X135041288Y-108460656D01*
X135165344Y-108584712D01*
X135314666Y-108676814D01*
X135481203Y-108731999D01*
X135583991Y-108742500D01*
X136784008Y-108742499D01*
X136886797Y-108731999D01*
X137053334Y-108676814D01*
X137202656Y-108584712D01*
X137326712Y-108460656D01*
X137418814Y-108311334D01*
X137442102Y-108241054D01*
X137446110Y-108233050D01*
X137464060Y-108213772D01*
X137479055Y-108192116D01*
X137487495Y-108188606D01*
X137493725Y-108181917D01*
X137519249Y-108175404D01*
X137543571Y-108165292D01*
X137559834Y-108165048D01*
X137561425Y-108164643D01*
X137562540Y-108165008D01*
X137566719Y-108164946D01*
X137604525Y-108167921D01*
X138284000Y-107488446D01*
X138284000Y-107494661D01*
X138311259Y-107596394D01*
X138363920Y-107687606D01*
X138438394Y-107762080D01*
X138529606Y-107814741D01*
X138631339Y-107842000D01*
X138637553Y-107842000D01*
X137958076Y-108521474D01*
X138002650Y-108553859D01*
X138184968Y-108646755D01*
X138379582Y-108709990D01*
X138581683Y-108742000D01*
X138786317Y-108742000D01*
X138988417Y-108709990D01*
X139183031Y-108646755D01*
X139365349Y-108553859D01*
X139409921Y-108521474D01*
X138730447Y-107842000D01*
X138736661Y-107842000D01*
X138838394Y-107814741D01*
X138929606Y-107762080D01*
X139004080Y-107687606D01*
X139056741Y-107596394D01*
X139084000Y-107494661D01*
X139084000Y-107488447D01*
X139763474Y-108167921D01*
X139795859Y-108123349D01*
X139837998Y-108040648D01*
X142296500Y-108040648D01*
X142296500Y-108245351D01*
X142328522Y-108447534D01*
X142391781Y-108642223D01*
X142484715Y-108824613D01*
X142605028Y-108990213D01*
X142749786Y-109134971D01*
X142904749Y-109247556D01*
X142915390Y-109255287D01*
X143031607Y-109314503D01*
X143097776Y-109348218D01*
X143097778Y-109348218D01*
X143097781Y-109348220D01*
X143202137Y-109382127D01*
X143292465Y-109411477D01*
X143393557Y-109427488D01*
X143494648Y-109443500D01*
X143494649Y-109443500D01*
X143699351Y-109443500D01*
X143699352Y-109443500D01*
X143901534Y-109411477D01*
X144096219Y-109348220D01*
X144278610Y-109255287D01*
X144371590Y-109187732D01*
X144444213Y-109134971D01*
X144444215Y-109134968D01*
X144444219Y-109134966D01*
X144588966Y-108990219D01*
X144588968Y-108990215D01*
X144588971Y-108990213D01*
X144641732Y-108917590D01*
X144709287Y-108824610D01*
X144736515Y-108771171D01*
X144784490Y-108720376D01*
X144852311Y-108703581D01*
X144918446Y-108726118D01*
X144957485Y-108771172D01*
X144984715Y-108824613D01*
X145105028Y-108990213D01*
X145249786Y-109134971D01*
X145404749Y-109247556D01*
X145415390Y-109255287D01*
X145531607Y-109314503D01*
X145597776Y-109348218D01*
X145597778Y-109348218D01*
X145597781Y-109348220D01*
X145702137Y-109382127D01*
X145792465Y-109411477D01*
X145893557Y-109427488D01*
X145994648Y-109443500D01*
X145994649Y-109443500D01*
X146199351Y-109443500D01*
X146199352Y-109443500D01*
X146401534Y-109411477D01*
X146596219Y-109348220D01*
X146778610Y-109255287D01*
X146871590Y-109187732D01*
X146944213Y-109134971D01*
X146944215Y-109134968D01*
X146944219Y-109134966D01*
X146959969Y-109119216D01*
X152389500Y-109119216D01*
X152389500Y-109320783D01*
X152421030Y-109519852D01*
X152483312Y-109711539D01*
X152483314Y-109711542D01*
X152574818Y-109891129D01*
X152693289Y-110054190D01*
X152835810Y-110196711D01*
X152998871Y-110315182D01*
X153178458Y-110406686D01*
X153178460Y-110406687D01*
X153274303Y-110437828D01*
X153370149Y-110468970D01*
X153462348Y-110483572D01*
X153569217Y-110500500D01*
X153569222Y-110500500D01*
X153770783Y-110500500D01*
X153867289Y-110485214D01*
X153969851Y-110468970D01*
X154161542Y-110406686D01*
X154341129Y-110315182D01*
X154504190Y-110196711D01*
X154646711Y-110054190D01*
X154765182Y-109891129D01*
X154856686Y-109711542D01*
X154918970Y-109519851D01*
X154946154Y-109348220D01*
X154950500Y-109320783D01*
X154950500Y-109119216D01*
X154930067Y-108990213D01*
X154918970Y-108920149D01*
X154857837Y-108731999D01*
X154856687Y-108728460D01*
X154847276Y-108709990D01*
X154765182Y-108548871D01*
X154646711Y-108385810D01*
X154504190Y-108243289D01*
X154341129Y-108124818D01*
X154178625Y-108042018D01*
X154161539Y-108033312D01*
X153969852Y-107971030D01*
X153770783Y-107939500D01*
X153770778Y-107939500D01*
X153569222Y-107939500D01*
X153569217Y-107939500D01*
X153370147Y-107971030D01*
X153178460Y-108033312D01*
X152998870Y-108124818D01*
X152906243Y-108192116D01*
X152835810Y-108243289D01*
X152835808Y-108243291D01*
X152835807Y-108243291D01*
X152693291Y-108385807D01*
X152693291Y-108385808D01*
X152693289Y-108385810D01*
X152672960Y-108413791D01*
X152574818Y-108548870D01*
X152483312Y-108728460D01*
X152421030Y-108920147D01*
X152389500Y-109119216D01*
X146959969Y-109119216D01*
X147088966Y-108990219D01*
X147088968Y-108990215D01*
X147088971Y-108990213D01*
X147141732Y-108917590D01*
X147209287Y-108824610D01*
X147302220Y-108642219D01*
X147365477Y-108447534D01*
X147397500Y-108245352D01*
X147397500Y-108040648D01*
X147381722Y-107941031D01*
X147365477Y-107838465D01*
X147335568Y-107746417D01*
X147302220Y-107643781D01*
X147302218Y-107643778D01*
X147302218Y-107643776D01*
X147226239Y-107494661D01*
X147209287Y-107461390D01*
X147195200Y-107442001D01*
X147088971Y-107295786D01*
X146944213Y-107151028D01*
X146778613Y-107030715D01*
X146778612Y-107030714D01*
X146778610Y-107030713D01*
X146721653Y-107001691D01*
X146596223Y-106937781D01*
X146401534Y-106874522D01*
X146226995Y-106846878D01*
X146199352Y-106842500D01*
X145994648Y-106842500D01*
X145970329Y-106846351D01*
X145792465Y-106874522D01*
X145597776Y-106937781D01*
X145415386Y-107030715D01*
X145249786Y-107151028D01*
X145105028Y-107295786D01*
X144984713Y-107461388D01*
X144957484Y-107514828D01*
X144909510Y-107565623D01*
X144841688Y-107582418D01*
X144775554Y-107559880D01*
X144736516Y-107514828D01*
X144709286Y-107461388D01*
X144588971Y-107295786D01*
X144444213Y-107151028D01*
X144278613Y-107030715D01*
X144278612Y-107030714D01*
X144278610Y-107030713D01*
X144221653Y-107001691D01*
X144096223Y-106937781D01*
X143901534Y-106874522D01*
X143726995Y-106846878D01*
X143699352Y-106842500D01*
X143494648Y-106842500D01*
X143470329Y-106846351D01*
X143292465Y-106874522D01*
X143097776Y-106937781D01*
X142915386Y-107030715D01*
X142749786Y-107151028D01*
X142605028Y-107295786D01*
X142484715Y-107461386D01*
X142391781Y-107643776D01*
X142328522Y-107838465D01*
X142296500Y-108040648D01*
X139837998Y-108040648D01*
X139869164Y-107979481D01*
X139888755Y-107941031D01*
X139951990Y-107746417D01*
X139984000Y-107544317D01*
X139984000Y-107339682D01*
X139951990Y-107137582D01*
X139888755Y-106942968D01*
X139795859Y-106760650D01*
X139763474Y-106716077D01*
X139763474Y-106716076D01*
X139084000Y-107395551D01*
X139084000Y-107389339D01*
X139056741Y-107287606D01*
X139004080Y-107196394D01*
X138929606Y-107121920D01*
X138838394Y-107069259D01*
X138736661Y-107042000D01*
X138730446Y-107042000D01*
X139409922Y-106362524D01*
X139409921Y-106362523D01*
X139365359Y-106330147D01*
X139365350Y-106330141D01*
X139183031Y-106237244D01*
X138988417Y-106174009D01*
X138786317Y-106142000D01*
X138581683Y-106142000D01*
X138379582Y-106174009D01*
X138184968Y-106237244D01*
X138002644Y-106330143D01*
X137958077Y-106362523D01*
X137958077Y-106362524D01*
X138637554Y-107042000D01*
X138631339Y-107042000D01*
X138529606Y-107069259D01*
X138438394Y-107121920D01*
X138363920Y-107196394D01*
X138311259Y-107287606D01*
X138284000Y-107389339D01*
X138284000Y-107395553D01*
X137604524Y-106716077D01*
X137566719Y-106719053D01*
X137498341Y-106704689D01*
X137448584Y-106655638D01*
X137446110Y-106650949D01*
X137442101Y-106642942D01*
X137418814Y-106572666D01*
X137326712Y-106423344D01*
X137202656Y-106299288D01*
X137053334Y-106207186D01*
X136886797Y-106152001D01*
X136886795Y-106152000D01*
X136784010Y-106141500D01*
X135583998Y-106141500D01*
X135583981Y-106141501D01*
X135481203Y-106152000D01*
X135481200Y-106152001D01*
X135314668Y-106207185D01*
X135314663Y-106207187D01*
X135165342Y-106299289D01*
X135041289Y-106423342D01*
X134949187Y-106572663D01*
X134949186Y-106572666D01*
X134894001Y-106739203D01*
X134894001Y-106739204D01*
X134894000Y-106739204D01*
X134883500Y-106841983D01*
X130947301Y-106841983D01*
X130905859Y-106760650D01*
X130873474Y-106716077D01*
X130873474Y-106716076D01*
X130194000Y-107395551D01*
X130194000Y-107389339D01*
X130166741Y-107287606D01*
X130114080Y-107196394D01*
X130039606Y-107121920D01*
X129948394Y-107069259D01*
X129846661Y-107042000D01*
X129840446Y-107042000D01*
X130519922Y-106362524D01*
X130519921Y-106362523D01*
X130475359Y-106330147D01*
X130475350Y-106330141D01*
X130293031Y-106237244D01*
X130098417Y-106174009D01*
X129896317Y-106142000D01*
X129691683Y-106142000D01*
X129489582Y-106174009D01*
X129294968Y-106237244D01*
X129112644Y-106330143D01*
X129068077Y-106362523D01*
X129068077Y-106362524D01*
X129747554Y-107042000D01*
X129741339Y-107042000D01*
X129639606Y-107069259D01*
X129548394Y-107121920D01*
X129473920Y-107196394D01*
X129421259Y-107287606D01*
X129394000Y-107389339D01*
X129394000Y-107395553D01*
X128714524Y-106716077D01*
X128676719Y-106719053D01*
X128608341Y-106704689D01*
X128558584Y-106655638D01*
X128556110Y-106650949D01*
X128552101Y-106642942D01*
X128528814Y-106572666D01*
X128436712Y-106423344D01*
X128312656Y-106299288D01*
X128163334Y-106207186D01*
X127996797Y-106152001D01*
X127996795Y-106152000D01*
X127894010Y-106141500D01*
X126693998Y-106141500D01*
X126693981Y-106141501D01*
X126591203Y-106152000D01*
X126591200Y-106152001D01*
X126424668Y-106207185D01*
X126424663Y-106207187D01*
X126275342Y-106299289D01*
X126151289Y-106423342D01*
X126059187Y-106572663D01*
X126059186Y-106572666D01*
X126004001Y-106739203D01*
X126004001Y-106739204D01*
X126004000Y-106739204D01*
X125993500Y-106841983D01*
X116691267Y-106841983D01*
X113181216Y-103392135D01*
X149889500Y-103392135D01*
X149889500Y-105047870D01*
X149889501Y-105047876D01*
X149895908Y-105107483D01*
X149946202Y-105242328D01*
X149946206Y-105242335D01*
X150032452Y-105357544D01*
X150032455Y-105357547D01*
X150147664Y-105443793D01*
X150147671Y-105443797D01*
X150282517Y-105494091D01*
X150282516Y-105494091D01*
X150289444Y-105494835D01*
X150342127Y-105500500D01*
X151997872Y-105500499D01*
X152057483Y-105494091D01*
X152192331Y-105443796D01*
X152307546Y-105357546D01*
X152393796Y-105242331D01*
X152411613Y-105194562D01*
X152411614Y-105194560D01*
X152444090Y-105107485D01*
X152444091Y-105107483D01*
X152450500Y-105047873D01*
X152450499Y-104119262D01*
X154890000Y-104119262D01*
X154890000Y-104320737D01*
X154921518Y-104519735D01*
X154983775Y-104711346D01*
X154983776Y-104711349D01*
X155075248Y-104890869D01*
X155104842Y-104931602D01*
X155104843Y-104931603D01*
X155687037Y-104349408D01*
X155704075Y-104412993D01*
X155769901Y-104527007D01*
X155862993Y-104620099D01*
X155977007Y-104685925D01*
X156040590Y-104702962D01*
X155458395Y-105285155D01*
X155499133Y-105314753D01*
X155678650Y-105406223D01*
X155678653Y-105406224D01*
X155870264Y-105468481D01*
X156069263Y-105500000D01*
X156270737Y-105500000D01*
X156469735Y-105468481D01*
X156661346Y-105406224D01*
X156661349Y-105406223D01*
X156840866Y-105314753D01*
X156881602Y-105285156D01*
X156881602Y-105285155D01*
X156299409Y-104702962D01*
X156362993Y-104685925D01*
X156477007Y-104620099D01*
X156570099Y-104527007D01*
X156635925Y-104412993D01*
X156652962Y-104349409D01*
X157235155Y-104931602D01*
X157235156Y-104931602D01*
X157264753Y-104890866D01*
X157356223Y-104711349D01*
X157356224Y-104711346D01*
X157418481Y-104519735D01*
X157450000Y-104320737D01*
X157450000Y-104119262D01*
X157418481Y-103920264D01*
X157356224Y-103728653D01*
X157356223Y-103728650D01*
X157264753Y-103549133D01*
X157235155Y-103508396D01*
X157235155Y-103508395D01*
X156652962Y-104090589D01*
X156635925Y-104027007D01*
X156570099Y-103912993D01*
X156477007Y-103819901D01*
X156362993Y-103754075D01*
X156299408Y-103737037D01*
X156881603Y-103154843D01*
X156881602Y-103154842D01*
X156840869Y-103125248D01*
X156661349Y-103033776D01*
X156661346Y-103033775D01*
X156469735Y-102971518D01*
X156270737Y-102940000D01*
X156069263Y-102940000D01*
X155870264Y-102971518D01*
X155678653Y-103033775D01*
X155678650Y-103033776D01*
X155499135Y-103125245D01*
X155499133Y-103125246D01*
X155458396Y-103154842D01*
X155458396Y-103154843D01*
X156040591Y-103737037D01*
X155977007Y-103754075D01*
X155862993Y-103819901D01*
X155769901Y-103912993D01*
X155704075Y-104027007D01*
X155687037Y-104090590D01*
X155104843Y-103508396D01*
X155104842Y-103508396D01*
X155075246Y-103549133D01*
X155075245Y-103549135D01*
X154983776Y-103728650D01*
X154983775Y-103728653D01*
X154921518Y-103920264D01*
X154890000Y-104119262D01*
X152450499Y-104119262D01*
X152450499Y-103392128D01*
X152444091Y-103332517D01*
X152393796Y-103197669D01*
X152393795Y-103197668D01*
X152393793Y-103197664D01*
X152307547Y-103082455D01*
X152307544Y-103082452D01*
X152192335Y-102996206D01*
X152192328Y-102996202D01*
X152057482Y-102945908D01*
X152057483Y-102945908D01*
X151997883Y-102939501D01*
X151997881Y-102939500D01*
X151997873Y-102939500D01*
X151997864Y-102939500D01*
X150342129Y-102939500D01*
X150342123Y-102939501D01*
X150282516Y-102945908D01*
X150147671Y-102996202D01*
X150147664Y-102996206D01*
X150032455Y-103082452D01*
X150032452Y-103082455D01*
X149946206Y-103197664D01*
X149946202Y-103197671D01*
X149895908Y-103332517D01*
X149889501Y-103392116D01*
X149889501Y-103392123D01*
X149889500Y-103392135D01*
X113181216Y-103392135D01*
X109310279Y-99587590D01*
X109129998Y-99410401D01*
X107433795Y-97743290D01*
X107347937Y-97658905D01*
X112300000Y-97658905D01*
X112300000Y-97921094D01*
X112334220Y-98181009D01*
X112334222Y-98181020D01*
X112402075Y-98434255D01*
X112502404Y-98676471D01*
X112502409Y-98676482D01*
X112633488Y-98903516D01*
X112633494Y-98903524D01*
X112720080Y-99016365D01*
X113622421Y-98114024D01*
X113635359Y-98145258D01*
X113717437Y-98268097D01*
X113821903Y-98372563D01*
X113944742Y-98454641D01*
X113975974Y-98467577D01*
X113073633Y-99369917D01*
X113073633Y-99369918D01*
X113186475Y-99456505D01*
X113186483Y-99456511D01*
X113413517Y-99587590D01*
X113413528Y-99587595D01*
X113655744Y-99687924D01*
X113908979Y-99755777D01*
X113908990Y-99755779D01*
X114168905Y-99789999D01*
X114168920Y-99790000D01*
X114431080Y-99790000D01*
X114431094Y-99789999D01*
X114691009Y-99755779D01*
X114691020Y-99755777D01*
X114944255Y-99687924D01*
X115186471Y-99587595D01*
X115186482Y-99587590D01*
X115413516Y-99456511D01*
X115413534Y-99456499D01*
X115526365Y-99369919D01*
X115526365Y-99369917D01*
X114624025Y-98467578D01*
X114655258Y-98454641D01*
X114778097Y-98372563D01*
X114882563Y-98268097D01*
X114964641Y-98145258D01*
X114977577Y-98114025D01*
X115879917Y-99016365D01*
X115879919Y-99016365D01*
X115966499Y-98903534D01*
X115966511Y-98903516D01*
X116097590Y-98676482D01*
X116097595Y-98676471D01*
X116197924Y-98434255D01*
X116265777Y-98181020D01*
X116265779Y-98181009D01*
X116299999Y-97921094D01*
X116300000Y-97921080D01*
X116300000Y-97658919D01*
X116299999Y-97658905D01*
X116265779Y-97398990D01*
X116265777Y-97398979D01*
X116197924Y-97145744D01*
X116143476Y-97014294D01*
X116143475Y-97014292D01*
X116125838Y-96971713D01*
X137079500Y-96971713D01*
X137079500Y-99084287D01*
X137112754Y-99294243D01*
X137165478Y-99456511D01*
X137178444Y-99496414D01*
X137274951Y-99685820D01*
X137399890Y-99857786D01*
X137550213Y-100008109D01*
X137722179Y-100133048D01*
X137722181Y-100133049D01*
X137722184Y-100133051D01*
X137911588Y-100229557D01*
X138113757Y-100295246D01*
X138323713Y-100328500D01*
X138323714Y-100328500D01*
X138536286Y-100328500D01*
X138536287Y-100328500D01*
X138746243Y-100295246D01*
X138948412Y-100229557D01*
X139137816Y-100133051D01*
X139240966Y-100058109D01*
X139309786Y-100008109D01*
X139309788Y-100008106D01*
X139309792Y-100008104D01*
X139460104Y-99857792D01*
X139460106Y-99857788D01*
X139460109Y-99857786D01*
X139585048Y-99685820D01*
X139585047Y-99685820D01*
X139585051Y-99685816D01*
X139589514Y-99677054D01*
X139637488Y-99626259D01*
X139705308Y-99609463D01*
X139771444Y-99631999D01*
X139810486Y-99677056D01*
X139814951Y-99685820D01*
X139939890Y-99857786D01*
X140090213Y-100008109D01*
X140262179Y-100133048D01*
X140262181Y-100133049D01*
X140262184Y-100133051D01*
X140451588Y-100229557D01*
X140653757Y-100295246D01*
X140863713Y-100328500D01*
X140863714Y-100328500D01*
X141076286Y-100328500D01*
X141076287Y-100328500D01*
X141286243Y-100295246D01*
X141488412Y-100229557D01*
X141677816Y-100133051D01*
X141780966Y-100058109D01*
X141849786Y-100008109D01*
X141849788Y-100008106D01*
X141849792Y-100008104D01*
X142000104Y-99857792D01*
X142000106Y-99857788D01*
X142000109Y-99857786D01*
X142125048Y-99685820D01*
X142125047Y-99685820D01*
X142125051Y-99685816D01*
X142129514Y-99677054D01*
X142177488Y-99626259D01*
X142245308Y-99609463D01*
X142311444Y-99631999D01*
X142350486Y-99677056D01*
X142354951Y-99685820D01*
X142479890Y-99857786D01*
X142630213Y-100008109D01*
X142802179Y-100133048D01*
X142802181Y-100133049D01*
X142802184Y-100133051D01*
X142991588Y-100229557D01*
X143193757Y-100295246D01*
X143403713Y-100328500D01*
X143403714Y-100328500D01*
X143616286Y-100328500D01*
X143616287Y-100328500D01*
X143826243Y-100295246D01*
X144028412Y-100229557D01*
X144217816Y-100133051D01*
X144320966Y-100058109D01*
X144389786Y-100008109D01*
X144389788Y-100008106D01*
X144389792Y-100008104D01*
X144540104Y-99857792D01*
X144665051Y-99685816D01*
X144665052Y-99685812D01*
X144666268Y-99684140D01*
X144721598Y-99641474D01*
X144791212Y-99635495D01*
X144853007Y-99668100D01*
X144877072Y-99700730D01*
X144894951Y-99735820D01*
X145019890Y-99907786D01*
X145170213Y-100058109D01*
X145342179Y-100183048D01*
X145342181Y-100183049D01*
X145342184Y-100183051D01*
X145531588Y-100279557D01*
X145733757Y-100345246D01*
X145943713Y-100378500D01*
X145943714Y-100378500D01*
X146156286Y-100378500D01*
X146156287Y-100378500D01*
X146366243Y-100345246D01*
X146568412Y-100279557D01*
X146757816Y-100183051D01*
X146826640Y-100133048D01*
X146929786Y-100058109D01*
X146929788Y-100058106D01*
X146929792Y-100058104D01*
X147080104Y-99907792D01*
X147080106Y-99907788D01*
X147080109Y-99907786D01*
X147205048Y-99735820D01*
X147205047Y-99735820D01*
X147205051Y-99735816D01*
X147209514Y-99727054D01*
X147257488Y-99676259D01*
X147325308Y-99659463D01*
X147391444Y-99681999D01*
X147430486Y-99727056D01*
X147434951Y-99735820D01*
X147559890Y-99907786D01*
X147710213Y-100058109D01*
X147882179Y-100183048D01*
X147882181Y-100183049D01*
X147882184Y-100183051D01*
X148071588Y-100279557D01*
X148273757Y-100345246D01*
X148483713Y-100378500D01*
X148483714Y-100378500D01*
X148696286Y-100378500D01*
X148696287Y-100378500D01*
X148906243Y-100345246D01*
X149108412Y-100279557D01*
X149297816Y-100183051D01*
X149366640Y-100133048D01*
X149469786Y-100058109D01*
X149469788Y-100058106D01*
X149469792Y-100058104D01*
X149620104Y-99907792D01*
X149620106Y-99907788D01*
X149620109Y-99907786D01*
X149730547Y-99755779D01*
X149745051Y-99735816D01*
X149749793Y-99726508D01*
X149797763Y-99675711D01*
X149865583Y-99658911D01*
X149931719Y-99681445D01*
X149970763Y-99726500D01*
X149975377Y-99735555D01*
X150100272Y-99907459D01*
X150100276Y-99907464D01*
X150250535Y-100057723D01*
X150250540Y-100057727D01*
X150422442Y-100182620D01*
X150611782Y-100279095D01*
X150813871Y-100344757D01*
X150880000Y-100355231D01*
X150880000Y-97461012D01*
X150937007Y-97493925D01*
X151064174Y-97528000D01*
X151195826Y-97528000D01*
X151322993Y-97493925D01*
X151380000Y-97461012D01*
X151380000Y-100355230D01*
X151446126Y-100344757D01*
X151446129Y-100344757D01*
X151648217Y-100279095D01*
X151837557Y-100182620D01*
X152009459Y-100057727D01*
X152009464Y-100057723D01*
X152159723Y-99907464D01*
X152159727Y-99907459D01*
X152284620Y-99735558D01*
X152289232Y-99726507D01*
X152337205Y-99675709D01*
X152405025Y-99658912D01*
X152471161Y-99681447D01*
X152510204Y-99726504D01*
X152514949Y-99735817D01*
X152639890Y-99907786D01*
X152790213Y-100058109D01*
X152962179Y-100183048D01*
X152962181Y-100183049D01*
X152962184Y-100183051D01*
X153151588Y-100279557D01*
X153353757Y-100345246D01*
X153563713Y-100378500D01*
X153563714Y-100378500D01*
X153776286Y-100378500D01*
X153776287Y-100378500D01*
X153986243Y-100345246D01*
X154188412Y-100279557D01*
X154377816Y-100183051D01*
X154446640Y-100133048D01*
X154549786Y-100058109D01*
X154549788Y-100058106D01*
X154549792Y-100058104D01*
X154700104Y-99907792D01*
X154700106Y-99907788D01*
X154700109Y-99907786D01*
X154825048Y-99735820D01*
X154825047Y-99735820D01*
X154825051Y-99735816D01*
X154921557Y-99546412D01*
X154987246Y-99344243D01*
X155020500Y-99134287D01*
X155020500Y-96921713D01*
X154987246Y-96711757D01*
X154921557Y-96509588D01*
X154825051Y-96320184D01*
X154825049Y-96320181D01*
X154825048Y-96320179D01*
X154700109Y-96148213D01*
X154549786Y-95997890D01*
X154377820Y-95872951D01*
X154188414Y-95776444D01*
X154188413Y-95776443D01*
X154188412Y-95776443D01*
X153986243Y-95710754D01*
X153986241Y-95710753D01*
X153986240Y-95710753D01*
X153824957Y-95685208D01*
X153776287Y-95677500D01*
X153563713Y-95677500D01*
X153515042Y-95685208D01*
X153353760Y-95710753D01*
X153151585Y-95776444D01*
X152962179Y-95872951D01*
X152790213Y-95997890D01*
X152639890Y-96148213D01*
X152514949Y-96320182D01*
X152510202Y-96329499D01*
X152462227Y-96380293D01*
X152394405Y-96397087D01*
X152328271Y-96374548D01*
X152289234Y-96329495D01*
X152284622Y-96320444D01*
X152159727Y-96148540D01*
X152159723Y-96148535D01*
X152009464Y-95998276D01*
X152009459Y-95998272D01*
X151837557Y-95873379D01*
X151648215Y-95776903D01*
X151446124Y-95711241D01*
X151380000Y-95700768D01*
X151380000Y-96594988D01*
X151322993Y-96562075D01*
X151195826Y-96528000D01*
X151064174Y-96528000D01*
X150937007Y-96562075D01*
X150880000Y-96594988D01*
X150880000Y-95700768D01*
X150879999Y-95700768D01*
X150813875Y-95711241D01*
X150611784Y-95776903D01*
X150422442Y-95873379D01*
X150250540Y-95998272D01*
X150250535Y-95998276D01*
X150100276Y-96148535D01*
X150100272Y-96148540D01*
X149975378Y-96320443D01*
X149970762Y-96329502D01*
X149922784Y-96380295D01*
X149854963Y-96397087D01*
X149788829Y-96374546D01*
X149749794Y-96329493D01*
X149745051Y-96320184D01*
X149745049Y-96320181D01*
X149745048Y-96320179D01*
X149620109Y-96148213D01*
X149469786Y-95997890D01*
X149297820Y-95872951D01*
X149108414Y-95776444D01*
X149108413Y-95776443D01*
X149108412Y-95776443D01*
X148906243Y-95710754D01*
X148906241Y-95710753D01*
X148906240Y-95710753D01*
X148744957Y-95685208D01*
X148696287Y-95677500D01*
X148483713Y-95677500D01*
X148435042Y-95685208D01*
X148273760Y-95710753D01*
X148071585Y-95776444D01*
X147882179Y-95872951D01*
X147710213Y-95997890D01*
X147559890Y-96148213D01*
X147434949Y-96320182D01*
X147430484Y-96328946D01*
X147382509Y-96379742D01*
X147314688Y-96396536D01*
X147248553Y-96373998D01*
X147209516Y-96328946D01*
X147205050Y-96320182D01*
X147080109Y-96148213D01*
X146929786Y-95997890D01*
X146757820Y-95872951D01*
X146568414Y-95776444D01*
X146568413Y-95776443D01*
X146568412Y-95776443D01*
X146366243Y-95710754D01*
X146366241Y-95710753D01*
X146366240Y-95710753D01*
X146204957Y-95685208D01*
X146156287Y-95677500D01*
X145943713Y-95677500D01*
X145895042Y-95685208D01*
X145733760Y-95710753D01*
X145531585Y-95776444D01*
X145342179Y-95872951D01*
X145170213Y-95997890D01*
X145019890Y-96148213D01*
X144894949Y-96320182D01*
X144877071Y-96355270D01*
X144829096Y-96406065D01*
X144761275Y-96422860D01*
X144695141Y-96400322D01*
X144666269Y-96371859D01*
X144540109Y-96198214D01*
X144540105Y-96198209D01*
X144389786Y-96047890D01*
X144217820Y-95922951D01*
X144028414Y-95826444D01*
X144028413Y-95826443D01*
X144028412Y-95826443D01*
X143826243Y-95760754D01*
X143826241Y-95760753D01*
X143826240Y-95760753D01*
X143664957Y-95735208D01*
X143616287Y-95727500D01*
X143403713Y-95727500D01*
X143355042Y-95735208D01*
X143193760Y-95760753D01*
X142991585Y-95826444D01*
X142802179Y-95922951D01*
X142630213Y-96047890D01*
X142479890Y-96198213D01*
X142354949Y-96370182D01*
X142350484Y-96378946D01*
X142302509Y-96429742D01*
X142234688Y-96446536D01*
X142168553Y-96423998D01*
X142129516Y-96378946D01*
X142125050Y-96370182D01*
X142000109Y-96198213D01*
X141849786Y-96047890D01*
X141677820Y-95922951D01*
X141488414Y-95826444D01*
X141488413Y-95826443D01*
X141488412Y-95826443D01*
X141286243Y-95760754D01*
X141286241Y-95760753D01*
X141286240Y-95760753D01*
X141124957Y-95735208D01*
X141076287Y-95727500D01*
X140863713Y-95727500D01*
X140815042Y-95735208D01*
X140653760Y-95760753D01*
X140451585Y-95826444D01*
X140262179Y-95922951D01*
X140090213Y-96047890D01*
X139939890Y-96198213D01*
X139814949Y-96370182D01*
X139810484Y-96378946D01*
X139762509Y-96429742D01*
X139694688Y-96446536D01*
X139628553Y-96423998D01*
X139589516Y-96378946D01*
X139585050Y-96370182D01*
X139460109Y-96198213D01*
X139309786Y-96047890D01*
X139137820Y-95922951D01*
X138948414Y-95826444D01*
X138948413Y-95826443D01*
X138948412Y-95826443D01*
X138746243Y-95760754D01*
X138746241Y-95760753D01*
X138746240Y-95760753D01*
X138584957Y-95735208D01*
X138536287Y-95727500D01*
X138323713Y-95727500D01*
X138275042Y-95735208D01*
X138113760Y-95760753D01*
X137911585Y-95826444D01*
X137722179Y-95922951D01*
X137550213Y-96047890D01*
X137399890Y-96198213D01*
X137274951Y-96370179D01*
X137178444Y-96559585D01*
X137112753Y-96761760D01*
X137087419Y-96921713D01*
X137079500Y-96971713D01*
X116125838Y-96971713D01*
X116097598Y-96903534D01*
X116097590Y-96903517D01*
X115966511Y-96676483D01*
X115966505Y-96676475D01*
X115879918Y-96563633D01*
X115879917Y-96563633D01*
X114977577Y-97465973D01*
X114964641Y-97434742D01*
X114882563Y-97311903D01*
X114778097Y-97207437D01*
X114655258Y-97125359D01*
X114624023Y-97112421D01*
X115526365Y-96210080D01*
X115413524Y-96123494D01*
X115413516Y-96123488D01*
X115186482Y-95992409D01*
X115186471Y-95992404D01*
X114944255Y-95892075D01*
X114691020Y-95824222D01*
X114691009Y-95824220D01*
X114431094Y-95790000D01*
X114168905Y-95790000D01*
X113908990Y-95824220D01*
X113908979Y-95824222D01*
X113655744Y-95892075D01*
X113413528Y-95992404D01*
X113413517Y-95992409D01*
X113186471Y-96123496D01*
X113073633Y-96210079D01*
X113073633Y-96210080D01*
X113975974Y-97112421D01*
X113944742Y-97125359D01*
X113821903Y-97207437D01*
X113717437Y-97311903D01*
X113635359Y-97434742D01*
X113622421Y-97465974D01*
X112720080Y-96563633D01*
X112720079Y-96563633D01*
X112633496Y-96676471D01*
X112502409Y-96903517D01*
X112502404Y-96903528D01*
X112402075Y-97145744D01*
X112334222Y-97398979D01*
X112334220Y-97398990D01*
X112300000Y-97658905D01*
X107347937Y-97658905D01*
X106012599Y-96346469D01*
X103070933Y-93455257D01*
X102985075Y-93370872D01*
X107473500Y-93370872D01*
X107473500Y-93633127D01*
X107500123Y-93835339D01*
X107507730Y-93893116D01*
X107575602Y-94146418D01*
X107575605Y-94146428D01*
X107675953Y-94388690D01*
X107675958Y-94388700D01*
X107807075Y-94615803D01*
X107966718Y-94823851D01*
X107966726Y-94823860D01*
X108152140Y-95009274D01*
X108152148Y-95009281D01*
X108360196Y-95168924D01*
X108587299Y-95300041D01*
X108587309Y-95300046D01*
X108829571Y-95400394D01*
X108829581Y-95400398D01*
X109082884Y-95468270D01*
X109342880Y-95502500D01*
X109342887Y-95502500D01*
X109605113Y-95502500D01*
X109605120Y-95502500D01*
X109865116Y-95468270D01*
X110118419Y-95400398D01*
X110360697Y-95300043D01*
X110587803Y-95168924D01*
X110795851Y-95009282D01*
X110795855Y-95009277D01*
X110795860Y-95009274D01*
X110981274Y-94823860D01*
X110981277Y-94823855D01*
X110981282Y-94823851D01*
X111140924Y-94615803D01*
X111272043Y-94388697D01*
X111372398Y-94146419D01*
X111440270Y-93893116D01*
X111474500Y-93633120D01*
X111474500Y-93370880D01*
X111440270Y-93110884D01*
X111372398Y-92857581D01*
X111372394Y-92857571D01*
X111272046Y-92615309D01*
X111272041Y-92615299D01*
X111140924Y-92388196D01*
X110981281Y-92180148D01*
X110981274Y-92180140D01*
X110795860Y-91994726D01*
X110795851Y-91994718D01*
X110587803Y-91835075D01*
X110360700Y-91703958D01*
X110360690Y-91703953D01*
X110118428Y-91603605D01*
X110118421Y-91603603D01*
X110118419Y-91603602D01*
X109865116Y-91535730D01*
X109807339Y-91528123D01*
X109605127Y-91501500D01*
X109605120Y-91501500D01*
X109342880Y-91501500D01*
X109342872Y-91501500D01*
X109111772Y-91531926D01*
X109082884Y-91535730D01*
X108829581Y-91603602D01*
X108829571Y-91603605D01*
X108587309Y-91703953D01*
X108587299Y-91703958D01*
X108360196Y-91835075D01*
X108152148Y-91994718D01*
X107966718Y-92180148D01*
X107807075Y-92388196D01*
X107675958Y-92615299D01*
X107675953Y-92615309D01*
X107575605Y-92857571D01*
X107575602Y-92857581D01*
X107507730Y-93110885D01*
X107473500Y-93370872D01*
X102985075Y-93370872D01*
X99390257Y-89837710D01*
X99305235Y-89754146D01*
X118181000Y-89754146D01*
X118181000Y-90077853D01*
X118216778Y-90303746D01*
X118216778Y-90303749D01*
X118287450Y-90521255D01*
X118287452Y-90521258D01*
X118391283Y-90725038D01*
X118525714Y-90910066D01*
X118687434Y-91071786D01*
X118872462Y-91206217D01*
X119003904Y-91273190D01*
X119076244Y-91310049D01*
X119293751Y-91380721D01*
X119293752Y-91380721D01*
X119293755Y-91380722D01*
X119519646Y-91416500D01*
X119519647Y-91416500D01*
X119748353Y-91416500D01*
X119748354Y-91416500D01*
X119974245Y-91380722D01*
X119974248Y-91380721D01*
X119974249Y-91380721D01*
X120191755Y-91310049D01*
X120191755Y-91310048D01*
X120191758Y-91310048D01*
X120395538Y-91206217D01*
X120580566Y-91071786D01*
X120742286Y-90910066D01*
X120803683Y-90825559D01*
X120859012Y-90782896D01*
X120928625Y-90776917D01*
X120990420Y-90809523D01*
X121004314Y-90825556D01*
X121065714Y-90910066D01*
X121227434Y-91071786D01*
X121412462Y-91206217D01*
X121543904Y-91273190D01*
X121616244Y-91310049D01*
X121833751Y-91380721D01*
X121833752Y-91380721D01*
X121833755Y-91380722D01*
X122059646Y-91416500D01*
X122059647Y-91416500D01*
X122288353Y-91416500D01*
X122288354Y-91416500D01*
X122514245Y-91380722D01*
X122514248Y-91380721D01*
X122514249Y-91380721D01*
X122731755Y-91310049D01*
X122731755Y-91310048D01*
X122731758Y-91310048D01*
X122935538Y-91206217D01*
X123118663Y-91073168D01*
X123184465Y-91049690D01*
X123252519Y-91065515D01*
X123301214Y-91115621D01*
X123307726Y-91130153D01*
X123318144Y-91158083D01*
X123318149Y-91158093D01*
X123404309Y-91273187D01*
X123404312Y-91273190D01*
X123519406Y-91359350D01*
X123519413Y-91359354D01*
X123654120Y-91409596D01*
X123654127Y-91409598D01*
X123713655Y-91415999D01*
X123713672Y-91416000D01*
X124464000Y-91416000D01*
X124464000Y-90406747D01*
X124501708Y-90428518D01*
X124641591Y-90466000D01*
X124786409Y-90466000D01*
X124926292Y-90428518D01*
X124964000Y-90406747D01*
X124964000Y-91416000D01*
X125714328Y-91416000D01*
X125714344Y-91415999D01*
X125773872Y-91409598D01*
X125773879Y-91409596D01*
X125908586Y-91359354D01*
X125908593Y-91359350D01*
X126023687Y-91273190D01*
X126023690Y-91273187D01*
X126109850Y-91158093D01*
X126109854Y-91158086D01*
X126160096Y-91023379D01*
X126160098Y-91023372D01*
X126166499Y-90963844D01*
X126166500Y-90963827D01*
X126166500Y-90166000D01*
X125204748Y-90166000D01*
X125226518Y-90128292D01*
X125264000Y-89988409D01*
X125264000Y-89843591D01*
X125226518Y-89703708D01*
X125204748Y-89666000D01*
X126166500Y-89666000D01*
X126166500Y-88868172D01*
X126166499Y-88868155D01*
X126160098Y-88808627D01*
X126160096Y-88808620D01*
X126109854Y-88673913D01*
X126109850Y-88673906D01*
X126023690Y-88558812D01*
X126023687Y-88558809D01*
X125908593Y-88472649D01*
X125908586Y-88472645D01*
X125773879Y-88422403D01*
X125773872Y-88422401D01*
X125714344Y-88416000D01*
X124964000Y-88416000D01*
X124964000Y-89425252D01*
X124926292Y-89403482D01*
X124786409Y-89366000D01*
X124641591Y-89366000D01*
X124501708Y-89403482D01*
X124464000Y-89425252D01*
X124464000Y-88416000D01*
X123713655Y-88416000D01*
X123654127Y-88422401D01*
X123654120Y-88422403D01*
X123519413Y-88472645D01*
X123519406Y-88472649D01*
X123404312Y-88558809D01*
X123404309Y-88558812D01*
X123318149Y-88673906D01*
X123318146Y-88673912D01*
X123307726Y-88701848D01*
X123265853Y-88757780D01*
X123200388Y-88782195D01*
X123132115Y-88767342D01*
X123118664Y-88758832D01*
X122935538Y-88625783D01*
X122804100Y-88558812D01*
X122731755Y-88521950D01*
X122514248Y-88451278D01*
X122331925Y-88422401D01*
X122288354Y-88415500D01*
X122059646Y-88415500D01*
X122016063Y-88422403D01*
X121833753Y-88451278D01*
X121833750Y-88451278D01*
X121616244Y-88521950D01*
X121412461Y-88625783D01*
X121346218Y-88673912D01*
X121227434Y-88760214D01*
X121227432Y-88760216D01*
X121227431Y-88760216D01*
X121065715Y-88921932D01*
X121004318Y-89006438D01*
X120948987Y-89049103D01*
X120879374Y-89055082D01*
X120817579Y-89022476D01*
X120803682Y-89006438D01*
X120792773Y-88991423D01*
X120742286Y-88921934D01*
X120580566Y-88760214D01*
X120395538Y-88625783D01*
X120264100Y-88558812D01*
X120191755Y-88521950D01*
X119974248Y-88451278D01*
X119791925Y-88422401D01*
X119748354Y-88415500D01*
X119519646Y-88415500D01*
X119476063Y-88422403D01*
X119293753Y-88451278D01*
X119293750Y-88451278D01*
X119076244Y-88521950D01*
X118872461Y-88625783D01*
X118806218Y-88673912D01*
X118687434Y-88760214D01*
X118687432Y-88760216D01*
X118687431Y-88760216D01*
X118525716Y-88921931D01*
X118525716Y-88921932D01*
X118525714Y-88921934D01*
X118467980Y-89001396D01*
X118391283Y-89106961D01*
X118287450Y-89310744D01*
X118216778Y-89528250D01*
X118216778Y-89528253D01*
X118181000Y-89754146D01*
X99305235Y-89754146D01*
X91501520Y-82084277D01*
X88917236Y-79544317D01*
X87261927Y-77917399D01*
X87245802Y-77897939D01*
X87150488Y-77755548D01*
X87143697Y-77744122D01*
X87048404Y-77562250D01*
X87042874Y-77550161D01*
X86967593Y-77359122D01*
X86963398Y-77346535D01*
X86909002Y-77148545D01*
X86906173Y-77135560D01*
X86873284Y-76932887D01*
X86871861Y-76919671D01*
X86868006Y-76847854D01*
X86860678Y-76711317D01*
X86860500Y-76704671D01*
X86860500Y-63886711D01*
X89589500Y-63886711D01*
X89589500Y-64129288D01*
X89621161Y-64369785D01*
X89683947Y-64604104D01*
X89776773Y-64828205D01*
X89776776Y-64828212D01*
X89898064Y-65038289D01*
X89898066Y-65038292D01*
X89898067Y-65038293D01*
X90045733Y-65230736D01*
X90045739Y-65230743D01*
X90217256Y-65402260D01*
X90217262Y-65402265D01*
X90409711Y-65549936D01*
X90619788Y-65671224D01*
X90843900Y-65764054D01*
X91078211Y-65826838D01*
X91258586Y-65850584D01*
X91318711Y-65858500D01*
X91318712Y-65858500D01*
X91561289Y-65858500D01*
X91609388Y-65852167D01*
X91801789Y-65826838D01*
X92036100Y-65764054D01*
X92260212Y-65671224D01*
X92470289Y-65549936D01*
X92662738Y-65402265D01*
X92834265Y-65230738D01*
X92981936Y-65038289D01*
X93103224Y-64828212D01*
X93196054Y-64604100D01*
X93258838Y-64369789D01*
X93290500Y-64129288D01*
X93290500Y-63886712D01*
X93258838Y-63646211D01*
X93196054Y-63411900D01*
X93103224Y-63187788D01*
X92981936Y-62977711D01*
X92834265Y-62785262D01*
X92834260Y-62785256D01*
X92662743Y-62613739D01*
X92662736Y-62613733D01*
X92470293Y-62466067D01*
X92470292Y-62466066D01*
X92470289Y-62466064D01*
X92260212Y-62344776D01*
X92260205Y-62344773D01*
X92036104Y-62251947D01*
X91801785Y-62189161D01*
X91561289Y-62157500D01*
X91561288Y-62157500D01*
X91318712Y-62157500D01*
X91318711Y-62157500D01*
X91078214Y-62189161D01*
X90843895Y-62251947D01*
X90619794Y-62344773D01*
X90619785Y-62344777D01*
X90409706Y-62466067D01*
X90217263Y-62613733D01*
X90217256Y-62613739D01*
X90045739Y-62785256D01*
X90045733Y-62785263D01*
X89898067Y-62977706D01*
X89776777Y-63187785D01*
X89776773Y-63187794D01*
X89683947Y-63411895D01*
X89621161Y-63646214D01*
X89589500Y-63886711D01*
X86860500Y-63886711D01*
X86860500Y-53999648D01*
X90647500Y-53999648D01*
X90647500Y-54204351D01*
X90679522Y-54406534D01*
X90742781Y-54601223D01*
X90806691Y-54726653D01*
X90820379Y-54753516D01*
X90835715Y-54783613D01*
X90956028Y-54949213D01*
X91100786Y-55093971D01*
X91243700Y-55197802D01*
X91266390Y-55214287D01*
X91369733Y-55266943D01*
X91448776Y-55307218D01*
X91448778Y-55307218D01*
X91448781Y-55307220D01*
X91553137Y-55341127D01*
X91643465Y-55370477D01*
X91744557Y-55386488D01*
X91845648Y-55402500D01*
X91845649Y-55402500D01*
X92050351Y-55402500D01*
X92050352Y-55402500D01*
X92252534Y-55370477D01*
X92447219Y-55307220D01*
X92629610Y-55214287D01*
X92722590Y-55146732D01*
X92795213Y-55093971D01*
X92795215Y-55093968D01*
X92795219Y-55093966D01*
X92939966Y-54949219D01*
X92939968Y-54949215D01*
X92939971Y-54949213D01*
X93037486Y-54814993D01*
X93060287Y-54783610D01*
X93153220Y-54601219D01*
X93216477Y-54406534D01*
X93248500Y-54204352D01*
X93248500Y-53999648D01*
X93222553Y-53835828D01*
X93216477Y-53797465D01*
X93176469Y-53674335D01*
X93153220Y-53602781D01*
X93153218Y-53602778D01*
X93153218Y-53602776D01*
X93119503Y-53536607D01*
X93060287Y-53420390D01*
X93019556Y-53364328D01*
X92939971Y-53254786D01*
X92795213Y-53110028D01*
X92629611Y-52989713D01*
X92575621Y-52962203D01*
X92524825Y-52914228D01*
X92508031Y-52846407D01*
X92530569Y-52780272D01*
X92575624Y-52741233D01*
X92629349Y-52713859D01*
X92673921Y-52681474D01*
X91994447Y-52002000D01*
X92000661Y-52002000D01*
X92102394Y-51974741D01*
X92193606Y-51922080D01*
X92268080Y-51847606D01*
X92320741Y-51756394D01*
X92348000Y-51654661D01*
X92348000Y-51648447D01*
X93027474Y-52327921D01*
X93059859Y-52283349D01*
X93152755Y-52101031D01*
X93215990Y-51906417D01*
X93248000Y-51704317D01*
X93248000Y-51499682D01*
X93215990Y-51297582D01*
X93152754Y-51102965D01*
X93099851Y-50999137D01*
X93099850Y-50999136D01*
X93073648Y-50947713D01*
X97481500Y-50947713D01*
X97481500Y-51160286D01*
X97514753Y-51370239D01*
X97514753Y-51370241D01*
X97514754Y-51370243D01*
X97571925Y-51546197D01*
X97580444Y-51572414D01*
X97676951Y-51761820D01*
X97801890Y-51933786D01*
X97952213Y-52084109D01*
X98124182Y-52209050D01*
X98132946Y-52213516D01*
X98183742Y-52261491D01*
X98200536Y-52329312D01*
X98177998Y-52395447D01*
X98132946Y-52434484D01*
X98124182Y-52438949D01*
X97952213Y-52563890D01*
X97801890Y-52714213D01*
X97676951Y-52886179D01*
X97580444Y-53075585D01*
X97514753Y-53277760D01*
X97482794Y-53479543D01*
X97481500Y-53487713D01*
X97481500Y-53700287D01*
X97491534Y-53763644D01*
X97514753Y-53910239D01*
X97514753Y-53910241D01*
X97514754Y-53910243D01*
X97569431Y-54078522D01*
X97580444Y-54112414D01*
X97676951Y-54301820D01*
X97801890Y-54473786D01*
X97952213Y-54624109D01*
X98124182Y-54749050D01*
X98132946Y-54753516D01*
X98183742Y-54801491D01*
X98200536Y-54869312D01*
X98177998Y-54935447D01*
X98132946Y-54974484D01*
X98124182Y-54978949D01*
X97952213Y-55103890D01*
X97801890Y-55254213D01*
X97676951Y-55426179D01*
X97580444Y-55615585D01*
X97514753Y-55817760D01*
X97481762Y-56026058D01*
X97481500Y-56027713D01*
X97481500Y-56240287D01*
X97514754Y-56450243D01*
X97545868Y-56546003D01*
X97580444Y-56652414D01*
X97676951Y-56841820D01*
X97801890Y-57013786D01*
X97952313Y-57164209D01*
X97985798Y-57225532D01*
X97980814Y-57295224D01*
X97938942Y-57351157D01*
X97901525Y-57370275D01*
X97875004Y-57378539D01*
X97875001Y-57378540D01*
X97735766Y-57462710D01*
X97735762Y-57462713D01*
X97620713Y-57577762D01*
X97620710Y-57577766D01*
X97536540Y-57717001D01*
X97536538Y-57717007D01*
X97488135Y-57872337D01*
X97488134Y-57872344D01*
X97482000Y-57939848D01*
X97482000Y-58424000D01*
X98398988Y-58424000D01*
X98366075Y-58481007D01*
X98332000Y-58608174D01*
X98332000Y-58739826D01*
X98366075Y-58866993D01*
X98398988Y-58924000D01*
X97482001Y-58924000D01*
X97482001Y-59408162D01*
X97488132Y-59475651D01*
X97488134Y-59475658D01*
X97536537Y-59630989D01*
X97536540Y-59630998D01*
X97620710Y-59770233D01*
X97620713Y-59770237D01*
X97735762Y-59885286D01*
X97735766Y-59885289D01*
X97875001Y-59969459D01*
X97875007Y-59969461D01*
X98030337Y-60017864D01*
X98030344Y-60017865D01*
X98097848Y-60023999D01*
X98581999Y-60023999D01*
X98582000Y-60023998D01*
X98582000Y-59107012D01*
X98639007Y-59139925D01*
X98766174Y-59174000D01*
X98897826Y-59174000D01*
X99024993Y-59139925D01*
X99082000Y-59107012D01*
X99082000Y-60023999D01*
X99566161Y-60023999D01*
X99633651Y-60017867D01*
X99633658Y-60017865D01*
X99788989Y-59969462D01*
X99788998Y-59969459D01*
X99928233Y-59885289D01*
X99928237Y-59885286D01*
X100043286Y-59770237D01*
X100043289Y-59770233D01*
X100127459Y-59630998D01*
X100127461Y-59630992D01*
X100175864Y-59475662D01*
X100175865Y-59475655D01*
X100182000Y-59408151D01*
X100182000Y-58924000D01*
X99265012Y-58924000D01*
X99297925Y-58866993D01*
X99332000Y-58739826D01*
X99332000Y-58608174D01*
X99297925Y-58481007D01*
X99265012Y-58424000D01*
X100181999Y-58424000D01*
X100181999Y-57939837D01*
X100175867Y-57872348D01*
X100175865Y-57872341D01*
X100127462Y-57717010D01*
X100127459Y-57717001D01*
X100043289Y-57577766D01*
X100043286Y-57577762D01*
X99928237Y-57462713D01*
X99928233Y-57462710D01*
X99788998Y-57378540D01*
X99788993Y-57378538D01*
X99762475Y-57370275D01*
X99704328Y-57331536D01*
X99676355Y-57267510D01*
X99687437Y-57198525D01*
X99711686Y-57164208D01*
X99711784Y-57164109D01*
X99711792Y-57164104D01*
X99862104Y-57013792D01*
X99869290Y-57003902D01*
X99987048Y-56841820D01*
X99987047Y-56841820D01*
X99987051Y-56841816D01*
X100083557Y-56652412D01*
X100149246Y-56450243D01*
X100182500Y-56240287D01*
X100182500Y-56093097D01*
X100202185Y-56026058D01*
X100254989Y-55980303D01*
X100324147Y-55970359D01*
X100387703Y-55999384D01*
X100394181Y-56005416D01*
X101322181Y-56933416D01*
X101355666Y-56994739D01*
X101358500Y-57021097D01*
X101358500Y-67932500D01*
X101338815Y-67999539D01*
X101286011Y-68045294D01*
X101234500Y-68056500D01*
X99911129Y-68056500D01*
X99911123Y-68056501D01*
X99851516Y-68062908D01*
X99716671Y-68113202D01*
X99716664Y-68113206D01*
X99601455Y-68199452D01*
X99601452Y-68199455D01*
X99515206Y-68314664D01*
X99515202Y-68314671D01*
X99464908Y-68449517D01*
X99458501Y-68509116D01*
X99458500Y-68509135D01*
X99458500Y-70304870D01*
X99458501Y-70304876D01*
X99464908Y-70364483D01*
X99515202Y-70499328D01*
X99515206Y-70499335D01*
X99601452Y-70614544D01*
X99601455Y-70614547D01*
X99716664Y-70700793D01*
X99716671Y-70700797D01*
X99761618Y-70717561D01*
X99851517Y-70751091D01*
X99911127Y-70757500D01*
X99921685Y-70757499D01*
X99988723Y-70777179D01*
X100009372Y-70793818D01*
X100679591Y-71464037D01*
X100616007Y-71481075D01*
X100501993Y-71546901D01*
X100408901Y-71639993D01*
X100343075Y-71754007D01*
X100326037Y-71817591D01*
X99693728Y-71185282D01*
X99693727Y-71185282D01*
X99654380Y-71239439D01*
X99557904Y-71428782D01*
X99492242Y-71630869D01*
X99492242Y-71630872D01*
X99459000Y-71840753D01*
X99459000Y-72053246D01*
X99492242Y-72263127D01*
X99492242Y-72263130D01*
X99557904Y-72465217D01*
X99654375Y-72654550D01*
X99693728Y-72708716D01*
X100326037Y-72076408D01*
X100343075Y-72139993D01*
X100408901Y-72254007D01*
X100501993Y-72347099D01*
X100616007Y-72412925D01*
X100679589Y-72429962D01*
X100047282Y-73062269D01*
X100047282Y-73062270D01*
X100101452Y-73101626D01*
X100101451Y-73101626D01*
X100110495Y-73106234D01*
X100161292Y-73154208D01*
X100178087Y-73222029D01*
X100155550Y-73288164D01*
X100110499Y-73327202D01*
X100101182Y-73331949D01*
X99929213Y-73456890D01*
X99778890Y-73607213D01*
X99653951Y-73779179D01*
X99557444Y-73968585D01*
X99491753Y-74170760D01*
X99458500Y-74380713D01*
X99458500Y-74593286D01*
X99489823Y-74791056D01*
X99491754Y-74803243D01*
X99546749Y-74972500D01*
X99557444Y-75005414D01*
X99653951Y-75194820D01*
X99778890Y-75366786D01*
X99929213Y-75517109D01*
X100101182Y-75642050D01*
X100109946Y-75646516D01*
X100160742Y-75694491D01*
X100177536Y-75762312D01*
X100154998Y-75828447D01*
X100109946Y-75867484D01*
X100101182Y-75871949D01*
X99929213Y-75996890D01*
X99778890Y-76147213D01*
X99653951Y-76319179D01*
X99557444Y-76508585D01*
X99491753Y-76710760D01*
X99491753Y-76710762D01*
X99458500Y-76920713D01*
X99458500Y-77133287D01*
X99491754Y-77343243D01*
X99510643Y-77401378D01*
X99557444Y-77545414D01*
X99653951Y-77734820D01*
X99778890Y-77906786D01*
X99929213Y-78057109D01*
X100101179Y-78182048D01*
X100101181Y-78182049D01*
X100101184Y-78182051D01*
X100110493Y-78186794D01*
X100161290Y-78234766D01*
X100178087Y-78302587D01*
X100155552Y-78368722D01*
X100110505Y-78407760D01*
X100101446Y-78412376D01*
X100101440Y-78412380D01*
X100047282Y-78451727D01*
X100047282Y-78451728D01*
X100679591Y-79084037D01*
X100616007Y-79101075D01*
X100501993Y-79166901D01*
X100408901Y-79259993D01*
X100343075Y-79374007D01*
X100326037Y-79437591D01*
X99693728Y-78805282D01*
X99693727Y-78805282D01*
X99654380Y-78859439D01*
X99557904Y-79048782D01*
X99492242Y-79250869D01*
X99492242Y-79250872D01*
X99459000Y-79460753D01*
X99459000Y-79673246D01*
X99492242Y-79883127D01*
X99492242Y-79883130D01*
X99557904Y-80085217D01*
X99654375Y-80274550D01*
X99693728Y-80328716D01*
X100326037Y-79696408D01*
X100343075Y-79759993D01*
X100408901Y-79874007D01*
X100501993Y-79967099D01*
X100616007Y-80032925D01*
X100679590Y-80049962D01*
X100047282Y-80682269D01*
X100047282Y-80682270D01*
X100101452Y-80721626D01*
X100101451Y-80721626D01*
X100110495Y-80726234D01*
X100161292Y-80774208D01*
X100178087Y-80842029D01*
X100155550Y-80908164D01*
X100110499Y-80947202D01*
X100101182Y-80951949D01*
X99929213Y-81076890D01*
X99778890Y-81227213D01*
X99653951Y-81399179D01*
X99557444Y-81588585D01*
X99491753Y-81790760D01*
X99458500Y-82000713D01*
X99458500Y-82213286D01*
X99485221Y-82381999D01*
X99491754Y-82423243D01*
X99541346Y-82575872D01*
X99557444Y-82625414D01*
X99653951Y-82814820D01*
X99778890Y-82986786D01*
X99929213Y-83137109D01*
X100101179Y-83262048D01*
X100101181Y-83262049D01*
X100101184Y-83262051D01*
X100290588Y-83358557D01*
X100492757Y-83424246D01*
X100702713Y-83457500D01*
X100702714Y-83457500D01*
X100915286Y-83457500D01*
X100915287Y-83457500D01*
X101125243Y-83424246D01*
X101327412Y-83358557D01*
X101516816Y-83262051D01*
X101538789Y-83246086D01*
X101688786Y-83137109D01*
X101688788Y-83137106D01*
X101688792Y-83137104D01*
X101839104Y-82986792D01*
X101839106Y-82986788D01*
X101839109Y-82986786D01*
X101964048Y-82814820D01*
X101964047Y-82814820D01*
X101964051Y-82814816D01*
X102060557Y-82625412D01*
X102126246Y-82423243D01*
X102127079Y-82417983D01*
X109697500Y-82417983D01*
X109697500Y-83618001D01*
X109697501Y-83618018D01*
X109708000Y-83720796D01*
X109708001Y-83720799D01*
X109749930Y-83847331D01*
X109763186Y-83887334D01*
X109855288Y-84036656D01*
X109979344Y-84160712D01*
X110128666Y-84252814D01*
X110295203Y-84307999D01*
X110397991Y-84318500D01*
X111598008Y-84318499D01*
X111700797Y-84307999D01*
X111867334Y-84252814D01*
X112016656Y-84160712D01*
X112140712Y-84036656D01*
X112232814Y-83887334D01*
X112287999Y-83720797D01*
X112298500Y-83618009D01*
X112298499Y-82417992D01*
X112298498Y-82417983D01*
X118333500Y-82417983D01*
X118333500Y-83618001D01*
X118333501Y-83618018D01*
X118344000Y-83720796D01*
X118344001Y-83720799D01*
X118385930Y-83847331D01*
X118399186Y-83887334D01*
X118491288Y-84036656D01*
X118615344Y-84160712D01*
X118764666Y-84252814D01*
X118931203Y-84307999D01*
X119033991Y-84318500D01*
X120234008Y-84318499D01*
X120336797Y-84307999D01*
X120503334Y-84252814D01*
X120652656Y-84160712D01*
X120776712Y-84036656D01*
X120868814Y-83887334D01*
X120923999Y-83720797D01*
X120934500Y-83618009D01*
X120934499Y-82417992D01*
X120932195Y-82395434D01*
X120931378Y-82387434D01*
X120930412Y-82377983D01*
X126969500Y-82377983D01*
X126969500Y-83578001D01*
X126969501Y-83578018D01*
X126980000Y-83680796D01*
X126980001Y-83680799D01*
X126993256Y-83720799D01*
X127035186Y-83847334D01*
X127127288Y-83996656D01*
X127251344Y-84120712D01*
X127400666Y-84212814D01*
X127567203Y-84267999D01*
X127669991Y-84278500D01*
X128870008Y-84278499D01*
X128972797Y-84267999D01*
X129139334Y-84212814D01*
X129288656Y-84120712D01*
X129412712Y-83996656D01*
X129504814Y-83847334D01*
X129559999Y-83680797D01*
X129570500Y-83578009D01*
X129570499Y-82377992D01*
X129559999Y-82275203D01*
X129504814Y-82108666D01*
X129412712Y-81959344D01*
X129288656Y-81835288D01*
X129195888Y-81778069D01*
X129139336Y-81743187D01*
X129139335Y-81743186D01*
X129139334Y-81743186D01*
X129077558Y-81722715D01*
X129020115Y-81682943D01*
X128993292Y-81618427D01*
X128992946Y-81595280D01*
X128995921Y-81557473D01*
X128316447Y-80878000D01*
X128322661Y-80878000D01*
X128424394Y-80850741D01*
X128515606Y-80798080D01*
X128590080Y-80723606D01*
X128642741Y-80632394D01*
X128670000Y-80530661D01*
X128670000Y-80524448D01*
X129349474Y-81203922D01*
X129349474Y-81203921D01*
X129381859Y-81159349D01*
X129474755Y-80977031D01*
X129537990Y-80782417D01*
X129570000Y-80580317D01*
X129570000Y-80375682D01*
X129537990Y-80173582D01*
X129474755Y-79978968D01*
X129381858Y-79796648D01*
X129376831Y-79789729D01*
X129376829Y-79789727D01*
X129349474Y-79752077D01*
X129349474Y-79752076D01*
X128670000Y-80431551D01*
X128670000Y-80425339D01*
X128642741Y-80323606D01*
X128590080Y-80232394D01*
X128515606Y-80157920D01*
X128424394Y-80105259D01*
X128322661Y-80078000D01*
X128316446Y-80078000D01*
X128672733Y-79721713D01*
X137079500Y-79721713D01*
X137079500Y-81834286D01*
X137105642Y-81999344D01*
X137112754Y-82044243D01*
X137146683Y-82148666D01*
X137178444Y-82246414D01*
X137274951Y-82435820D01*
X137399890Y-82607786D01*
X137550213Y-82758109D01*
X137722179Y-82883048D01*
X137722181Y-82883049D01*
X137722184Y-82883051D01*
X137911588Y-82979557D01*
X138113757Y-83045246D01*
X138323713Y-83078500D01*
X138323714Y-83078500D01*
X138536286Y-83078500D01*
X138536287Y-83078500D01*
X138746243Y-83045246D01*
X138948412Y-82979557D01*
X139137816Y-82883051D01*
X139231729Y-82814820D01*
X139309786Y-82758109D01*
X139309788Y-82758106D01*
X139309792Y-82758104D01*
X139460104Y-82607792D01*
X139460106Y-82607788D01*
X139460109Y-82607786D01*
X139585048Y-82435820D01*
X139585047Y-82435820D01*
X139585051Y-82435816D01*
X139589514Y-82427054D01*
X139637488Y-82376259D01*
X139705308Y-82359463D01*
X139771444Y-82381999D01*
X139810486Y-82427056D01*
X139814951Y-82435820D01*
X139939890Y-82607786D01*
X140090213Y-82758109D01*
X140262179Y-82883048D01*
X140262181Y-82883049D01*
X140262184Y-82883051D01*
X140451588Y-82979557D01*
X140653757Y-83045246D01*
X140863713Y-83078500D01*
X140863714Y-83078500D01*
X141076286Y-83078500D01*
X141076287Y-83078500D01*
X141286243Y-83045246D01*
X141488412Y-82979557D01*
X141677816Y-82883051D01*
X141771729Y-82814820D01*
X141849786Y-82758109D01*
X141849788Y-82758106D01*
X141849792Y-82758104D01*
X142000104Y-82607792D01*
X142000106Y-82607788D01*
X142000109Y-82607786D01*
X142125048Y-82435820D01*
X142125047Y-82435820D01*
X142125051Y-82435816D01*
X142129514Y-82427054D01*
X142177488Y-82376259D01*
X142245308Y-82359463D01*
X142311444Y-82381999D01*
X142350486Y-82427056D01*
X142354951Y-82435820D01*
X142479890Y-82607786D01*
X142630213Y-82758109D01*
X142802179Y-82883048D01*
X142802181Y-82883049D01*
X142802184Y-82883051D01*
X142991588Y-82979557D01*
X143193757Y-83045246D01*
X143403713Y-83078500D01*
X143403714Y-83078500D01*
X143616286Y-83078500D01*
X143616287Y-83078500D01*
X143826243Y-83045246D01*
X144028412Y-82979557D01*
X144217816Y-82883051D01*
X144311729Y-82814820D01*
X144389786Y-82758109D01*
X144389788Y-82758106D01*
X144389792Y-82758104D01*
X144540104Y-82607792D01*
X144540106Y-82607788D01*
X144540109Y-82607786D01*
X144665048Y-82435820D01*
X144665047Y-82435820D01*
X144665051Y-82435816D01*
X144669514Y-82427054D01*
X144717488Y-82376259D01*
X144785308Y-82359463D01*
X144851444Y-82381999D01*
X144890486Y-82427056D01*
X144894951Y-82435820D01*
X145019890Y-82607786D01*
X145170213Y-82758109D01*
X145342179Y-82883048D01*
X145342181Y-82883049D01*
X145342184Y-82883051D01*
X145531588Y-82979557D01*
X145733757Y-83045246D01*
X145943713Y-83078500D01*
X145943714Y-83078500D01*
X146156286Y-83078500D01*
X146156287Y-83078500D01*
X146366243Y-83045246D01*
X146568412Y-82979557D01*
X146757816Y-82883051D01*
X146851729Y-82814820D01*
X146929786Y-82758109D01*
X146929788Y-82758106D01*
X146929792Y-82758104D01*
X147080104Y-82607792D01*
X147080106Y-82607788D01*
X147080109Y-82607786D01*
X147205048Y-82435820D01*
X147205047Y-82435820D01*
X147205051Y-82435816D01*
X147209514Y-82427054D01*
X147257488Y-82376259D01*
X147325308Y-82359463D01*
X147391444Y-82381999D01*
X147430486Y-82427056D01*
X147434951Y-82435820D01*
X147559890Y-82607786D01*
X147710213Y-82758109D01*
X147882179Y-82883048D01*
X147882181Y-82883049D01*
X147882184Y-82883051D01*
X148071588Y-82979557D01*
X148273757Y-83045246D01*
X148483713Y-83078500D01*
X148483714Y-83078500D01*
X148696286Y-83078500D01*
X148696287Y-83078500D01*
X148906243Y-83045246D01*
X149108412Y-82979557D01*
X149297816Y-82883051D01*
X149391729Y-82814820D01*
X149469786Y-82758109D01*
X149469788Y-82758106D01*
X149469792Y-82758104D01*
X149620104Y-82607792D01*
X149620106Y-82607788D01*
X149620109Y-82607786D01*
X149745048Y-82435820D01*
X149745047Y-82435820D01*
X149745051Y-82435816D01*
X149749514Y-82427054D01*
X149797488Y-82376259D01*
X149865308Y-82359463D01*
X149931444Y-82381999D01*
X149970486Y-82427056D01*
X149974951Y-82435820D01*
X150099890Y-82607786D01*
X150250213Y-82758109D01*
X150422179Y-82883048D01*
X150422181Y-82883049D01*
X150422184Y-82883051D01*
X150611588Y-82979557D01*
X150813757Y-83045246D01*
X151023713Y-83078500D01*
X151023714Y-83078500D01*
X151236286Y-83078500D01*
X151236287Y-83078500D01*
X151446243Y-83045246D01*
X151648412Y-82979557D01*
X151837816Y-82883051D01*
X151931734Y-82814816D01*
X152009784Y-82758110D01*
X152009784Y-82758109D01*
X152009792Y-82758104D01*
X152136912Y-82630983D01*
X152198231Y-82597501D01*
X152267923Y-82602485D01*
X152323857Y-82644356D01*
X152340772Y-82675334D01*
X152376202Y-82770328D01*
X152376206Y-82770335D01*
X152462452Y-82885544D01*
X152462455Y-82885547D01*
X152577664Y-82971793D01*
X152577671Y-82971797D01*
X152712517Y-83022091D01*
X152712516Y-83022091D01*
X152719444Y-83022835D01*
X152772127Y-83028500D01*
X154567872Y-83028499D01*
X154627483Y-83022091D01*
X154762331Y-82971796D01*
X154877546Y-82885546D01*
X154963796Y-82770331D01*
X155014091Y-82635483D01*
X155020500Y-82575873D01*
X155020499Y-78980128D01*
X155014091Y-78920517D01*
X154999227Y-78880665D01*
X154963797Y-78785671D01*
X154963793Y-78785664D01*
X154877547Y-78670455D01*
X154877544Y-78670452D01*
X154762335Y-78584206D01*
X154762328Y-78584202D01*
X154627482Y-78533908D01*
X154627483Y-78533908D01*
X154567883Y-78527501D01*
X154567881Y-78527500D01*
X154567873Y-78527500D01*
X154567864Y-78527500D01*
X152772129Y-78527500D01*
X152772123Y-78527501D01*
X152712516Y-78533908D01*
X152577671Y-78584202D01*
X152577664Y-78584206D01*
X152462455Y-78670452D01*
X152462452Y-78670455D01*
X152376206Y-78785664D01*
X152376202Y-78785671D01*
X152340772Y-78880665D01*
X152298901Y-78936599D01*
X152233436Y-78961016D01*
X152165163Y-78946164D01*
X152136909Y-78925013D01*
X152009786Y-78797890D01*
X151837820Y-78672951D01*
X151648414Y-78576444D01*
X151648413Y-78576443D01*
X151648412Y-78576443D01*
X151446243Y-78510754D01*
X151446241Y-78510753D01*
X151446240Y-78510753D01*
X151284957Y-78485208D01*
X151236287Y-78477500D01*
X151023713Y-78477500D01*
X150975042Y-78485208D01*
X150813760Y-78510753D01*
X150611585Y-78576444D01*
X150422179Y-78672951D01*
X150250213Y-78797890D01*
X150099890Y-78948213D01*
X149974949Y-79120182D01*
X149970484Y-79128946D01*
X149922509Y-79179742D01*
X149854688Y-79196536D01*
X149788553Y-79173998D01*
X149749516Y-79128946D01*
X149745050Y-79120182D01*
X149620109Y-78948213D01*
X149469786Y-78797890D01*
X149297820Y-78672951D01*
X149108414Y-78576444D01*
X149108413Y-78576443D01*
X149108412Y-78576443D01*
X148906243Y-78510754D01*
X148906241Y-78510753D01*
X148906240Y-78510753D01*
X148744957Y-78485208D01*
X148696287Y-78477500D01*
X148483713Y-78477500D01*
X148435042Y-78485208D01*
X148273760Y-78510753D01*
X148071585Y-78576444D01*
X147882179Y-78672951D01*
X147710213Y-78797890D01*
X147559890Y-78948213D01*
X147434949Y-79120182D01*
X147430484Y-79128946D01*
X147382509Y-79179742D01*
X147314688Y-79196536D01*
X147248553Y-79173998D01*
X147209516Y-79128946D01*
X147205050Y-79120182D01*
X147080109Y-78948213D01*
X146929786Y-78797890D01*
X146757820Y-78672951D01*
X146568414Y-78576444D01*
X146568413Y-78576443D01*
X146568412Y-78576443D01*
X146366243Y-78510754D01*
X146366241Y-78510753D01*
X146366240Y-78510753D01*
X146204957Y-78485208D01*
X146156287Y-78477500D01*
X145943713Y-78477500D01*
X145895042Y-78485208D01*
X145733760Y-78510753D01*
X145531585Y-78576444D01*
X145342179Y-78672951D01*
X145170213Y-78797890D01*
X145019890Y-78948213D01*
X144894949Y-79120182D01*
X144890484Y-79128946D01*
X144842509Y-79179742D01*
X144774688Y-79196536D01*
X144708553Y-79173998D01*
X144669516Y-79128946D01*
X144665050Y-79120182D01*
X144540109Y-78948213D01*
X144389786Y-78797890D01*
X144217820Y-78672951D01*
X144028414Y-78576444D01*
X144028413Y-78576443D01*
X144028412Y-78576443D01*
X143826243Y-78510754D01*
X143826241Y-78510753D01*
X143826240Y-78510753D01*
X143664957Y-78485208D01*
X143616287Y-78477500D01*
X143403713Y-78477500D01*
X143355042Y-78485208D01*
X143193760Y-78510753D01*
X142991585Y-78576444D01*
X142802179Y-78672951D01*
X142630213Y-78797890D01*
X142479890Y-78948213D01*
X142354949Y-79120182D01*
X142350484Y-79128946D01*
X142302509Y-79179742D01*
X142234688Y-79196536D01*
X142168553Y-79173998D01*
X142129516Y-79128946D01*
X142125050Y-79120182D01*
X142000109Y-78948213D01*
X141849786Y-78797890D01*
X141677820Y-78672951D01*
X141488414Y-78576444D01*
X141488413Y-78576443D01*
X141488412Y-78576443D01*
X141286243Y-78510754D01*
X141286241Y-78510753D01*
X141286240Y-78510753D01*
X141124957Y-78485208D01*
X141076287Y-78477500D01*
X140863713Y-78477500D01*
X140815042Y-78485208D01*
X140653760Y-78510753D01*
X140451585Y-78576444D01*
X140262179Y-78672951D01*
X140090213Y-78797890D01*
X139939890Y-78948213D01*
X139814949Y-79120182D01*
X139810484Y-79128946D01*
X139762509Y-79179742D01*
X139694688Y-79196536D01*
X139628553Y-79173998D01*
X139589516Y-79128946D01*
X139585050Y-79120182D01*
X139460109Y-78948213D01*
X139309786Y-78797890D01*
X139137820Y-78672951D01*
X138948414Y-78576444D01*
X138948413Y-78576443D01*
X138948412Y-78576443D01*
X138746243Y-78510754D01*
X138746241Y-78510753D01*
X138746240Y-78510753D01*
X138584957Y-78485208D01*
X138536287Y-78477500D01*
X138323713Y-78477500D01*
X138275042Y-78485208D01*
X138113760Y-78510753D01*
X137911585Y-78576444D01*
X137722179Y-78672951D01*
X137550213Y-78797890D01*
X137399890Y-78948213D01*
X137274951Y-79120179D01*
X137178444Y-79309585D01*
X137112753Y-79511760D01*
X137079500Y-79721713D01*
X128672733Y-79721713D01*
X128995922Y-79398524D01*
X128995921Y-79398523D01*
X128951359Y-79366147D01*
X128951350Y-79366141D01*
X128769031Y-79273244D01*
X128574417Y-79210009D01*
X128372317Y-79178000D01*
X128167683Y-79178000D01*
X127965582Y-79210009D01*
X127770968Y-79273244D01*
X127588644Y-79366143D01*
X127544077Y-79398523D01*
X127544077Y-79398524D01*
X128223554Y-80078000D01*
X128217339Y-80078000D01*
X128115606Y-80105259D01*
X128024394Y-80157920D01*
X127949920Y-80232394D01*
X127897259Y-80323606D01*
X127870000Y-80425339D01*
X127870000Y-80431553D01*
X127190524Y-79752077D01*
X127190523Y-79752077D01*
X127158143Y-79796644D01*
X127065244Y-79978968D01*
X127002009Y-80173582D01*
X126970000Y-80375682D01*
X126970000Y-80580317D01*
X127002009Y-80782417D01*
X127065244Y-80977031D01*
X127158141Y-81159350D01*
X127158147Y-81159359D01*
X127190523Y-81203921D01*
X127190524Y-81203922D01*
X127870000Y-80524446D01*
X127870000Y-80530661D01*
X127897259Y-80632394D01*
X127949920Y-80723606D01*
X128024394Y-80798080D01*
X128115606Y-80850741D01*
X128217339Y-80878000D01*
X128223553Y-80878000D01*
X127544076Y-81557474D01*
X127547052Y-81595282D01*
X127532687Y-81663659D01*
X127483636Y-81713415D01*
X127462440Y-81722715D01*
X127400672Y-81743184D01*
X127400663Y-81743187D01*
X127251342Y-81835289D01*
X127127289Y-81959342D01*
X127035187Y-82108663D01*
X127035185Y-82108668D01*
X127007349Y-82192670D01*
X126980001Y-82275203D01*
X126980001Y-82275204D01*
X126980000Y-82275204D01*
X126969500Y-82377983D01*
X120930412Y-82377983D01*
X120928520Y-82359463D01*
X120923999Y-82315203D01*
X120868814Y-82148666D01*
X120776712Y-81999344D01*
X120652656Y-81875288D01*
X120559888Y-81818069D01*
X120503336Y-81783187D01*
X120503335Y-81783186D01*
X120503334Y-81783186D01*
X120441558Y-81762715D01*
X120384115Y-81722943D01*
X120357292Y-81658427D01*
X120356946Y-81635280D01*
X120359921Y-81597473D01*
X119680447Y-80918000D01*
X119686661Y-80918000D01*
X119788394Y-80890741D01*
X119879606Y-80838080D01*
X119954080Y-80763606D01*
X120006741Y-80672394D01*
X120034000Y-80570661D01*
X120034000Y-80564447D01*
X120713474Y-81243921D01*
X120745859Y-81199349D01*
X120838755Y-81017031D01*
X120901990Y-80822417D01*
X120934000Y-80620317D01*
X120934000Y-80415683D01*
X120929966Y-80390215D01*
X120929966Y-80390214D01*
X120901990Y-80213582D01*
X120838755Y-80018968D01*
X120745859Y-79836650D01*
X120713474Y-79792077D01*
X120713474Y-79792076D01*
X120034000Y-80471551D01*
X120034000Y-80465339D01*
X120006741Y-80363606D01*
X119954080Y-80272394D01*
X119879606Y-80197920D01*
X119788394Y-80145259D01*
X119686661Y-80118000D01*
X119680446Y-80118000D01*
X120359922Y-79438524D01*
X120359921Y-79438523D01*
X120315359Y-79406147D01*
X120315350Y-79406141D01*
X120133031Y-79313244D01*
X119938417Y-79250009D01*
X119736317Y-79218000D01*
X119531683Y-79218000D01*
X119329582Y-79250009D01*
X119134968Y-79313244D01*
X118952644Y-79406143D01*
X118908077Y-79438523D01*
X118908077Y-79438524D01*
X119587554Y-80118000D01*
X119581339Y-80118000D01*
X119479606Y-80145259D01*
X119388394Y-80197920D01*
X119313920Y-80272394D01*
X119261259Y-80363606D01*
X119234000Y-80465339D01*
X119234000Y-80471553D01*
X118554524Y-79792077D01*
X118554523Y-79792077D01*
X118522143Y-79836644D01*
X118429244Y-80018968D01*
X118366009Y-80213582D01*
X118334000Y-80415682D01*
X118334000Y-80620317D01*
X118366009Y-80822417D01*
X118429244Y-81017031D01*
X118522141Y-81199350D01*
X118522147Y-81199359D01*
X118554523Y-81243921D01*
X118554524Y-81243922D01*
X119234000Y-80564446D01*
X119234000Y-80570661D01*
X119261259Y-80672394D01*
X119313920Y-80763606D01*
X119388394Y-80838080D01*
X119479606Y-80890741D01*
X119581339Y-80918000D01*
X119587553Y-80918000D01*
X118908076Y-81597474D01*
X118911052Y-81635282D01*
X118896687Y-81703659D01*
X118847636Y-81753415D01*
X118826440Y-81762715D01*
X118764672Y-81783184D01*
X118764663Y-81783187D01*
X118615342Y-81875289D01*
X118491289Y-81999342D01*
X118399187Y-82148663D01*
X118399186Y-82148666D01*
X118344001Y-82315203D01*
X118344001Y-82315204D01*
X118344000Y-82315204D01*
X118333500Y-82417983D01*
X112298498Y-82417983D01*
X112295377Y-82387434D01*
X112287999Y-82315203D01*
X112287998Y-82315200D01*
X112232814Y-82148666D01*
X112140712Y-81999344D01*
X112016656Y-81875288D01*
X111923888Y-81818069D01*
X111867336Y-81783187D01*
X111867335Y-81783186D01*
X111867334Y-81783186D01*
X111805558Y-81762715D01*
X111748115Y-81722943D01*
X111721292Y-81658427D01*
X111720946Y-81635280D01*
X111723921Y-81597473D01*
X111044447Y-80918000D01*
X111050661Y-80918000D01*
X111152394Y-80890741D01*
X111243606Y-80838080D01*
X111318080Y-80763606D01*
X111370741Y-80672394D01*
X111398000Y-80570661D01*
X111398000Y-80564447D01*
X112077474Y-81243921D01*
X112109859Y-81199349D01*
X112202755Y-81017031D01*
X112265990Y-80822417D01*
X112298000Y-80620317D01*
X112298000Y-80415682D01*
X112265990Y-80213582D01*
X112202755Y-80018968D01*
X112109859Y-79836650D01*
X112077474Y-79792077D01*
X112077474Y-79792076D01*
X111398000Y-80471551D01*
X111398000Y-80465339D01*
X111370741Y-80363606D01*
X111318080Y-80272394D01*
X111243606Y-80197920D01*
X111152394Y-80145259D01*
X111050661Y-80118000D01*
X111044446Y-80118000D01*
X111723922Y-79438524D01*
X111723921Y-79438523D01*
X111679359Y-79406147D01*
X111679350Y-79406141D01*
X111497031Y-79313244D01*
X111302417Y-79250009D01*
X111100317Y-79218000D01*
X110895683Y-79218000D01*
X110693582Y-79250009D01*
X110498968Y-79313244D01*
X110316644Y-79406143D01*
X110272077Y-79438523D01*
X110272077Y-79438524D01*
X110951554Y-80118000D01*
X110945339Y-80118000D01*
X110843606Y-80145259D01*
X110752394Y-80197920D01*
X110677920Y-80272394D01*
X110625259Y-80363606D01*
X110598000Y-80465339D01*
X110598000Y-80471553D01*
X109918524Y-79792077D01*
X109918523Y-79792077D01*
X109886143Y-79836644D01*
X109793244Y-80018968D01*
X109730009Y-80213582D01*
X109698000Y-80415682D01*
X109698000Y-80620317D01*
X109730009Y-80822417D01*
X109793244Y-81017031D01*
X109886141Y-81199350D01*
X109886147Y-81199359D01*
X109918523Y-81243921D01*
X109918524Y-81243922D01*
X110598000Y-80564446D01*
X110598000Y-80570661D01*
X110625259Y-80672394D01*
X110677920Y-80763606D01*
X110752394Y-80838080D01*
X110843606Y-80890741D01*
X110945339Y-80918000D01*
X110951553Y-80918000D01*
X110272076Y-81597474D01*
X110275052Y-81635282D01*
X110260687Y-81703659D01*
X110211636Y-81753415D01*
X110190440Y-81762715D01*
X110128672Y-81783184D01*
X110128663Y-81783187D01*
X109979342Y-81875289D01*
X109855289Y-81999342D01*
X109763187Y-82148663D01*
X109763186Y-82148666D01*
X109708001Y-82315203D01*
X109708001Y-82315204D01*
X109708000Y-82315204D01*
X109697500Y-82417983D01*
X102127079Y-82417983D01*
X102159500Y-82213287D01*
X102159500Y-82000713D01*
X102126246Y-81790757D01*
X102060557Y-81588588D01*
X101964051Y-81399184D01*
X101964049Y-81399181D01*
X101964048Y-81399179D01*
X101839109Y-81227213D01*
X101688786Y-81076890D01*
X101516817Y-80951949D01*
X101507504Y-80947204D01*
X101456707Y-80899230D01*
X101439912Y-80831409D01*
X101462449Y-80765274D01*
X101507507Y-80726232D01*
X101516555Y-80721622D01*
X101570716Y-80682270D01*
X101570717Y-80682270D01*
X100938408Y-80049962D01*
X101001993Y-80032925D01*
X101116007Y-79967099D01*
X101209099Y-79874007D01*
X101274925Y-79759993D01*
X101291962Y-79696409D01*
X101924270Y-80328717D01*
X101924270Y-80328716D01*
X101963622Y-80274554D01*
X102060095Y-80085217D01*
X102125757Y-79883130D01*
X102125757Y-79883127D01*
X102159000Y-79673246D01*
X102159000Y-79460753D01*
X102125757Y-79250872D01*
X102125757Y-79250869D01*
X102060095Y-79048782D01*
X101963624Y-78859449D01*
X101924270Y-78805282D01*
X101924269Y-78805282D01*
X101291962Y-79437590D01*
X101274925Y-79374007D01*
X101209099Y-79259993D01*
X101116007Y-79166901D01*
X101001993Y-79101075D01*
X100938409Y-79084037D01*
X101570716Y-78451728D01*
X101516547Y-78412373D01*
X101516547Y-78412372D01*
X101507500Y-78407763D01*
X101456706Y-78359788D01*
X101439912Y-78291966D01*
X101462451Y-78225832D01*
X101507508Y-78186793D01*
X101516816Y-78182051D01*
X101596007Y-78124515D01*
X101688786Y-78057109D01*
X101688788Y-78057106D01*
X101688792Y-78057104D01*
X101839104Y-77906792D01*
X101839106Y-77906788D01*
X101839109Y-77906786D01*
X101964048Y-77734820D01*
X101964047Y-77734820D01*
X101964051Y-77734816D01*
X102060557Y-77545412D01*
X102126246Y-77343243D01*
X102159500Y-77133287D01*
X102159500Y-76920713D01*
X102126246Y-76710757D01*
X102112506Y-76668473D01*
X102110512Y-76598635D01*
X102142755Y-76542478D01*
X103482506Y-75202728D01*
X103482511Y-75202724D01*
X103492714Y-75192520D01*
X103492716Y-75192520D01*
X103604520Y-75080716D01*
X103683577Y-74943784D01*
X103724500Y-74791057D01*
X103724500Y-73569648D01*
X131573500Y-73569648D01*
X131573500Y-73774351D01*
X131605522Y-73976534D01*
X131668781Y-74171223D01*
X131761715Y-74353613D01*
X131882028Y-74519213D01*
X132026786Y-74663971D01*
X132181749Y-74776556D01*
X132192390Y-74784287D01*
X132308607Y-74843503D01*
X132374776Y-74877218D01*
X132374778Y-74877218D01*
X132374781Y-74877220D01*
X132479137Y-74911127D01*
X132569465Y-74940477D01*
X132670557Y-74956488D01*
X132771648Y-74972500D01*
X132771649Y-74972500D01*
X132976351Y-74972500D01*
X132976352Y-74972500D01*
X133178534Y-74940477D01*
X133373219Y-74877220D01*
X133555610Y-74784287D01*
X133648590Y-74716732D01*
X133721213Y-74663971D01*
X133721215Y-74663968D01*
X133721219Y-74663966D01*
X133865966Y-74519219D01*
X133865968Y-74519215D01*
X133865971Y-74519213D01*
X133918732Y-74446590D01*
X133986287Y-74353610D01*
X134079220Y-74171219D01*
X134142477Y-73976534D01*
X134174500Y-73774352D01*
X134174500Y-73569648D01*
X139193500Y-73569648D01*
X139193500Y-73774351D01*
X139225522Y-73976534D01*
X139288781Y-74171223D01*
X139381715Y-74353613D01*
X139502028Y-74519213D01*
X139646786Y-74663971D01*
X139801749Y-74776556D01*
X139812390Y-74784287D01*
X139928607Y-74843503D01*
X139994776Y-74877218D01*
X139994778Y-74877218D01*
X139994781Y-74877220D01*
X140099137Y-74911127D01*
X140189465Y-74940477D01*
X140290557Y-74956488D01*
X140391648Y-74972500D01*
X140391649Y-74972500D01*
X140596351Y-74972500D01*
X140596352Y-74972500D01*
X140798534Y-74940477D01*
X140993219Y-74877220D01*
X141175610Y-74784287D01*
X141268590Y-74716732D01*
X141341213Y-74663971D01*
X141341215Y-74663968D01*
X141341219Y-74663966D01*
X141485966Y-74519219D01*
X141485968Y-74519215D01*
X141485971Y-74519213D01*
X141538732Y-74446590D01*
X141606287Y-74353610D01*
X141699220Y-74171219D01*
X141762477Y-73976534D01*
X141794500Y-73774352D01*
X141794500Y-73569648D01*
X141762477Y-73367466D01*
X141749394Y-73327202D01*
X141719580Y-73235443D01*
X141699220Y-73172781D01*
X141699218Y-73172778D01*
X141699218Y-73172776D01*
X141656156Y-73088264D01*
X141606287Y-72990390D01*
X141598556Y-72979749D01*
X141485971Y-72824786D01*
X141341213Y-72680028D01*
X141175613Y-72559715D01*
X141175612Y-72559714D01*
X141175610Y-72559713D01*
X141118653Y-72530691D01*
X140993223Y-72466781D01*
X140798534Y-72403522D01*
X140623995Y-72375878D01*
X140596352Y-72371500D01*
X140391648Y-72371500D01*
X140367329Y-72375351D01*
X140189465Y-72403522D01*
X139994776Y-72466781D01*
X139812386Y-72559715D01*
X139646786Y-72680028D01*
X139502028Y-72824786D01*
X139381715Y-72990386D01*
X139288781Y-73172776D01*
X139225522Y-73367465D01*
X139193500Y-73569648D01*
X134174500Y-73569648D01*
X134142477Y-73367466D01*
X134129394Y-73327202D01*
X134099580Y-73235443D01*
X134079220Y-73172781D01*
X134079218Y-73172778D01*
X134079218Y-73172776D01*
X134036156Y-73088264D01*
X133986287Y-72990390D01*
X133978556Y-72979749D01*
X133865971Y-72824786D01*
X133721213Y-72680028D01*
X133555613Y-72559715D01*
X133555612Y-72559714D01*
X133555610Y-72559713D01*
X133498653Y-72530691D01*
X133373223Y-72466781D01*
X133178534Y-72403522D01*
X133003995Y-72375878D01*
X132976352Y-72371500D01*
X132771648Y-72371500D01*
X132747329Y-72375351D01*
X132569465Y-72403522D01*
X132374776Y-72466781D01*
X132192386Y-72559715D01*
X132026786Y-72680028D01*
X131882028Y-72824786D01*
X131761715Y-72990386D01*
X131668781Y-73172776D01*
X131605522Y-73367465D01*
X131573500Y-73569648D01*
X103724500Y-73569648D01*
X103724500Y-69239648D01*
X106613500Y-69239648D01*
X106613500Y-69444351D01*
X106645522Y-69646534D01*
X106708781Y-69841223D01*
X106751248Y-69924567D01*
X106801585Y-70023359D01*
X106801715Y-70023613D01*
X106922028Y-70189213D01*
X107066786Y-70333971D01*
X107187226Y-70421474D01*
X107232390Y-70454287D01*
X107320788Y-70499328D01*
X107414776Y-70547218D01*
X107414778Y-70547218D01*
X107414781Y-70547220D01*
X107519137Y-70581127D01*
X107609465Y-70610477D01*
X107710557Y-70626488D01*
X107811648Y-70642500D01*
X107811649Y-70642500D01*
X108016351Y-70642500D01*
X108016352Y-70642500D01*
X108218534Y-70610477D01*
X108413219Y-70547220D01*
X108595610Y-70454287D01*
X108719216Y-70364483D01*
X108761213Y-70333971D01*
X108761215Y-70333968D01*
X108761219Y-70333966D01*
X108905966Y-70189219D01*
X108905968Y-70189215D01*
X108905971Y-70189213D01*
X109026286Y-70023611D01*
X109026415Y-70023359D01*
X109053795Y-69969621D01*
X109101769Y-69918826D01*
X109169589Y-69902030D01*
X109235725Y-69924567D01*
X109274765Y-69969621D01*
X109302141Y-70023350D01*
X109302147Y-70023359D01*
X109334523Y-70067921D01*
X109334524Y-70067922D01*
X110014000Y-69388446D01*
X110014000Y-69394661D01*
X110041259Y-69496394D01*
X110093920Y-69587606D01*
X110168394Y-69662080D01*
X110259606Y-69714741D01*
X110361339Y-69742000D01*
X110367553Y-69742000D01*
X109688076Y-70421474D01*
X109732650Y-70453859D01*
X109914968Y-70546755D01*
X110109582Y-70609990D01*
X110311683Y-70642000D01*
X110516317Y-70642000D01*
X110718417Y-70609990D01*
X110913031Y-70546755D01*
X111095349Y-70453859D01*
X111139921Y-70421474D01*
X110460447Y-69742000D01*
X110466661Y-69742000D01*
X110568394Y-69714741D01*
X110659606Y-69662080D01*
X110734080Y-69587606D01*
X110786741Y-69496394D01*
X110814000Y-69394661D01*
X110814000Y-69388447D01*
X111493474Y-70067921D01*
X111525859Y-70023349D01*
X111618755Y-69841031D01*
X111681990Y-69646417D01*
X111714000Y-69444317D01*
X111714000Y-69239682D01*
X111681990Y-69037582D01*
X111618755Y-68842968D01*
X111525859Y-68660650D01*
X111493474Y-68616077D01*
X111493474Y-68616076D01*
X110814000Y-69295551D01*
X110814000Y-69289339D01*
X110786741Y-69187606D01*
X110734080Y-69096394D01*
X110659606Y-69021920D01*
X110568394Y-68969259D01*
X110466661Y-68942000D01*
X110460446Y-68942000D01*
X111139922Y-68262524D01*
X111139921Y-68262523D01*
X111095359Y-68230147D01*
X111095350Y-68230141D01*
X110987642Y-68175261D01*
X110913031Y-68137244D01*
X110718417Y-68074009D01*
X110690882Y-68069648D01*
X131583500Y-68069648D01*
X131583500Y-68274351D01*
X131615522Y-68476534D01*
X131678781Y-68671223D01*
X131742691Y-68796653D01*
X131766195Y-68842781D01*
X131771715Y-68853613D01*
X131892028Y-69019213D01*
X132036786Y-69163971D01*
X132191749Y-69276556D01*
X132202390Y-69284287D01*
X132272583Y-69320052D01*
X132384776Y-69377218D01*
X132384778Y-69377218D01*
X132384781Y-69377220D01*
X132438459Y-69394661D01*
X132579465Y-69440477D01*
X132603931Y-69444352D01*
X132781648Y-69472500D01*
X132781649Y-69472500D01*
X132986351Y-69472500D01*
X132986352Y-69472500D01*
X133188534Y-69440477D01*
X133383219Y-69377220D01*
X133565610Y-69284287D01*
X133658590Y-69216732D01*
X133731213Y-69163971D01*
X133731215Y-69163968D01*
X133731219Y-69163966D01*
X133875966Y-69019219D01*
X133875968Y-69019215D01*
X133875971Y-69019213D01*
X133932068Y-68942000D01*
X133996287Y-68853610D01*
X134089220Y-68671219D01*
X134152477Y-68476534D01*
X134184500Y-68274352D01*
X134184500Y-68069648D01*
X139203500Y-68069648D01*
X139203500Y-68274351D01*
X139235522Y-68476534D01*
X139298781Y-68671223D01*
X139362691Y-68796653D01*
X139386195Y-68842781D01*
X139391715Y-68853613D01*
X139512028Y-69019213D01*
X139656786Y-69163971D01*
X139811749Y-69276556D01*
X139822390Y-69284287D01*
X139892583Y-69320052D01*
X140004776Y-69377218D01*
X140004778Y-69377218D01*
X140004781Y-69377220D01*
X140058459Y-69394661D01*
X140199465Y-69440477D01*
X140223931Y-69444352D01*
X140401648Y-69472500D01*
X140401649Y-69472500D01*
X140606351Y-69472500D01*
X140606352Y-69472500D01*
X140808534Y-69440477D01*
X141003219Y-69377220D01*
X141185610Y-69284287D01*
X141278590Y-69216732D01*
X141351213Y-69163971D01*
X141351215Y-69163968D01*
X141351219Y-69163966D01*
X141495966Y-69019219D01*
X141495968Y-69019215D01*
X141495971Y-69019213D01*
X141552068Y-68942000D01*
X141616287Y-68853610D01*
X141709220Y-68671219D01*
X141772477Y-68476534D01*
X141804500Y-68274352D01*
X141804500Y-68069648D01*
X141772477Y-67867466D01*
X141709220Y-67672781D01*
X141709218Y-67672778D01*
X141709218Y-67672776D01*
X141618609Y-67494948D01*
X141618608Y-67494945D01*
X141616286Y-67490387D01*
X141581648Y-67442711D01*
X143945500Y-67442711D01*
X143945500Y-67685288D01*
X143977161Y-67925785D01*
X144039947Y-68160104D01*
X144118619Y-68350034D01*
X144132776Y-68384212D01*
X144254064Y-68594289D01*
X144254066Y-68594292D01*
X144254067Y-68594293D01*
X144401733Y-68786736D01*
X144401739Y-68786743D01*
X144573256Y-68958260D01*
X144573263Y-68958266D01*
X144612595Y-68988446D01*
X144765711Y-69105936D01*
X144975788Y-69227224D01*
X145199900Y-69320054D01*
X145434211Y-69382838D01*
X145614586Y-69406584D01*
X145674711Y-69414500D01*
X145674712Y-69414500D01*
X145917289Y-69414500D01*
X145965388Y-69408167D01*
X146157789Y-69382838D01*
X146392100Y-69320054D01*
X146616212Y-69227224D01*
X146826289Y-69105936D01*
X147018738Y-68958265D01*
X147190265Y-68786738D01*
X147337936Y-68594289D01*
X147459224Y-68384212D01*
X147552054Y-68160100D01*
X147614838Y-67925789D01*
X147646500Y-67685288D01*
X147646500Y-67442712D01*
X147614838Y-67202211D01*
X147552054Y-66967900D01*
X147551590Y-66966781D01*
X147459226Y-66743794D01*
X147459224Y-66743788D01*
X147337936Y-66533711D01*
X147190265Y-66341262D01*
X147190260Y-66341256D01*
X147018743Y-66169739D01*
X147018736Y-66169733D01*
X146826293Y-66022067D01*
X146826292Y-66022066D01*
X146826289Y-66022064D01*
X146616212Y-65900776D01*
X146616205Y-65900773D01*
X146392104Y-65807947D01*
X146157785Y-65745161D01*
X145917289Y-65713500D01*
X145917288Y-65713500D01*
X145674712Y-65713500D01*
X145674711Y-65713500D01*
X145434214Y-65745161D01*
X145199895Y-65807947D01*
X144975794Y-65900773D01*
X144975785Y-65900777D01*
X144765706Y-66022067D01*
X144573263Y-66169733D01*
X144573256Y-66169739D01*
X144401739Y-66341256D01*
X144401733Y-66341263D01*
X144254067Y-66533706D01*
X144132777Y-66743785D01*
X144132773Y-66743794D01*
X144039947Y-66967895D01*
X143977161Y-67202214D01*
X143945500Y-67442711D01*
X141581648Y-67442711D01*
X141495971Y-67324786D01*
X141351213Y-67180028D01*
X141185613Y-67059715D01*
X141185612Y-67059714D01*
X141185610Y-67059713D01*
X141128653Y-67030691D01*
X141003223Y-66966781D01*
X140808534Y-66903522D01*
X140633995Y-66875878D01*
X140606352Y-66871500D01*
X140401648Y-66871500D01*
X140377329Y-66875351D01*
X140199465Y-66903522D01*
X140004776Y-66966781D01*
X139822386Y-67059715D01*
X139656786Y-67180028D01*
X139512028Y-67324786D01*
X139391715Y-67490386D01*
X139298781Y-67672776D01*
X139235522Y-67867465D01*
X139203500Y-68069648D01*
X134184500Y-68069648D01*
X134152477Y-67867466D01*
X134089220Y-67672781D01*
X134089218Y-67672778D01*
X134089218Y-67672776D01*
X134055503Y-67606607D01*
X133996287Y-67490390D01*
X133988556Y-67479749D01*
X133875971Y-67324786D01*
X133731213Y-67180028D01*
X133565613Y-67059715D01*
X133565612Y-67059714D01*
X133565610Y-67059713D01*
X133508653Y-67030691D01*
X133383223Y-66966781D01*
X133188534Y-66903522D01*
X133013995Y-66875878D01*
X132986352Y-66871500D01*
X132781648Y-66871500D01*
X132757329Y-66875351D01*
X132579465Y-66903522D01*
X132384776Y-66966781D01*
X132202386Y-67059715D01*
X132036786Y-67180028D01*
X131892028Y-67324786D01*
X131771715Y-67490386D01*
X131678781Y-67672776D01*
X131615522Y-67867465D01*
X131583500Y-68069648D01*
X110690882Y-68069648D01*
X110516317Y-68042000D01*
X110311683Y-68042000D01*
X110109582Y-68074009D01*
X109914968Y-68137244D01*
X109732644Y-68230143D01*
X109688077Y-68262523D01*
X109688077Y-68262524D01*
X110367554Y-68942000D01*
X110361339Y-68942000D01*
X110259606Y-68969259D01*
X110168394Y-69021920D01*
X110093920Y-69096394D01*
X110041259Y-69187606D01*
X110014000Y-69289339D01*
X110014000Y-69295553D01*
X109334524Y-68616077D01*
X109334523Y-68616077D01*
X109302143Y-68660644D01*
X109274765Y-68714378D01*
X109226790Y-68765174D01*
X109158969Y-68781969D01*
X109092834Y-68759431D01*
X109053795Y-68714378D01*
X109026287Y-68660390D01*
X109026285Y-68660387D01*
X109026284Y-68660385D01*
X108905971Y-68494786D01*
X108761213Y-68350028D01*
X108595613Y-68229715D01*
X108595612Y-68229714D01*
X108595610Y-68229713D01*
X108536225Y-68199455D01*
X108413223Y-68136781D01*
X108218534Y-68073522D01*
X108040306Y-68045294D01*
X108016352Y-68041500D01*
X107811648Y-68041500D01*
X107787694Y-68045294D01*
X107609465Y-68073522D01*
X107414776Y-68136781D01*
X107232386Y-68229715D01*
X107066786Y-68350028D01*
X106922028Y-68494786D01*
X106801715Y-68660386D01*
X106708781Y-68842776D01*
X106645522Y-69037465D01*
X106613500Y-69239648D01*
X103724500Y-69239648D01*
X103724500Y-59174135D01*
X146543500Y-59174135D01*
X146543500Y-61269870D01*
X146543501Y-61269876D01*
X146549908Y-61329483D01*
X146600202Y-61464328D01*
X146600206Y-61464335D01*
X146686452Y-61579544D01*
X146686455Y-61579547D01*
X146801664Y-61665793D01*
X146801671Y-61665797D01*
X146936517Y-61716091D01*
X146936516Y-61716091D01*
X146943444Y-61716835D01*
X146996127Y-61722500D01*
X150291872Y-61722499D01*
X150351483Y-61716091D01*
X150486331Y-61665796D01*
X150601546Y-61579546D01*
X150687796Y-61464331D01*
X150738091Y-61329483D01*
X150744500Y-61269873D01*
X150744499Y-59174128D01*
X150738091Y-59114517D01*
X150687796Y-58979669D01*
X150687795Y-58979668D01*
X150687793Y-58979664D01*
X150601547Y-58864455D01*
X150601544Y-58864452D01*
X150486335Y-58778206D01*
X150486328Y-58778202D01*
X150351482Y-58727908D01*
X150351483Y-58727908D01*
X150291883Y-58721501D01*
X150291881Y-58721500D01*
X150291873Y-58721500D01*
X150291864Y-58721500D01*
X146996129Y-58721500D01*
X146996123Y-58721501D01*
X146936516Y-58727908D01*
X146801671Y-58778202D01*
X146801664Y-58778206D01*
X146686455Y-58864452D01*
X146686452Y-58864455D01*
X146600206Y-58979664D01*
X146600202Y-58979671D01*
X146549908Y-59114517D01*
X146543501Y-59174116D01*
X146543501Y-59174123D01*
X146543500Y-59174135D01*
X103724500Y-59174135D01*
X103724500Y-55435060D01*
X103724501Y-55435047D01*
X103724501Y-55266944D01*
X103721090Y-55254213D01*
X103683577Y-55114216D01*
X103630394Y-55022099D01*
X103604524Y-54977290D01*
X103604518Y-54977282D01*
X101904993Y-53277757D01*
X100165756Y-51538521D01*
X100132272Y-51477199D01*
X100135507Y-51412523D01*
X100149246Y-51370243D01*
X100182500Y-51160287D01*
X100182500Y-51074135D01*
X139643500Y-51074135D01*
X139643500Y-53169870D01*
X139643501Y-53169876D01*
X139649908Y-53229483D01*
X139700202Y-53364328D01*
X139700206Y-53364335D01*
X139786452Y-53479544D01*
X139786453Y-53479544D01*
X139786454Y-53479546D01*
X139795153Y-53486058D01*
X139904599Y-53567990D01*
X139946469Y-53623924D01*
X139951453Y-53693615D01*
X139930605Y-53740141D01*
X139861087Y-53835824D01*
X139753897Y-54046197D01*
X139680934Y-54270752D01*
X139644000Y-54503947D01*
X139644000Y-54740052D01*
X139680934Y-54973247D01*
X139753897Y-55197802D01*
X139861087Y-55408174D01*
X139921338Y-55491104D01*
X139921340Y-55491105D01*
X140661037Y-54751408D01*
X140678075Y-54814993D01*
X140743901Y-54929007D01*
X140836993Y-55022099D01*
X140951007Y-55087925D01*
X141014590Y-55104962D01*
X140268280Y-55851271D01*
X140259105Y-55894947D01*
X140222739Y-55936615D01*
X140166490Y-55977482D01*
X139999485Y-56144487D01*
X139999485Y-56144488D01*
X139999483Y-56144490D01*
X139941291Y-56224584D01*
X139860657Y-56335566D01*
X139753433Y-56546003D01*
X139680446Y-56770631D01*
X139643500Y-57003902D01*
X139643500Y-57240097D01*
X139680446Y-57473368D01*
X139753433Y-57697996D01*
X139842265Y-57872337D01*
X139860657Y-57908433D01*
X139999483Y-58099510D01*
X140166490Y-58266517D01*
X140357567Y-58405343D01*
X140456991Y-58456002D01*
X140568003Y-58512566D01*
X140568005Y-58512566D01*
X140568008Y-58512568D01*
X140688412Y-58551689D01*
X140792631Y-58585553D01*
X141025903Y-58622500D01*
X141025908Y-58622500D01*
X141262097Y-58622500D01*
X141495368Y-58585553D01*
X141719992Y-58512568D01*
X141930433Y-58405343D01*
X142121510Y-58266517D01*
X142288517Y-58099510D01*
X142427343Y-57908433D01*
X142534568Y-57697992D01*
X142607553Y-57473368D01*
X142622572Y-57378540D01*
X142644500Y-57240097D01*
X142644500Y-57003902D01*
X154143500Y-57003902D01*
X154143500Y-57240097D01*
X154180446Y-57473368D01*
X154253433Y-57697996D01*
X154342265Y-57872337D01*
X154360657Y-57908433D01*
X154499483Y-58099510D01*
X154666490Y-58266517D01*
X154857567Y-58405343D01*
X154956991Y-58456002D01*
X155068003Y-58512566D01*
X155068005Y-58512566D01*
X155068008Y-58512568D01*
X155188412Y-58551689D01*
X155292631Y-58585553D01*
X155525903Y-58622500D01*
X155525908Y-58622500D01*
X155762097Y-58622500D01*
X155995368Y-58585553D01*
X156219992Y-58512568D01*
X156430433Y-58405343D01*
X156621510Y-58266517D01*
X156788517Y-58099510D01*
X156927343Y-57908433D01*
X157034568Y-57697992D01*
X157107553Y-57473368D01*
X157122572Y-57378540D01*
X157144500Y-57240097D01*
X157144500Y-57003902D01*
X157107553Y-56770631D01*
X157073689Y-56666412D01*
X157034568Y-56546008D01*
X157034566Y-56546005D01*
X157034566Y-56546003D01*
X156973337Y-56425835D01*
X156927343Y-56335567D01*
X156788517Y-56144490D01*
X156621510Y-55977483D01*
X156430433Y-55838657D01*
X156219996Y-55731433D01*
X155995368Y-55658446D01*
X155762097Y-55621500D01*
X155762092Y-55621500D01*
X155525908Y-55621500D01*
X155525903Y-55621500D01*
X155292631Y-55658446D01*
X155068003Y-55731433D01*
X154857566Y-55838657D01*
X154748550Y-55917862D01*
X154666490Y-55977483D01*
X154666488Y-55977485D01*
X154666487Y-55977485D01*
X154499485Y-56144487D01*
X154499485Y-56144488D01*
X154499483Y-56144490D01*
X154441291Y-56224584D01*
X154360657Y-56335566D01*
X154253433Y-56546003D01*
X154180446Y-56770631D01*
X154143500Y-57003902D01*
X142644500Y-57003902D01*
X142607553Y-56770631D01*
X142573689Y-56666412D01*
X142534568Y-56546008D01*
X142534566Y-56546005D01*
X142534566Y-56546003D01*
X142473337Y-56425835D01*
X142427343Y-56335567D01*
X142288517Y-56144490D01*
X142121510Y-55977483D01*
X142065259Y-55936614D01*
X142022595Y-55881284D01*
X142017902Y-55849455D01*
X141273408Y-55104962D01*
X141336993Y-55087925D01*
X141451007Y-55022099D01*
X141544099Y-54929007D01*
X141609925Y-54814993D01*
X141626962Y-54751409D01*
X142366658Y-55491105D01*
X142366658Y-55491104D01*
X142426914Y-55408169D01*
X142426918Y-55408163D01*
X142534102Y-55197802D01*
X142607065Y-54973247D01*
X142644000Y-54740052D01*
X142644000Y-54503947D01*
X142607065Y-54270752D01*
X142534102Y-54046197D01*
X142426914Y-53835828D01*
X142357394Y-53740142D01*
X142333914Y-53674335D01*
X142349739Y-53606281D01*
X142383401Y-53567989D01*
X142386329Y-53565796D01*
X142386331Y-53565796D01*
X142501546Y-53479546D01*
X142587796Y-53364331D01*
X142638091Y-53229483D01*
X142644500Y-53169873D01*
X142644499Y-52003947D01*
X154144000Y-52003947D01*
X154144000Y-52240052D01*
X154180934Y-52473247D01*
X154253897Y-52697802D01*
X154361087Y-52908174D01*
X154421338Y-52991104D01*
X154421340Y-52991105D01*
X155161037Y-52251408D01*
X155178075Y-52314993D01*
X155243901Y-52429007D01*
X155336993Y-52522099D01*
X155451007Y-52587925D01*
X155514590Y-52604962D01*
X154774893Y-53344658D01*
X154857828Y-53404914D01*
X155068197Y-53512102D01*
X155292752Y-53585065D01*
X155292751Y-53585065D01*
X155525948Y-53622000D01*
X155762052Y-53622000D01*
X155995247Y-53585065D01*
X156219802Y-53512102D01*
X156430163Y-53404918D01*
X156430169Y-53404914D01*
X156513104Y-53344658D01*
X156513105Y-53344658D01*
X155773408Y-52604962D01*
X155836993Y-52587925D01*
X155951007Y-52522099D01*
X156044099Y-52429007D01*
X156109925Y-52314993D01*
X156126962Y-52251408D01*
X156866658Y-52991105D01*
X156866658Y-52991104D01*
X156926914Y-52908169D01*
X156926918Y-52908163D01*
X157034102Y-52697802D01*
X157107065Y-52473247D01*
X157144000Y-52240052D01*
X157144000Y-52003947D01*
X157107065Y-51770752D01*
X157034102Y-51546197D01*
X156926914Y-51335828D01*
X156866658Y-51252894D01*
X156866658Y-51252893D01*
X156126962Y-51992590D01*
X156109925Y-51929007D01*
X156044099Y-51814993D01*
X155951007Y-51721901D01*
X155836993Y-51656075D01*
X155773409Y-51639037D01*
X156513105Y-50899340D01*
X156513104Y-50899338D01*
X156430174Y-50839087D01*
X156219802Y-50731897D01*
X155995247Y-50658934D01*
X155995248Y-50658934D01*
X155762052Y-50622000D01*
X155525948Y-50622000D01*
X155292752Y-50658934D01*
X155068197Y-50731897D01*
X154857830Y-50839084D01*
X154774894Y-50899340D01*
X155514591Y-51639037D01*
X155451007Y-51656075D01*
X155336993Y-51721901D01*
X155243901Y-51814993D01*
X155178075Y-51929007D01*
X155161037Y-51992591D01*
X154421340Y-51252894D01*
X154361084Y-51335830D01*
X154253897Y-51546197D01*
X154180934Y-51770752D01*
X154144000Y-52003947D01*
X142644499Y-52003947D01*
X142644499Y-51074128D01*
X142638091Y-51014517D01*
X142632355Y-50999137D01*
X142628922Y-50989931D01*
X142587797Y-50879671D01*
X142587793Y-50879664D01*
X142501547Y-50764455D01*
X142501544Y-50764452D01*
X142386335Y-50678206D01*
X142386328Y-50678202D01*
X142251482Y-50627908D01*
X142251483Y-50627908D01*
X142191883Y-50621501D01*
X142191881Y-50621500D01*
X142191873Y-50621500D01*
X142191864Y-50621500D01*
X140096129Y-50621500D01*
X140096123Y-50621501D01*
X140036516Y-50627908D01*
X139901671Y-50678202D01*
X139901664Y-50678206D01*
X139786455Y-50764452D01*
X139786452Y-50764455D01*
X139700206Y-50879664D01*
X139700202Y-50879671D01*
X139649908Y-51014517D01*
X139643501Y-51074116D01*
X139643501Y-51074123D01*
X139643500Y-51074135D01*
X100182500Y-51074135D01*
X100182500Y-50947713D01*
X100149246Y-50737757D01*
X100083557Y-50535588D01*
X99987051Y-50346184D01*
X99987049Y-50346181D01*
X99987048Y-50346179D01*
X99862109Y-50174213D01*
X99711786Y-50023890D01*
X99539820Y-49898951D01*
X99350414Y-49802444D01*
X99350413Y-49802443D01*
X99350412Y-49802443D01*
X99148243Y-49736754D01*
X99148241Y-49736753D01*
X99148240Y-49736753D01*
X98986957Y-49711208D01*
X98938287Y-49703500D01*
X98725713Y-49703500D01*
X98677042Y-49711208D01*
X98515760Y-49736753D01*
X98313585Y-49802444D01*
X98124179Y-49898951D01*
X97952213Y-50023890D01*
X97801890Y-50174213D01*
X97676951Y-50346179D01*
X97580444Y-50535585D01*
X97514753Y-50737760D01*
X97481500Y-50947713D01*
X93073648Y-50947713D01*
X93059859Y-50920650D01*
X93027474Y-50876077D01*
X93027474Y-50876076D01*
X92348000Y-51555551D01*
X92348000Y-51549339D01*
X92320741Y-51447606D01*
X92268080Y-51356394D01*
X92193606Y-51281920D01*
X92102394Y-51229259D01*
X92000661Y-51202000D01*
X91994446Y-51202000D01*
X92673922Y-50522524D01*
X92673921Y-50522523D01*
X92629359Y-50490147D01*
X92629350Y-50490141D01*
X92447031Y-50397244D01*
X92252417Y-50334009D01*
X92050317Y-50302000D01*
X91845683Y-50302000D01*
X91643582Y-50334009D01*
X91448968Y-50397244D01*
X91266644Y-50490143D01*
X91222077Y-50522523D01*
X91222077Y-50522524D01*
X91901554Y-51202000D01*
X91895339Y-51202000D01*
X91793606Y-51229259D01*
X91702394Y-51281920D01*
X91627920Y-51356394D01*
X91575259Y-51447606D01*
X91548000Y-51549339D01*
X91548000Y-51555553D01*
X90868524Y-50876077D01*
X90868523Y-50876077D01*
X90836143Y-50920644D01*
X90743244Y-51102968D01*
X90680009Y-51297582D01*
X90648000Y-51499682D01*
X90648000Y-51704317D01*
X90680009Y-51906417D01*
X90743244Y-52101031D01*
X90836141Y-52283350D01*
X90836147Y-52283359D01*
X90868523Y-52327921D01*
X90868524Y-52327922D01*
X91548000Y-51648446D01*
X91548000Y-51654661D01*
X91575259Y-51756394D01*
X91627920Y-51847606D01*
X91702394Y-51922080D01*
X91793606Y-51974741D01*
X91895339Y-52002000D01*
X91901553Y-52002000D01*
X91222076Y-52681474D01*
X91266652Y-52713861D01*
X91320376Y-52741234D01*
X91371172Y-52789208D01*
X91387968Y-52857028D01*
X91365431Y-52923164D01*
X91320379Y-52962203D01*
X91266386Y-52989714D01*
X91100786Y-53110028D01*
X90956028Y-53254786D01*
X90835715Y-53420386D01*
X90742781Y-53602776D01*
X90679522Y-53797465D01*
X90647500Y-53999648D01*
X86860500Y-53999648D01*
X86860500Y-47974135D01*
X146543500Y-47974135D01*
X146543500Y-50069870D01*
X146543501Y-50069876D01*
X146549908Y-50129483D01*
X146600202Y-50264328D01*
X146600206Y-50264335D01*
X146686452Y-50379544D01*
X146686455Y-50379547D01*
X146801664Y-50465793D01*
X146801671Y-50465797D01*
X146936517Y-50516091D01*
X146936516Y-50516091D01*
X146943444Y-50516835D01*
X146996127Y-50522500D01*
X150291872Y-50522499D01*
X150351483Y-50516091D01*
X150486331Y-50465796D01*
X150601546Y-50379546D01*
X150687796Y-50264331D01*
X150738091Y-50129483D01*
X150744500Y-50069873D01*
X150744499Y-47974128D01*
X150738091Y-47914517D01*
X150687796Y-47779669D01*
X150687795Y-47779668D01*
X150687793Y-47779664D01*
X150601547Y-47664455D01*
X150601544Y-47664452D01*
X150486335Y-47578206D01*
X150486328Y-47578202D01*
X150351482Y-47527908D01*
X150351483Y-47527908D01*
X150291883Y-47521501D01*
X150291881Y-47521500D01*
X150291873Y-47521500D01*
X150291864Y-47521500D01*
X146996129Y-47521500D01*
X146996123Y-47521501D01*
X146936516Y-47527908D01*
X146801671Y-47578202D01*
X146801664Y-47578206D01*
X146686455Y-47664452D01*
X146686452Y-47664455D01*
X146600206Y-47779664D01*
X146600202Y-47779671D01*
X146549908Y-47914517D01*
X146543501Y-47974116D01*
X146543501Y-47974123D01*
X146543500Y-47974135D01*
X86860500Y-47974135D01*
X86860500Y-47756066D01*
X86860765Y-47747957D01*
X86866238Y-47664452D01*
X86877417Y-47493883D01*
X86879531Y-47477829D01*
X86928409Y-47232107D01*
X86932606Y-47216445D01*
X86956197Y-47146945D01*
X87013138Y-46979205D01*
X87019336Y-46964239D01*
X87130149Y-46739533D01*
X87138252Y-46725498D01*
X87277448Y-46517176D01*
X87287305Y-46504331D01*
X87452502Y-46315960D01*
X87463960Y-46304502D01*
X87652331Y-46139305D01*
X87665176Y-46129448D01*
X87873498Y-45990252D01*
X87887533Y-45982149D01*
X88112239Y-45871336D01*
X88127205Y-45865138D01*
X88294945Y-45808197D01*
X88364445Y-45784606D01*
X88380107Y-45780409D01*
X88625829Y-45731531D01*
X88641883Y-45729417D01*
X88874848Y-45714148D01*
X88895958Y-45712765D01*
X88904067Y-45712500D01*
X88965892Y-45712500D01*
X158430108Y-45712500D01*
X158491933Y-45712500D01*
X158500042Y-45712765D01*
G37*
%TD.AperFunction*%
%TD*%
M02*
