ISO-10303-21;
HEADER;
/* Generated by software containing ST-Developer
 * from STEP Tools, Inc. (www.steptools.com) 
 */
/* OPTION: using custom renumber hook */

FILE_DESCRIPTION(
/* description */ ('STEP AP242 Edition 2',
'CAx-IF Rec.Pracs.---Representation and Presentation of Product Manufa
cturing Information (PMI)---4.0---2014-10-13',
'CAx-IF Rec.Pracs.---3D Tessellated Geometry---0.4---2014-09-14','2;1',
'CAx-IF Rec.Pracs.---User Defined Attributes---1.5---2016-08-15'),
/* implementation_level */ '2;1');

FILE_NAME(
/* name */ 'knob',
/* time_stamp */ '2026-05-01T17:29:29Z',
/* author */ (''),
/* organization */ (''),
/* preprocessor_version */ 'ST-DEVELOPER v20',
/* originating_system */ 'ONSHAPE BY PTC INC, 1.214',
/* authorisation */ '  ');

FILE_SCHEMA (('AP242_MANAGED_MODEL_BASED_3D_ENGINEERING_MIM_LF { 1 0 10303 442 3 1 4 }'));
ENDSEC;

DATA;
#10=SHAPE_REPRESENTATION_RELATIONSHIP('','',#544,#11);
#11=ADVANCED_BREP_SHAPE_REPRESENTATION('',(#542),#1091);
#12=CONICAL_SURFACE('',#612,0.0045,0.463647609000806);
#13=PLANE('',#606);
#14=PLANE('',#610);
#15=PLANE('',#611);
#16=PLANE('',#614);
#17=CIRCLE('',#547,0.0006);
#18=CIRCLE('',#549,0.0055);
#19=CIRCLE('',#550,0.0055);
#20=CIRCLE('',#552,0.0006);
#21=CIRCLE('',#554,0.0055);
#22=CIRCLE('',#555,0.0055);
#23=CIRCLE('',#557,0.0006);
#24=CIRCLE('',#559,0.0055);
#25=CIRCLE('',#560,0.0055);
#26=CIRCLE('',#562,0.0006);
#27=CIRCLE('',#564,0.0055);
#28=CIRCLE('',#565,0.0055);
#29=CIRCLE('',#567,0.0006);
#30=CIRCLE('',#569,0.0055);
#31=CIRCLE('',#570,0.0055);
#32=CIRCLE('',#572,0.0006);
#33=CIRCLE('',#574,0.0055);
#34=CIRCLE('',#575,0.0055);
#35=CIRCLE('',#577,0.0006);
#36=CIRCLE('',#579,0.0055);
#37=CIRCLE('',#580,0.0055);
#38=CIRCLE('',#582,0.0006);
#39=CIRCLE('',#584,0.0055);
#40=CIRCLE('',#585,0.0055);
#41=CIRCLE('',#587,0.0006);
#42=CIRCLE('',#589,0.0055);
#43=CIRCLE('',#590,0.0055);
#44=CIRCLE('',#592,0.0006);
#45=CIRCLE('',#594,0.0055);
#46=CIRCLE('',#595,0.0055);
#47=CIRCLE('',#597,0.0006);
#48=CIRCLE('',#599,0.0055);
#49=CIRCLE('',#600,0.0055);
#50=CIRCLE('',#602,0.0006);
#51=CIRCLE('',#604,0.0055);
#52=CIRCLE('',#605,0.0055);
#53=CIRCLE('',#607,0.00315);
#54=CIRCLE('',#609,0.00315);
#55=CIRCLE('',#613,0.0045);
#56=LINE('',#800,#84);
#57=LINE('',#804,#85);
#58=LINE('',#806,#86);
#59=LINE('',#828,#87);
#60=LINE('',#830,#88);
#61=LINE('',#852,#89);
#62=LINE('',#854,#90);
#63=LINE('',#876,#91);
#64=LINE('',#878,#92);
#65=LINE('',#900,#93);
#66=LINE('',#902,#94);
#67=LINE('',#924,#95);
#68=LINE('',#926,#96);
#69=LINE('',#948,#97);
#70=LINE('',#950,#98);
#71=LINE('',#972,#99);
#72=LINE('',#974,#100);
#73=LINE('',#996,#101);
#74=LINE('',#998,#102);
#75=LINE('',#1020,#103);
#76=LINE('',#1022,#104);
#77=LINE('',#1044,#105);
#78=LINE('',#1046,#106);
#79=LINE('',#1068,#107);
#80=LINE('',#1073,#108);
#81=LINE('',#1078,#109);
#82=LINE('',#1082,#110);
#83=LINE('',#1084,#111);
#84=VECTOR('',#619,1.);
#85=VECTOR('',#622,1.);
#86=VECTOR('',#625,1.);
#87=VECTOR('',#634,1.);
#88=VECTOR('',#637,1.);
#89=VECTOR('',#646,1.);
#90=VECTOR('',#649,1.);
#91=VECTOR('',#658,1.);
#92=VECTOR('',#661,1.);
#93=VECTOR('',#670,1.);
#94=VECTOR('',#673,1.);
#95=VECTOR('',#682,1.);
#96=VECTOR('',#685,1.);
#97=VECTOR('',#694,1.);
#98=VECTOR('',#697,1.);
#99=VECTOR('',#706,1.);
#100=VECTOR('',#709,1.);
#101=VECTOR('',#718,1.);
#102=VECTOR('',#721,1.);
#103=VECTOR('',#730,1.);
#104=VECTOR('',#733,1.);
#105=VECTOR('',#742,1.);
#106=VECTOR('',#745,1.);
#107=VECTOR('',#754,1.);
#108=VECTOR('',#763,1.);
#109=VECTOR('',#768,1.);
#110=VECTOR('',#771,1.);
#111=VECTOR('',#774,1.);
#112=ORIENTED_EDGE('',*,*,#270,.F.);
#113=ORIENTED_EDGE('',*,*,#271,.T.);
#114=ORIENTED_EDGE('',*,*,#272,.F.);
#115=ORIENTED_EDGE('',*,*,#273,.F.);
#116=ORIENTED_EDGE('',*,*,#274,.F.);
#117=ORIENTED_EDGE('',*,*,#275,.T.);
#118=ORIENTED_EDGE('',*,*,#273,.T.);
#119=ORIENTED_EDGE('',*,*,#276,.T.);
#120=ORIENTED_EDGE('',*,*,#277,.F.);
#121=ORIENTED_EDGE('',*,*,#274,.T.);
#122=ORIENTED_EDGE('',*,*,#278,.F.);
#123=ORIENTED_EDGE('',*,*,#279,.F.);
#124=ORIENTED_EDGE('',*,*,#280,.F.);
#125=ORIENTED_EDGE('',*,*,#281,.T.);
#126=ORIENTED_EDGE('',*,*,#279,.T.);
#127=ORIENTED_EDGE('',*,*,#282,.T.);
#128=ORIENTED_EDGE('',*,*,#283,.F.);
#129=ORIENTED_EDGE('',*,*,#280,.T.);
#130=ORIENTED_EDGE('',*,*,#284,.F.);
#131=ORIENTED_EDGE('',*,*,#285,.F.);
#132=ORIENTED_EDGE('',*,*,#286,.F.);
#133=ORIENTED_EDGE('',*,*,#287,.T.);
#134=ORIENTED_EDGE('',*,*,#285,.T.);
#135=ORIENTED_EDGE('',*,*,#288,.T.);
#136=ORIENTED_EDGE('',*,*,#289,.F.);
#137=ORIENTED_EDGE('',*,*,#286,.T.);
#138=ORIENTED_EDGE('',*,*,#290,.F.);
#139=ORIENTED_EDGE('',*,*,#291,.F.);
#140=ORIENTED_EDGE('',*,*,#292,.F.);
#141=ORIENTED_EDGE('',*,*,#293,.T.);
#142=ORIENTED_EDGE('',*,*,#291,.T.);
#143=ORIENTED_EDGE('',*,*,#294,.T.);
#144=ORIENTED_EDGE('',*,*,#295,.F.);
#145=ORIENTED_EDGE('',*,*,#292,.T.);
#146=ORIENTED_EDGE('',*,*,#296,.F.);
#147=ORIENTED_EDGE('',*,*,#297,.F.);
#148=ORIENTED_EDGE('',*,*,#298,.F.);
#149=ORIENTED_EDGE('',*,*,#299,.T.);
#150=ORIENTED_EDGE('',*,*,#297,.T.);
#151=ORIENTED_EDGE('',*,*,#300,.T.);
#152=ORIENTED_EDGE('',*,*,#301,.F.);
#153=ORIENTED_EDGE('',*,*,#298,.T.);
#154=ORIENTED_EDGE('',*,*,#302,.F.);
#155=ORIENTED_EDGE('',*,*,#303,.F.);
#156=ORIENTED_EDGE('',*,*,#304,.F.);
#157=ORIENTED_EDGE('',*,*,#305,.T.);
#158=ORIENTED_EDGE('',*,*,#303,.T.);
#159=ORIENTED_EDGE('',*,*,#306,.T.);
#160=ORIENTED_EDGE('',*,*,#307,.F.);
#161=ORIENTED_EDGE('',*,*,#304,.T.);
#162=ORIENTED_EDGE('',*,*,#308,.F.);
#163=ORIENTED_EDGE('',*,*,#309,.F.);
#164=ORIENTED_EDGE('',*,*,#310,.F.);
#165=ORIENTED_EDGE('',*,*,#311,.T.);
#166=ORIENTED_EDGE('',*,*,#309,.T.);
#167=ORIENTED_EDGE('',*,*,#312,.T.);
#168=ORIENTED_EDGE('',*,*,#313,.F.);
#169=ORIENTED_EDGE('',*,*,#310,.T.);
#170=ORIENTED_EDGE('',*,*,#314,.F.);
#171=ORIENTED_EDGE('',*,*,#315,.F.);
#172=ORIENTED_EDGE('',*,*,#316,.F.);
#173=ORIENTED_EDGE('',*,*,#317,.T.);
#174=ORIENTED_EDGE('',*,*,#315,.T.);
#175=ORIENTED_EDGE('',*,*,#318,.T.);
#176=ORIENTED_EDGE('',*,*,#319,.F.);
#177=ORIENTED_EDGE('',*,*,#316,.T.);
#178=ORIENTED_EDGE('',*,*,#320,.F.);
#179=ORIENTED_EDGE('',*,*,#321,.F.);
#180=ORIENTED_EDGE('',*,*,#322,.F.);
#181=ORIENTED_EDGE('',*,*,#323,.T.);
#182=ORIENTED_EDGE('',*,*,#321,.T.);
#183=ORIENTED_EDGE('',*,*,#324,.T.);
#184=ORIENTED_EDGE('',*,*,#325,.F.);
#185=ORIENTED_EDGE('',*,*,#322,.T.);
#186=ORIENTED_EDGE('',*,*,#326,.F.);
#187=ORIENTED_EDGE('',*,*,#327,.F.);
#188=ORIENTED_EDGE('',*,*,#328,.F.);
#189=ORIENTED_EDGE('',*,*,#329,.T.);
#190=ORIENTED_EDGE('',*,*,#327,.T.);
#191=ORIENTED_EDGE('',*,*,#330,.T.);
#192=ORIENTED_EDGE('',*,*,#331,.F.);
#193=ORIENTED_EDGE('',*,*,#328,.T.);
#194=ORIENTED_EDGE('',*,*,#332,.F.);
#195=ORIENTED_EDGE('',*,*,#333,.F.);
#196=ORIENTED_EDGE('',*,*,#334,.F.);
#197=ORIENTED_EDGE('',*,*,#335,.T.);
#198=ORIENTED_EDGE('',*,*,#333,.T.);
#199=ORIENTED_EDGE('',*,*,#336,.T.);
#200=ORIENTED_EDGE('',*,*,#337,.F.);
#201=ORIENTED_EDGE('',*,*,#334,.T.);
#202=ORIENTED_EDGE('',*,*,#338,.F.);
#203=ORIENTED_EDGE('',*,*,#339,.F.);
#204=ORIENTED_EDGE('',*,*,#271,.F.);
#205=ORIENTED_EDGE('',*,*,#340,.T.);
#206=ORIENTED_EDGE('',*,*,#339,.T.);
#207=ORIENTED_EDGE('',*,*,#341,.T.);
#208=ORIENTED_EDGE('',*,*,#342,.T.);
#209=ORIENTED_EDGE('',*,*,#343,.F.);
#210=ORIENTED_EDGE('',*,*,#272,.T.);
#211=ORIENTED_EDGE('',*,*,#341,.F.);
#212=ORIENTED_EDGE('',*,*,#338,.T.);
#213=ORIENTED_EDGE('',*,*,#336,.F.);
#214=ORIENTED_EDGE('',*,*,#332,.T.);
#215=ORIENTED_EDGE('',*,*,#330,.F.);
#216=ORIENTED_EDGE('',*,*,#326,.T.);
#217=ORIENTED_EDGE('',*,*,#324,.F.);
#218=ORIENTED_EDGE('',*,*,#320,.T.);
#219=ORIENTED_EDGE('',*,*,#318,.F.);
#220=ORIENTED_EDGE('',*,*,#314,.T.);
#221=ORIENTED_EDGE('',*,*,#312,.F.);
#222=ORIENTED_EDGE('',*,*,#308,.T.);
#223=ORIENTED_EDGE('',*,*,#306,.F.);
#224=ORIENTED_EDGE('',*,*,#302,.T.);
#225=ORIENTED_EDGE('',*,*,#300,.F.);
#226=ORIENTED_EDGE('',*,*,#296,.T.);
#227=ORIENTED_EDGE('',*,*,#294,.F.);
#228=ORIENTED_EDGE('',*,*,#290,.T.);
#229=ORIENTED_EDGE('',*,*,#288,.F.);
#230=ORIENTED_EDGE('',*,*,#284,.T.);
#231=ORIENTED_EDGE('',*,*,#282,.F.);
#232=ORIENTED_EDGE('',*,*,#278,.T.);
#233=ORIENTED_EDGE('',*,*,#276,.F.);
#234=ORIENTED_EDGE('',*,*,#343,.T.);
#235=ORIENTED_EDGE('',*,*,#344,.F.);
#236=ORIENTED_EDGE('',*,*,#345,.F.);
#237=ORIENTED_EDGE('',*,*,#346,.T.);
#238=ORIENTED_EDGE('',*,*,#342,.F.);
#239=ORIENTED_EDGE('',*,*,#346,.F.);
#240=ORIENTED_EDGE('',*,*,#347,.T.);
#241=ORIENTED_EDGE('',*,*,#344,.T.);
#242=ORIENTED_EDGE('',*,*,#345,.T.);
#243=ORIENTED_EDGE('',*,*,#347,.F.);
#244=ORIENTED_EDGE('',*,*,#270,.T.);
#245=ORIENTED_EDGE('',*,*,#275,.F.);
#246=ORIENTED_EDGE('',*,*,#277,.T.);
#247=ORIENTED_EDGE('',*,*,#281,.F.);
#248=ORIENTED_EDGE('',*,*,#283,.T.);
#249=ORIENTED_EDGE('',*,*,#287,.F.);
#250=ORIENTED_EDGE('',*,*,#289,.T.);
#251=ORIENTED_EDGE('',*,*,#293,.F.);
#252=ORIENTED_EDGE('',*,*,#295,.T.);
#253=ORIENTED_EDGE('',*,*,#299,.F.);
#254=ORIENTED_EDGE('',*,*,#301,.T.);
#255=ORIENTED_EDGE('',*,*,#305,.F.);
#256=ORIENTED_EDGE('',*,*,#307,.T.);
#257=ORIENTED_EDGE('',*,*,#311,.F.);
#258=ORIENTED_EDGE('',*,*,#313,.T.);
#259=ORIENTED_EDGE('',*,*,#317,.F.);
#260=ORIENTED_EDGE('',*,*,#319,.T.);
#261=ORIENTED_EDGE('',*,*,#323,.F.);
#262=ORIENTED_EDGE('',*,*,#325,.T.);
#263=ORIENTED_EDGE('',*,*,#329,.F.);
#264=ORIENTED_EDGE('',*,*,#331,.T.);
#265=ORIENTED_EDGE('',*,*,#335,.F.);
#266=ORIENTED_EDGE('',*,*,#337,.T.);
#267=ORIENTED_EDGE('',*,*,#340,.F.);
#268=ORIENTED_EDGE('',*,*,#348,.T.);
#269=ORIENTED_EDGE('',*,*,#348,.F.);
#270=EDGE_CURVE('',#349,#350,#402,.T.);
#271=EDGE_CURVE('',#349,#351,#56,.T.);
#272=EDGE_CURVE('',#352,#351,#17,.T.);
#273=EDGE_CURVE('',#350,#352,#57,.T.);
#274=EDGE_CURVE('',#353,#354,#58,.T.);
#275=EDGE_CURVE('',#353,#350,#18,.T.);
#276=EDGE_CURVE('',#352,#354,#19,.T.);
#277=EDGE_CURVE('',#353,#355,#403,.T.);
#278=EDGE_CURVE('',#356,#354,#20,.T.);
#279=EDGE_CURVE('',#355,#356,#59,.T.);
#280=EDGE_CURVE('',#357,#358,#60,.T.);
#281=EDGE_CURVE('',#357,#355,#21,.T.);
#282=EDGE_CURVE('',#356,#358,#22,.T.);
#283=EDGE_CURVE('',#357,#359,#404,.T.);
#284=EDGE_CURVE('',#360,#358,#23,.T.);
#285=EDGE_CURVE('',#359,#360,#61,.T.);
#286=EDGE_CURVE('',#361,#362,#62,.T.);
#287=EDGE_CURVE('',#361,#359,#24,.T.);
#288=EDGE_CURVE('',#360,#362,#25,.T.);
#289=EDGE_CURVE('',#361,#363,#405,.T.);
#290=EDGE_CURVE('',#364,#362,#26,.T.);
#291=EDGE_CURVE('',#363,#364,#63,.T.);
#292=EDGE_CURVE('',#365,#366,#64,.T.);
#293=EDGE_CURVE('',#365,#363,#27,.T.);
#294=EDGE_CURVE('',#364,#366,#28,.T.);
#295=EDGE_CURVE('',#365,#367,#406,.T.);
#296=EDGE_CURVE('',#368,#366,#29,.T.);
#297=EDGE_CURVE('',#367,#368,#65,.T.);
#298=EDGE_CURVE('',#369,#370,#66,.T.);
#299=EDGE_CURVE('',#369,#367,#30,.T.);
#300=EDGE_CURVE('',#368,#370,#31,.T.);
#301=EDGE_CURVE('',#369,#371,#407,.T.);
#302=EDGE_CURVE('',#372,#370,#32,.T.);
#303=EDGE_CURVE('',#371,#372,#67,.T.);
#304=EDGE_CURVE('',#373,#374,#68,.T.);
#305=EDGE_CURVE('',#373,#371,#33,.T.);
#306=EDGE_CURVE('',#372,#374,#34,.T.);
#307=EDGE_CURVE('',#373,#375,#408,.T.);
#308=EDGE_CURVE('',#376,#374,#35,.T.);
#309=EDGE_CURVE('',#375,#376,#69,.T.);
#310=EDGE_CURVE('',#377,#378,#70,.T.);
#311=EDGE_CURVE('',#377,#375,#36,.T.);
#312=EDGE_CURVE('',#376,#378,#37,.T.);
#313=EDGE_CURVE('',#377,#379,#409,.T.);
#314=EDGE_CURVE('',#380,#378,#38,.T.);
#315=EDGE_CURVE('',#379,#380,#71,.T.);
#316=EDGE_CURVE('',#381,#382,#72,.T.);
#317=EDGE_CURVE('',#381,#379,#39,.T.);
#318=EDGE_CURVE('',#380,#382,#40,.T.);
#319=EDGE_CURVE('',#381,#383,#410,.T.);
#320=EDGE_CURVE('',#384,#382,#41,.T.);
#321=EDGE_CURVE('',#383,#384,#73,.T.);
#322=EDGE_CURVE('',#385,#386,#74,.T.);
#323=EDGE_CURVE('',#385,#383,#42,.T.);
#324=EDGE_CURVE('',#384,#386,#43,.T.);
#325=EDGE_CURVE('',#385,#387,#411,.T.);
#326=EDGE_CURVE('',#388,#386,#44,.T.);
#327=EDGE_CURVE('',#387,#388,#75,.T.);
#328=EDGE_CURVE('',#389,#390,#76,.T.);
#329=EDGE_CURVE('',#389,#387,#45,.T.);
#330=EDGE_CURVE('',#388,#390,#46,.T.);
#331=EDGE_CURVE('',#389,#391,#412,.T.);
#332=EDGE_CURVE('',#392,#390,#47,.T.);
#333=EDGE_CURVE('',#391,#392,#77,.T.);
#334=EDGE_CURVE('',#393,#394,#78,.T.);
#335=EDGE_CURVE('',#393,#391,#48,.T.);
#336=EDGE_CURVE('',#392,#394,#49,.T.);
#337=EDGE_CURVE('',#393,#395,#413,.T.);
#338=EDGE_CURVE('',#396,#394,#50,.T.);
#339=EDGE_CURVE('',#395,#396,#79,.T.);
#340=EDGE_CURVE('',#349,#395,#51,.T.);
#341=EDGE_CURVE('',#396,#351,#52,.T.);
#342=EDGE_CURVE('',#397,#398,#80,.T.);
#343=EDGE_CURVE('',#397,#398,#53,.T.);
#344=EDGE_CURVE('',#399,#398,#81,.T.);
#345=EDGE_CURVE('',#400,#399,#54,.T.);
#346=EDGE_CURVE('',#400,#397,#82,.T.);
#347=EDGE_CURVE('',#400,#399,#83,.T.);
#348=EDGE_CURVE('',#401,#401,#55,.T.);
#349=VERTEX_POINT('',#798);
#350=VERTEX_POINT('',#799);
#351=VERTEX_POINT('',#801);
#352=VERTEX_POINT('',#803);
#353=VERTEX_POINT('',#807);
#354=VERTEX_POINT('',#808);
#355=VERTEX_POINT('',#825);
#356=VERTEX_POINT('',#827);
#357=VERTEX_POINT('',#831);
#358=VERTEX_POINT('',#832);
#359=VERTEX_POINT('',#849);
#360=VERTEX_POINT('',#851);
#361=VERTEX_POINT('',#855);
#362=VERTEX_POINT('',#856);
#363=VERTEX_POINT('',#873);
#364=VERTEX_POINT('',#875);
#365=VERTEX_POINT('',#879);
#366=VERTEX_POINT('',#880);
#367=VERTEX_POINT('',#897);
#368=VERTEX_POINT('',#899);
#369=VERTEX_POINT('',#903);
#370=VERTEX_POINT('',#904);
#371=VERTEX_POINT('',#921);
#372=VERTEX_POINT('',#923);
#373=VERTEX_POINT('',#927);
#374=VERTEX_POINT('',#928);
#375=VERTEX_POINT('',#945);
#376=VERTEX_POINT('',#947);
#377=VERTEX_POINT('',#951);
#378=VERTEX_POINT('',#952);
#379=VERTEX_POINT('',#969);
#380=VERTEX_POINT('',#971);
#381=VERTEX_POINT('',#975);
#382=VERTEX_POINT('',#976);
#383=VERTEX_POINT('',#993);
#384=VERTEX_POINT('',#995);
#385=VERTEX_POINT('',#999);
#386=VERTEX_POINT('',#1000);
#387=VERTEX_POINT('',#1017);
#388=VERTEX_POINT('',#1019);
#389=VERTEX_POINT('',#1023);
#390=VERTEX_POINT('',#1024);
#391=VERTEX_POINT('',#1041);
#392=VERTEX_POINT('',#1043);
#393=VERTEX_POINT('',#1047);
#394=VERTEX_POINT('',#1048);
#395=VERTEX_POINT('',#1065);
#396=VERTEX_POINT('',#1067);
#397=VERTEX_POINT('',#1074);
#398=VERTEX_POINT('',#1075);
#399=VERTEX_POINT('',#1079);
#400=VERTEX_POINT('',#1081);
#401=VERTEX_POINT('',#1088);
#402=B_SPLINE_CURVE_WITH_KNOTS('',3,(#785,#786,#787,#788,#789,#790,#791,
#792,#793,#794,#795,#796,#797),.UNSPECIFIED.,.F.,.F.,(4,1,1,1,1,1,1,1,1,
1,4),(2.2029012650151E-7,0.000384544085580867,0.000768867881035232,0.0011531916764896,
0.00134535357421678,0.00153751547194396,0.00172967736967115,0.00192183926739833,
0.00230616306285269,0.00269048685830706,0.00307481065376143),
 .UNSPECIFIED.);
#403=B_SPLINE_CURVE_WITH_KNOTS('',3,(#812,#813,#814,#815,#816,#817,#818,
#819,#820,#821,#822,#823,#824),.UNSPECIFIED.,.F.,.F.,(4,1,1,1,1,1,1,1,1,
1,4),(2.20290126458287E-7,0.000384544085580828,0.000768867881035197,0.00115319167648957,
0.00134535357421675,0.00153751547194394,0.00172967736967112,0.00192183926739831,
0.00230616306285268,0.00269048685830704,0.00307481065376141),
 .UNSPECIFIED.);
#404=B_SPLINE_CURVE_WITH_KNOTS('',3,(#836,#837,#838,#839,#840,#841,#842,
#843,#844,#845,#846,#847,#848),.UNSPECIFIED.,.F.,.F.,(4,1,1,1,1,1,1,1,1,
1,4),(2.2029012645501E-7,0.000384544085580812,0.000768867881035169,0.00115319167648953,
0.00134535357421671,0.00153751547194388,0.00172967736967106,0.00192183926739824,
0.0023061630628526,0.00269048685830696,0.00307481065376131),
 .UNSPECIFIED.);
#405=B_SPLINE_CURVE_WITH_KNOTS('',3,(#860,#861,#862,#863,#864,#865,#866,
#867,#868,#869,#870,#871,#872),.UNSPECIFIED.,.F.,.F.,(4,1,1,1,1,1,1,1,1,
1,4),(2.2029012650112E-7,0.000384544085580851,0.000768867881035201,0.00115319167648955,
0.00134535357421673,0.0015375154719439,0.00172967736967108,0.00192183926739825,
0.0023061630628526,0.00269048685830695,0.0030748106537613),
 .UNSPECIFIED.);
#406=B_SPLINE_CURVE_WITH_KNOTS('',3,(#884,#885,#886,#887,#888,#889,#890,
#891,#892,#893,#894,#895,#896),.UNSPECIFIED.,.F.,.F.,(4,1,1,1,1,1,1,1,1,
1,4),(2.20290126458287E-7,0.000384544085580818,0.000768867881035178,0.00115319167648954,
0.00134535357421672,0.0015375154719439,0.00172967736967108,0.00192183926739826,
0.00230616306285262,0.00269048685830698,0.00307481065376134),
 .UNSPECIFIED.);
#407=B_SPLINE_CURVE_WITH_KNOTS('',3,(#908,#909,#910,#911,#912,#913,#914,
#915,#916,#917,#918,#919,#920),.UNSPECIFIED.,.F.,.F.,(4,1,1,1,1,1,1,1,1,
1,4),(2.20290126458242E-7,0.000384544085580803,0.000768867881035147,0.00115319167648949,
0.00134535357421666,0.00153751547194384,0.00172967736967101,0.00192183926739818,
0.00230616306285252,0.00269048685830687,0.00307481065376121),
 .UNSPECIFIED.);
#408=B_SPLINE_CURVE_WITH_KNOTS('',3,(#932,#933,#934,#935,#936,#937,#938,
#939,#940,#941,#942,#943,#944),.UNSPECIFIED.,.F.,.F.,(4,1,1,1,1,1,1,1,1,
1,4),(2.20290126454887E-7,0.000384544085580804,0.000768867881035152,0.0011531916764895,
0.00134535357421668,0.00153751547194385,0.00172967736967102,0.0019218392673982,
0.00230616306285255,0.0026904868583069,0.00307481065376124),
 .UNSPECIFIED.);
#409=B_SPLINE_CURVE_WITH_KNOTS('',3,(#956,#957,#958,#959,#960,#961,#962,
#963,#964,#965,#966,#967,#968),.UNSPECIFIED.,.F.,.F.,(4,1,1,1,1,1,1,1,1,
1,4),(2.20290126458287E-7,0.000384544085580774,0.00076886788103509,0.00115319167648941,
0.00134535357421656,0.00153751547194372,0.00172967736967088,0.00192183926739804,
0.00230616306285235,0.00269048685830667,0.00307481065376098),
 .UNSPECIFIED.);
#410=B_SPLINE_CURVE_WITH_KNOTS('',3,(#980,#981,#982,#983,#984,#985,#986,
#987,#988,#989,#990,#991,#992),.UNSPECIFIED.,.F.,.F.,(4,1,1,1,1,1,1,1,1,
1,4),(2.20290126458242E-7,0.000384544085580824,0.00076886788103519,0.00115319167648956,
0.00134535357421674,0.00153751547194392,0.0017296773696711,0.00192183926739829,
0.00230616306285265,0.00269048685830702,0.00307481065376138),
 .UNSPECIFIED.);
#411=B_SPLINE_CURVE_WITH_KNOTS('',3,(#1004,#1005,#1006,#1007,#1008,#1009,
#1010,#1011,#1012,#1013,#1014,#1015,#1016),.UNSPECIFIED.,.F.,.F.,(4,1,1,
1,1,1,1,1,1,1,4),(2.20290126454887E-7,0.000384544085580799,0.000768867881035143,
0.00115319167648949,0.00134535357421666,0.00153751547194383,0.001729677369671,
0.00192183926739818,0.00230616306285252,0.00269048685830686,0.00307481065376121),
 .UNSPECIFIED.);
#412=B_SPLINE_CURVE_WITH_KNOTS('',3,(#1028,#1029,#1030,#1031,#1032,#1033,
#1034,#1035,#1036,#1037,#1038,#1039,#1040),.UNSPECIFIED.,.F.,.F.,(4,1,1,
1,1,1,1,1,1,1,4),(2.20290126458287E-7,0.000384544085580798,0.000768867881035137,
0.00115319167648948,0.00134535357421665,0.00153751547194382,0.00172967736967098,
0.00192183926739815,0.00230616306285249,0.00269048685830683,0.00307481065376117),
 .UNSPECIFIED.);
#413=B_SPLINE_CURVE_WITH_KNOTS('',3,(#1052,#1053,#1054,#1055,#1056,#1057,
#1058,#1059,#1060,#1061,#1062,#1063,#1064),.UNSPECIFIED.,.F.,.F.,(4,1,1,
1,1,1,1,1,1,1,4),(2.20290126462206E-7,0.00038454408558085,0.000768867881035238,
0.00115319167648963,0.00134535357421682,0.00153751547194401,0.00172967736967121,
0.0019218392673984,0.00230616306285279,0.00269048685830718,0.00307481065376156),
 .UNSPECIFIED.);
#414=EDGE_LOOP('',(#112,#113,#114,#115));
#415=EDGE_LOOP('',(#116,#117,#118,#119));
#416=EDGE_LOOP('',(#120,#121,#122,#123));
#417=EDGE_LOOP('',(#124,#125,#126,#127));
#418=EDGE_LOOP('',(#128,#129,#130,#131));
#419=EDGE_LOOP('',(#132,#133,#134,#135));
#420=EDGE_LOOP('',(#136,#137,#138,#139));
#421=EDGE_LOOP('',(#140,#141,#142,#143));
#422=EDGE_LOOP('',(#144,#145,#146,#147));
#423=EDGE_LOOP('',(#148,#149,#150,#151));
#424=EDGE_LOOP('',(#152,#153,#154,#155));
#425=EDGE_LOOP('',(#156,#157,#158,#159));
#426=EDGE_LOOP('',(#160,#161,#162,#163));
#427=EDGE_LOOP('',(#164,#165,#166,#167));
#428=EDGE_LOOP('',(#168,#169,#170,#171));
#429=EDGE_LOOP('',(#172,#173,#174,#175));
#430=EDGE_LOOP('',(#176,#177,#178,#179));
#431=EDGE_LOOP('',(#180,#181,#182,#183));
#432=EDGE_LOOP('',(#184,#185,#186,#187));
#433=EDGE_LOOP('',(#188,#189,#190,#191));
#434=EDGE_LOOP('',(#192,#193,#194,#195));
#435=EDGE_LOOP('',(#196,#197,#198,#199));
#436=EDGE_LOOP('',(#200,#201,#202,#203));
#437=EDGE_LOOP('',(#204,#205,#206,#207));
#438=EDGE_LOOP('',(#208,#209));
#439=EDGE_LOOP('',(#210,#211,#212,#213,#214,#215,#216,#217,#218,#219,#220,
#221,#222,#223,#224,#225,#226,#227,#228,#229,#230,#231,#232,#233));
#440=EDGE_LOOP('',(#234,#235,#236,#237));
#441=EDGE_LOOP('',(#238,#239,#240,#241));
#442=EDGE_LOOP('',(#242,#243));
#443=EDGE_LOOP('',(#244,#245,#246,#247,#248,#249,#250,#251,#252,#253,#254,
#255,#256,#257,#258,#259,#260,#261,#262,#263,#264,#265,#266,#267));
#444=EDGE_LOOP('',(#268));
#445=EDGE_LOOP('',(#269));
#446=FACE_BOUND('',#414,.T.);
#447=FACE_BOUND('',#415,.T.);
#448=FACE_BOUND('',#416,.T.);
#449=FACE_BOUND('',#417,.T.);
#450=FACE_BOUND('',#418,.T.);
#451=FACE_BOUND('',#419,.T.);
#452=FACE_BOUND('',#420,.T.);
#453=FACE_BOUND('',#421,.T.);
#454=FACE_BOUND('',#422,.T.);
#455=FACE_BOUND('',#423,.T.);
#456=FACE_BOUND('',#424,.T.);
#457=FACE_BOUND('',#425,.T.);
#458=FACE_BOUND('',#426,.T.);
#459=FACE_BOUND('',#427,.T.);
#460=FACE_BOUND('',#428,.T.);
#461=FACE_BOUND('',#429,.T.);
#462=FACE_BOUND('',#430,.T.);
#463=FACE_BOUND('',#431,.T.);
#464=FACE_BOUND('',#432,.T.);
#465=FACE_BOUND('',#433,.T.);
#466=FACE_BOUND('',#434,.T.);
#467=FACE_BOUND('',#435,.T.);
#468=FACE_BOUND('',#436,.T.);
#469=FACE_BOUND('',#437,.T.);
#470=FACE_BOUND('',#438,.T.);
#471=FACE_BOUND('',#439,.T.);
#472=FACE_BOUND('',#440,.T.);
#473=FACE_BOUND('',#441,.T.);
#474=FACE_BOUND('',#442,.T.);
#475=FACE_BOUND('',#443,.T.);
#476=FACE_BOUND('',#444,.T.);
#477=FACE_BOUND('',#445,.T.);
#478=CYLINDRICAL_SURFACE('',#546,0.0006);
#479=CYLINDRICAL_SURFACE('',#548,0.0055);
#480=CYLINDRICAL_SURFACE('',#551,0.0006);
#481=CYLINDRICAL_SURFACE('',#553,0.0055);
#482=CYLINDRICAL_SURFACE('',#556,0.0006);
#483=CYLINDRICAL_SURFACE('',#558,0.0055);
#484=CYLINDRICAL_SURFACE('',#561,0.0006);
#485=CYLINDRICAL_SURFACE('',#563,0.0055);
#486=CYLINDRICAL_SURFACE('',#566,0.0006);
#487=CYLINDRICAL_SURFACE('',#568,0.0055);
#488=CYLINDRICAL_SURFACE('',#571,0.0006);
#489=CYLINDRICAL_SURFACE('',#573,0.0055);
#490=CYLINDRICAL_SURFACE('',#576,0.0006);
#491=CYLINDRICAL_SURFACE('',#578,0.0055);
#492=CYLINDRICAL_SURFACE('',#581,0.0006);
#493=CYLINDRICAL_SURFACE('',#583,0.0055);
#494=CYLINDRICAL_SURFACE('',#586,0.0006);
#495=CYLINDRICAL_SURFACE('',#588,0.0055);
#496=CYLINDRICAL_SURFACE('',#591,0.0006);
#497=CYLINDRICAL_SURFACE('',#593,0.0055);
#498=CYLINDRICAL_SURFACE('',#596,0.0006);
#499=CYLINDRICAL_SURFACE('',#598,0.0055);
#500=CYLINDRICAL_SURFACE('',#601,0.0006);
#501=CYLINDRICAL_SURFACE('',#603,0.0055);
#502=CYLINDRICAL_SURFACE('',#608,0.00315);
#503=ADVANCED_FACE('',(#446),#478,.F.);
#504=ADVANCED_FACE('',(#447),#479,.T.);
#505=ADVANCED_FACE('',(#448),#480,.F.);
#506=ADVANCED_FACE('',(#449),#481,.T.);
#507=ADVANCED_FACE('',(#450),#482,.F.);
#508=ADVANCED_FACE('',(#451),#483,.T.);
#509=ADVANCED_FACE('',(#452),#484,.F.);
#510=ADVANCED_FACE('',(#453),#485,.T.);
#511=ADVANCED_FACE('',(#454),#486,.F.);
#512=ADVANCED_FACE('',(#455),#487,.T.);
#513=ADVANCED_FACE('',(#456),#488,.F.);
#514=ADVANCED_FACE('',(#457),#489,.T.);
#515=ADVANCED_FACE('',(#458),#490,.F.);
#516=ADVANCED_FACE('',(#459),#491,.T.);
#517=ADVANCED_FACE('',(#460),#492,.F.);
#518=ADVANCED_FACE('',(#461),#493,.T.);
#519=ADVANCED_FACE('',(#462),#494,.F.);
#520=ADVANCED_FACE('',(#463),#495,.T.);
#521=ADVANCED_FACE('',(#464),#496,.F.);
#522=ADVANCED_FACE('',(#465),#497,.T.);
#523=ADVANCED_FACE('',(#466),#498,.F.);
#524=ADVANCED_FACE('',(#467),#499,.T.);
#525=ADVANCED_FACE('',(#468),#500,.F.);
#526=ADVANCED_FACE('',(#469),#501,.T.);
#527=ADVANCED_FACE('',(#470,#471),#13,.F.);
#528=ADVANCED_FACE('',(#472),#502,.F.);
#529=ADVANCED_FACE('',(#473),#14,.T.);
#530=ADVANCED_FACE('',(#474),#15,.F.);
#531=ADVANCED_FACE('',(#475,#476),#12,.T.);
#532=ADVANCED_FACE('',(#477),#16,.T.);
#533=CLOSED_SHELL('',(#503,#504,#505,#506,#507,#508,#509,#510,#511,#512,
#513,#514,#515,#516,#517,#518,#519,#520,#521,#522,#523,#524,#525,#526,#527,
#528,#529,#530,#531,#532));
#534=STYLED_ITEM('',(#535),#542);
#535=PRESENTATION_STYLE_ASSIGNMENT((#536));
#536=SURFACE_STYLE_USAGE(.BOTH.,#537);
#537=SURFACE_SIDE_STYLE('',(#538));
#538=SURFACE_STYLE_FILL_AREA(#539);
#539=FILL_AREA_STYLE('',(#540));
#540=FILL_AREA_STYLE_COLOUR('',#541);
#541=COLOUR_RGB('',0.498039215686275,0.498039215686275,0.498039215686275);
#542=MANIFOLD_SOLID_BREP('Part 1',#533);
#543=SHAPE_DEFINITION_REPRESENTATION(#1096,#544);
#544=SHAPE_REPRESENTATION('Part 1',(#545),#1091);
#545=AXIS2_PLACEMENT_3D('',#783,#615,#616);
#546=AXIS2_PLACEMENT_3D('',#784,#617,#618);
#547=AXIS2_PLACEMENT_3D('',#802,#620,#621);
#548=AXIS2_PLACEMENT_3D('',#805,#623,#624);
#549=AXIS2_PLACEMENT_3D('',#809,#626,#627);
#550=AXIS2_PLACEMENT_3D('',#810,#628,#629);
#551=AXIS2_PLACEMENT_3D('',#811,#630,#631);
#552=AXIS2_PLACEMENT_3D('',#826,#632,#633);
#553=AXIS2_PLACEMENT_3D('',#829,#635,#636);
#554=AXIS2_PLACEMENT_3D('',#833,#638,#639);
#555=AXIS2_PLACEMENT_3D('',#834,#640,#641);
#556=AXIS2_PLACEMENT_3D('',#835,#642,#643);
#557=AXIS2_PLACEMENT_3D('',#850,#644,#645);
#558=AXIS2_PLACEMENT_3D('',#853,#647,#648);
#559=AXIS2_PLACEMENT_3D('',#857,#650,#651);
#560=AXIS2_PLACEMENT_3D('',#858,#652,#653);
#561=AXIS2_PLACEMENT_3D('',#859,#654,#655);
#562=AXIS2_PLACEMENT_3D('',#874,#656,#657);
#563=AXIS2_PLACEMENT_3D('',#877,#659,#660);
#564=AXIS2_PLACEMENT_3D('',#881,#662,#663);
#565=AXIS2_PLACEMENT_3D('',#882,#664,#665);
#566=AXIS2_PLACEMENT_3D('',#883,#666,#667);
#567=AXIS2_PLACEMENT_3D('',#898,#668,#669);
#568=AXIS2_PLACEMENT_3D('',#901,#671,#672);
#569=AXIS2_PLACEMENT_3D('',#905,#674,#675);
#570=AXIS2_PLACEMENT_3D('',#906,#676,#677);
#571=AXIS2_PLACEMENT_3D('',#907,#678,#679);
#572=AXIS2_PLACEMENT_3D('',#922,#680,#681);
#573=AXIS2_PLACEMENT_3D('',#925,#683,#684);
#574=AXIS2_PLACEMENT_3D('',#929,#686,#687);
#575=AXIS2_PLACEMENT_3D('',#930,#688,#689);
#576=AXIS2_PLACEMENT_3D('',#931,#690,#691);
#577=AXIS2_PLACEMENT_3D('',#946,#692,#693);
#578=AXIS2_PLACEMENT_3D('',#949,#695,#696);
#579=AXIS2_PLACEMENT_3D('',#953,#698,#699);
#580=AXIS2_PLACEMENT_3D('',#954,#700,#701);
#581=AXIS2_PLACEMENT_3D('',#955,#702,#703);
#582=AXIS2_PLACEMENT_3D('',#970,#704,#705);
#583=AXIS2_PLACEMENT_3D('',#973,#707,#708);
#584=AXIS2_PLACEMENT_3D('',#977,#710,#711);
#585=AXIS2_PLACEMENT_3D('',#978,#712,#713);
#586=AXIS2_PLACEMENT_3D('',#979,#714,#715);
#587=AXIS2_PLACEMENT_3D('',#994,#716,#717);
#588=AXIS2_PLACEMENT_3D('',#997,#719,#720);
#589=AXIS2_PLACEMENT_3D('',#1001,#722,#723);
#590=AXIS2_PLACEMENT_3D('',#1002,#724,#725);
#591=AXIS2_PLACEMENT_3D('',#1003,#726,#727);
#592=AXIS2_PLACEMENT_3D('',#1018,#728,#729);
#593=AXIS2_PLACEMENT_3D('',#1021,#731,#732);
#594=AXIS2_PLACEMENT_3D('',#1025,#734,#735);
#595=AXIS2_PLACEMENT_3D('',#1026,#736,#737);
#596=AXIS2_PLACEMENT_3D('',#1027,#738,#739);
#597=AXIS2_PLACEMENT_3D('',#1042,#740,#741);
#598=AXIS2_PLACEMENT_3D('',#1045,#743,#744);
#599=AXIS2_PLACEMENT_3D('',#1049,#746,#747);
#600=AXIS2_PLACEMENT_3D('',#1050,#748,#749);
#601=AXIS2_PLACEMENT_3D('',#1051,#750,#751);
#602=AXIS2_PLACEMENT_3D('',#1066,#752,#753);
#603=AXIS2_PLACEMENT_3D('',#1069,#755,#756);
#604=AXIS2_PLACEMENT_3D('',#1070,#757,#758);
#605=AXIS2_PLACEMENT_3D('',#1071,#759,#760);
#606=AXIS2_PLACEMENT_3D('',#1072,#761,#762);
#607=AXIS2_PLACEMENT_3D('',#1076,#764,#765);
#608=AXIS2_PLACEMENT_3D('',#1077,#766,#767);
#609=AXIS2_PLACEMENT_3D('',#1080,#769,#770);
#610=AXIS2_PLACEMENT_3D('',#1083,#772,#773);
#611=AXIS2_PLACEMENT_3D('',#1085,#775,#776);
#612=AXIS2_PLACEMENT_3D('',#1086,#777,#778);
#613=AXIS2_PLACEMENT_3D('',#1087,#779,#780);
#614=AXIS2_PLACEMENT_3D('',#1089,#781,#782);
#615=DIRECTION('',(0.,0.,1.));
#616=DIRECTION('',(1.,0.,0.));
#617=DIRECTION('',(0.,0.,-1.));
#618=DIRECTION('',(-1.,0.,0.));
#619=DIRECTION('',(0.,0.,-1.));
#620=DIRECTION('',(0.,0.,1.));
#621=DIRECTION('',(1.,0.,0.));
#622=DIRECTION('',(0.,0.,-1.));
#623=DIRECTION('',(0.,0.,-1.));
#624=DIRECTION('',(-1.,0.,0.));
#625=DIRECTION('',(0.,0.,-1.));
#626=DIRECTION('',(0.,0.,-1.));
#627=DIRECTION('',(-1.,0.,0.));
#628=DIRECTION('',(0.,0.,1.));
#629=DIRECTION('',(1.,0.,0.));
#630=DIRECTION('',(0.,0.,-1.));
#631=DIRECTION('',(-1.,0.,0.));
#632=DIRECTION('',(0.,0.,1.));
#633=DIRECTION('',(1.,0.,0.));
#634=DIRECTION('',(0.,0.,-1.));
#635=DIRECTION('',(0.,0.,-1.));
#636=DIRECTION('',(-1.,0.,0.));
#637=DIRECTION('',(0.,0.,-1.));
#638=DIRECTION('',(0.,0.,-1.));
#639=DIRECTION('',(-1.,0.,0.));
#640=DIRECTION('',(0.,0.,1.));
#641=DIRECTION('',(1.,0.,0.));
#642=DIRECTION('',(0.,0.,-1.));
#643=DIRECTION('',(-1.,0.,0.));
#644=DIRECTION('',(0.,0.,1.));
#645=DIRECTION('',(1.,0.,0.));
#646=DIRECTION('',(0.,0.,-1.));
#647=DIRECTION('',(0.,0.,-1.));
#648=DIRECTION('',(-1.,0.,0.));
#649=DIRECTION('',(0.,0.,-1.));
#650=DIRECTION('',(0.,0.,-1.));
#651=DIRECTION('',(-1.,0.,0.));
#652=DIRECTION('',(0.,0.,1.));
#653=DIRECTION('',(1.,0.,0.));
#654=DIRECTION('',(0.,0.,-1.));
#655=DIRECTION('',(-1.,0.,0.));
#656=DIRECTION('',(0.,0.,1.));
#657=DIRECTION('',(1.,0.,0.));
#658=DIRECTION('',(0.,0.,-1.));
#659=DIRECTION('',(0.,0.,-1.));
#660=DIRECTION('',(-1.,0.,0.));
#661=DIRECTION('',(0.,0.,-1.));
#662=DIRECTION('',(0.,0.,-1.));
#663=DIRECTION('',(-1.,0.,0.));
#664=DIRECTION('',(0.,0.,1.));
#665=DIRECTION('',(1.,0.,0.));
#666=DIRECTION('',(0.,0.,-1.));
#667=DIRECTION('',(-1.,0.,0.));
#668=DIRECTION('',(0.,0.,1.));
#669=DIRECTION('',(1.,0.,0.));
#670=DIRECTION('',(0.,0.,-1.));
#671=DIRECTION('',(0.,0.,-1.));
#672=DIRECTION('',(-1.,0.,0.));
#673=DIRECTION('',(0.,0.,-1.));
#674=DIRECTION('',(0.,0.,-1.));
#675=DIRECTION('',(-1.,0.,0.));
#676=DIRECTION('',(0.,0.,1.));
#677=DIRECTION('',(1.,0.,0.));
#678=DIRECTION('',(0.,0.,-1.));
#679=DIRECTION('',(-1.,0.,0.));
#680=DIRECTION('',(0.,0.,1.));
#681=DIRECTION('',(1.,0.,0.));
#682=DIRECTION('',(0.,0.,-1.));
#683=DIRECTION('',(0.,0.,-1.));
#684=DIRECTION('',(-1.,0.,0.));
#685=DIRECTION('',(0.,0.,-1.));
#686=DIRECTION('',(0.,0.,-1.));
#687=DIRECTION('',(-1.,0.,0.));
#688=DIRECTION('',(0.,0.,1.));
#689=DIRECTION('',(1.,0.,0.));
#690=DIRECTION('',(0.,0.,-1.));
#691=DIRECTION('',(-1.,0.,0.));
#692=DIRECTION('',(0.,0.,1.));
#693=DIRECTION('',(1.,0.,0.));
#694=DIRECTION('',(0.,0.,-1.));
#695=DIRECTION('',(0.,0.,-1.));
#696=DIRECTION('',(-1.,0.,0.));
#697=DIRECTION('',(0.,0.,-1.));
#698=DIRECTION('',(0.,0.,-1.));
#699=DIRECTION('',(-1.,0.,0.));
#700=DIRECTION('',(0.,0.,1.));
#701=DIRECTION('',(1.,0.,0.));
#702=DIRECTION('',(0.,0.,-1.));
#703=DIRECTION('',(-1.,0.,0.));
#704=DIRECTION('',(0.,0.,1.));
#705=DIRECTION('',(1.,0.,0.));
#706=DIRECTION('',(0.,0.,-1.));
#707=DIRECTION('',(0.,0.,-1.));
#708=DIRECTION('',(-1.,0.,0.));
#709=DIRECTION('',(0.,0.,-1.));
#710=DIRECTION('',(0.,0.,-1.));
#711=DIRECTION('',(-1.,0.,0.));
#712=DIRECTION('',(0.,0.,1.));
#713=DIRECTION('',(1.,0.,0.));
#714=DIRECTION('',(0.,0.,-1.));
#715=DIRECTION('',(-1.,0.,0.));
#716=DIRECTION('',(0.,0.,1.));
#717=DIRECTION('',(1.,0.,0.));
#718=DIRECTION('',(0.,0.,-1.));
#719=DIRECTION('',(0.,0.,-1.));
#720=DIRECTION('',(-1.,0.,0.));
#721=DIRECTION('',(0.,0.,-1.));
#722=DIRECTION('',(0.,0.,-1.));
#723=DIRECTION('',(-1.,0.,0.));
#724=DIRECTION('',(0.,0.,1.));
#725=DIRECTION('',(1.,0.,0.));
#726=DIRECTION('',(0.,0.,-1.));
#727=DIRECTION('',(-1.,0.,0.));
#728=DIRECTION('',(0.,0.,1.));
#729=DIRECTION('',(1.,0.,0.));
#730=DIRECTION('',(0.,0.,-1.));
#731=DIRECTION('',(0.,0.,-1.));
#732=DIRECTION('',(-1.,0.,0.));
#733=DIRECTION('',(0.,0.,-1.));
#734=DIRECTION('',(0.,0.,-1.));
#735=DIRECTION('',(-1.,0.,0.));
#736=DIRECTION('',(0.,0.,1.));
#737=DIRECTION('',(1.,0.,0.));
#738=DIRECTION('',(0.,0.,-1.));
#739=DIRECTION('',(-1.,0.,0.));
#740=DIRECTION('',(0.,0.,1.));
#741=DIRECTION('',(1.,0.,0.));
#742=DIRECTION('',(0.,0.,-1.));
#743=DIRECTION('',(0.,0.,-1.));
#744=DIRECTION('',(-1.,0.,0.));
#745=DIRECTION('',(0.,0.,-1.));
#746=DIRECTION('',(0.,0.,-1.));
#747=DIRECTION('',(-1.,0.,0.));
#748=DIRECTION('',(0.,0.,1.));
#749=DIRECTION('',(1.,0.,0.));
#750=DIRECTION('',(0.,0.,-1.));
#751=DIRECTION('',(-1.,0.,0.));
#752=DIRECTION('',(0.,0.,1.));
#753=DIRECTION('',(1.,0.,0.));
#754=DIRECTION('',(0.,0.,-1.));
#755=DIRECTION('',(0.,0.,-1.));
#756=DIRECTION('',(-1.,0.,0.));
#757=DIRECTION('',(0.,0.,-1.));
#758=DIRECTION('',(-1.,0.,0.));
#759=DIRECTION('',(0.,0.,1.));
#760=DIRECTION('',(1.,0.,0.));
#761=DIRECTION('',(0.,0.,1.));
#762=DIRECTION('',(1.,0.,0.));
#763=DIRECTION('',(-8.34643704761743E-17,-1.,0.));
#764=DIRECTION('',(0.,0.,-1.));
#765=DIRECTION('',(1.,0.,0.));
#766=DIRECTION('',(0.,0.,-1.));
#767=DIRECTION('',(-1.,0.,0.));
#768=DIRECTION('',(0.,0.,-1.));
#769=DIRECTION('',(0.,0.,-1.));
#770=DIRECTION('',(1.,0.,0.));
#771=DIRECTION('',(0.,0.,-1.));
#772=DIRECTION('',(1.,-8.34643704761743E-17,0.));
#773=DIRECTION('',(8.34643704761743E-17,1.,0.));
#774=DIRECTION('',(-8.34643704761743E-17,-1.,0.));
#775=DIRECTION('',(0.,0.,1.));
#776=DIRECTION('',(1.,0.,0.));
#777=DIRECTION('',(0.,0.,-1.));
#778=DIRECTION('',(-1.,0.,0.));
#779=DIRECTION('',(0.,0.,-1.));
#780=DIRECTION('',(-1.,0.,0.));
#781=DIRECTION('',(0.,0.,1.));
#782=DIRECTION('',(1.,0.,0.));
#783=CARTESIAN_POINT('',(0.,0.,0.));
#784=CARTESIAN_POINT('',(2.16840434497101E-18,0.0055,0.026));
#785=CARTESIAN_POINT('',(0.000599106773138008,0.00546727272727273,0.024));
#786=CARTESIAN_POINT('',(0.000595930015297109,0.00540911887024461,0.0241163077140562));
#787=CARTESIAN_POINT('',(0.000572958738580579,0.00529567258041107,0.024346917230139));
#788=CARTESIAN_POINT('',(0.000488938690685584,0.00513484394304758,0.0246844062682258));
#789=CARTESIAN_POINT('',(0.00035964031128944,0.00500731186589869,0.0249610942314417));
#790=CARTESIAN_POINT('',(0.00019283246945848,0.00492357330370678,0.0251470047373374));
#791=CARTESIAN_POINT('',(8.83686167873742E-7,0.00488835756888649,0.02522617506571));
#792=CARTESIAN_POINT('',(-0.000191200884346089,0.00492300012782743,0.0251482866778067));
#793=CARTESIAN_POINT('',(-0.000358626140703283,0.00500657030999329,0.0249627292997536));
#794=CARTESIAN_POINT('',(-0.000487680593186584,0.00513309289493259,0.0246881345362383));
#795=CARTESIAN_POINT('',(-0.000573086831515289,0.0052955416108108,0.0243471564872375));
#796=CARTESIAN_POINT('',(-0.000595928154145595,0.00540908479993007,0.0241163758546853));
#797=CARTESIAN_POINT('',(-0.000599106773138004,0.00546727272727273,0.024));
#798=CARTESIAN_POINT('',(0.000599106773138005,0.00546727272727273,0.024));
#799=CARTESIAN_POINT('',(-0.000599106773138008,0.00546727272727273,0.024));
#800=CARTESIAN_POINT('',(0.000599106773138005,0.00546727272727273,0.026));
#801=CARTESIAN_POINT('',(0.000599106773138005,0.00546727272727273,0.));
#802=CARTESIAN_POINT('',(2.16840434497101E-18,0.0055,0.));
#803=CARTESIAN_POINT('',(-0.000599106773138008,0.00546727272727273,0.));
#804=CARTESIAN_POINT('',(-0.000599106773138008,0.00546727272727273,0.026));
#805=CARTESIAN_POINT('',(-1.24683249835833E-17,4.42354486374086E-17,0.026));
#806=CARTESIAN_POINT('',(-0.00221479467851953,0.00503435045780502,0.026));
#807=CARTESIAN_POINT('',(-0.00221479467851951,0.00503435045780502,0.024));
#808=CARTESIAN_POINT('',(-0.00221479467851953,0.00503435045780502,0.));
#809=CARTESIAN_POINT('',(0.,0.,0.024));
#810=CARTESIAN_POINT('',(-1.24683249835833E-17,4.42354486374086E-17,0.));
#811=CARTESIAN_POINT('',(-0.00275,0.00476313972081442,0.026));
#812=CARTESIAN_POINT('',(-0.00221479467851953,0.00503435045780502,0.024));
#813=CARTESIAN_POINT('',(-0.00218846890299736,0.00498239936137016,0.0241163077140562));
#814=CARTESIAN_POINT('',(-0.00215163946727447,0.00487266635405096,0.024346917230139));
#815=CARTESIAN_POINT('',(-0.00214398864449698,0.00469137464449065,0.0246844062682259));
#816=CARTESIAN_POINT('',(-0.00219219828714776,0.00451627943618423,0.0249610942314417));
#817=CARTESIAN_POINT('',(-0.00229478883462788,0.00436035579313418,0.0251470047373374));
#818=CARTESIAN_POINT('',(-0.00244341348977291,0.00423388368052157,0.02522617506571));
#819=CARTESIAN_POINT('',(-0.00262708488698349,0.00416784273135955,0.0251482866778067));
#820=CARTESIAN_POINT('',(-0.00281386450330687,0.00415650400393549,0.0249627292997536));
#821=CARTESIAN_POINT('',(-0.00298889023009855,0.00420154855040375,0.0246881345362383));
#822=CARTESIAN_POINT('',(-0.00314407856007197,0.00429953014600208,0.0243471564872375));
#823=CARTESIAN_POINT('',(-0.00322063132028549,0.00438644077089092,0.0241163758546853));
#824=CARTESIAN_POINT('',(-0.00325247804875319,0.00443524368466701,0.024));
#825=CARTESIAN_POINT('',(-0.0032524780487532,0.00443524368466701,0.024));
#826=CARTESIAN_POINT('',(-0.00275,0.00476313972081442,0.));
#827=CARTESIAN_POINT('',(-0.0032524780487532,0.00443524368466701,0.));
#828=CARTESIAN_POINT('',(-0.0032524780487532,0.00443524368466701,0.026));
#829=CARTESIAN_POINT('',(-1.17093834628434E-17,1.36609473733174E-17,0.026));
#830=CARTESIAN_POINT('',(-0.00443524368466701,0.0032524780487532,0.026));
#831=CARTESIAN_POINT('',(-0.00443524368466701,0.0032524780487532,0.024));
#832=CARTESIAN_POINT('',(-0.00443524368466701,0.0032524780487532,0.));
#833=CARTESIAN_POINT('',(0.,0.,0.024));
#834=CARTESIAN_POINT('',(-1.17093834628434E-17,1.36609473733174E-17,0.));
#835=CARTESIAN_POINT('',(-0.00476313972081441,0.00275,0.026));
#836=CARTESIAN_POINT('',(-0.00443524368466701,0.0032524780487532,0.024));
#837=CARTESIAN_POINT('',(-0.00438646934607306,0.00322064996724725,0.0241163077140562));
#838=CARTESIAN_POINT('',(-0.00429970761547039,0.00314403311313661,0.024346917230139));
#839=CARTESIAN_POINT('',(-0.00420243595380507,0.00299085529855062,0.0246844062682258));
#840=CARTESIAN_POINT('',(-0.0041566391248948,0.00281511357875095,0.0249610942314417));
#841=CARTESIAN_POINT('',(-0.00416752332367571,0.00262878446907896,0.0251470047373373));
#842=CARTESIAN_POINT('',(-0.00423299999435368,0.00244494407911362,0.02522617506571));
#843=CARTESIAN_POINT('',(-0.00435904361570562,0.00229591524084395,0.0251482866778067));
#844=CARTESIAN_POINT('',(-0.00451513014463875,0.00219270580668644,0.0249627292997536));
#845=CARTESIAN_POINT('',(-0.00468922914359032,0.00214420266483405,0.0246881345362383));
#846=CARTESIAN_POINT('',(-0.00487261697751736,0.00215146305073882,0.0243471564872375));
#847=CARTESIAN_POINT('',(-0.00498236892503651,0.00218845347964458,0.0241163758546853));
#848=CARTESIAN_POINT('',(-0.00503435045780501,0.00221479467851953,0.024));
#849=CARTESIAN_POINT('',(-0.00503435045780502,0.00221479467851953,0.024));
#850=CARTESIAN_POINT('',(-0.00476313972081441,0.00275,0.));
#851=CARTESIAN_POINT('',(-0.00503435045780502,0.00221479467851953,0.));
#852=CARTESIAN_POINT('',(-0.00503435045780502,0.00221479467851953,0.026));
#853=CARTESIAN_POINT('',(-3.72965547335013E-17,9.54097911787244E-18,0.026));
#854=CARTESIAN_POINT('',(-0.00546727272727273,0.000599106773138006,0.026));
#855=CARTESIAN_POINT('',(-0.00546727272727273,0.000599106773137983,0.024));
#856=CARTESIAN_POINT('',(-0.00546727272727273,0.000599106773138006,0.));
#857=CARTESIAN_POINT('',(0.,0.,0.024));
#858=CARTESIAN_POINT('',(-3.72965547335013E-17,9.54097911787244E-18,0.));
#859=CARTESIAN_POINT('',(-0.0055,-2.32019264911898E-17,0.026));
#860=CARTESIAN_POINT('',(-0.00546727272727273,0.000599106773137983,0.024));
#861=CARTESIAN_POINT('',(-0.00540911887024461,0.000595930015297084,0.0241163077140562));
#862=CARTESIAN_POINT('',(-0.00529567258041108,0.000572958738580557,0.024346917230139));
#863=CARTESIAN_POINT('',(-0.0051348439430476,0.000488938690685568,0.0246844062682258));
#864=CARTESIAN_POINT('',(-0.00500731186589871,0.000359640311289441,0.0249610942314417));
#865=CARTESIAN_POINT('',(-0.0049235733037068,0.000192832469458494,0.0251470047373373));
#866=CARTESIAN_POINT('',(-0.00488835756888649,8.8368616791465E-7,0.02522617506571));
#867=CARTESIAN_POINT('',(-0.00492300012782741,-0.000191200884346073,0.0251482866778067));
#868=CARTESIAN_POINT('',(-0.00500657030999328,-0.000358626140703289,0.0249627292997536));
#869=CARTESIAN_POINT('',(-0.00513309289493258,-0.000487680593186599,0.0246881345362383));
#870=CARTESIAN_POINT('',(-0.00529554161081079,-0.000573086831515313,0.0243471564872375));
#871=CARTESIAN_POINT('',(-0.00540908479993007,-0.000595928154145619,0.0241163758546853));
#872=CARTESIAN_POINT('',(-0.00546727272727272,-0.000599106773138029,0.024));
#873=CARTESIAN_POINT('',(-0.00546727272727273,-0.000599106773138007,0.024));
#874=CARTESIAN_POINT('',(-0.0055,-2.32019264911898E-17,0.));
#875=CARTESIAN_POINT('',(-0.00546727272727273,-0.000599106773138007,0.));
#876=CARTESIAN_POINT('',(-0.00546727272727273,-0.000599106773138007,0.026));
#877=CARTESIAN_POINT('',(-3.46944695195361E-17,-9.81202966099381E-18,0.026));
#878=CARTESIAN_POINT('',(-0.00503435045780502,-0.00221479467851953,0.026));
#879=CARTESIAN_POINT('',(-0.00503435045780502,-0.00221479467851952,0.024));
#880=CARTESIAN_POINT('',(-0.00503435045780502,-0.00221479467851953,0.));
#881=CARTESIAN_POINT('',(0.,0.,0.024));
#882=CARTESIAN_POINT('',(-3.46944695195361E-17,-9.81202966099381E-18,0.));
#883=CARTESIAN_POINT('',(-0.00476313972081441,-0.00275,0.026));
#884=CARTESIAN_POINT('',(-0.00503435045780502,-0.00221479467851953,0.024));
#885=CARTESIAN_POINT('',(-0.00498239936137017,-0.00218846890299736,0.0241163077140562));
#886=CARTESIAN_POINT('',(-0.00487266635405096,-0.00215163946727447,0.024346917230139));
#887=CARTESIAN_POINT('',(-0.00469137464449066,-0.00214398864449698,0.0246844062682258));
#888=CARTESIAN_POINT('',(-0.00451627943618425,-0.00219219828714775,0.0249610942314417));
#889=CARTESIAN_POINT('',(-0.0043603557931342,-0.00229478883462785,0.0251470047373373));
#890=CARTESIAN_POINT('',(-0.00423388368052158,-0.00244341348977288,0.02522617506571));
#891=CARTESIAN_POINT('',(-0.00416784273135954,-0.00262708488698348,0.0251482866778067));
#892=CARTESIAN_POINT('',(-0.00415650400393548,-0.00281386450330686,0.0249627292997536));
#893=CARTESIAN_POINT('',(-0.00420154855040373,-0.00298889023009855,0.0246881345362383));
#894=CARTESIAN_POINT('',(-0.00429953014600207,-0.00314407856007197,0.0243471564872375));
#895=CARTESIAN_POINT('',(-0.00438644077089091,-0.00322063132028549,0.0241163758546853));
#896=CARTESIAN_POINT('',(-0.00443524368466701,-0.0032524780487532,0.024));
#897=CARTESIAN_POINT('',(-0.00443524368466701,-0.00325247804875319,0.024));
#898=CARTESIAN_POINT('',(-0.00476313972081441,-0.00275,0.));
#899=CARTESIAN_POINT('',(-0.00443524368466701,-0.00325247804875319,0.));
#900=CARTESIAN_POINT('',(-0.00443524368466701,-0.00325247804875319,0.026));
#901=CARTESIAN_POINT('',(-2.81892564846231E-18,-6.50521303491303E-19,0.026));
#902=CARTESIAN_POINT('',(-0.00325247804875319,-0.00443524368466701,0.026));
#903=CARTESIAN_POINT('',(-0.00325247804875319,-0.00443524368466701,0.024));
#904=CARTESIAN_POINT('',(-0.00325247804875319,-0.00443524368466701,0.));
#905=CARTESIAN_POINT('',(0.,0.,0.024));
#906=CARTESIAN_POINT('',(-2.81892564846231E-18,-6.50521303491303E-19,0.));
#907=CARTESIAN_POINT('',(-0.00275,-0.00476313972081441,0.026));
#908=CARTESIAN_POINT('',(-0.0032524780487532,-0.00443524368466701,0.024));
#909=CARTESIAN_POINT('',(-0.00322064996724725,-0.00438646934607306,0.0241163077140562));
#910=CARTESIAN_POINT('',(-0.00314403311313661,-0.00429970761547039,0.024346917230139));
#911=CARTESIAN_POINT('',(-0.00299085529855063,-0.00420243595380508,0.0246844062682258));
#912=CARTESIAN_POINT('',(-0.00281511357875097,-0.00415663912489481,0.0249610942314417));
#913=CARTESIAN_POINT('',(-0.00262878446907898,-0.0041675233236757,0.0251470047373373));
#914=CARTESIAN_POINT('',(-0.00244494407911364,-0.00423299999435367,0.02522617506571));
#915=CARTESIAN_POINT('',(-0.00229591524084396,-0.00435904361570561,0.0251482866778067));
#916=CARTESIAN_POINT('',(-0.00219270580668644,-0.00451513014463874,0.0249627292997537));
#917=CARTESIAN_POINT('',(-0.00214420266483405,-0.00468922914359031,0.0246881345362383));
#918=CARTESIAN_POINT('',(-0.00215146305073882,-0.00487261697751736,0.0243471564872375));
#919=CARTESIAN_POINT('',(-0.00218845347964458,-0.00498236892503651,0.0241163758546853));
#920=CARTESIAN_POINT('',(-0.00221479467851953,-0.00503435045780502,0.024));
#921=CARTESIAN_POINT('',(-0.00221479467851953,-0.00503435045780502,0.024));
#922=CARTESIAN_POINT('',(-0.00275,-0.00476313972081441,0.));
#923=CARTESIAN_POINT('',(-0.00221479467851953,-0.00503435045780502,0.));
#924=CARTESIAN_POINT('',(-0.00221479467851953,-0.00503435045780502,0.026));
#925=CARTESIAN_POINT('',(-1.14925430283463E-17,-3.38271077815477E-17,0.026));
#926=CARTESIAN_POINT('',(-0.000599106773138008,-0.00546727272727273,0.026));
#927=CARTESIAN_POINT('',(-0.000599106773138024,-0.00546727272727273,0.024));
#928=CARTESIAN_POINT('',(-0.000599106773138008,-0.00546727272727273,0.));
#929=CARTESIAN_POINT('',(0.,0.,0.024));
#930=CARTESIAN_POINT('',(-1.14925430283463E-17,-3.38271077815477E-17,0.));
#931=CARTESIAN_POINT('',(-1.76182853028895E-17,-0.0055,0.026));
#932=CARTESIAN_POINT('',(-0.000599106773138024,-0.00546727272727273,0.024));
#933=CARTESIAN_POINT('',(-0.000595930015297125,-0.00540911887024461,0.0241163077140562));
#934=CARTESIAN_POINT('',(-0.000572958738580596,-0.00529567258041108,0.024346917230139));
#935=CARTESIAN_POINT('',(-0.000488938690685609,-0.0051348439430476,0.0246844062682258));
#936=CARTESIAN_POINT('',(-0.000359640311289475,-0.00500731186589871,0.0249610942314417));
#937=CARTESIAN_POINT('',(-0.000192832469458537,-0.0049235733037068,0.0251470047373373));
#938=CARTESIAN_POINT('',(-8.8368616793189E-7,-0.00488835756888649,0.02522617506571));
#939=CARTESIAN_POINT('',(0.000191200884346055,-0.00492300012782742,0.0251482866778067));
#940=CARTESIAN_POINT('',(0.000358626140703259,-0.00500657030999329,0.0249627292997536));
#941=CARTESIAN_POINT('',(0.000487680593186567,-0.00513309289493259,0.0246881345362383));
#942=CARTESIAN_POINT('',(0.000573086831515274,-0.0052955416108108,0.0243471564872375));
#943=CARTESIAN_POINT('',(0.000595928154145579,-0.00540908479993008,0.0241163758546853));
#944=CARTESIAN_POINT('',(0.000599106773137989,-0.00546727272727273,0.024));
#945=CARTESIAN_POINT('',(0.000599106773138006,-0.00546727272727273,0.024));
#946=CARTESIAN_POINT('',(-1.76182853028895E-17,-0.0055,0.));
#947=CARTESIAN_POINT('',(0.000599106773138006,-0.00546727272727273,0.));
#948=CARTESIAN_POINT('',(0.000599106773138006,-0.00546727272727273,0.026));
#949=CARTESIAN_POINT('',(1.04083408558608E-17,-3.72965547335013E-17,0.026));
#950=CARTESIAN_POINT('',(0.00221479467851953,-0.00503435045780502,0.026));
#951=CARTESIAN_POINT('',(0.00221479467851956,-0.005034350457805,0.024));
#952=CARTESIAN_POINT('',(0.00221479467851953,-0.00503435045780502,0.));
#953=CARTESIAN_POINT('',(0.,0.,0.024));
#954=CARTESIAN_POINT('',(1.04083408558608E-17,-3.72965547335013E-17,0.));
#955=CARTESIAN_POINT('',(0.00275,-0.0047631397208144,0.026));
#956=CARTESIAN_POINT('',(0.00221479467851953,-0.00503435045780501,0.024));
#957=CARTESIAN_POINT('',(0.00218846890299737,-0.00498239936137017,0.0241163077140562));
#958=CARTESIAN_POINT('',(0.00215163946727448,-0.00487266635405098,0.024346917230139));
#959=CARTESIAN_POINT('',(0.00214398864449697,-0.00469137464449071,0.0246844062682258));
#960=CARTESIAN_POINT('',(0.00219219828714772,-0.0045162794361843,0.0249610942314416));
#961=CARTESIAN_POINT('',(0.00229478883462777,-0.00436035579313429,0.0251470047373373));
#962=CARTESIAN_POINT('',(0.00244341348977276,-0.00423388368052163,0.02522617506571));
#963=CARTESIAN_POINT('',(0.00262708488698338,-0.00416784273135954,0.0251482866778068));
#964=CARTESIAN_POINT('',(0.0028138645033068,-0.00415650400393546,0.0249627292997537));
#965=CARTESIAN_POINT('',(0.00298889023009851,-0.00420154855040371,0.0246881345362384));
#966=CARTESIAN_POINT('',(0.00314407856007197,-0.00429953014600205,0.0243471564872376));
#967=CARTESIAN_POINT('',(0.0032206313202855,-0.0043864407708909,0.0241163758546853));
#968=CARTESIAN_POINT('',(0.0032524780487532,-0.004435243684667,0.024));
#969=CARTESIAN_POINT('',(0.0032524780487532,-0.00443524368466701,0.024));
#970=CARTESIAN_POINT('',(0.00275,-0.0047631397208144,0.));
#971=CARTESIAN_POINT('',(0.0032524780487532,-0.00443524368466701,0.));
#972=CARTESIAN_POINT('',(0.0032524780487532,-0.00443524368466701,0.026));
#973=CARTESIAN_POINT('',(4.77048955893622E-18,-3.68628738645072E-18,0.026));
#974=CARTESIAN_POINT('',(0.004435243684667,-0.0032524780487532,0.026));
#975=CARTESIAN_POINT('',(0.004435243684667,-0.00325247804875321,0.024));
#976=CARTESIAN_POINT('',(0.004435243684667,-0.0032524780487532,0.));
#977=CARTESIAN_POINT('',(0.,0.,0.024));
#978=CARTESIAN_POINT('',(4.77048955893622E-18,-3.68628738645072E-18,0.));
#979=CARTESIAN_POINT('',(0.0047631397208144,-0.00275,0.026));
#980=CARTESIAN_POINT('',(0.004435243684667,-0.0032524780487532,0.024));
#981=CARTESIAN_POINT('',(0.00438646934607305,-0.00322064996724725,0.0241163077140562));
#982=CARTESIAN_POINT('',(0.00429970761547038,-0.00314403311313661,0.024346917230139));
#983=CARTESIAN_POINT('',(0.00420243595380506,-0.00299085529855062,0.0246844062682258));
#984=CARTESIAN_POINT('',(0.0041566391248948,-0.00281511357875095,0.0249610942314417));
#985=CARTESIAN_POINT('',(0.00416752332367569,-0.00262878446907894,0.0251470047373374));
#986=CARTESIAN_POINT('',(0.00423299999435369,-0.00244494407911358,0.02522617506571));
#987=CARTESIAN_POINT('',(0.00435904361570565,-0.00229591524084393,0.0251482866778067));
#988=CARTESIAN_POINT('',(0.00451513014463877,-0.00219270580668643,0.0249627292997536));
#989=CARTESIAN_POINT('',(0.00468922914359033,-0.00214420266483405,0.0246881345362383));
#990=CARTESIAN_POINT('',(0.00487261697751736,-0.00215146305073883,0.0243471564872375));
#991=CARTESIAN_POINT('',(0.00498236892503651,-0.00218845347964459,0.0241163758546853));
#992=CARTESIAN_POINT('',(0.00503435045780501,-0.00221479467851953,0.024));
#993=CARTESIAN_POINT('',(0.00503435045780502,-0.00221479467851953,0.024));
#994=CARTESIAN_POINT('',(0.0047631397208144,-0.00275,0.));
#995=CARTESIAN_POINT('',(0.00503435045780502,-0.00221479467851953,0.));
#996=CARTESIAN_POINT('',(0.00503435045780502,-0.00221479467851953,0.026));
#997=CARTESIAN_POINT('',(-2.03830008427275E-17,4.93311988480905E-18,0.026));
#998=CARTESIAN_POINT('',(0.00546727272727273,-0.000599106773138004,0.026));
#999=CARTESIAN_POINT('',(0.00546727272727273,-0.000599106773137978,0.024));
#1000=CARTESIAN_POINT('',(0.00546727272727273,-0.000599106773138004,0.));
#1001=CARTESIAN_POINT('',(0.,0.,0.024));
#1002=CARTESIAN_POINT('',(-2.03830008427275E-17,4.93311988480905E-18,0.));
#1003=CARTESIAN_POINT('',(0.0055,2.87313575708658E-17,0.026));
#1004=CARTESIAN_POINT('',(0.00546727272727273,-0.000599106773137978,0.024));
#1005=CARTESIAN_POINT('',(0.00540911887024462,-0.000595930015297079,0.0241163077140562));
#1006=CARTESIAN_POINT('',(0.00529567258041108,-0.000572958738580551,0.024346917230139));
#1007=CARTESIAN_POINT('',(0.00513484394304761,-0.000488938690685568,0.0246844062682258));
#1008=CARTESIAN_POINT('',(0.00500731186589871,-0.00035964031128944,0.0249610942314417));
#1009=CARTESIAN_POINT('',(0.00492357330370681,-0.000192832469458504,0.0251470047373373));
#1010=CARTESIAN_POINT('',(0.00488835756888649,-8.83686167908243E-7,0.02522617506571));
#1011=CARTESIAN_POINT('',(0.00492300012782741,0.000191200884346086,0.0251482866778067));
#1012=CARTESIAN_POINT('',(0.00500657030999328,0.00035862614070329,0.0249627292997536));
#1013=CARTESIAN_POINT('',(0.00513309289493258,0.000487680593186606,0.0246881345362383));
#1014=CARTESIAN_POINT('',(0.00529554161081079,0.000573086831515317,0.0243471564872375));
#1015=CARTESIAN_POINT('',(0.00540908479993007,0.000595928154145625,0.0241163758546853));
#1016=CARTESIAN_POINT('',(0.00546727272727272,0.000599106773138035,0.024));
#1017=CARTESIAN_POINT('',(0.00546727272727273,0.000599106773138007,0.024));
#1018=CARTESIAN_POINT('',(0.0055,2.87313575708658E-17,0.));
#1019=CARTESIAN_POINT('',(0.00546727272727273,0.000599106773138007,0.));
#1020=CARTESIAN_POINT('',(0.00546727272727273,0.000599106773138007,0.026));
#1021=CARTESIAN_POINT('',(3.38271077815477E-17,1.11672823766007E-17,0.026));
#1022=CARTESIAN_POINT('',(0.00503435045780502,0.00221479467851953,0.026));
#1023=CARTESIAN_POINT('',(0.00503435045780501,0.00221479467851954,0.024));
#1024=CARTESIAN_POINT('',(0.00503435045780502,0.00221479467851953,0.));
#1025=CARTESIAN_POINT('',(0.,0.,0.024));
#1026=CARTESIAN_POINT('',(3.38271077815477E-17,1.11672823766007E-17,0.));
#1027=CARTESIAN_POINT('',(0.0047631397208144,0.00275,0.026));
#1028=CARTESIAN_POINT('',(0.00503435045780501,0.00221479467851953,0.024));
#1029=CARTESIAN_POINT('',(0.00498239936137017,0.00218846890299737,0.0241163077140562));
#1030=CARTESIAN_POINT('',(0.00487266635405097,0.00215163946727447,0.024346917230139));
#1031=CARTESIAN_POINT('',(0.00469137464449068,0.00214398864449697,0.0246844062682258));
#1032=CARTESIAN_POINT('',(0.00451627943618428,0.00219219828714773,0.0249610942314417));
#1033=CARTESIAN_POINT('',(0.00436035579313424,0.00229478883462781,0.0251470047373373));
#1034=CARTESIAN_POINT('',(0.0042338836805216,0.00244341348977282,0.02522617506571));
#1035=CARTESIAN_POINT('',(0.00416784273135954,0.00262708488698344,0.0251482866778067));
#1036=CARTESIAN_POINT('',(0.00415650400393547,0.00281386450330683,0.0249627292997537));
#1037=CARTESIAN_POINT('',(0.00420154855040372,0.00298889023009853,0.0246881345362383));
#1038=CARTESIAN_POINT('',(0.00429953014600206,0.00314407856007198,0.0243471564872375));
#1039=CARTESIAN_POINT('',(0.00438644077089091,0.0032206313202855,0.0241163758546853));
#1040=CARTESIAN_POINT('',(0.004435243684667,0.0032524780487532,0.024));
#1041=CARTESIAN_POINT('',(0.00443524368466701,0.0032524780487532,0.024));
#1042=CARTESIAN_POINT('',(0.0047631397208144,0.00275,0.));
#1043=CARTESIAN_POINT('',(0.00443524368466701,0.0032524780487532,0.));
#1044=CARTESIAN_POINT('',(0.00443524368466701,0.0032524780487532,0.026));
#1045=CARTESIAN_POINT('',(1.06251812903579E-17,9.54097911787244E-18,0.026));
#1046=CARTESIAN_POINT('',(0.0032524780487532,0.00443524368466701,0.026));
#1047=CARTESIAN_POINT('',(0.0032524780487532,0.00443524368466701,0.024));
#1048=CARTESIAN_POINT('',(0.0032524780487532,0.00443524368466701,0.));
#1049=CARTESIAN_POINT('',(0.,0.,0.024));
#1050=CARTESIAN_POINT('',(1.06251812903579E-17,9.54097911787244E-18,0.));
#1051=CARTESIAN_POINT('',(0.00275,0.0047631397208144,0.026));
#1052=CARTESIAN_POINT('',(0.0032524780487532,0.004435243684667,0.024));
#1053=CARTESIAN_POINT('',(0.00322064996724725,0.00438646934607305,0.0241163077140562));
#1054=CARTESIAN_POINT('',(0.0031440331131366,0.00429970761547038,0.0243469172301391));
#1055=CARTESIAN_POINT('',(0.0029908552985506,0.00420243595380505,0.0246844062682259));
#1056=CARTESIAN_POINT('',(0.00281511357875091,0.00415663912489479,0.0249610942314418));
#1057=CARTESIAN_POINT('',(0.00262878446907888,0.0041675233236757,0.0251470047373374));
#1058=CARTESIAN_POINT('',(0.00244494407911351,0.00423299999435373,0.02522617506571));
#1059=CARTESIAN_POINT('',(0.00229591524084389,0.00435904361570569,0.0251482866778066));
#1060=CARTESIAN_POINT('',(0.00219270580668642,0.0045151301446388,0.0249627292997536));
#1061=CARTESIAN_POINT('',(0.00214420266483404,0.00468922914359035,0.0246881345362382));
#1062=CARTESIAN_POINT('',(0.00215146305073883,0.00487261697751738,0.0243471564872375));
#1063=CARTESIAN_POINT('',(0.00218845347964459,0.00498236892503651,0.0241163758546853));
#1064=CARTESIAN_POINT('',(0.00221479467851953,0.00503435045780501,0.024));
#1065=CARTESIAN_POINT('',(0.00221479467851953,0.00503435045780502,0.024));
#1066=CARTESIAN_POINT('',(0.00275,0.0047631397208144,0.));
#1067=CARTESIAN_POINT('',(0.00221479467851953,0.00503435045780502,0.));
#1068=CARTESIAN_POINT('',(0.00221479467851953,0.00503435045780502,0.026));
#1069=CARTESIAN_POINT('',(-3.30681662608079E-18,-1.0842021724855E-17,0.026));
#1070=CARTESIAN_POINT('',(0.,0.,0.024));
#1071=CARTESIAN_POINT('',(-3.30681662608079E-18,-1.0842021724855E-17,0.));
#1072=CARTESIAN_POINT('',(0.,0.,0.));
#1073=CARTESIAN_POINT('',(-0.00178126247364054,0.,0.));
#1074=CARTESIAN_POINT('',(-0.00178126247364054,0.002598,0.));
#1075=CARTESIAN_POINT('',(-0.00178126247364054,-0.002598,0.));
#1076=CARTESIAN_POINT('',(7.58941520739853E-19,2.16840434497101E-19,0.));
#1077=CARTESIAN_POINT('',(7.58941520739853E-19,2.16840434497101E-19,0.006));
#1078=CARTESIAN_POINT('',(-0.00178126247364054,-0.002598,0.006));
#1079=CARTESIAN_POINT('',(-0.00178126247364054,-0.002598,0.006));
#1080=CARTESIAN_POINT('',(7.58941520739853E-19,2.16840434497101E-19,0.006));
#1081=CARTESIAN_POINT('',(-0.00178126247364054,0.002598,0.006));
#1082=CARTESIAN_POINT('',(-0.00178126247364054,0.002598,0.006));
#1083=CARTESIAN_POINT('',(-0.00178126247364054,0.,0.006));
#1084=CARTESIAN_POINT('',(-0.00178126247364054,0.,0.006));
#1085=CARTESIAN_POINT('',(0.,0.,0.006));
#1086=CARTESIAN_POINT('',(0.,0.,0.026));
#1087=CARTESIAN_POINT('',(0.,0.,0.026));
#1088=CARTESIAN_POINT('',(-0.0045,0.,0.026));
#1089=CARTESIAN_POINT('',(0.,0.,0.026));
#1090=MECHANICAL_DESIGN_GEOMETRIC_PRESENTATION_REPRESENTATION('',(#534),
#1091);
#1091=(
GEOMETRIC_REPRESENTATION_CONTEXT(3)
GLOBAL_UNCERTAINTY_ASSIGNED_CONTEXT((#1092))
GLOBAL_UNIT_ASSIGNED_CONTEXT((#1095,#1094,#1093))
REPRESENTATION_CONTEXT('Part 1','TOP_LEVEL_ASSEMBLY_PART')
);
#1092=UNCERTAINTY_MEASURE_WITH_UNIT(LENGTH_MEASURE(2.E-5),#1095,
'DISTANCE_ACCURACY_VALUE','Maximum Tolerance applied to model');
#1093=(
NAMED_UNIT(*)
SI_UNIT($,.STERADIAN.)
SOLID_ANGLE_UNIT()
);
#1094=(
NAMED_UNIT(*)
PLANE_ANGLE_UNIT()
SI_UNIT($,.RADIAN.)
);
#1095=(
LENGTH_UNIT()
NAMED_UNIT(*)
SI_UNIT($,.METRE.)
);
#1096=PRODUCT_DEFINITION_SHAPE('','',#1097);
#1097=PRODUCT_DEFINITION('','',#1099,#1098);
#1098=PRODUCT_DEFINITION_CONTEXT('',#1105,'design');
#1099=PRODUCT_DEFINITION_FORMATION_WITH_SPECIFIED_SOURCE('','',#1101,
 .NOT_KNOWN.);
#1100=PRODUCT_RELATED_PRODUCT_CATEGORY('','',(#1101));
#1101=PRODUCT('Part 1','Part 1','Part 1',(#1103));
#1102=PRODUCT_CATEGORY('','');
#1103=PRODUCT_CONTEXT('',#1105,'mechanical');
#1104=APPLICATION_PROTOCOL_DEFINITION('international standard',
'ap242_managed_model_based_3d_engineering',2020,#1105);
#1105=APPLICATION_CONTEXT('managed model based 3d engineering');
ENDSEC;
END-ISO-10303-21;
