ISO-10303-21;
HEADER;
/* Generated by software containing ST-Developer
 * from STEP Tools, Inc. (www.steptools.com) 
 */
/* OPTION: using custom renumber hook */

FILE_DESCRIPTION(
/* description */ ('STEP AP242 Edition 2',
'CAx-IF Rec.Pracs.---Representation and Presentation of Product Manufa
cturing Information (PMI)---4.0---2014-10-13',
'CAx-IF Rec.Pracs.---3D Tessellated Geometry---0.4---2014-09-14','2;1',
'CAx-IF Rec.Pracs.---User Defined Attributes---1.5---2016-08-15'),
/* implementation_level */ '2;1');

FILE_NAME(
/* name */ 'pcb_cover_mounts',
/* time_stamp */ '2026-05-01T17:29:51Z',
/* author */ (''),
/* organization */ (''),
/* preprocessor_version */ 'ST-DEVELOPER v20',
/* originating_system */ 'ONSHAPE BY PTC INC, 1.214',
/* authorisation */ '  ');

FILE_SCHEMA (('AP242_MANAGED_MODEL_BASED_3D_ENGINEERING_MIM_LF { 1 0 10303 442 3 1 4 }'));
ENDSEC;

DATA;
#10=ELLIPSE('',#584,0.00141421356237309,0.001);
#11=ELLIPSE('',#585,0.00261311690579923,0.001);
#12=ELLIPSE('',#587,0.0014142135623731,0.001);
#13=ELLIPSE('',#589,0.00179995437291681,0.001);
#14=ELLIPSE('',#591,0.00261311690579923,0.001);
#15=ELLIPSE('',#593,0.00141421356237309,0.001);
#16=ELLIPSE('',#595,0.00179995437291681,0.001);
#17=ELLIPSE('',#597,0.00141421356237309,0.001);
#18=SHAPE_REPRESENTATION_RELATIONSHIP('','',#542,#21);
#19=SHAPE_REPRESENTATION_RELATIONSHIP('','',#543,#22);
#20=SHAPE_REPRESENTATION_RELATIONSHIP('','',#544,#23);
#21=ADVANCED_BREP_SHAPE_REPRESENTATION('',(#536),#902);
#22=ADVANCED_BREP_SHAPE_REPRESENTATION('',(#537),#903);
#23=ADVANCED_BREP_SHAPE_REPRESENTATION('',(#538),#904);
#24=CYLINDRICAL_SURFACE('',#552,0.00215);
#25=CYLINDRICAL_SURFACE('',#562,0.00215);
#26=CYLINDRICAL_SURFACE('',#573,0.00215);
#27=CYLINDRICAL_SURFACE('',#583,0.001);
#28=CYLINDRICAL_SURFACE('',#586,0.001);
#29=CYLINDRICAL_SURFACE('',#588,0.001);
#30=CYLINDRICAL_SURFACE('',#590,0.001);
#31=CYLINDRICAL_SURFACE('',#592,0.001);
#32=CYLINDRICAL_SURFACE('',#594,0.001);
#33=CYLINDRICAL_SURFACE('',#596,0.001);
#34=CYLINDRICAL_SURFACE('',#598,0.001);
#35=CIRCLE('',#551,0.00215);
#36=CIRCLE('',#553,0.00215);
#37=CIRCLE('',#561,0.00215);
#38=CIRCLE('',#563,0.00215);
#39=CIRCLE('',#572,0.00215);
#40=CIRCLE('',#574,0.00215);
#41=CIRCLE('',#577,0.001);
#42=CIRCLE('',#578,0.001);
#43=CIRCLE('',#580,0.001);
#44=CIRCLE('',#581,0.001);
#45=ORIENTED_EDGE('',*,*,#175,.T.);
#46=ORIENTED_EDGE('',*,*,#176,.F.);
#47=ORIENTED_EDGE('',*,*,#177,.F.);
#48=ORIENTED_EDGE('',*,*,#178,.T.);
#49=ORIENTED_EDGE('',*,*,#179,.F.);
#50=ORIENTED_EDGE('',*,*,#178,.F.);
#51=ORIENTED_EDGE('',*,*,#180,.T.);
#52=ORIENTED_EDGE('',*,*,#181,.T.);
#53=ORIENTED_EDGE('',*,*,#182,.T.);
#54=ORIENTED_EDGE('',*,*,#181,.F.);
#55=ORIENTED_EDGE('',*,*,#183,.F.);
#56=ORIENTED_EDGE('',*,*,#176,.T.);
#57=ORIENTED_EDGE('',*,*,#177,.T.);
#58=ORIENTED_EDGE('',*,*,#183,.T.);
#59=ORIENTED_EDGE('',*,*,#180,.F.);
#60=ORIENTED_EDGE('',*,*,#184,.F.);
#61=ORIENTED_EDGE('',*,*,#175,.F.);
#62=ORIENTED_EDGE('',*,*,#179,.T.);
#63=ORIENTED_EDGE('',*,*,#182,.F.);
#64=ORIENTED_EDGE('',*,*,#185,.F.);
#65=ORIENTED_EDGE('',*,*,#184,.T.);
#66=ORIENTED_EDGE('',*,*,#185,.T.);
#67=ORIENTED_EDGE('',*,*,#186,.T.);
#68=ORIENTED_EDGE('',*,*,#187,.F.);
#69=ORIENTED_EDGE('',*,*,#188,.F.);
#70=ORIENTED_EDGE('',*,*,#189,.T.);
#71=ORIENTED_EDGE('',*,*,#190,.F.);
#72=ORIENTED_EDGE('',*,*,#189,.F.);
#73=ORIENTED_EDGE('',*,*,#191,.T.);
#74=ORIENTED_EDGE('',*,*,#192,.T.);
#75=ORIENTED_EDGE('',*,*,#193,.F.);
#76=ORIENTED_EDGE('',*,*,#192,.F.);
#77=ORIENTED_EDGE('',*,*,#194,.T.);
#78=ORIENTED_EDGE('',*,*,#187,.T.);
#79=ORIENTED_EDGE('',*,*,#188,.T.);
#80=ORIENTED_EDGE('',*,*,#194,.F.);
#81=ORIENTED_EDGE('',*,*,#191,.F.);
#82=ORIENTED_EDGE('',*,*,#195,.F.);
#83=ORIENTED_EDGE('',*,*,#186,.F.);
#84=ORIENTED_EDGE('',*,*,#190,.T.);
#85=ORIENTED_EDGE('',*,*,#193,.T.);
#86=ORIENTED_EDGE('',*,*,#196,.F.);
#87=ORIENTED_EDGE('',*,*,#195,.T.);
#88=ORIENTED_EDGE('',*,*,#196,.T.);
#89=ORIENTED_EDGE('',*,*,#197,.T.);
#90=ORIENTED_EDGE('',*,*,#198,.T.);
#91=ORIENTED_EDGE('',*,*,#199,.F.);
#92=ORIENTED_EDGE('',*,*,#200,.T.);
#93=ORIENTED_EDGE('',*,*,#199,.T.);
#94=ORIENTED_EDGE('',*,*,#201,.T.);
#95=ORIENTED_EDGE('',*,*,#202,.T.);
#96=ORIENTED_EDGE('',*,*,#203,.T.);
#97=ORIENTED_EDGE('',*,*,#204,.T.);
#98=ORIENTED_EDGE('',*,*,#205,.T.);
#99=ORIENTED_EDGE('',*,*,#206,.F.);
#100=ORIENTED_EDGE('',*,*,#207,.F.);
#101=ORIENTED_EDGE('',*,*,#208,.F.);
#102=ORIENTED_EDGE('',*,*,#209,.T.);
#103=ORIENTED_EDGE('',*,*,#210,.T.);
#104=ORIENTED_EDGE('',*,*,#211,.T.);
#105=ORIENTED_EDGE('',*,*,#197,.F.);
#106=ORIENTED_EDGE('',*,*,#212,.F.);
#107=ORIENTED_EDGE('',*,*,#206,.T.);
#108=ORIENTED_EDGE('',*,*,#213,.T.);
#109=ORIENTED_EDGE('',*,*,#204,.F.);
#110=ORIENTED_EDGE('',*,*,#214,.T.);
#111=ORIENTED_EDGE('',*,*,#208,.T.);
#112=ORIENTED_EDGE('',*,*,#215,.F.);
#113=ORIENTED_EDGE('',*,*,#207,.T.);
#114=ORIENTED_EDGE('',*,*,#212,.T.);
#115=ORIENTED_EDGE('',*,*,#200,.F.);
#116=ORIENTED_EDGE('',*,*,#216,.F.);
#117=ORIENTED_EDGE('',*,*,#205,.F.);
#118=ORIENTED_EDGE('',*,*,#215,.T.);
#119=ORIENTED_EDGE('',*,*,#213,.F.);
#120=ORIENTED_EDGE('',*,*,#217,.F.);
#121=ORIENTED_EDGE('',*,*,#216,.T.);
#122=ORIENTED_EDGE('',*,*,#217,.T.);
#123=ORIENTED_EDGE('',*,*,#218,.T.);
#124=ORIENTED_EDGE('',*,*,#219,.T.);
#125=ORIENTED_EDGE('',*,*,#220,.T.);
#126=ORIENTED_EDGE('',*,*,#221,.T.);
#127=ORIENTED_EDGE('',*,*,#222,.T.);
#128=ORIENTED_EDGE('',*,*,#223,.T.);
#129=ORIENTED_EDGE('',*,*,#224,.F.);
#130=ORIENTED_EDGE('',*,*,#225,.T.);
#131=ORIENTED_EDGE('',*,*,#226,.T.);
#132=ORIENTED_EDGE('',*,*,#227,.T.);
#133=ORIENTED_EDGE('',*,*,#228,.T.);
#134=ORIENTED_EDGE('',*,*,#229,.T.);
#135=ORIENTED_EDGE('',*,*,#221,.F.);
#136=ORIENTED_EDGE('',*,*,#230,.T.);
#137=ORIENTED_EDGE('',*,*,#224,.T.);
#138=ORIENTED_EDGE('',*,*,#231,.T.);
#139=ORIENTED_EDGE('',*,*,#223,.F.);
#140=ORIENTED_EDGE('',*,*,#232,.F.);
#141=ORIENTED_EDGE('',*,*,#201,.F.);
#142=ORIENTED_EDGE('',*,*,#233,.F.);
#143=ORIENTED_EDGE('',*,*,#231,.F.);
#144=ORIENTED_EDGE('',*,*,#229,.F.);
#145=ORIENTED_EDGE('',*,*,#234,.F.);
#146=ORIENTED_EDGE('',*,*,#202,.F.);
#147=ORIENTED_EDGE('',*,*,#232,.T.);
#148=ORIENTED_EDGE('',*,*,#222,.F.);
#149=ORIENTED_EDGE('',*,*,#233,.T.);
#150=ORIENTED_EDGE('',*,*,#198,.F.);
#151=ORIENTED_EDGE('',*,*,#235,.F.);
#152=ORIENTED_EDGE('',*,*,#218,.F.);
#153=ORIENTED_EDGE('',*,*,#234,.T.);
#154=ORIENTED_EDGE('',*,*,#228,.F.);
#155=ORIENTED_EDGE('',*,*,#236,.F.);
#156=ORIENTED_EDGE('',*,*,#203,.F.);
#157=ORIENTED_EDGE('',*,*,#235,.T.);
#158=ORIENTED_EDGE('',*,*,#211,.F.);
#159=ORIENTED_EDGE('',*,*,#237,.F.);
#160=ORIENTED_EDGE('',*,*,#219,.F.);
#161=ORIENTED_EDGE('',*,*,#236,.T.);
#162=ORIENTED_EDGE('',*,*,#227,.F.);
#163=ORIENTED_EDGE('',*,*,#238,.F.);
#164=ORIENTED_EDGE('',*,*,#214,.F.);
#165=ORIENTED_EDGE('',*,*,#237,.T.);
#166=ORIENTED_EDGE('',*,*,#210,.F.);
#167=ORIENTED_EDGE('',*,*,#239,.F.);
#168=ORIENTED_EDGE('',*,*,#225,.F.);
#169=ORIENTED_EDGE('',*,*,#230,.F.);
#170=ORIENTED_EDGE('',*,*,#220,.F.);
#171=ORIENTED_EDGE('',*,*,#238,.T.);
#172=ORIENTED_EDGE('',*,*,#226,.F.);
#173=ORIENTED_EDGE('',*,*,#239,.T.);
#174=ORIENTED_EDGE('',*,*,#209,.F.);
#175=EDGE_CURVE('',#240,#241,#284,.T.);
#176=EDGE_CURVE('',#242,#241,#285,.T.);
#177=EDGE_CURVE('',#243,#242,#286,.T.);
#178=EDGE_CURVE('',#243,#240,#287,.T.);
#179=EDGE_CURVE('',#240,#244,#288,.T.);
#180=EDGE_CURVE('',#243,#245,#289,.T.);
#181=EDGE_CURVE('',#245,#244,#290,.T.);
#182=EDGE_CURVE('',#241,#244,#291,.T.);
#183=EDGE_CURVE('',#242,#245,#292,.T.);
#184=EDGE_CURVE('',#246,#246,#35,.T.);
#185=EDGE_CURVE('',#247,#247,#36,.T.);
#186=EDGE_CURVE('',#248,#249,#293,.T.);
#187=EDGE_CURVE('',#250,#249,#294,.T.);
#188=EDGE_CURVE('',#251,#250,#295,.T.);
#189=EDGE_CURVE('',#251,#248,#296,.T.);
#190=EDGE_CURVE('',#248,#252,#297,.T.);
#191=EDGE_CURVE('',#251,#253,#298,.T.);
#192=EDGE_CURVE('',#253,#252,#299,.T.);
#193=EDGE_CURVE('',#252,#249,#300,.T.);
#194=EDGE_CURVE('',#253,#250,#301,.T.);
#195=EDGE_CURVE('',#254,#254,#37,.T.);
#196=EDGE_CURVE('',#255,#255,#38,.T.);
#197=EDGE_CURVE('',#256,#257,#302,.T.);
#198=EDGE_CURVE('',#257,#258,#303,.T.);
#199=EDGE_CURVE('',#259,#258,#304,.T.);
#200=EDGE_CURVE('',#259,#256,#305,.T.);
#201=EDGE_CURVE('',#258,#260,#306,.F.);
#202=EDGE_CURVE('',#260,#261,#307,.F.);
#203=EDGE_CURVE('',#261,#262,#308,.T.);
#204=EDGE_CURVE('',#262,#263,#309,.T.);
#205=EDGE_CURVE('',#263,#264,#310,.T.);
#206=EDGE_CURVE('',#265,#264,#311,.T.);
#207=EDGE_CURVE('',#259,#265,#312,.T.);
#208=EDGE_CURVE('',#266,#267,#313,.T.);
#209=EDGE_CURVE('',#266,#268,#314,.T.);
#210=EDGE_CURVE('',#268,#269,#315,.F.);
#211=EDGE_CURVE('',#269,#257,#316,.F.);
#212=EDGE_CURVE('',#265,#256,#317,.T.);
#213=EDGE_CURVE('',#264,#267,#318,.T.);
#214=EDGE_CURVE('',#262,#266,#319,.F.);
#215=EDGE_CURVE('',#263,#267,#320,.T.);
#216=EDGE_CURVE('',#270,#270,#39,.T.);
#217=EDGE_CURVE('',#271,#271,#40,.T.);
#218=EDGE_CURVE('',#272,#273,#321,.F.);
#219=EDGE_CURVE('',#273,#274,#322,.T.);
#220=EDGE_CURVE('',#274,#275,#41,.F.);
#221=EDGE_CURVE('',#275,#276,#323,.T.);
#222=EDGE_CURVE('',#276,#277,#42,.F.);
#223=EDGE_CURVE('',#277,#272,#324,.T.);
#224=EDGE_CURVE('',#278,#279,#325,.T.);
#225=EDGE_CURVE('',#278,#280,#43,.T.);
#226=EDGE_CURVE('',#280,#281,#326,.F.);
#227=EDGE_CURVE('',#281,#282,#327,.T.);
#228=EDGE_CURVE('',#282,#283,#328,.F.);
#229=EDGE_CURVE('',#283,#279,#44,.T.);
#230=EDGE_CURVE('',#275,#278,#329,.T.);
#231=EDGE_CURVE('',#279,#276,#330,.T.);
#232=EDGE_CURVE('',#260,#277,#10,.T.);
#233=EDGE_CURVE('',#272,#258,#11,.F.);
#234=EDGE_CURVE('',#261,#283,#12,.T.);
#235=EDGE_CURVE('',#273,#257,#13,.F.);
#236=EDGE_CURVE('',#262,#282,#14,.T.);
#237=EDGE_CURVE('',#274,#269,#15,.F.);
#238=EDGE_CURVE('',#266,#281,#16,.T.);
#239=EDGE_CURVE('',#280,#268,#17,.F.);
#240=VERTEX_POINT('',#757);
#241=VERTEX_POINT('',#758);
#242=VERTEX_POINT('',#760);
#243=VERTEX_POINT('',#762);
#244=VERTEX_POINT('',#766);
#245=VERTEX_POINT('',#768);
#246=VERTEX_POINT('',#776);
#247=VERTEX_POINT('',#779);
#248=VERTEX_POINT('',#784);
#249=VERTEX_POINT('',#785);
#250=VERTEX_POINT('',#787);
#251=VERTEX_POINT('',#789);
#252=VERTEX_POINT('',#793);
#253=VERTEX_POINT('',#795);
#254=VERTEX_POINT('',#803);
#255=VERTEX_POINT('',#806);
#256=VERTEX_POINT('',#811);
#257=VERTEX_POINT('',#812);
#258=VERTEX_POINT('',#814);
#259=VERTEX_POINT('',#816);
#260=VERTEX_POINT('',#820);
#261=VERTEX_POINT('',#822);
#262=VERTEX_POINT('',#824);
#263=VERTEX_POINT('',#826);
#264=VERTEX_POINT('',#828);
#265=VERTEX_POINT('',#830);
#266=VERTEX_POINT('',#834);
#267=VERTEX_POINT('',#835);
#268=VERTEX_POINT('',#837);
#269=VERTEX_POINT('',#839);
#270=VERTEX_POINT('',#849);
#271=VERTEX_POINT('',#852);
#272=VERTEX_POINT('',#856);
#273=VERTEX_POINT('',#857);
#274=VERTEX_POINT('',#859);
#275=VERTEX_POINT('',#861);
#276=VERTEX_POINT('',#863);
#277=VERTEX_POINT('',#865);
#278=VERTEX_POINT('',#869);
#279=VERTEX_POINT('',#870);
#280=VERTEX_POINT('',#872);
#281=VERTEX_POINT('',#874);
#282=VERTEX_POINT('',#876);
#283=VERTEX_POINT('',#878);
#284=LINE('',#756,#331);
#285=LINE('',#759,#332);
#286=LINE('',#761,#333);
#287=LINE('',#763,#334);
#288=LINE('',#765,#335);
#289=LINE('',#767,#336);
#290=LINE('',#769,#337);
#291=LINE('',#771,#338);
#292=LINE('',#772,#339);
#293=LINE('',#783,#340);
#294=LINE('',#786,#341);
#295=LINE('',#788,#342);
#296=LINE('',#790,#343);
#297=LINE('',#792,#344);
#298=LINE('',#794,#345);
#299=LINE('',#796,#346);
#300=LINE('',#798,#347);
#301=LINE('',#799,#348);
#302=LINE('',#810,#349);
#303=LINE('',#813,#350);
#304=LINE('',#815,#351);
#305=LINE('',#817,#352);
#306=LINE('',#819,#353);
#307=LINE('',#821,#354);
#308=LINE('',#823,#355);
#309=LINE('',#825,#356);
#310=LINE('',#827,#357);
#311=LINE('',#829,#358);
#312=LINE('',#831,#359);
#313=LINE('',#833,#360);
#314=LINE('',#836,#361);
#315=LINE('',#838,#362);
#316=LINE('',#840,#363);
#317=LINE('',#841,#364);
#318=LINE('',#842,#365);
#319=LINE('',#844,#366);
#320=LINE('',#845,#367);
#321=LINE('',#855,#368);
#322=LINE('',#858,#369);
#323=LINE('',#862,#370);
#324=LINE('',#866,#371);
#325=LINE('',#868,#372);
#326=LINE('',#873,#373);
#327=LINE('',#875,#374);
#328=LINE('',#877,#375);
#329=LINE('',#881,#376);
#330=LINE('',#882,#377);
#331=VECTOR('',#603,1.);
#332=VECTOR('',#604,1.);
#333=VECTOR('',#605,1.);
#334=VECTOR('',#606,1.);
#335=VECTOR('',#609,1.);
#336=VECTOR('',#610,1.);
#337=VECTOR('',#611,1.);
#338=VECTOR('',#614,1.);
#339=VECTOR('',#615,1.);
#340=VECTOR('',#632,1.);
#341=VECTOR('',#633,1.);
#342=VECTOR('',#634,1.);
#343=VECTOR('',#635,1.);
#344=VECTOR('',#638,1.);
#345=VECTOR('',#639,1.);
#346=VECTOR('',#640,1.);
#347=VECTOR('',#643,1.);
#348=VECTOR('',#644,1.);
#349=VECTOR('',#661,1.);
#350=VECTOR('',#662,1.);
#351=VECTOR('',#663,1.);
#352=VECTOR('',#664,1.);
#353=VECTOR('',#667,1.);
#354=VECTOR('',#668,1.);
#355=VECTOR('',#669,1.);
#356=VECTOR('',#670,1.);
#357=VECTOR('',#671,1.);
#358=VECTOR('',#672,1.);
#359=VECTOR('',#673,1.);
#360=VECTOR('',#676,1.);
#361=VECTOR('',#677,1.);
#362=VECTOR('',#678,1.);
#363=VECTOR('',#679,1.);
#364=VECTOR('',#680,1.);
#365=VECTOR('',#681,1.);
#366=VECTOR('',#684,1.);
#367=VECTOR('',#685,1.);
#368=VECTOR('',#700,1.);
#369=VECTOR('',#701,1.);
#370=VECTOR('',#704,1.);
#371=VECTOR('',#707,1.);
#372=VECTOR('',#710,1.);
#373=VECTOR('',#713,1.);
#374=VECTOR('',#714,1.);
#375=VECTOR('',#715,1.);
#376=VECTOR('',#720,1.);
#377=VECTOR('',#721,1.);
#378=EDGE_LOOP('',(#45,#46,#47,#48));
#379=EDGE_LOOP('',(#49,#50,#51,#52));
#380=EDGE_LOOP('',(#53,#54,#55,#56));
#381=EDGE_LOOP('',(#57,#58,#59));
#382=EDGE_LOOP('',(#60));
#383=EDGE_LOOP('',(#61,#62,#63));
#384=EDGE_LOOP('',(#64));
#385=EDGE_LOOP('',(#65));
#386=EDGE_LOOP('',(#66));
#387=EDGE_LOOP('',(#67,#68,#69,#70));
#388=EDGE_LOOP('',(#71,#72,#73,#74));
#389=EDGE_LOOP('',(#75,#76,#77,#78));
#390=EDGE_LOOP('',(#79,#80,#81));
#391=EDGE_LOOP('',(#82));
#392=EDGE_LOOP('',(#83,#84,#85));
#393=EDGE_LOOP('',(#86));
#394=EDGE_LOOP('',(#87));
#395=EDGE_LOOP('',(#88));
#396=EDGE_LOOP('',(#89,#90,#91,#92));
#397=EDGE_LOOP('',(#93,#94,#95,#96,#97,#98,#99,#100));
#398=EDGE_LOOP('',(#101,#102,#103,#104,#105,#106,#107,#108));
#399=EDGE_LOOP('',(#109,#110,#111,#112));
#400=EDGE_LOOP('',(#113,#114,#115));
#401=EDGE_LOOP('',(#116));
#402=EDGE_LOOP('',(#117,#118,#119));
#403=EDGE_LOOP('',(#120));
#404=EDGE_LOOP('',(#121));
#405=EDGE_LOOP('',(#122));
#406=EDGE_LOOP('',(#123,#124,#125,#126,#127,#128));
#407=EDGE_LOOP('',(#129,#130,#131,#132,#133,#134));
#408=EDGE_LOOP('',(#135,#136,#137,#138));
#409=EDGE_LOOP('',(#139,#140,#141,#142));
#410=EDGE_LOOP('',(#143,#144,#145,#146,#147,#148));
#411=EDGE_LOOP('',(#149,#150,#151,#152));
#412=EDGE_LOOP('',(#153,#154,#155,#156));
#413=EDGE_LOOP('',(#157,#158,#159,#160));
#414=EDGE_LOOP('',(#161,#162,#163,#164));
#415=EDGE_LOOP('',(#165,#166,#167,#168,#169,#170));
#416=EDGE_LOOP('',(#171,#172,#173,#174));
#417=FACE_BOUND('',#378,.T.);
#418=FACE_BOUND('',#379,.T.);
#419=FACE_BOUND('',#380,.T.);
#420=FACE_BOUND('',#381,.T.);
#421=FACE_BOUND('',#382,.T.);
#422=FACE_BOUND('',#383,.T.);
#423=FACE_BOUND('',#384,.T.);
#424=FACE_BOUND('',#385,.T.);
#425=FACE_BOUND('',#386,.T.);
#426=FACE_BOUND('',#387,.T.);
#427=FACE_BOUND('',#388,.T.);
#428=FACE_BOUND('',#389,.T.);
#429=FACE_BOUND('',#390,.T.);
#430=FACE_BOUND('',#391,.T.);
#431=FACE_BOUND('',#392,.T.);
#432=FACE_BOUND('',#393,.T.);
#433=FACE_BOUND('',#394,.T.);
#434=FACE_BOUND('',#395,.T.);
#435=FACE_BOUND('',#396,.T.);
#436=FACE_BOUND('',#397,.T.);
#437=FACE_BOUND('',#398,.T.);
#438=FACE_BOUND('',#399,.T.);
#439=FACE_BOUND('',#400,.T.);
#440=FACE_BOUND('',#401,.T.);
#441=FACE_BOUND('',#402,.T.);
#442=FACE_BOUND('',#403,.T.);
#443=FACE_BOUND('',#404,.T.);
#444=FACE_BOUND('',#405,.T.);
#445=FACE_BOUND('',#406,.T.);
#446=FACE_BOUND('',#407,.T.);
#447=FACE_BOUND('',#408,.T.);
#448=FACE_BOUND('',#409,.T.);
#449=FACE_BOUND('',#410,.T.);
#450=FACE_BOUND('',#411,.T.);
#451=FACE_BOUND('',#412,.T.);
#452=FACE_BOUND('',#413,.T.);
#453=FACE_BOUND('',#414,.T.);
#454=FACE_BOUND('',#415,.T.);
#455=FACE_BOUND('',#416,.T.);
#456=PLANE('',#546);
#457=PLANE('',#547);
#458=PLANE('',#548);
#459=PLANE('',#549);
#460=PLANE('',#550);
#461=PLANE('',#554);
#462=PLANE('',#556);
#463=PLANE('',#557);
#464=PLANE('',#558);
#465=PLANE('',#559);
#466=PLANE('',#560);
#467=PLANE('',#564);
#468=PLANE('',#566);
#469=PLANE('',#567);
#470=PLANE('',#568);
#471=PLANE('',#569);
#472=PLANE('',#570);
#473=PLANE('',#571);
#474=PLANE('',#575);
#475=PLANE('',#576);
#476=PLANE('',#579);
#477=PLANE('',#582);
#478=ADVANCED_FACE('',(#417),#456,.F.);
#479=ADVANCED_FACE('',(#418),#457,.T.);
#480=ADVANCED_FACE('',(#419),#458,.F.);
#481=ADVANCED_FACE('',(#420),#459,.F.);
#482=ADVANCED_FACE('',(#421,#422),#460,.T.);
#483=ADVANCED_FACE('',(#423,#424),#24,.F.);
#484=ADVANCED_FACE('',(#425),#461,.T.);
#485=ADVANCED_FACE('',(#426),#462,.F.);
#486=ADVANCED_FACE('',(#427),#463,.T.);
#487=ADVANCED_FACE('',(#428),#464,.T.);
#488=ADVANCED_FACE('',(#429),#465,.F.);
#489=ADVANCED_FACE('',(#430,#431),#466,.T.);
#490=ADVANCED_FACE('',(#432,#433),#25,.F.);
#491=ADVANCED_FACE('',(#434),#467,.T.);
#492=ADVANCED_FACE('',(#435),#468,.T.);
#493=ADVANCED_FACE('',(#436),#469,.F.);
#494=ADVANCED_FACE('',(#437),#470,.F.);
#495=ADVANCED_FACE('',(#438),#471,.T.);
#496=ADVANCED_FACE('',(#439),#472,.F.);
#497=ADVANCED_FACE('',(#440,#441),#473,.T.);
#498=ADVANCED_FACE('',(#442,#443),#26,.F.);
#499=ADVANCED_FACE('',(#444),#474,.T.);
#500=ADVANCED_FACE('',(#445),#475,.T.);
#501=ADVANCED_FACE('',(#446),#476,.F.);
#502=ADVANCED_FACE('',(#447),#477,.T.);
#503=ADVANCED_FACE('',(#448),#27,.T.);
#504=ADVANCED_FACE('',(#449),#28,.T.);
#505=ADVANCED_FACE('',(#450),#29,.T.);
#506=ADVANCED_FACE('',(#451),#30,.T.);
#507=ADVANCED_FACE('',(#452),#31,.T.);
#508=ADVANCED_FACE('',(#453),#32,.T.);
#509=ADVANCED_FACE('',(#454),#33,.T.);
#510=ADVANCED_FACE('',(#455),#34,.T.);
#511=CLOSED_SHELL('',(#478,#479,#480,#481,#482,#483,#484));
#512=CLOSED_SHELL('',(#485,#486,#487,#488,#489,#490,#491));
#513=CLOSED_SHELL('',(#492,#493,#494,#495,#496,#497,#498,#499,#500,#501,
#502,#503,#504,#505,#506,#507,#508,#509,#510));
#514=STYLED_ITEM('',(#517),#536);
#515=STYLED_ITEM('',(#518),#537);
#516=STYLED_ITEM('',(#519),#538);
#517=PRESENTATION_STYLE_ASSIGNMENT((#520));
#518=PRESENTATION_STYLE_ASSIGNMENT((#521));
#519=PRESENTATION_STYLE_ASSIGNMENT((#522));
#520=SURFACE_STYLE_USAGE(.BOTH.,#523);
#521=SURFACE_STYLE_USAGE(.BOTH.,#524);
#522=SURFACE_STYLE_USAGE(.BOTH.,#525);
#523=SURFACE_SIDE_STYLE('',(#526));
#524=SURFACE_SIDE_STYLE('',(#527));
#525=SURFACE_SIDE_STYLE('',(#528));
#526=SURFACE_STYLE_FILL_AREA(#529);
#527=SURFACE_STYLE_FILL_AREA(#530);
#528=SURFACE_STYLE_FILL_AREA(#531);
#529=FILL_AREA_STYLE('',(#532));
#530=FILL_AREA_STYLE('',(#533));
#531=FILL_AREA_STYLE('',(#534));
#532=FILL_AREA_STYLE_COLOUR('',#535);
#533=FILL_AREA_STYLE_COLOUR('',#535);
#534=FILL_AREA_STYLE_COLOUR('',#535);
#535=COLOUR_RGB('',0.972549019607843,0.529411764705882,0.00392156862745098);
#536=MANIFOLD_SOLID_BREP('Part 1',#511);
#537=MANIFOLD_SOLID_BREP('Part 2',#512);
#538=MANIFOLD_SOLID_BREP('Part 3',#513);
#539=SHAPE_DEFINITION_REPRESENTATION(#917,#542);
#540=SHAPE_DEFINITION_REPRESENTATION(#918,#543);
#541=SHAPE_DEFINITION_REPRESENTATION(#919,#544);
#542=SHAPE_REPRESENTATION('Part 1',(#545),#902);
#543=SHAPE_REPRESENTATION('Part 2',(#555),#903);
#544=SHAPE_REPRESENTATION('Part 3',(#565),#904);
#545=AXIS2_PLACEMENT_3D('',#754,#599,#600);
#546=AXIS2_PLACEMENT_3D('',#755,#601,#602);
#547=AXIS2_PLACEMENT_3D('',#764,#607,#608);
#548=AXIS2_PLACEMENT_3D('',#770,#612,#613);
#549=AXIS2_PLACEMENT_3D('',#773,#616,#617);
#550=AXIS2_PLACEMENT_3D('',#774,#618,#619);
#551=AXIS2_PLACEMENT_3D('',#775,#620,#621);
#552=AXIS2_PLACEMENT_3D('',#777,#622,#623);
#553=AXIS2_PLACEMENT_3D('',#778,#624,#625);
#554=AXIS2_PLACEMENT_3D('',#780,#626,#627);
#555=AXIS2_PLACEMENT_3D('',#781,#628,#629);
#556=AXIS2_PLACEMENT_3D('',#782,#630,#631);
#557=AXIS2_PLACEMENT_3D('',#791,#636,#637);
#558=AXIS2_PLACEMENT_3D('',#797,#641,#642);
#559=AXIS2_PLACEMENT_3D('',#800,#645,#646);
#560=AXIS2_PLACEMENT_3D('',#801,#647,#648);
#561=AXIS2_PLACEMENT_3D('',#802,#649,#650);
#562=AXIS2_PLACEMENT_3D('',#804,#651,#652);
#563=AXIS2_PLACEMENT_3D('',#805,#653,#654);
#564=AXIS2_PLACEMENT_3D('',#807,#655,#656);
#565=AXIS2_PLACEMENT_3D('',#808,#657,#658);
#566=AXIS2_PLACEMENT_3D('',#809,#659,#660);
#567=AXIS2_PLACEMENT_3D('',#818,#665,#666);
#568=AXIS2_PLACEMENT_3D('',#832,#674,#675);
#569=AXIS2_PLACEMENT_3D('',#843,#682,#683);
#570=AXIS2_PLACEMENT_3D('',#846,#686,#687);
#571=AXIS2_PLACEMENT_3D('',#847,#688,#689);
#572=AXIS2_PLACEMENT_3D('',#848,#690,#691);
#573=AXIS2_PLACEMENT_3D('',#850,#692,#693);
#574=AXIS2_PLACEMENT_3D('',#851,#694,#695);
#575=AXIS2_PLACEMENT_3D('',#853,#696,#697);
#576=AXIS2_PLACEMENT_3D('',#854,#698,#699);
#577=AXIS2_PLACEMENT_3D('',#860,#702,#703);
#578=AXIS2_PLACEMENT_3D('',#864,#705,#706);
#579=AXIS2_PLACEMENT_3D('',#867,#708,#709);
#580=AXIS2_PLACEMENT_3D('',#871,#711,#712);
#581=AXIS2_PLACEMENT_3D('',#879,#716,#717);
#582=AXIS2_PLACEMENT_3D('',#880,#718,#719);
#583=AXIS2_PLACEMENT_3D('',#883,#722,#723);
#584=AXIS2_PLACEMENT_3D('',#884,#724,#725);
#585=AXIS2_PLACEMENT_3D('',#885,#726,#727);
#586=AXIS2_PLACEMENT_3D('',#886,#728,#729);
#587=AXIS2_PLACEMENT_3D('',#887,#730,#731);
#588=AXIS2_PLACEMENT_3D('',#888,#732,#733);
#589=AXIS2_PLACEMENT_3D('',#889,#734,#735);
#590=AXIS2_PLACEMENT_3D('',#890,#736,#737);
#591=AXIS2_PLACEMENT_3D('',#891,#738,#739);
#592=AXIS2_PLACEMENT_3D('',#892,#740,#741);
#593=AXIS2_PLACEMENT_3D('',#893,#742,#743);
#594=AXIS2_PLACEMENT_3D('',#894,#744,#745);
#595=AXIS2_PLACEMENT_3D('',#895,#746,#747);
#596=AXIS2_PLACEMENT_3D('',#896,#748,#749);
#597=AXIS2_PLACEMENT_3D('',#897,#750,#751);
#598=AXIS2_PLACEMENT_3D('',#898,#752,#753);
#599=DIRECTION('',(0.,0.,1.));
#600=DIRECTION('',(1.,0.,0.));
#601=DIRECTION('',(0.115884224681244,-0.993262727816778,0.));
#602=DIRECTION('',(0.993262727816778,0.115884224681244,0.));
#603=DIRECTION('',(0.993262727816778,0.115884224681244,0.));
#604=DIRECTION('',(0.,0.,1.));
#605=DIRECTION('',(0.993262727816778,0.115884224681244,0.));
#606=DIRECTION('',(0.,0.,1.));
#607=DIRECTION('',(-0.707104758269508,-0.7071088040978,0.));
#608=DIRECTION('',(0.7071088040978,-0.707104758269508,0.));
#609=DIRECTION('',(0.7071088040978,-0.707104758269508,0.));
#610=DIRECTION('',(0.7071088040978,-0.707104758269508,0.));
#611=DIRECTION('',(0.,0.,1.));
#612=DIRECTION('',(-0.944533510867116,0.328415052713848,0.));
#613=DIRECTION('',(-0.328415052713848,-0.944533510867116,0.));
#614=DIRECTION('',(-0.328415052713848,-0.944533510867116,0.));
#615=DIRECTION('',(-0.328415052713848,-0.944533510867116,0.));
#616=DIRECTION('',(0.,0.,1.));
#617=DIRECTION('',(1.,0.,0.));
#618=DIRECTION('',(0.,0.,1.));
#619=DIRECTION('',(1.,0.,0.));
#620=DIRECTION('',(0.,0.,1.));
#621=DIRECTION('',(1.,0.,0.));
#622=DIRECTION('',(0.,0.,1.));
#623=DIRECTION('',(1.,0.,0.));
#624=DIRECTION('',(0.,0.,1.));
#625=DIRECTION('',(1.,0.,0.));
#626=DIRECTION('',(0.,0.,1.));
#627=DIRECTION('',(1.,0.,0.));
#628=DIRECTION('',(0.,0.,1.));
#629=DIRECTION('',(1.,0.,0.));
#630=DIRECTION('',(-1.,0.,0.));
#631=DIRECTION('',(0.,0.,1.));
#632=DIRECTION('',(0.,-1.,0.));
#633=DIRECTION('',(0.,0.,1.));
#634=DIRECTION('',(0.,-1.,0.));
#635=DIRECTION('',(0.,0.,1.));
#636=DIRECTION('',(-0.115884224681244,0.993262727816778,0.));
#637=DIRECTION('',(-0.993262727816778,-0.115884224681244,0.));
#638=DIRECTION('',(-0.993262727816778,-0.115884224681244,0.));
#639=DIRECTION('',(-0.993262727816778,-0.115884224681244,0.));
#640=DIRECTION('',(0.,0.,1.));
#641=DIRECTION('',(-0.664874339751038,-0.746955227801922,0.));
#642=DIRECTION('',(0.746955227801922,-0.664874339751038,0.));
#643=DIRECTION('',(0.746955227801922,-0.664874339751038,0.));
#644=DIRECTION('',(0.746955227801922,-0.664874339751038,0.));
#645=DIRECTION('',(0.,0.,1.));
#646=DIRECTION('',(1.,0.,0.));
#647=DIRECTION('',(0.,0.,1.));
#648=DIRECTION('',(1.,0.,0.));
#649=DIRECTION('',(0.,0.,1.));
#650=DIRECTION('',(1.,0.,0.));
#651=DIRECTION('',(0.,0.,1.));
#652=DIRECTION('',(1.,0.,0.));
#653=DIRECTION('',(0.,0.,1.));
#654=DIRECTION('',(1.,0.,0.));
#655=DIRECTION('',(0.,0.,1.));
#656=DIRECTION('',(1.,0.,0.));
#657=DIRECTION('',(0.,0.,1.));
#658=DIRECTION('',(1.,0.,0.));
#659=DIRECTION('',(1.,0.,0.));
#660=DIRECTION('',(0.,0.,-1.));
#661=DIRECTION('',(0.,0.,1.));
#662=DIRECTION('',(0.,-1.,0.));
#663=DIRECTION('',(0.,0.,1.));
#664=DIRECTION('',(0.,1.,0.));
#665=DIRECTION('',(0.707104758269508,0.7071088040978,0.));
#666=DIRECTION('',(-0.7071088040978,0.707104758269508,0.));
#667=DIRECTION('',(0.7071088040978,-0.707104758269508,0.));
#668=DIRECTION('',(2.89120579329468E-16,-2.89118925083032E-16,-1.));
#669=DIRECTION('',(0.7071088040978,-0.707104758269508,0.));
#670=DIRECTION('',(0.,0.,1.));
#671=DIRECTION('',(-0.7071088040978,0.707104758269508,0.));
#672=DIRECTION('',(0.,0.,1.));
#673=DIRECTION('',(-0.7071088040978,0.707104758269508,0.));
#674=DIRECTION('',(0.382684753897049,-0.923878985113719,0.));
#675=DIRECTION('',(0.923878985113719,0.382684753897049,0.));
#676=DIRECTION('',(0.,0.,1.));
#677=DIRECTION('',(-0.923878985113719,-0.382684753897049,0.));
#678=DIRECTION('',(-2.89120579329468E-16,-1.19758149638668E-16,1.));
#679=DIRECTION('',(-0.923878985113719,-0.382684753897049,0.));
#680=DIRECTION('',(0.923878985113719,0.382684753897049,0.));
#681=DIRECTION('',(0.923878985113719,0.382684753897049,0.));
#682=DIRECTION('',(1.,0.,0.));
#683=DIRECTION('',(0.,0.,-1.));
#684=DIRECTION('',(0.,-1.,0.));
#685=DIRECTION('',(0.,1.,0.));
#686=DIRECTION('',(0.,0.,1.));
#687=DIRECTION('',(1.,0.,0.));
#688=DIRECTION('',(0.,0.,1.));
#689=DIRECTION('',(1.,0.,0.));
#690=DIRECTION('',(0.,0.,1.));
#691=DIRECTION('',(1.,0.,0.));
#692=DIRECTION('',(0.,0.,1.));
#693=DIRECTION('',(1.,0.,0.));
#694=DIRECTION('',(0.,0.,1.));
#695=DIRECTION('',(1.,0.,0.));
#696=DIRECTION('',(0.,0.,1.));
#697=DIRECTION('',(1.,0.,0.));
#698=DIRECTION('',(0.,0.,1.));
#699=DIRECTION('',(1.,0.,0.));
#700=DIRECTION('',(0.,-1.,0.));
#701=DIRECTION('',(-0.923878985113719,-0.382684753897049,0.));
#702=DIRECTION('',(0.,0.,1.));
#703=DIRECTION('',(1.,0.,0.));
#704=DIRECTION('',(0.,-1.,0.));
#705=DIRECTION('',(0.,0.,1.));
#706=DIRECTION('',(1.,0.,0.));
#707=DIRECTION('',(0.7071088040978,-0.707104758269508,0.));
#708=DIRECTION('',(0.,0.,1.));
#709=DIRECTION('',(1.,0.,0.));
#710=DIRECTION('',(0.,-1.,0.));
#711=DIRECTION('',(0.,0.,1.));
#712=DIRECTION('',(1.,0.,0.));
#713=DIRECTION('',(-0.923878985113719,-0.382684753897049,0.));
#714=DIRECTION('',(0.,-1.,0.));
#715=DIRECTION('',(0.7071088040978,-0.707104758269508,0.));
#716=DIRECTION('',(0.,0.,1.));
#717=DIRECTION('',(1.,0.,0.));
#718=DIRECTION('',(1.,0.,2.89120579329468E-16));
#719=DIRECTION('',(2.89120579329468E-16,0.,-1.));
#720=DIRECTION('',(-2.89120579329468E-16,-1.19758149638668E-16,1.));
#721=DIRECTION('',(2.89120579329468E-16,-2.89118925083031E-16,-1.));
#722=DIRECTION('',(-0.7071088040978,0.707104758269508,0.));
#723=DIRECTION('',(-0.707104758269508,-0.7071088040978,0.));
#724=DIRECTION('',(-0.500001430414264,0.499998569581644,0.707106781186547));
#725=DIRECTION('',(-0.500001430414264,0.499998569581644,-0.707106781186548));
#726=DIRECTION('',(-0.923878985113718,-0.38268475389705,0.));
#727=DIRECTION('',(0.38268475389705,-0.923878985113718,0.));
#728=DIRECTION('',(-2.89120579329468E-16,2.89118925083031E-16,1.));
#729=DIRECTION('',(1.,0.,2.89120579329468E-16));
#730=DIRECTION('',(0.500001430414264,-0.499998569581644,0.707106781186548));
#731=DIRECTION('',(0.500001430414264,-0.499998569581644,-0.707106781186547));
#732=DIRECTION('',(0.,-1.,0.));
#733=DIRECTION('',(0.,0.,-1.));
#734=DIRECTION('',(0.831470009650694,-0.555569638345613,0.));
#735=DIRECTION('',(-0.555569638345613,-0.831470009650694,0.));
#736=DIRECTION('',(0.7071088040978,-0.707104758269508,0.));
#737=DIRECTION('',(0.707104758269508,0.7071088040978,0.));
#738=DIRECTION('',(0.923878985113718,0.38268475389705,0.));
#739=DIRECTION('',(-0.38268475389705,0.923878985113718,0.));
#740=DIRECTION('',(0.923878985113719,0.382684753897049,0.));
#741=DIRECTION('',(-0.382684753897049,0.923878985113719,0.));
#742=DIRECTION('',(0.653281095369656,0.270598984537309,-0.707106781186547));
#743=DIRECTION('',(-0.653281095369656,-0.270598984537308,-0.707106781186548));
#744=DIRECTION('',(0.,1.,0.));
#745=DIRECTION('',(0.,0.,1.));
#746=DIRECTION('',(-0.831470009650694,0.555569638345613,0.));
#747=DIRECTION('',(0.555569638345613,0.831470009650694,0.));
#748=DIRECTION('',(2.89120579329468E-16,1.19758149638668E-16,-1.));
#749=DIRECTION('',(-1.,0.,-2.89120579329468E-16));
#750=DIRECTION('',(-0.653281095369656,-0.270598984537308,-0.707106781186548));
#751=DIRECTION('',(-0.653281095369656,-0.270598984537309,0.707106781186547));
#752=DIRECTION('',(-0.923878985113719,-0.382684753897049,0.));
#753=DIRECTION('',(0.382684753897049,-0.923878985113719,0.));
#754=CARTESIAN_POINT('',(0.,0.,0.));
#755=CARTESIAN_POINT('',(-0.103744305395007,0.114835124500493,-0.075));
#756=CARTESIAN_POINT('',(-0.103744305395007,0.114835124500493,0.));
#757=CARTESIAN_POINT('',(-0.113676932673175,0.113676282253681,0.));
#758=CARTESIAN_POINT('',(-0.093811678116839,0.115993966747306,0.));
#759=CARTESIAN_POINT('',(-0.093811678116839,0.115993966747306,-0.075));
#760=CARTESIAN_POINT('',(-0.093811678116839,0.115993966747306,-0.075));
#761=CARTESIAN_POINT('',(-0.103744305395007,0.114835124500493,-0.075));
#762=CARTESIAN_POINT('',(-0.113676932673175,0.113676282253681,-0.075));
#763=CARTESIAN_POINT('',(-0.113676932673175,0.113676282253681,-0.075));
#764=CARTESIAN_POINT('',(-0.106605844632197,0.106605234670986,-0.075));
#765=CARTESIAN_POINT('',(-0.106605844632197,0.106605234670986,0.));
#766=CARTESIAN_POINT('',(-0.0995347565912186,0.0995341870882908,0.));
#767=CARTESIAN_POINT('',(-0.106605844632197,0.106605234670986,-0.075));
#768=CARTESIAN_POINT('',(-0.0995347565912186,0.0995341870882908,-0.075));
#769=CARTESIAN_POINT('',(-0.0995347565912186,0.0995341870882908,-0.075));
#770=CARTESIAN_POINT('',(-0.0966732173540288,0.107764076917798,-0.075));
#771=CARTESIAN_POINT('',(-0.0966732173540288,0.107764076917798,0.));
#772=CARTESIAN_POINT('',(-0.0966732173540288,0.107764076917798,-0.075));
#773=CARTESIAN_POINT('',(-0.0568384663365873,0.0634695,-0.075));
#774=CARTESIAN_POINT('',(-0.0568384663365873,0.0634695,0.));
#775=CARTESIAN_POINT('',(-0.100451351397497,0.109077737128654,0.));
#776=CARTESIAN_POINT('',(-0.0983013513974972,0.109077737128654,0.));
#777=CARTESIAN_POINT('',(-0.100451351397497,0.109077737128654,-0.004));
#778=CARTESIAN_POINT('',(-0.100451351397497,0.109077737128654,-0.004));
#779=CARTESIAN_POINT('',(-0.0983013513974972,0.109077737128654,-0.004));
#780=CARTESIAN_POINT('',(-0.0568384663365873,0.0634695,-0.004));
#781=CARTESIAN_POINT('',(0.,0.,0.));
#782=CARTESIAN_POINT('',(0.,0.116939,-0.075));
#783=CARTESIAN_POINT('',(0.,0.116939,0.));
#784=CARTESIAN_POINT('',(0.,0.126939,0.));
#785=CARTESIAN_POINT('',(5.20417042793042E-18,0.106939,0.));
#786=CARTESIAN_POINT('',(5.20417042793042E-18,0.106939,-0.075));
#787=CARTESIAN_POINT('',(5.20417042793042E-18,0.106939,-0.075));
#788=CARTESIAN_POINT('',(0.,0.116939,-0.075));
#789=CARTESIAN_POINT('',(0.,0.126939,-0.075));
#790=CARTESIAN_POINT('',(0.,0.126939,-0.075));
#791=CARTESIAN_POINT('',(-0.00993262727816779,0.125780157753187,-0.075));
#792=CARTESIAN_POINT('',(-0.00993262727816779,0.125780157753187,0.));
#793=CARTESIAN_POINT('',(-0.0198652545563355,0.124621315506375,0.));
#794=CARTESIAN_POINT('',(-0.00993262727816779,0.125780157753187,-0.075));
#795=CARTESIAN_POINT('',(-0.0198652545563355,0.124621315506375,-0.075));
#796=CARTESIAN_POINT('',(-0.0198652545563355,0.124621315506375,-0.075));
#797=CARTESIAN_POINT('',(-0.00993262727816778,0.115780157753188,-0.075));
#798=CARTESIAN_POINT('',(-0.00993262727816778,0.115780157753188,0.));
#799=CARTESIAN_POINT('',(-0.00993262727816778,0.115780157753188,-0.075));
#800=CARTESIAN_POINT('',(-0.0568384663365873,0.0634695,-0.075));
#801=CARTESIAN_POINT('',(-0.0568384663365873,0.0634695,0.));
#802=CARTESIAN_POINT('',(-0.00727312991916364,0.118767978664395,0.));
#803=CARTESIAN_POINT('',(-0.00512312991916364,0.118767978664395,0.));
#804=CARTESIAN_POINT('',(-0.00727312991916364,0.118767978664395,-0.004));
#805=CARTESIAN_POINT('',(-0.00727312991916364,0.118767978664395,-0.004));
#806=CARTESIAN_POINT('',(-0.00512312991916364,0.118767978664395,-0.004));
#807=CARTESIAN_POINT('',(-0.0568384663365873,0.0634695,-0.004));
#808=CARTESIAN_POINT('',(0.,0.,0.));
#809=CARTESIAN_POINT('',(0.,0.01,-0.075));
#810=CARTESIAN_POINT('',(3.46944695195361E-18,0.02,-0.075));
#811=CARTESIAN_POINT('',(3.46944695195361E-18,0.02,-0.075));
#812=CARTESIAN_POINT('',(3.46944695195361E-18,0.02,-0.061));
#813=CARTESIAN_POINT('',(0.,0.01,-0.061));
#814=CARTESIAN_POINT('',(-1.7347234759768E-18,5.20417042793042E-18,-0.061));
#815=CARTESIAN_POINT('',(-1.7347234759768E-18,5.20417042793042E-18,-0.075));
#816=CARTESIAN_POINT('',(-1.7347234759768E-18,5.20417042793042E-18,-0.075));
#817=CARTESIAN_POINT('',(0.,0.01,-0.075));
#818=CARTESIAN_POINT('',(-0.007071088040978,0.00707104758269508,-0.075));
#819=CARTESIAN_POINT('',(-0.006,0.00599996567010677,-0.061));
#820=CARTESIAN_POINT('',(-0.00770710475826951,0.00770706066092226,-0.061));
#821=CARTESIAN_POINT('',(-0.00770710475826951,0.00770706066092227,-0.054));
#822=CARTESIAN_POINT('',(-0.00770710475826951,0.00770706066092227,-0.053));
#823=CARTESIAN_POINT('',(-0.007071088040978,0.00707104758269508,-0.053));
#824=CARTESIAN_POINT('',(-1.7347234759768E-18,5.20417042793042E-18,-0.053));
#825=CARTESIAN_POINT('',(-1.7347234759768E-18,5.20417042793042E-18,-0.075));
#826=CARTESIAN_POINT('',(-1.7347234759768E-18,5.20417042793042E-18,0.));
#827=CARTESIAN_POINT('',(-0.007071088040978,0.00707104758269508,0.));
#828=CARTESIAN_POINT('',(-0.014142176081956,0.0141420951653902,0.));
#829=CARTESIAN_POINT('',(-0.014142176081956,0.0141420951653902,-0.075));
#830=CARTESIAN_POINT('',(-0.014142176081956,0.0141420951653902,-0.075));
#831=CARTESIAN_POINT('',(-0.007071088040978,0.00707104758269508,-0.075));
#832=CARTESIAN_POINT('',(-0.00707108804097799,0.0170710475826951,-0.075));
#833=CARTESIAN_POINT('',(3.46944695195361E-18,0.02,-0.075));
#834=CARTESIAN_POINT('',(3.46944695195361E-18,0.02,-0.053));
#835=CARTESIAN_POINT('',(3.46944695195361E-18,0.02,0.));
#836=CARTESIAN_POINT('',(-0.00707108804097799,0.0170710475826951,-0.053));
#837=CARTESIAN_POINT('',(-0.00738268475389706,0.0169419794760276,-0.053));
#838=CARTESIAN_POINT('',(-0.00738268475389706,0.0169419794760276,-0.06));
#839=CARTESIAN_POINT('',(-0.00738268475389705,0.0169419794760276,-0.061));
#840=CARTESIAN_POINT('',(-5.75428393723542E-20,0.02,-0.061));
#841=CARTESIAN_POINT('',(-0.00707108804097799,0.0170710475826951,-0.075));
#842=CARTESIAN_POINT('',(-0.00707108804097799,0.0170710475826951,0.));
#843=CARTESIAN_POINT('',(0.,0.01,-0.075));
#844=CARTESIAN_POINT('',(0.,0.02,-0.053));
#845=CARTESIAN_POINT('',(0.,0.01,0.));
#846=CARTESIAN_POINT('',(-0.0568384663365873,0.0634695,-0.075));
#847=CARTESIAN_POINT('',(-0.0568384663365873,0.0634695,0.));
#848=CARTESIAN_POINT('',(-0.00554034902538979,0.0133755316422402,0.));
#849=CARTESIAN_POINT('',(-0.00339034902538979,0.0133755316422402,0.));
#850=CARTESIAN_POINT('',(-0.00554034902538979,0.0133755316422402,-0.004));
#851=CARTESIAN_POINT('',(-0.00554034902538979,0.0133755316422402,-0.004));
#852=CARTESIAN_POINT('',(-0.00339034902538979,0.0133755316422402,-0.004));
#853=CARTESIAN_POINT('',(-0.0568384663365873,0.0634695,-0.004));
#854=CARTESIAN_POINT('',(-0.003,0.025,-0.06));
#855=CARTESIAN_POINT('',(-0.001,0.025,-0.06));
#856=CARTESIAN_POINT('',(-0.001,0.0024142037949133,-0.06));
#857=CARTESIAN_POINT('',(-0.001,0.0185033919201801,-0.06));
#858=CARTESIAN_POINT('',(-0.00561731524610296,0.0165908295856201,-0.06));
#859=CARTESIAN_POINT('',(-0.00607612101488629,0.0164007852448109,-0.06));
#860=CARTESIAN_POINT('',(-0.007,0.0160181004909138,-0.06));
#861=CARTESIAN_POINT('',(-0.006,0.0160181004909138,-0.06));
#862=CARTESIAN_POINT('',(-0.006,0.025,-0.06));
#863=CARTESIAN_POINT('',(-0.006,0.00841416946502006,-0.06));
#864=CARTESIAN_POINT('',(-0.007,0.00841416946502006,-0.06));
#865=CARTESIAN_POINT('',(-0.0062928911959022,0.00770706470675056,-0.06));
#866=CARTESIAN_POINT('',(0.00070710475826951,0.000707108804097802,-0.06));
#867=CARTESIAN_POINT('',(-0.003,0.025,-0.054));
#868=CARTESIAN_POINT('',(-0.006,0.025,-0.054));
#869=CARTESIAN_POINT('',(-0.006,0.0160181004909138,-0.054));
#870=CARTESIAN_POINT('',(-0.006,0.00841416946502006,-0.054));
#871=CARTESIAN_POINT('',(-0.007,0.0160181004909138,-0.054));
#872=CARTESIAN_POINT('',(-0.00607612101488629,0.0164007852448109,-0.054));
#873=CARTESIAN_POINT('',(-0.00041020037326272,0.0187476959130658,-0.054));
#874=CARTESIAN_POINT('',(-0.001,0.0185033919201801,-0.054));
#875=CARTESIAN_POINT('',(-0.001,0.,-0.054));
#876=CARTESIAN_POINT('',(-0.001,0.0024142037949133,-0.054));
#877=CARTESIAN_POINT('',(-0.0132929038240237,0.0147070372832577,-0.054));
#878=CARTESIAN_POINT('',(-0.00629289119590221,0.00770706470675056,-0.054));
#879=CARTESIAN_POINT('',(-0.007,0.00841416946502006,-0.054));
#880=CARTESIAN_POINT('',(-0.006,0.025,-0.057));
#881=CARTESIAN_POINT('',(-0.006,0.0160181004909138,-0.054));
#882=CARTESIAN_POINT('',(-0.006,0.00841416946502006,-0.06));
#883=CARTESIAN_POINT('',(-0.0132929038240237,0.0147070372832577,-0.061));
#884=CARTESIAN_POINT('',(-0.007,0.00841416946502006,-0.061));
#885=CARTESIAN_POINT('',(-0.001,0.0024142037949133,-0.061));
#886=CARTESIAN_POINT('',(-0.007,0.00841416946502006,-0.057));
#887=CARTESIAN_POINT('',(-0.007,0.00841416946502007,-0.053));
#888=CARTESIAN_POINT('',(-0.001,0.01,-0.061));
#889=CARTESIAN_POINT('',(-0.001,0.0185033919201801,-0.061));
#890=CARTESIAN_POINT('',(-0.00636398328270849,0.00777815638679288,-0.053));
#891=CARTESIAN_POINT('',(-0.001,0.0024142037949133,-0.053));
#892=CARTESIAN_POINT('',(-0.00041020037326272,0.0187476959130658,-0.061));
#893=CARTESIAN_POINT('',(-0.007,0.0160181004909138,-0.061));
#894=CARTESIAN_POINT('',(-0.001,0.025,-0.053));
#895=CARTESIAN_POINT('',(-0.001,0.0185033919201801,-0.053));
#896=CARTESIAN_POINT('',(-0.007,0.0160181004909138,-0.057));
#897=CARTESIAN_POINT('',(-0.007,0.0160181004909138,-0.053));
#898=CARTESIAN_POINT('',(-0.00668840328708094,0.0161471685975813,-0.053));
#899=MECHANICAL_DESIGN_GEOMETRIC_PRESENTATION_REPRESENTATION('',(#514),
#902);
#900=MECHANICAL_DESIGN_GEOMETRIC_PRESENTATION_REPRESENTATION('',(#515),
#903);
#901=MECHANICAL_DESIGN_GEOMETRIC_PRESENTATION_REPRESENTATION('',(#516),
#904);
#902=(
GEOMETRIC_REPRESENTATION_CONTEXT(3)
GLOBAL_UNCERTAINTY_ASSIGNED_CONTEXT((#905))
GLOBAL_UNIT_ASSIGNED_CONTEXT((#914,#911,#908))
REPRESENTATION_CONTEXT('Part 1','TOP_LEVEL_ASSEMBLY_PART')
);
#903=(
GEOMETRIC_REPRESENTATION_CONTEXT(3)
GLOBAL_UNCERTAINTY_ASSIGNED_CONTEXT((#906))
GLOBAL_UNIT_ASSIGNED_CONTEXT((#915,#912,#909))
REPRESENTATION_CONTEXT('Part 2','TOP_LEVEL_ASSEMBLY_PART')
);
#904=(
GEOMETRIC_REPRESENTATION_CONTEXT(3)
GLOBAL_UNCERTAINTY_ASSIGNED_CONTEXT((#907))
GLOBAL_UNIT_ASSIGNED_CONTEXT((#916,#913,#910))
REPRESENTATION_CONTEXT('Part 3','TOP_LEVEL_ASSEMBLY_PART')
);
#905=UNCERTAINTY_MEASURE_WITH_UNIT(LENGTH_MEASURE(1.E-8),#914,
'DISTANCE_ACCURACY_VALUE','Maximum Tolerance applied to model');
#906=UNCERTAINTY_MEASURE_WITH_UNIT(LENGTH_MEASURE(1.E-8),#915,
'DISTANCE_ACCURACY_VALUE','Maximum Tolerance applied to model');
#907=UNCERTAINTY_MEASURE_WITH_UNIT(LENGTH_MEASURE(1.E-8),#916,
'DISTANCE_ACCURACY_VALUE','Maximum Tolerance applied to model');
#908=(
NAMED_UNIT(*)
SI_UNIT($,.STERADIAN.)
SOLID_ANGLE_UNIT()
);
#909=(
NAMED_UNIT(*)
SI_UNIT($,.STERADIAN.)
SOLID_ANGLE_UNIT()
);
#910=(
NAMED_UNIT(*)
SI_UNIT($,.STERADIAN.)
SOLID_ANGLE_UNIT()
);
#911=(
NAMED_UNIT(*)
PLANE_ANGLE_UNIT()
SI_UNIT($,.RADIAN.)
);
#912=(
NAMED_UNIT(*)
PLANE_ANGLE_UNIT()
SI_UNIT($,.RADIAN.)
);
#913=(
NAMED_UNIT(*)
PLANE_ANGLE_UNIT()
SI_UNIT($,.RADIAN.)
);
#914=(
LENGTH_UNIT()
NAMED_UNIT(*)
SI_UNIT($,.METRE.)
);
#915=(
LENGTH_UNIT()
NAMED_UNIT(*)
SI_UNIT($,.METRE.)
);
#916=(
LENGTH_UNIT()
NAMED_UNIT(*)
SI_UNIT($,.METRE.)
);
#917=PRODUCT_DEFINITION_SHAPE('','',#920);
#918=PRODUCT_DEFINITION_SHAPE('','',#921);
#919=PRODUCT_DEFINITION_SHAPE('','',#922);
#920=PRODUCT_DEFINITION('','',#926,#923);
#921=PRODUCT_DEFINITION('','',#927,#924);
#922=PRODUCT_DEFINITION('','',#928,#925);
#923=PRODUCT_DEFINITION_CONTEXT('',#944,'design');
#924=PRODUCT_DEFINITION_CONTEXT('',#945,'design');
#925=PRODUCT_DEFINITION_CONTEXT('',#946,'design');
#926=PRODUCT_DEFINITION_FORMATION_WITH_SPECIFIED_SOURCE('','',#932,
 .NOT_KNOWN.);
#927=PRODUCT_DEFINITION_FORMATION_WITH_SPECIFIED_SOURCE('','',#933,
 .NOT_KNOWN.);
#928=PRODUCT_DEFINITION_FORMATION_WITH_SPECIFIED_SOURCE('','',#934,
 .NOT_KNOWN.);
#929=PRODUCT_RELATED_PRODUCT_CATEGORY('','',(#932));
#930=PRODUCT_RELATED_PRODUCT_CATEGORY('','',(#933));
#931=PRODUCT_RELATED_PRODUCT_CATEGORY('','',(#934));
#932=PRODUCT('Part 1','Part 1','Part 1',(#938));
#933=PRODUCT('Part 2','Part 2','Part 2',(#939));
#934=PRODUCT('Part 3','Part 3','Part 3',(#940));
#935=PRODUCT_CATEGORY('','');
#936=PRODUCT_CATEGORY('','');
#937=PRODUCT_CATEGORY('','');
#938=PRODUCT_CONTEXT('',#944,'mechanical');
#939=PRODUCT_CONTEXT('',#945,'mechanical');
#940=PRODUCT_CONTEXT('',#946,'mechanical');
#941=APPLICATION_PROTOCOL_DEFINITION('international standard',
'ap242_managed_model_based_3d_engineering',2020,#944);
#942=APPLICATION_PROTOCOL_DEFINITION('international standard',
'ap242_managed_model_based_3d_engineering',2020,#945);
#943=APPLICATION_PROTOCOL_DEFINITION('international standard',
'ap242_managed_model_based_3d_engineering',2020,#946);
#944=APPLICATION_CONTEXT('managed model based 3d engineering');
#945=APPLICATION_CONTEXT('managed model based 3d engineering');
#946=APPLICATION_CONTEXT('managed model based 3d engineering');
ENDSEC;
END-ISO-10303-21;
