ISO-10303-21;
HEADER;
/* Generated by software containing ST-Developer
 * from STEP Tools, Inc. (www.steptools.com) 
 */
/* OPTION: using custom renumber hook */

FILE_DESCRIPTION(
/* description */ ('STEP AP242 Edition 2',
'CAx-IF Rec.Pracs.---Representation and Presentation of Product Manufa
cturing Information (PMI)---4.0---2014-10-13',
'CAx-IF Rec.Pracs.---3D Tessellated Geometry---0.4---2014-09-14','2;1',
'CAx-IF Rec.Pracs.---User Defined Attributes---1.5---2016-08-15'),
/* implementation_level */ '2;1');

FILE_NAME(
/* name */ 'speaker_cover_mounts',
/* time_stamp */ '2026-05-01T17:29:41Z',
/* author */ (''),
/* organization */ (''),
/* preprocessor_version */ 'ST-DEVELOPER v20',
/* originating_system */ 'ONSHAPE BY PTC INC, 1.214',
/* authorisation */ '  ');

FILE_SCHEMA (('AP242_MANAGED_MODEL_BASED_3D_ENGINEERING_MIM_LF { 1 0 10303 442 3 1 4 }'));
ENDSEC;

DATA;
#10=SHAPE_REPRESENTATION_RELATIONSHIP('','',#542,#13);
#11=SHAPE_REPRESENTATION_RELATIONSHIP('','',#543,#14);
#12=SHAPE_REPRESENTATION_RELATIONSHIP('','',#544,#15);
#13=ADVANCED_BREP_SHAPE_REPRESENTATION('',(#536),#902);
#14=ADVANCED_BREP_SHAPE_REPRESENTATION('',(#537),#903);
#15=ADVANCED_BREP_SHAPE_REPRESENTATION('',(#538),#904);
#16=ELLIPSE('',#564,0.00141421356237309,0.001);
#17=ELLIPSE('',#565,0.00141421356237309,0.001);
#18=ELLIPSE('',#567,0.00179995437291681,0.001);
#19=ELLIPSE('',#569,0.00179995437291681,0.001);
#20=ELLIPSE('',#571,0.00261311690579923,0.001);
#21=ELLIPSE('',#573,0.00261311690579923,0.001);
#22=ELLIPSE('',#575,0.00141421356237309,0.001);
#23=ELLIPSE('',#577,0.00141421356237309,0.001);
#24=CYLINDRICAL_SURFACE('',#553,0.00215);
#25=CYLINDRICAL_SURFACE('',#563,0.001);
#26=CYLINDRICAL_SURFACE('',#566,0.001);
#27=CYLINDRICAL_SURFACE('',#568,0.001);
#28=CYLINDRICAL_SURFACE('',#570,0.001);
#29=CYLINDRICAL_SURFACE('',#572,0.001);
#30=CYLINDRICAL_SURFACE('',#574,0.001);
#31=CYLINDRICAL_SURFACE('',#576,0.001);
#32=CYLINDRICAL_SURFACE('',#578,0.001);
#33=CYLINDRICAL_SURFACE('',#586,0.00215);
#34=CYLINDRICAL_SURFACE('',#596,0.00215);
#35=CIRCLE('',#552,0.00215);
#36=CIRCLE('',#554,0.00215);
#37=CIRCLE('',#557,0.001);
#38=CIRCLE('',#558,0.001);
#39=CIRCLE('',#560,0.001);
#40=CIRCLE('',#561,0.001);
#41=CIRCLE('',#585,0.00215);
#42=CIRCLE('',#587,0.00215);
#43=CIRCLE('',#595,0.00215);
#44=CIRCLE('',#597,0.00215);
#45=ORIENTED_EDGE('',*,*,#175,.T.);
#46=ORIENTED_EDGE('',*,*,#176,.T.);
#47=ORIENTED_EDGE('',*,*,#177,.F.);
#48=ORIENTED_EDGE('',*,*,#178,.F.);
#49=ORIENTED_EDGE('',*,*,#179,.T.);
#50=ORIENTED_EDGE('',*,*,#180,.T.);
#51=ORIENTED_EDGE('',*,*,#175,.F.);
#52=ORIENTED_EDGE('',*,*,#181,.T.);
#53=ORIENTED_EDGE('',*,*,#182,.T.);
#54=ORIENTED_EDGE('',*,*,#183,.F.);
#55=ORIENTED_EDGE('',*,*,#184,.F.);
#56=ORIENTED_EDGE('',*,*,#185,.T.);
#57=ORIENTED_EDGE('',*,*,#177,.T.);
#58=ORIENTED_EDGE('',*,*,#186,.T.);
#59=ORIENTED_EDGE('',*,*,#187,.T.);
#60=ORIENTED_EDGE('',*,*,#188,.T.);
#61=ORIENTED_EDGE('',*,*,#189,.T.);
#62=ORIENTED_EDGE('',*,*,#190,.F.);
#63=ORIENTED_EDGE('',*,*,#182,.F.);
#64=ORIENTED_EDGE('',*,*,#191,.T.);
#65=ORIENTED_EDGE('',*,*,#189,.F.);
#66=ORIENTED_EDGE('',*,*,#192,.T.);
#67=ORIENTED_EDGE('',*,*,#184,.T.);
#68=ORIENTED_EDGE('',*,*,#193,.T.);
#69=ORIENTED_EDGE('',*,*,#181,.F.);
#70=ORIENTED_EDGE('',*,*,#178,.T.);
#71=ORIENTED_EDGE('',*,*,#191,.F.);
#72=ORIENTED_EDGE('',*,*,#194,.T.);
#73=ORIENTED_EDGE('',*,*,#183,.T.);
#74=ORIENTED_EDGE('',*,*,#190,.T.);
#75=ORIENTED_EDGE('',*,*,#193,.F.);
#76=ORIENTED_EDGE('',*,*,#195,.T.);
#77=ORIENTED_EDGE('',*,*,#194,.F.);
#78=ORIENTED_EDGE('',*,*,#195,.F.);
#79=ORIENTED_EDGE('',*,*,#196,.T.);
#80=ORIENTED_EDGE('',*,*,#197,.T.);
#81=ORIENTED_EDGE('',*,*,#198,.T.);
#82=ORIENTED_EDGE('',*,*,#199,.F.);
#83=ORIENTED_EDGE('',*,*,#200,.T.);
#84=ORIENTED_EDGE('',*,*,#201,.T.);
#85=ORIENTED_EDGE('',*,*,#202,.T.);
#86=ORIENTED_EDGE('',*,*,#203,.T.);
#87=ORIENTED_EDGE('',*,*,#204,.T.);
#88=ORIENTED_EDGE('',*,*,#205,.T.);
#89=ORIENTED_EDGE('',*,*,#206,.T.);
#90=ORIENTED_EDGE('',*,*,#207,.T.);
#91=ORIENTED_EDGE('',*,*,#199,.T.);
#92=ORIENTED_EDGE('',*,*,#208,.T.);
#93=ORIENTED_EDGE('',*,*,#207,.F.);
#94=ORIENTED_EDGE('',*,*,#209,.T.);
#95=ORIENTED_EDGE('',*,*,#210,.F.);
#96=ORIENTED_EDGE('',*,*,#187,.F.);
#97=ORIENTED_EDGE('',*,*,#211,.F.);
#98=ORIENTED_EDGE('',*,*,#200,.F.);
#99=ORIENTED_EDGE('',*,*,#209,.F.);
#100=ORIENTED_EDGE('',*,*,#206,.F.);
#101=ORIENTED_EDGE('',*,*,#211,.T.);
#102=ORIENTED_EDGE('',*,*,#186,.F.);
#103=ORIENTED_EDGE('',*,*,#212,.F.);
#104=ORIENTED_EDGE('',*,*,#201,.F.);
#105=ORIENTED_EDGE('',*,*,#210,.T.);
#106=ORIENTED_EDGE('',*,*,#205,.F.);
#107=ORIENTED_EDGE('',*,*,#213,.F.);
#108=ORIENTED_EDGE('',*,*,#188,.F.);
#109=ORIENTED_EDGE('',*,*,#212,.T.);
#110=ORIENTED_EDGE('',*,*,#176,.F.);
#111=ORIENTED_EDGE('',*,*,#214,.F.);
#112=ORIENTED_EDGE('',*,*,#196,.F.);
#113=ORIENTED_EDGE('',*,*,#213,.T.);
#114=ORIENTED_EDGE('',*,*,#204,.F.);
#115=ORIENTED_EDGE('',*,*,#215,.F.);
#116=ORIENTED_EDGE('',*,*,#192,.F.);
#117=ORIENTED_EDGE('',*,*,#214,.T.);
#118=ORIENTED_EDGE('',*,*,#180,.F.);
#119=ORIENTED_EDGE('',*,*,#216,.F.);
#120=ORIENTED_EDGE('',*,*,#197,.F.);
#121=ORIENTED_EDGE('',*,*,#203,.F.);
#122=ORIENTED_EDGE('',*,*,#217,.F.);
#123=ORIENTED_EDGE('',*,*,#185,.F.);
#124=ORIENTED_EDGE('',*,*,#215,.T.);
#125=ORIENTED_EDGE('',*,*,#216,.T.);
#126=ORIENTED_EDGE('',*,*,#179,.F.);
#127=ORIENTED_EDGE('',*,*,#217,.T.);
#128=ORIENTED_EDGE('',*,*,#202,.F.);
#129=ORIENTED_EDGE('',*,*,#208,.F.);
#130=ORIENTED_EDGE('',*,*,#198,.F.);
#131=ORIENTED_EDGE('',*,*,#218,.F.);
#132=ORIENTED_EDGE('',*,*,#219,.F.);
#133=ORIENTED_EDGE('',*,*,#220,.T.);
#134=ORIENTED_EDGE('',*,*,#221,.T.);
#135=ORIENTED_EDGE('',*,*,#222,.F.);
#136=ORIENTED_EDGE('',*,*,#221,.F.);
#137=ORIENTED_EDGE('',*,*,#223,.T.);
#138=ORIENTED_EDGE('',*,*,#224,.T.);
#139=ORIENTED_EDGE('',*,*,#225,.T.);
#140=ORIENTED_EDGE('',*,*,#224,.F.);
#141=ORIENTED_EDGE('',*,*,#226,.F.);
#142=ORIENTED_EDGE('',*,*,#219,.T.);
#143=ORIENTED_EDGE('',*,*,#220,.F.);
#144=ORIENTED_EDGE('',*,*,#226,.T.);
#145=ORIENTED_EDGE('',*,*,#223,.F.);
#146=ORIENTED_EDGE('',*,*,#227,.T.);
#147=ORIENTED_EDGE('',*,*,#218,.T.);
#148=ORIENTED_EDGE('',*,*,#222,.T.);
#149=ORIENTED_EDGE('',*,*,#225,.F.);
#150=ORIENTED_EDGE('',*,*,#228,.T.);
#151=ORIENTED_EDGE('',*,*,#227,.F.);
#152=ORIENTED_EDGE('',*,*,#228,.F.);
#153=ORIENTED_EDGE('',*,*,#229,.T.);
#154=ORIENTED_EDGE('',*,*,#230,.F.);
#155=ORIENTED_EDGE('',*,*,#231,.F.);
#156=ORIENTED_EDGE('',*,*,#232,.T.);
#157=ORIENTED_EDGE('',*,*,#233,.F.);
#158=ORIENTED_EDGE('',*,*,#232,.F.);
#159=ORIENTED_EDGE('',*,*,#234,.T.);
#160=ORIENTED_EDGE('',*,*,#235,.T.);
#161=ORIENTED_EDGE('',*,*,#236,.T.);
#162=ORIENTED_EDGE('',*,*,#235,.F.);
#163=ORIENTED_EDGE('',*,*,#237,.F.);
#164=ORIENTED_EDGE('',*,*,#230,.T.);
#165=ORIENTED_EDGE('',*,*,#231,.T.);
#166=ORIENTED_EDGE('',*,*,#237,.T.);
#167=ORIENTED_EDGE('',*,*,#234,.F.);
#168=ORIENTED_EDGE('',*,*,#238,.T.);
#169=ORIENTED_EDGE('',*,*,#229,.F.);
#170=ORIENTED_EDGE('',*,*,#233,.T.);
#171=ORIENTED_EDGE('',*,*,#236,.F.);
#172=ORIENTED_EDGE('',*,*,#239,.T.);
#173=ORIENTED_EDGE('',*,*,#238,.F.);
#174=ORIENTED_EDGE('',*,*,#239,.F.);
#175=EDGE_CURVE('',#240,#241,#284,.T.);
#176=EDGE_CURVE('',#241,#242,#285,.F.);
#177=EDGE_CURVE('',#243,#242,#286,.T.);
#178=EDGE_CURVE('',#240,#243,#287,.T.);
#179=EDGE_CURVE('',#244,#245,#288,.F.);
#180=EDGE_CURVE('',#245,#241,#289,.F.);
#181=EDGE_CURVE('',#240,#246,#290,.T.);
#182=EDGE_CURVE('',#246,#247,#291,.T.);
#183=EDGE_CURVE('',#248,#247,#292,.T.);
#184=EDGE_CURVE('',#249,#248,#293,.T.);
#185=EDGE_CURVE('',#249,#244,#294,.F.);
#186=EDGE_CURVE('',#242,#250,#295,.F.);
#187=EDGE_CURVE('',#250,#251,#296,.F.);
#188=EDGE_CURVE('',#251,#252,#297,.F.);
#189=EDGE_CURVE('',#252,#253,#298,.T.);
#190=EDGE_CURVE('',#247,#253,#299,.T.);
#191=EDGE_CURVE('',#246,#243,#300,.T.);
#192=EDGE_CURVE('',#252,#249,#301,.T.);
#193=EDGE_CURVE('',#248,#253,#302,.T.);
#194=EDGE_CURVE('',#254,#254,#35,.T.);
#195=EDGE_CURVE('',#255,#255,#36,.T.);
#196=EDGE_CURVE('',#256,#257,#303,.T.);
#197=EDGE_CURVE('',#257,#258,#304,.T.);
#198=EDGE_CURVE('',#258,#259,#37,.T.);
#199=EDGE_CURVE('',#260,#259,#305,.T.);
#200=EDGE_CURVE('',#260,#261,#38,.T.);
#201=EDGE_CURVE('',#261,#256,#306,.T.);
#202=EDGE_CURVE('',#262,#263,#39,.T.);
#203=EDGE_CURVE('',#263,#264,#307,.T.);
#204=EDGE_CURVE('',#264,#265,#308,.F.);
#205=EDGE_CURVE('',#265,#266,#309,.T.);
#206=EDGE_CURVE('',#266,#267,#40,.T.);
#207=EDGE_CURVE('',#267,#262,#310,.T.);
#208=EDGE_CURVE('',#259,#262,#311,.T.);
#209=EDGE_CURVE('',#267,#260,#312,.T.);
#210=EDGE_CURVE('',#251,#266,#16,.T.);
#211=EDGE_CURVE('',#261,#250,#17,.F.);
#212=EDGE_CURVE('',#256,#242,#18,.T.);
#213=EDGE_CURVE('',#252,#265,#19,.T.);
#214=EDGE_CURVE('',#257,#241,#20,.T.);
#215=EDGE_CURVE('',#249,#264,#21,.T.);
#216=EDGE_CURVE('',#258,#245,#22,.F.);
#217=EDGE_CURVE('',#244,#263,#23,.T.);
#218=EDGE_CURVE('',#268,#269,#313,.T.);
#219=EDGE_CURVE('',#270,#268,#314,.T.);
#220=EDGE_CURVE('',#270,#271,#315,.T.);
#221=EDGE_CURVE('',#271,#269,#316,.T.);
#222=EDGE_CURVE('',#269,#272,#317,.T.);
#223=EDGE_CURVE('',#271,#273,#318,.T.);
#224=EDGE_CURVE('',#273,#272,#319,.T.);
#225=EDGE_CURVE('',#268,#272,#320,.T.);
#226=EDGE_CURVE('',#270,#273,#321,.T.);
#227=EDGE_CURVE('',#274,#274,#41,.T.);
#228=EDGE_CURVE('',#275,#275,#42,.T.);
#229=EDGE_CURVE('',#276,#277,#322,.T.);
#230=EDGE_CURVE('',#278,#277,#323,.T.);
#231=EDGE_CURVE('',#279,#278,#324,.T.);
#232=EDGE_CURVE('',#279,#276,#325,.T.);
#233=EDGE_CURVE('',#276,#280,#326,.T.);
#234=EDGE_CURVE('',#279,#281,#327,.T.);
#235=EDGE_CURVE('',#281,#280,#328,.T.);
#236=EDGE_CURVE('',#277,#280,#329,.T.);
#237=EDGE_CURVE('',#278,#281,#330,.T.);
#238=EDGE_CURVE('',#282,#282,#43,.T.);
#239=EDGE_CURVE('',#283,#283,#44,.T.);
#240=VERTEX_POINT('',#757);
#241=VERTEX_POINT('',#758);
#242=VERTEX_POINT('',#760);
#243=VERTEX_POINT('',#762);
#244=VERTEX_POINT('',#766);
#245=VERTEX_POINT('',#767);
#246=VERTEX_POINT('',#770);
#247=VERTEX_POINT('',#772);
#248=VERTEX_POINT('',#774);
#249=VERTEX_POINT('',#776);
#250=VERTEX_POINT('',#780);
#251=VERTEX_POINT('',#782);
#252=VERTEX_POINT('',#784);
#253=VERTEX_POINT('',#786);
#254=VERTEX_POINT('',#795);
#255=VERTEX_POINT('',#798);
#256=VERTEX_POINT('',#802);
#257=VERTEX_POINT('',#803);
#258=VERTEX_POINT('',#805);
#259=VERTEX_POINT('',#807);
#260=VERTEX_POINT('',#809);
#261=VERTEX_POINT('',#811);
#262=VERTEX_POINT('',#815);
#263=VERTEX_POINT('',#816);
#264=VERTEX_POINT('',#818);
#265=VERTEX_POINT('',#820);
#266=VERTEX_POINT('',#822);
#267=VERTEX_POINT('',#824);
#268=VERTEX_POINT('',#848);
#269=VERTEX_POINT('',#849);
#270=VERTEX_POINT('',#851);
#271=VERTEX_POINT('',#853);
#272=VERTEX_POINT('',#857);
#273=VERTEX_POINT('',#859);
#274=VERTEX_POINT('',#867);
#275=VERTEX_POINT('',#870);
#276=VERTEX_POINT('',#875);
#277=VERTEX_POINT('',#876);
#278=VERTEX_POINT('',#878);
#279=VERTEX_POINT('',#880);
#280=VERTEX_POINT('',#884);
#281=VERTEX_POINT('',#886);
#282=VERTEX_POINT('',#894);
#283=VERTEX_POINT('',#897);
#284=LINE('',#756,#331);
#285=LINE('',#759,#332);
#286=LINE('',#761,#333);
#287=LINE('',#763,#334);
#288=LINE('',#765,#335);
#289=LINE('',#768,#336);
#290=LINE('',#769,#337);
#291=LINE('',#771,#338);
#292=LINE('',#773,#339);
#293=LINE('',#775,#340);
#294=LINE('',#777,#341);
#295=LINE('',#779,#342);
#296=LINE('',#781,#343);
#297=LINE('',#783,#344);
#298=LINE('',#785,#345);
#299=LINE('',#787,#346);
#300=LINE('',#788,#347);
#301=LINE('',#790,#348);
#302=LINE('',#791,#349);
#303=LINE('',#801,#350);
#304=LINE('',#804,#351);
#305=LINE('',#808,#352);
#306=LINE('',#812,#353);
#307=LINE('',#817,#354);
#308=LINE('',#819,#355);
#309=LINE('',#821,#356);
#310=LINE('',#825,#357);
#311=LINE('',#827,#358);
#312=LINE('',#828,#359);
#313=LINE('',#847,#360);
#314=LINE('',#850,#361);
#315=LINE('',#852,#362);
#316=LINE('',#854,#363);
#317=LINE('',#856,#364);
#318=LINE('',#858,#365);
#319=LINE('',#860,#366);
#320=LINE('',#862,#367);
#321=LINE('',#863,#368);
#322=LINE('',#874,#369);
#323=LINE('',#877,#370);
#324=LINE('',#879,#371);
#325=LINE('',#881,#372);
#326=LINE('',#883,#373);
#327=LINE('',#885,#374);
#328=LINE('',#887,#375);
#329=LINE('',#889,#376);
#330=LINE('',#890,#377);
#331=VECTOR('',#603,1.);
#332=VECTOR('',#604,1.);
#333=VECTOR('',#605,1.);
#334=VECTOR('',#606,1.);
#335=VECTOR('',#609,1.);
#336=VECTOR('',#610,1.);
#337=VECTOR('',#611,1.);
#338=VECTOR('',#612,1.);
#339=VECTOR('',#613,1.);
#340=VECTOR('',#614,1.);
#341=VECTOR('',#615,1.);
#342=VECTOR('',#618,1.);
#343=VECTOR('',#619,1.);
#344=VECTOR('',#620,1.);
#345=VECTOR('',#621,1.);
#346=VECTOR('',#622,1.);
#347=VECTOR('',#623,1.);
#348=VECTOR('',#626,1.);
#349=VECTOR('',#627,1.);
#350=VECTOR('',#642,1.);
#351=VECTOR('',#643,1.);
#352=VECTOR('',#646,1.);
#353=VECTOR('',#649,1.);
#354=VECTOR('',#654,1.);
#355=VECTOR('',#655,1.);
#356=VECTOR('',#656,1.);
#357=VECTOR('',#659,1.);
#358=VECTOR('',#662,1.);
#359=VECTOR('',#663,1.);
#360=VECTOR('',#700,1.);
#361=VECTOR('',#701,1.);
#362=VECTOR('',#702,1.);
#363=VECTOR('',#703,1.);
#364=VECTOR('',#706,1.);
#365=VECTOR('',#707,1.);
#366=VECTOR('',#708,1.);
#367=VECTOR('',#711,1.);
#368=VECTOR('',#712,1.);
#369=VECTOR('',#729,1.);
#370=VECTOR('',#730,1.);
#371=VECTOR('',#731,1.);
#372=VECTOR('',#732,1.);
#373=VECTOR('',#735,1.);
#374=VECTOR('',#736,1.);
#375=VECTOR('',#737,1.);
#376=VECTOR('',#740,1.);
#377=VECTOR('',#741,1.);
#378=EDGE_LOOP('',(#45,#46,#47,#48));
#379=EDGE_LOOP('',(#49,#50,#51,#52,#53,#54,#55,#56));
#380=EDGE_LOOP('',(#57,#58,#59,#60,#61,#62,#63,#64));
#381=EDGE_LOOP('',(#65,#66,#67,#68));
#382=EDGE_LOOP('',(#69,#70,#71));
#383=EDGE_LOOP('',(#72));
#384=EDGE_LOOP('',(#73,#74,#75));
#385=EDGE_LOOP('',(#76));
#386=EDGE_LOOP('',(#77));
#387=EDGE_LOOP('',(#78));
#388=EDGE_LOOP('',(#79,#80,#81,#82,#83,#84));
#389=EDGE_LOOP('',(#85,#86,#87,#88,#89,#90));
#390=EDGE_LOOP('',(#91,#92,#93,#94));
#391=EDGE_LOOP('',(#95,#96,#97,#98,#99,#100));
#392=EDGE_LOOP('',(#101,#102,#103,#104));
#393=EDGE_LOOP('',(#105,#106,#107,#108));
#394=EDGE_LOOP('',(#109,#110,#111,#112));
#395=EDGE_LOOP('',(#113,#114,#115,#116));
#396=EDGE_LOOP('',(#117,#118,#119,#120));
#397=EDGE_LOOP('',(#121,#122,#123,#124));
#398=EDGE_LOOP('',(#125,#126,#127,#128,#129,#130));
#399=EDGE_LOOP('',(#131,#132,#133,#134));
#400=EDGE_LOOP('',(#135,#136,#137,#138));
#401=EDGE_LOOP('',(#139,#140,#141,#142));
#402=EDGE_LOOP('',(#143,#144,#145));
#403=EDGE_LOOP('',(#146));
#404=EDGE_LOOP('',(#147,#148,#149));
#405=EDGE_LOOP('',(#150));
#406=EDGE_LOOP('',(#151));
#407=EDGE_LOOP('',(#152));
#408=EDGE_LOOP('',(#153,#154,#155,#156));
#409=EDGE_LOOP('',(#157,#158,#159,#160));
#410=EDGE_LOOP('',(#161,#162,#163,#164));
#411=EDGE_LOOP('',(#165,#166,#167));
#412=EDGE_LOOP('',(#168));
#413=EDGE_LOOP('',(#169,#170,#171));
#414=EDGE_LOOP('',(#172));
#415=EDGE_LOOP('',(#173));
#416=EDGE_LOOP('',(#174));
#417=FACE_BOUND('',#378,.T.);
#418=FACE_BOUND('',#379,.T.);
#419=FACE_BOUND('',#380,.T.);
#420=FACE_BOUND('',#381,.T.);
#421=FACE_BOUND('',#382,.T.);
#422=FACE_BOUND('',#383,.T.);
#423=FACE_BOUND('',#384,.T.);
#424=FACE_BOUND('',#385,.T.);
#425=FACE_BOUND('',#386,.T.);
#426=FACE_BOUND('',#387,.T.);
#427=FACE_BOUND('',#388,.T.);
#428=FACE_BOUND('',#389,.T.);
#429=FACE_BOUND('',#390,.T.);
#430=FACE_BOUND('',#391,.T.);
#431=FACE_BOUND('',#392,.T.);
#432=FACE_BOUND('',#393,.T.);
#433=FACE_BOUND('',#394,.T.);
#434=FACE_BOUND('',#395,.T.);
#435=FACE_BOUND('',#396,.T.);
#436=FACE_BOUND('',#397,.T.);
#437=FACE_BOUND('',#398,.T.);
#438=FACE_BOUND('',#399,.T.);
#439=FACE_BOUND('',#400,.T.);
#440=FACE_BOUND('',#401,.T.);
#441=FACE_BOUND('',#402,.T.);
#442=FACE_BOUND('',#403,.T.);
#443=FACE_BOUND('',#404,.T.);
#444=FACE_BOUND('',#405,.T.);
#445=FACE_BOUND('',#406,.T.);
#446=FACE_BOUND('',#407,.T.);
#447=FACE_BOUND('',#408,.T.);
#448=FACE_BOUND('',#409,.T.);
#449=FACE_BOUND('',#410,.T.);
#450=FACE_BOUND('',#411,.T.);
#451=FACE_BOUND('',#412,.T.);
#452=FACE_BOUND('',#413,.T.);
#453=FACE_BOUND('',#414,.T.);
#454=FACE_BOUND('',#415,.T.);
#455=FACE_BOUND('',#416,.T.);
#456=PLANE('',#546);
#457=PLANE('',#547);
#458=PLANE('',#548);
#459=PLANE('',#549);
#460=PLANE('',#550);
#461=PLANE('',#551);
#462=PLANE('',#555);
#463=PLANE('',#556);
#464=PLANE('',#559);
#465=PLANE('',#562);
#466=PLANE('',#580);
#467=PLANE('',#581);
#468=PLANE('',#582);
#469=PLANE('',#583);
#470=PLANE('',#584);
#471=PLANE('',#588);
#472=PLANE('',#590);
#473=PLANE('',#591);
#474=PLANE('',#592);
#475=PLANE('',#593);
#476=PLANE('',#594);
#477=PLANE('',#598);
#478=ADVANCED_FACE('',(#417),#456,.F.);
#479=ADVANCED_FACE('',(#418),#457,.T.);
#480=ADVANCED_FACE('',(#419),#458,.T.);
#481=ADVANCED_FACE('',(#420),#459,.F.);
#482=ADVANCED_FACE('',(#421),#460,.F.);
#483=ADVANCED_FACE('',(#422,#423),#461,.T.);
#484=ADVANCED_FACE('',(#424,#425),#24,.F.);
#485=ADVANCED_FACE('',(#426),#462,.T.);
#486=ADVANCED_FACE('',(#427),#463,.F.);
#487=ADVANCED_FACE('',(#428),#464,.F.);
#488=ADVANCED_FACE('',(#429),#465,.F.);
#489=ADVANCED_FACE('',(#430),#25,.T.);
#490=ADVANCED_FACE('',(#431),#26,.T.);
#491=ADVANCED_FACE('',(#432),#27,.T.);
#492=ADVANCED_FACE('',(#433),#28,.T.);
#493=ADVANCED_FACE('',(#434),#29,.T.);
#494=ADVANCED_FACE('',(#435),#30,.T.);
#495=ADVANCED_FACE('',(#436),#31,.T.);
#496=ADVANCED_FACE('',(#437),#32,.T.);
#497=ADVANCED_FACE('',(#438),#466,.T.);
#498=ADVANCED_FACE('',(#439),#467,.T.);
#499=ADVANCED_FACE('',(#440),#468,.F.);
#500=ADVANCED_FACE('',(#441),#469,.F.);
#501=ADVANCED_FACE('',(#442,#443),#470,.T.);
#502=ADVANCED_FACE('',(#444,#445),#33,.F.);
#503=ADVANCED_FACE('',(#446),#471,.T.);
#504=ADVANCED_FACE('',(#447),#472,.F.);
#505=ADVANCED_FACE('',(#448),#473,.T.);
#506=ADVANCED_FACE('',(#449),#474,.F.);
#507=ADVANCED_FACE('',(#450),#475,.F.);
#508=ADVANCED_FACE('',(#451,#452),#476,.T.);
#509=ADVANCED_FACE('',(#453,#454),#34,.F.);
#510=ADVANCED_FACE('',(#455),#477,.T.);
#511=CLOSED_SHELL('',(#478,#479,#480,#481,#482,#483,#484,#485,#486,#487,
#488,#489,#490,#491,#492,#493,#494,#495,#496));
#512=CLOSED_SHELL('',(#497,#498,#499,#500,#501,#502,#503));
#513=CLOSED_SHELL('',(#504,#505,#506,#507,#508,#509,#510));
#514=STYLED_ITEM('',(#517),#536);
#515=STYLED_ITEM('',(#518),#537);
#516=STYLED_ITEM('',(#519),#538);
#517=PRESENTATION_STYLE_ASSIGNMENT((#520));
#518=PRESENTATION_STYLE_ASSIGNMENT((#521));
#519=PRESENTATION_STYLE_ASSIGNMENT((#522));
#520=SURFACE_STYLE_USAGE(.BOTH.,#523);
#521=SURFACE_STYLE_USAGE(.BOTH.,#524);
#522=SURFACE_STYLE_USAGE(.BOTH.,#525);
#523=SURFACE_SIDE_STYLE('',(#526));
#524=SURFACE_SIDE_STYLE('',(#527));
#525=SURFACE_SIDE_STYLE('',(#528));
#526=SURFACE_STYLE_FILL_AREA(#529);
#527=SURFACE_STYLE_FILL_AREA(#530);
#528=SURFACE_STYLE_FILL_AREA(#531);
#529=FILL_AREA_STYLE('',(#532));
#530=FILL_AREA_STYLE('',(#533));
#531=FILL_AREA_STYLE('',(#534));
#532=FILL_AREA_STYLE_COLOUR('',#535);
#533=FILL_AREA_STYLE_COLOUR('',#535);
#534=FILL_AREA_STYLE_COLOUR('',#535);
#535=COLOUR_RGB('',0.972549019607843,0.529411764705882,0.00392156862745098);
#536=MANIFOLD_SOLID_BREP('Part 1',#511);
#537=MANIFOLD_SOLID_BREP('Part 2',#512);
#538=MANIFOLD_SOLID_BREP('Part 3',#513);
#539=SHAPE_DEFINITION_REPRESENTATION(#917,#542);
#540=SHAPE_DEFINITION_REPRESENTATION(#918,#543);
#541=SHAPE_DEFINITION_REPRESENTATION(#919,#544);
#542=SHAPE_REPRESENTATION('Part 1',(#545),#902);
#543=SHAPE_REPRESENTATION('Part 2',(#579),#903);
#544=SHAPE_REPRESENTATION('Part 3',(#589),#904);
#545=AXIS2_PLACEMENT_3D('',#754,#599,#600);
#546=AXIS2_PLACEMENT_3D('',#755,#601,#602);
#547=AXIS2_PLACEMENT_3D('',#764,#607,#608);
#548=AXIS2_PLACEMENT_3D('',#778,#616,#617);
#549=AXIS2_PLACEMENT_3D('',#789,#624,#625);
#550=AXIS2_PLACEMENT_3D('',#792,#628,#629);
#551=AXIS2_PLACEMENT_3D('',#793,#630,#631);
#552=AXIS2_PLACEMENT_3D('',#794,#632,#633);
#553=AXIS2_PLACEMENT_3D('',#796,#634,#635);
#554=AXIS2_PLACEMENT_3D('',#797,#636,#637);
#555=AXIS2_PLACEMENT_3D('',#799,#638,#639);
#556=AXIS2_PLACEMENT_3D('',#800,#640,#641);
#557=AXIS2_PLACEMENT_3D('',#806,#644,#645);
#558=AXIS2_PLACEMENT_3D('',#810,#647,#648);
#559=AXIS2_PLACEMENT_3D('',#813,#650,#651);
#560=AXIS2_PLACEMENT_3D('',#814,#652,#653);
#561=AXIS2_PLACEMENT_3D('',#823,#657,#658);
#562=AXIS2_PLACEMENT_3D('',#826,#660,#661);
#563=AXIS2_PLACEMENT_3D('',#829,#664,#665);
#564=AXIS2_PLACEMENT_3D('',#830,#666,#667);
#565=AXIS2_PLACEMENT_3D('',#831,#668,#669);
#566=AXIS2_PLACEMENT_3D('',#832,#670,#671);
#567=AXIS2_PLACEMENT_3D('',#833,#672,#673);
#568=AXIS2_PLACEMENT_3D('',#834,#674,#675);
#569=AXIS2_PLACEMENT_3D('',#835,#676,#677);
#570=AXIS2_PLACEMENT_3D('',#836,#678,#679);
#571=AXIS2_PLACEMENT_3D('',#837,#680,#681);
#572=AXIS2_PLACEMENT_3D('',#838,#682,#683);
#573=AXIS2_PLACEMENT_3D('',#839,#684,#685);
#574=AXIS2_PLACEMENT_3D('',#840,#686,#687);
#575=AXIS2_PLACEMENT_3D('',#841,#688,#689);
#576=AXIS2_PLACEMENT_3D('',#842,#690,#691);
#577=AXIS2_PLACEMENT_3D('',#843,#692,#693);
#578=AXIS2_PLACEMENT_3D('',#844,#694,#695);
#579=AXIS2_PLACEMENT_3D('',#845,#696,#697);
#580=AXIS2_PLACEMENT_3D('',#846,#698,#699);
#581=AXIS2_PLACEMENT_3D('',#855,#704,#705);
#582=AXIS2_PLACEMENT_3D('',#861,#709,#710);
#583=AXIS2_PLACEMENT_3D('',#864,#713,#714);
#584=AXIS2_PLACEMENT_3D('',#865,#715,#716);
#585=AXIS2_PLACEMENT_3D('',#866,#717,#718);
#586=AXIS2_PLACEMENT_3D('',#868,#719,#720);
#587=AXIS2_PLACEMENT_3D('',#869,#721,#722);
#588=AXIS2_PLACEMENT_3D('',#871,#723,#724);
#589=AXIS2_PLACEMENT_3D('',#872,#725,#726);
#590=AXIS2_PLACEMENT_3D('',#873,#727,#728);
#591=AXIS2_PLACEMENT_3D('',#882,#733,#734);
#592=AXIS2_PLACEMENT_3D('',#888,#738,#739);
#593=AXIS2_PLACEMENT_3D('',#891,#742,#743);
#594=AXIS2_PLACEMENT_3D('',#892,#744,#745);
#595=AXIS2_PLACEMENT_3D('',#893,#746,#747);
#596=AXIS2_PLACEMENT_3D('',#895,#748,#749);
#597=AXIS2_PLACEMENT_3D('',#896,#750,#751);
#598=AXIS2_PLACEMENT_3D('',#898,#752,#753);
#599=DIRECTION('',(0.,0.,1.));
#600=DIRECTION('',(1.,0.,0.));
#601=DIRECTION('',(-1.,0.,0.));
#602=DIRECTION('',(0.,0.,1.));
#603=DIRECTION('',(0.,0.,1.));
#604=DIRECTION('',(0.,1.,0.));
#605=DIRECTION('',(0.,0.,1.));
#606=DIRECTION('',(0.,-1.,0.));
#607=DIRECTION('',(-0.707104758269508,0.7071088040978,0.));
#608=DIRECTION('',(-0.7071088040978,-0.707104758269508,0.));
#609=DIRECTION('',(0.,0.,1.));
#610=DIRECTION('',(-0.7071088040978,-0.707104758269508,0.));
#611=DIRECTION('',(-0.7071088040978,-0.707104758269508,0.));
#612=DIRECTION('',(0.,0.,1.));
#613=DIRECTION('',(-0.7071088040978,-0.707104758269508,0.));
#614=DIRECTION('',(0.,0.,1.));
#615=DIRECTION('',(0.7071088040978,0.707104758269508,0.));
#616=DIRECTION('',(-0.382684753897049,-0.923878985113719,0.));
#617=DIRECTION('',(0.923878985113719,-0.382684753897049,0.));
#618=DIRECTION('',(0.923878985113719,-0.382684753897049,0.));
#619=DIRECTION('',(0.,0.,-1.));
#620=DIRECTION('',(-0.923878985113719,0.382684753897049,0.));
#621=DIRECTION('',(0.,0.,1.));
#622=DIRECTION('',(0.923878985113719,-0.382684753897049,0.));
#623=DIRECTION('',(0.923878985113719,-0.382684753897049,0.));
#624=DIRECTION('',(-1.,0.,0.));
#625=DIRECTION('',(0.,0.,1.));
#626=DIRECTION('',(0.,1.,0.));
#627=DIRECTION('',(0.,-1.,0.));
#628=DIRECTION('',(0.,0.,1.));
#629=DIRECTION('',(1.,0.,0.));
#630=DIRECTION('',(0.,0.,1.));
#631=DIRECTION('',(1.,0.,0.));
#632=DIRECTION('',(0.,0.,-1.));
#633=DIRECTION('',(1.,0.,0.));
#634=DIRECTION('',(0.,0.,1.));
#635=DIRECTION('',(1.,0.,0.));
#636=DIRECTION('',(0.,0.,-1.));
#637=DIRECTION('',(1.,0.,0.));
#638=DIRECTION('',(0.,0.,1.));
#639=DIRECTION('',(1.,0.,0.));
#640=DIRECTION('',(0.,0.,-1.));
#641=DIRECTION('',(-1.,0.,0.));
#642=DIRECTION('',(0.,1.,0.));
#643=DIRECTION('',(-0.7071088040978,-0.707104758269508,0.));
#644=DIRECTION('',(0.,0.,-1.));
#645=DIRECTION('',(-1.,0.,0.));
#646=DIRECTION('',(0.,1.,0.));
#647=DIRECTION('',(0.,0.,-1.));
#648=DIRECTION('',(-1.,0.,0.));
#649=DIRECTION('',(0.923878985113719,-0.382684753897049,0.));
#650=DIRECTION('',(0.,0.,1.));
#651=DIRECTION('',(1.,0.,0.));
#652=DIRECTION('',(0.,0.,1.));
#653=DIRECTION('',(1.,0.,0.));
#654=DIRECTION('',(0.7071088040978,0.707104758269508,0.));
#655=DIRECTION('',(0.,1.,0.));
#656=DIRECTION('',(-0.923878985113719,0.382684753897049,0.));
#657=DIRECTION('',(0.,0.,1.));
#658=DIRECTION('',(1.,0.,0.));
#659=DIRECTION('',(0.,1.,0.));
#660=DIRECTION('',(-1.,0.,0.));
#661=DIRECTION('',(0.,0.,1.));
#662=DIRECTION('',(0.,0.,1.));
#663=DIRECTION('',(0.,0.,-1.));
#664=DIRECTION('',(0.,0.,1.));
#665=DIRECTION('',(1.,0.,0.));
#666=DIRECTION('',(0.653281095369656,-0.270598984537308,0.707106781186548));
#667=DIRECTION('',(0.653281095369656,-0.270598984537308,-0.707106781186548));
#668=DIRECTION('',(-0.653281095369656,0.270598984537308,0.707106781186548));
#669=DIRECTION('',(-0.653281095369656,0.270598984537308,-0.707106781186548));
#670=DIRECTION('',(-0.923878985113719,0.382684753897049,0.));
#671=DIRECTION('',(-0.382684753897049,-0.923878985113719,0.));
#672=DIRECTION('',(0.831470009650694,0.555569638345613,0.));
#673=DIRECTION('',(-0.555569638345613,0.831470009650694,0.));
#674=DIRECTION('',(0.923878985113719,-0.382684753897049,0.));
#675=DIRECTION('',(0.382684753897049,0.923878985113719,0.));
#676=DIRECTION('',(0.831470009650694,0.555569638345613,0.));
#677=DIRECTION('',(-0.555569638345613,0.831470009650694,0.));
#678=DIRECTION('',(0.,1.,0.));
#679=DIRECTION('',(0.,0.,1.));
#680=DIRECTION('',(-0.923878985113718,0.38268475389705,0.));
#681=DIRECTION('',(0.38268475389705,0.923878985113718,0.));
#682=DIRECTION('',(0.,1.,0.));
#683=DIRECTION('',(0.,0.,1.));
#684=DIRECTION('',(-0.923878985113718,0.38268475389705,0.));
#685=DIRECTION('',(0.38268475389705,0.923878985113718,0.));
#686=DIRECTION('',(0.7071088040978,0.707104758269508,0.));
#687=DIRECTION('',(-0.707104758269508,0.7071088040978,0.));
#688=DIRECTION('',(0.500001430414264,0.499998569581644,-0.707106781186548));
#689=DIRECTION('',(-0.500001430414264,-0.499998569581644,-0.707106781186548));
#690=DIRECTION('',(-0.7071088040978,-0.707104758269508,0.));
#691=DIRECTION('',(0.707104758269508,-0.7071088040978,0.));
#692=DIRECTION('',(-0.500001430414264,-0.499998569581644,-0.707106781186548));
#693=DIRECTION('',(0.500001430414264,0.499998569581644,-0.707106781186548));
#694=DIRECTION('',(0.,0.,-1.));
#695=DIRECTION('',(-1.,0.,0.));
#696=DIRECTION('',(0.,0.,1.));
#697=DIRECTION('',(1.,0.,0.));
#698=DIRECTION('',(-0.115884224681244,-0.993262727816778,0.));
#699=DIRECTION('',(0.993262727816778,-0.115884224681244,0.));
#700=DIRECTION('',(0.993262727816778,-0.115884224681244,0.));
#701=DIRECTION('',(0.,0.,1.));
#702=DIRECTION('',(0.993262727816778,-0.115884224681244,0.));
#703=DIRECTION('',(0.,0.,1.));
#704=DIRECTION('',(0.944533510867116,0.328415052713848,0.));
#705=DIRECTION('',(-0.328415052713848,0.944533510867116,0.));
#706=DIRECTION('',(-0.328415052713848,0.944533510867116,0.));
#707=DIRECTION('',(-0.328415052713848,0.944533510867116,0.));
#708=DIRECTION('',(0.,0.,1.));
#709=DIRECTION('',(0.707104758269508,-0.7071088040978,0.));
#710=DIRECTION('',(0.7071088040978,0.707104758269508,0.));
#711=DIRECTION('',(0.7071088040978,0.707104758269508,0.));
#712=DIRECTION('',(0.7071088040978,0.707104758269508,0.));
#713=DIRECTION('',(0.,0.,1.));
#714=DIRECTION('',(1.,0.,0.));
#715=DIRECTION('',(0.,0.,1.));
#716=DIRECTION('',(1.,0.,0.));
#717=DIRECTION('',(0.,0.,-1.));
#718=DIRECTION('',(1.,0.,0.));
#719=DIRECTION('',(0.,0.,1.));
#720=DIRECTION('',(1.,0.,0.));
#721=DIRECTION('',(0.,0.,-1.));
#722=DIRECTION('',(1.,0.,0.));
#723=DIRECTION('',(0.,0.,1.));
#724=DIRECTION('',(1.,0.,0.));
#725=DIRECTION('',(0.,0.,1.));
#726=DIRECTION('',(1.,0.,0.));
#727=DIRECTION('',(0.11588422468124,0.993262727816778,0.));
#728=DIRECTION('',(-0.993262727816778,0.11588422468124,0.));
#729=DIRECTION('',(-0.993262727816778,0.11588422468124,0.));
#730=DIRECTION('',(0.,0.,1.));
#731=DIRECTION('',(-0.993262727816778,0.11588422468124,0.));
#732=DIRECTION('',(0.,0.,1.));
#733=DIRECTION('',(1.,0.,0.));
#734=DIRECTION('',(0.,0.,-1.));
#735=DIRECTION('',(0.,1.,0.));
#736=DIRECTION('',(0.,1.,0.));
#737=DIRECTION('',(0.,0.,1.));
#738=DIRECTION('',(0.664874339751038,-0.746955227801922,0.));
#739=DIRECTION('',(0.746955227801922,0.664874339751038,0.));
#740=DIRECTION('',(0.746955227801922,0.664874339751038,0.));
#741=DIRECTION('',(0.746955227801922,0.664874339751038,0.));
#742=DIRECTION('',(0.,0.,1.));
#743=DIRECTION('',(1.,0.,0.));
#744=DIRECTION('',(0.,0.,1.));
#745=DIRECTION('',(1.,0.,0.));
#746=DIRECTION('',(0.,0.,-1.));
#747=DIRECTION('',(1.,0.,0.));
#748=DIRECTION('',(0.,0.,1.));
#749=DIRECTION('',(1.,0.,0.));
#750=DIRECTION('',(0.,0.,-1.));
#751=DIRECTION('',(1.,0.,0.));
#752=DIRECTION('',(0.,0.,1.));
#753=DIRECTION('',(1.,0.,0.));
#754=CARTESIAN_POINT('',(0.,0.,0.));
#755=CARTESIAN_POINT('',(0.,-0.01,-0.075));
#756=CARTESIAN_POINT('',(-1.7347234759768E-18,-5.20417042793042E-18,-0.075));
#757=CARTESIAN_POINT('',(-1.7347234759768E-18,-5.20417042793042E-18,-0.075));
#758=CARTESIAN_POINT('',(-1.7347234759768E-18,-5.20417042793042E-18,-0.061));
#759=CARTESIAN_POINT('',(0.,-0.01,-0.061));
#760=CARTESIAN_POINT('',(0.,-0.02,-0.061));
#761=CARTESIAN_POINT('',(0.,-0.02,-0.075));
#762=CARTESIAN_POINT('',(0.,-0.02,-0.075));
#763=CARTESIAN_POINT('',(0.,-0.01,-0.075));
#764=CARTESIAN_POINT('',(-0.007071088040978,-0.00707104758269508,-0.075));
#765=CARTESIAN_POINT('',(-0.00770710475826951,-0.00770706066092226,-0.06));
#766=CARTESIAN_POINT('',(-0.00770710475826951,-0.00770706066092226,-0.053));
#767=CARTESIAN_POINT('',(-0.00770710475826951,-0.00770706066092226,-0.061));
#768=CARTESIAN_POINT('',(1.1214078639043E-18,-1.55508522370184E-18,-0.061));
#769=CARTESIAN_POINT('',(-0.007071088040978,-0.00707104758269508,-0.075));
#770=CARTESIAN_POINT('',(-0.014142176081956,-0.0141420951653902,-0.075));
#771=CARTESIAN_POINT('',(-0.014142176081956,-0.0141420951653902,-0.075));
#772=CARTESIAN_POINT('',(-0.014142176081956,-0.0141420951653902,0.));
#773=CARTESIAN_POINT('',(-0.007071088040978,-0.00707104758269508,0.));
#774=CARTESIAN_POINT('',(-1.7347234759768E-18,-5.20417042793042E-18,0.));
#775=CARTESIAN_POINT('',(-1.7347234759768E-18,-5.20417042793042E-18,-0.075));
#776=CARTESIAN_POINT('',(-1.7347234759768E-18,-5.20417042793042E-18,-0.053));
#777=CARTESIAN_POINT('',(-0.006,-0.00599996567010677,-0.053));
#778=CARTESIAN_POINT('',(-0.00707108804097799,-0.0170710475826951,-0.075));
#779=CARTESIAN_POINT('',(-0.006,-0.0175147085707338,-0.061));
#780=CARTESIAN_POINT('',(-0.00738268475389705,-0.0169419794760276,-0.061));
#781=CARTESIAN_POINT('',(-0.00738268475389705,-0.0169419794760276,-0.054));
#782=CARTESIAN_POINT('',(-0.00738268475389705,-0.0169419794760276,-0.053));
#783=CARTESIAN_POINT('',(-5.75428393723542E-20,-0.02,-0.053));
#784=CARTESIAN_POINT('',(0.,-0.02,-0.053));
#785=CARTESIAN_POINT('',(0.,-0.02,-0.075));
#786=CARTESIAN_POINT('',(0.,-0.02,0.));
#787=CARTESIAN_POINT('',(-0.00707108804097799,-0.0170710475826951,0.));
#788=CARTESIAN_POINT('',(-0.00707108804097799,-0.0170710475826951,-0.075));
#789=CARTESIAN_POINT('',(0.,-0.01,-0.075));
#790=CARTESIAN_POINT('',(0.,-0.01,-0.053));
#791=CARTESIAN_POINT('',(0.,-0.01,0.));
#792=CARTESIAN_POINT('',(-0.0568384663365873,-0.0634695,-0.075));
#793=CARTESIAN_POINT('',(-0.0568384663365873,-0.0634695,0.));
#794=CARTESIAN_POINT('',(-0.00554034902538979,-0.0133755316422402,0.));
#795=CARTESIAN_POINT('',(-0.00339034902538979,-0.0133755316422402,0.));
#796=CARTESIAN_POINT('',(-0.00554034902538979,-0.0133755316422402,-0.004));
#797=CARTESIAN_POINT('',(-0.00554034902538979,-0.0133755316422402,-0.004));
#798=CARTESIAN_POINT('',(-0.00339034902538979,-0.0133755316422402,-0.004));
#799=CARTESIAN_POINT('',(-0.0568384663365873,-0.0634695,-0.004));
#800=CARTESIAN_POINT('',(-0.003,-0.025,-0.06));
#801=CARTESIAN_POINT('',(-0.001,-0.025,-0.06));
#802=CARTESIAN_POINT('',(-0.001,-0.0185033919201801,-0.06));
#803=CARTESIAN_POINT('',(-0.001,-0.0024142037949133,-0.06));
#804=CARTESIAN_POINT('',(-0.00529289524173049,-0.00670707447420457,-0.06));
#805=CARTESIAN_POINT('',(-0.0062928911959022,-0.00770706470675056,-0.06));
#806=CARTESIAN_POINT('',(-0.007,-0.00841416946502006,-0.06));
#807=CARTESIAN_POINT('',(-0.006,-0.00841416946502006,-0.06));
#808=CARTESIAN_POINT('',(-0.006,-0.025,-0.06));
#809=CARTESIAN_POINT('',(-0.006,-0.0160181004909138,-0.06));
#810=CARTESIAN_POINT('',(-0.007,-0.0160181004909138,-0.06));
#811=CARTESIAN_POINT('',(-0.00607612101488628,-0.0164007852448109,-0.06));
#812=CARTESIAN_POINT('',(0.00038268475389705,-0.0190761210148863,-0.06));
#813=CARTESIAN_POINT('',(-0.003,-0.025,-0.054));
#814=CARTESIAN_POINT('',(-0.007,-0.00841416946502006,-0.054));
#815=CARTESIAN_POINT('',(-0.006,-0.00841416946502006,-0.054));
#816=CARTESIAN_POINT('',(-0.0062928911959022,-0.00770706470675056,-0.054));
#817=CARTESIAN_POINT('',(0.00070710475826951,-0.000707108804097802,-0.054));
#818=CARTESIAN_POINT('',(-0.001,-0.0024142037949133,-0.054));
#819=CARTESIAN_POINT('',(-0.001,-0.025,-0.054));
#820=CARTESIAN_POINT('',(-0.001,-0.0185033919201801,-0.054));
#821=CARTESIAN_POINT('',(-0.00561731524610295,-0.0165908295856201,-0.054));
#822=CARTESIAN_POINT('',(-0.00607612101488628,-0.0164007852448109,-0.054));
#823=CARTESIAN_POINT('',(-0.007,-0.0160181004909138,-0.054));
#824=CARTESIAN_POINT('',(-0.006,-0.0160181004909138,-0.054));
#825=CARTESIAN_POINT('',(-0.006,-0.025,-0.054));
#826=CARTESIAN_POINT('',(-0.006,-0.025,-0.057));
#827=CARTESIAN_POINT('',(-0.006,-0.00841416946502006,-0.054));
#828=CARTESIAN_POINT('',(-0.006,-0.0160181004909138,-0.06));
#829=CARTESIAN_POINT('',(-0.007,-0.0160181004909138,-0.057));
#830=CARTESIAN_POINT('',(-0.007,-0.0160181004909138,-0.053));
#831=CARTESIAN_POINT('',(-0.007,-0.0160181004909138,-0.061));
#832=CARTESIAN_POINT('',(-0.00041020037326272,-0.0187476959130658,-0.061));
#833=CARTESIAN_POINT('',(-0.001,-0.0185033919201801,-0.061));
#834=CARTESIAN_POINT('',(-0.00041020037326272,-0.0187476959130658,-0.053));
#835=CARTESIAN_POINT('',(-0.001,-0.0185033919201801,-0.053));
#836=CARTESIAN_POINT('',(-0.001,-0.025,-0.061));
#837=CARTESIAN_POINT('',(-0.001,-0.0024142037949133,-0.061));
#838=CARTESIAN_POINT('',(-0.001,-0.01,-0.053));
#839=CARTESIAN_POINT('',(-0.001,-0.0024142037949133,-0.053));
#840=CARTESIAN_POINT('',(-0.0132929038240237,-0.0147070372832577,-0.061));
#841=CARTESIAN_POINT('',(-0.007,-0.00841416946502006,-0.061));
#842=CARTESIAN_POINT('',(-0.0132929038240237,-0.0147070372832577,-0.053));
#843=CARTESIAN_POINT('',(-0.007,-0.00841416946502006,-0.053));
#844=CARTESIAN_POINT('',(-0.007,-0.00841416946502006,-0.057));
#845=CARTESIAN_POINT('',(0.,0.,0.));
#846=CARTESIAN_POINT('',(-0.103744305395007,-0.114835124500493,-0.075));
#847=CARTESIAN_POINT('',(-0.103744305395007,-0.114835124500493,0.));
#848=CARTESIAN_POINT('',(-0.113676932673175,-0.113676282253681,0.));
#849=CARTESIAN_POINT('',(-0.093811678116839,-0.115993966747306,0.));
#850=CARTESIAN_POINT('',(-0.113676932673175,-0.113676282253681,-0.075));
#851=CARTESIAN_POINT('',(-0.113676932673175,-0.113676282253681,-0.075));
#852=CARTESIAN_POINT('',(-0.103744305395007,-0.114835124500493,-0.075));
#853=CARTESIAN_POINT('',(-0.093811678116839,-0.115993966747306,-0.075));
#854=CARTESIAN_POINT('',(-0.093811678116839,-0.115993966747306,-0.075));
#855=CARTESIAN_POINT('',(-0.0966732173540288,-0.107764076917798,-0.075));
#856=CARTESIAN_POINT('',(-0.0966732173540288,-0.107764076917798,0.));
#857=CARTESIAN_POINT('',(-0.0995347565912186,-0.0995341870882908,0.));
#858=CARTESIAN_POINT('',(-0.0966732173540288,-0.107764076917798,-0.075));
#859=CARTESIAN_POINT('',(-0.0995347565912186,-0.0995341870882908,-0.075));
#860=CARTESIAN_POINT('',(-0.0995347565912186,-0.0995341870882908,-0.075));
#861=CARTESIAN_POINT('',(-0.106605844632197,-0.106605234670986,-0.075));
#862=CARTESIAN_POINT('',(-0.106605844632197,-0.106605234670986,0.));
#863=CARTESIAN_POINT('',(-0.106605844632197,-0.106605234670986,-0.075));
#864=CARTESIAN_POINT('',(-0.0568384663365873,-0.0634695,-0.075));
#865=CARTESIAN_POINT('',(-0.0568384663365873,-0.0634695,0.));
#866=CARTESIAN_POINT('',(-0.100451351397497,-0.109077737128654,0.));
#867=CARTESIAN_POINT('',(-0.0983013513974972,-0.109077737128654,0.));
#868=CARTESIAN_POINT('',(-0.100451351397497,-0.109077737128654,-0.004));
#869=CARTESIAN_POINT('',(-0.100451351397497,-0.109077737128654,-0.004));
#870=CARTESIAN_POINT('',(-0.0983013513974972,-0.109077737128654,-0.004));
#871=CARTESIAN_POINT('',(-0.0568384663365873,-0.0634695,-0.004));
#872=CARTESIAN_POINT('',(0.,0.,0.));
#873=CARTESIAN_POINT('',(-0.00993262727816781,-0.125780157753188,-0.075));
#874=CARTESIAN_POINT('',(-0.00993262727816781,-0.125780157753188,0.));
#875=CARTESIAN_POINT('',(-1.7347234759768E-17,-0.126939,0.));
#876=CARTESIAN_POINT('',(-0.0198652545563355,-0.124621315506375,0.));
#877=CARTESIAN_POINT('',(-0.0198652545563355,-0.124621315506375,-0.075));
#878=CARTESIAN_POINT('',(-0.0198652545563355,-0.124621315506375,-0.075));
#879=CARTESIAN_POINT('',(-0.00993262727816781,-0.125780157753188,-0.075));
#880=CARTESIAN_POINT('',(-1.7347234759768E-17,-0.126939,-0.075));
#881=CARTESIAN_POINT('',(-1.7347234759768E-17,-0.126939,-0.075));
#882=CARTESIAN_POINT('',(0.,-0.116939,-0.075));
#883=CARTESIAN_POINT('',(0.,-0.116939,0.));
#884=CARTESIAN_POINT('',(5.20417042793042E-18,-0.106939,0.));
#885=CARTESIAN_POINT('',(0.,-0.116939,-0.075));
#886=CARTESIAN_POINT('',(5.20417042793042E-18,-0.106939,-0.075));
#887=CARTESIAN_POINT('',(5.20417042793042E-18,-0.106939,-0.075));
#888=CARTESIAN_POINT('',(-0.00993262727816778,-0.115780157753188,-0.075));
#889=CARTESIAN_POINT('',(-0.00993262727816778,-0.115780157753188,0.));
#890=CARTESIAN_POINT('',(-0.00993262727816778,-0.115780157753188,-0.075));
#891=CARTESIAN_POINT('',(-0.0568384663365873,-0.0634695,-0.075));
#892=CARTESIAN_POINT('',(-0.0568384663365873,-0.0634695,0.));
#893=CARTESIAN_POINT('',(-0.00727312991916364,-0.118767978664395,0.));
#894=CARTESIAN_POINT('',(-0.00512312991916364,-0.118767978664395,0.));
#895=CARTESIAN_POINT('',(-0.00727312991916364,-0.118767978664395,-0.004));
#896=CARTESIAN_POINT('',(-0.00727312991916364,-0.118767978664395,-0.004));
#897=CARTESIAN_POINT('',(-0.00512312991916364,-0.118767978664395,-0.004));
#898=CARTESIAN_POINT('',(-0.0568384663365873,-0.0634695,-0.004));
#899=MECHANICAL_DESIGN_GEOMETRIC_PRESENTATION_REPRESENTATION('',(#514),
#902);
#900=MECHANICAL_DESIGN_GEOMETRIC_PRESENTATION_REPRESENTATION('',(#515),
#903);
#901=MECHANICAL_DESIGN_GEOMETRIC_PRESENTATION_REPRESENTATION('',(#516),
#904);
#902=(
GEOMETRIC_REPRESENTATION_CONTEXT(3)
GLOBAL_UNCERTAINTY_ASSIGNED_CONTEXT((#905))
GLOBAL_UNIT_ASSIGNED_CONTEXT((#914,#911,#908))
REPRESENTATION_CONTEXT('Part 1','TOP_LEVEL_ASSEMBLY_PART')
);
#903=(
GEOMETRIC_REPRESENTATION_CONTEXT(3)
GLOBAL_UNCERTAINTY_ASSIGNED_CONTEXT((#906))
GLOBAL_UNIT_ASSIGNED_CONTEXT((#915,#912,#909))
REPRESENTATION_CONTEXT('Part 2','TOP_LEVEL_ASSEMBLY_PART')
);
#904=(
GEOMETRIC_REPRESENTATION_CONTEXT(3)
GLOBAL_UNCERTAINTY_ASSIGNED_CONTEXT((#907))
GLOBAL_UNIT_ASSIGNED_CONTEXT((#916,#913,#910))
REPRESENTATION_CONTEXT('Part 3','TOP_LEVEL_ASSEMBLY_PART')
);
#905=UNCERTAINTY_MEASURE_WITH_UNIT(LENGTH_MEASURE(1.E-8),#914,
'DISTANCE_ACCURACY_VALUE','Maximum Tolerance applied to model');
#906=UNCERTAINTY_MEASURE_WITH_UNIT(LENGTH_MEASURE(1.E-8),#915,
'DISTANCE_ACCURACY_VALUE','Maximum Tolerance applied to model');
#907=UNCERTAINTY_MEASURE_WITH_UNIT(LENGTH_MEASURE(1.E-8),#916,
'DISTANCE_ACCURACY_VALUE','Maximum Tolerance applied to model');
#908=(
NAMED_UNIT(*)
SI_UNIT($,.STERADIAN.)
SOLID_ANGLE_UNIT()
);
#909=(
NAMED_UNIT(*)
SI_UNIT($,.STERADIAN.)
SOLID_ANGLE_UNIT()
);
#910=(
NAMED_UNIT(*)
SI_UNIT($,.STERADIAN.)
SOLID_ANGLE_UNIT()
);
#911=(
NAMED_UNIT(*)
PLANE_ANGLE_UNIT()
SI_UNIT($,.RADIAN.)
);
#912=(
NAMED_UNIT(*)
PLANE_ANGLE_UNIT()
SI_UNIT($,.RADIAN.)
);
#913=(
NAMED_UNIT(*)
PLANE_ANGLE_UNIT()
SI_UNIT($,.RADIAN.)
);
#914=(
LENGTH_UNIT()
NAMED_UNIT(*)
SI_UNIT($,.METRE.)
);
#915=(
LENGTH_UNIT()
NAMED_UNIT(*)
SI_UNIT($,.METRE.)
);
#916=(
LENGTH_UNIT()
NAMED_UNIT(*)
SI_UNIT($,.METRE.)
);
#917=PRODUCT_DEFINITION_SHAPE('','',#920);
#918=PRODUCT_DEFINITION_SHAPE('','',#921);
#919=PRODUCT_DEFINITION_SHAPE('','',#922);
#920=PRODUCT_DEFINITION('','',#926,#923);
#921=PRODUCT_DEFINITION('','',#927,#924);
#922=PRODUCT_DEFINITION('','',#928,#925);
#923=PRODUCT_DEFINITION_CONTEXT('',#944,'design');
#924=PRODUCT_DEFINITION_CONTEXT('',#945,'design');
#925=PRODUCT_DEFINITION_CONTEXT('',#946,'design');
#926=PRODUCT_DEFINITION_FORMATION_WITH_SPECIFIED_SOURCE('','',#932,
 .NOT_KNOWN.);
#927=PRODUCT_DEFINITION_FORMATION_WITH_SPECIFIED_SOURCE('','',#933,
 .NOT_KNOWN.);
#928=PRODUCT_DEFINITION_FORMATION_WITH_SPECIFIED_SOURCE('','',#934,
 .NOT_KNOWN.);
#929=PRODUCT_RELATED_PRODUCT_CATEGORY('','',(#932));
#930=PRODUCT_RELATED_PRODUCT_CATEGORY('','',(#933));
#931=PRODUCT_RELATED_PRODUCT_CATEGORY('','',(#934));
#932=PRODUCT('Part 1','Part 1','Part 1',(#938));
#933=PRODUCT('Part 2','Part 2','Part 2',(#939));
#934=PRODUCT('Part 3','Part 3','Part 3',(#940));
#935=PRODUCT_CATEGORY('','');
#936=PRODUCT_CATEGORY('','');
#937=PRODUCT_CATEGORY('','');
#938=PRODUCT_CONTEXT('',#944,'mechanical');
#939=PRODUCT_CONTEXT('',#945,'mechanical');
#940=PRODUCT_CONTEXT('',#946,'mechanical');
#941=APPLICATION_PROTOCOL_DEFINITION('international standard',
'ap242_managed_model_based_3d_engineering',2020,#944);
#942=APPLICATION_PROTOCOL_DEFINITION('international standard',
'ap242_managed_model_based_3d_engineering',2020,#945);
#943=APPLICATION_PROTOCOL_DEFINITION('international standard',
'ap242_managed_model_based_3d_engineering',2020,#946);
#944=APPLICATION_CONTEXT('managed model based 3d engineering');
#945=APPLICATION_CONTEXT('managed model based 3d engineering');
#946=APPLICATION_CONTEXT('managed model based 3d engineering');
ENDSEC;
END-ISO-10303-21;
